<svg width="45" height="45" viewBox="0 0 45 45" fill="none" xmlns="http://www.w3.org/2000/svg">
<path fill-rule="evenodd" clip-rule="evenodd" d="M6.13993 1.06173C5.55097 0.487935 4.76216 0.170432 3.94338 0.177609C3.1246 0.184786 2.34137 0.516068 1.76238 1.1001C1.18339 1.68414 0.854975 2.4742 0.84786 3.30012C0.840745 4.12604 1.1555 4.92173 1.72434 5.51583L18.2532 22.1888L1.72434 38.8617C1.42608 39.1523 1.18818 39.4999 1.02452 39.8842C0.860863 40.2685 0.774717 40.6819 0.771114 41.1001C0.767511 41.5184 0.846522 41.9332 1.00354 42.3203C1.16055 42.7074 1.39243 43.0591 1.68563 43.3549C1.97884 43.6506 2.3275 43.8845 2.71128 44.0429C3.09506 44.2013 3.50626 44.281 3.9209 44.2774C4.33554 44.2737 4.74531 44.1868 5.1263 44.0217C5.50729 43.8567 5.85187 43.6167 6.13993 43.3158L22.6687 26.6429L39.1976 43.3158C39.7865 43.8896 40.5753 44.2071 41.3941 44.2C42.2129 44.1928 42.9961 43.8615 43.5751 43.2775C44.1541 42.6934 44.4825 41.9034 44.4896 41.0774C44.4967 40.2515 44.182 39.4558 43.6131 38.8617L27.0843 22.1888L43.6131 5.51583C44.182 4.92173 44.4967 4.12604 44.4896 3.30012C44.4825 2.4742 44.1541 1.68414 43.5751 1.1001C42.9961 0.516068 42.2129 0.184786 41.3941 0.177609C40.5753 0.170432 39.7865 0.487935 39.1976 1.06173L22.6687 17.7347L6.13993 1.06173Z" fill="#218879"/>
</svg>
