<svg width="30" height="30" viewBox="0 0 100 100" fill="none" xmlns="http://www.w3.org/2000/svg">
<path d="M50 12.5C29.3208 12.5 12.5 29.325 12.5 50C12.5 70.675 29.3208 87.5 50 87.5C70.6792 87.5 87.5 70.675 87.5 50C87.5 29.325 70.6792 12.5 50 12.5ZM50 79.1667C33.9208 79.1667 20.8333 66.0833 20.8333 50C20.8333 33.9167 33.9208 20.8333 50 20.8333C66.0792 20.8333 79.1667 33.9167 79.1667 50C79.1667 66.0833 66.0792 79.1667 50 79.1667ZM52.9458 50L63.9708 38.975C64.3614 38.5843 64.5808 38.0545 64.5808 37.5021C64.5808 36.9497 64.3614 36.4198 63.9708 36.0292C63.5801 35.6386 63.0503 35.4192 62.4979 35.4192C61.9455 35.4192 61.4157 35.6386 61.025 36.0292L50 47.0542L38.975 36.025C38.5821 35.6455 38.0558 35.4355 37.5096 35.4403C36.9633 35.445 36.4408 35.6641 36.0545 36.0504C35.6683 36.4366 35.4492 36.9592 35.4444 37.5054C35.4397 38.0517 35.6497 38.5779 36.0292 38.9708L47.0542 50L36.0292 61.025C35.638 61.4156 35.418 61.9457 35.4176 62.4985C35.4172 63.0514 35.6364 63.5817 36.0271 63.9729C36.4177 64.3641 36.9478 64.5841 37.5006 64.5845C38.0535 64.5849 38.5838 64.3656 38.975 63.975L50 52.9458L61.025 63.9708C61.2169 64.1701 61.4466 64.3291 61.7006 64.4386C61.9546 64.5481 62.2279 64.606 62.5045 64.6088C62.7811 64.6116 63.0555 64.5592 63.3117 64.4548C63.5678 64.3505 63.8007 64.1961 63.9965 64.0008C64.1924 63.8054 64.3474 63.5731 64.4525 63.3172C64.5577 63.0613 64.6108 62.7871 64.6088 62.5105C64.6068 62.2338 64.5497 61.9604 64.4409 61.7061C64.3321 61.4517 64.1737 61.2216 63.975 61.0292L52.9458 50Z" fill="#F51D2C"/>
</svg>
