<svg width="433" height="410" viewBox="0 0 433 410" fill="none" xmlns="http://www.w3.org/2000/svg">
<g clip-path="url(#clip0_310_334)">
<path opacity="0.18" d="M159.03 40.4058C141.596 57.0138 132.522 80.7828 115.645 97.9538C84.8334 129.289 31.4749 135.468 9.51794 173.572C-1.46398 192.542 -1.88953 216.345 4.71335 237.21C11.3162 258.075 24.4671 276.345 39.3682 292.396C65.8895 320.951 98.8628 343.683 135.46 357.023C152.825 363.353 171.289 367.61 189.683 366.168C211.414 364.472 231.771 355.018 253.207 351.064C275.816 346.944 299.269 349.004 321.782 344.308C344.295 339.612 367.391 325.503 372.127 302.997C375.072 288.991 370.398 274.161 373.569 260.231C379.115 235.865 405.512 222.985 420.022 202.635C427.54 192.04 431.77 179.465 432.185 166.48C432.597 152.68 428.197 138.269 418.094 128.87C410.454 121.771 400.365 118.084 390.694 114.191C346.066 96.2649 309.393 69.0219 270.4 41.6759C236.933 18.1885 191.852 9.1395 159.03 40.4058Z" fill="#CECDCD"/>
<path d="M221.105 257.835L228.182 379.79L239.61 380.668L265.658 254.271L276.688 382.282H288.116L308.274 259.736L265.658 235.624L221.105 257.835Z" fill="#25233A"/>
<path d="M370.501 99.986C370.501 99.986 372.683 95.1801 371.235 86.4469C369.787 77.7138 379.245 65.4998 379.245 65.4998C379.983 65.9066 380.58 66.5284 380.956 67.2826C381.333 68.0367 381.471 68.8876 381.352 69.7222L388.12 52.098C388.12 52.098 391.455 50.4845 394.778 59.8631C398.1 69.2416 395.512 77.4392 394.578 81.9499C393.02 89.5433 386.177 95.132 385.786 98.7021C385.392 101.517 384.798 104.3 384.008 107.03L370.501 99.986Z" fill="url(#paint0_linear_310_334)"/>
<path d="M265.452 72.3036C265.452 72.3036 235.251 72.2281 232.684 73.9308C230.117 75.6335 223.439 79.8215 219.142 90.6212C214.846 101.421 192.573 160.809 192.573 160.809C192.573 160.809 190.795 166.947 196.739 173.105C202.683 179.264 221.51 201.495 221.51 201.495L214.132 257.539C214.132 257.539 260.805 261.061 266.296 246.987C266.296 246.987 283.325 256.661 308.302 259.743L316.538 262.874L317.225 157.012C320.605 161.106 325.003 164.239 329.976 166.096C334.949 167.953 340.323 168.469 345.558 167.592C364.021 164.736 381.586 141.201 389.486 111.424L364.001 97.9675C364.001 97.9675 354.33 136.25 338.063 129.618C326.717 124.984 326.724 107.552 325.447 95.2899C325.11 92.0504 323.774 88.996 321.624 86.5494C319.475 84.1029 316.618 82.3852 313.45 81.634L291.863 76.5054L265.452 72.3036Z" fill="white"/>
<path d="M243.11 184.544L239.754 257.416C239.754 257.416 218.84 258.274 214.125 257.539L221.503 201.502L243.11 184.544Z" fill="#CECDCD"/>
<path d="M243.11 184.544L239.754 257.416C239.754 257.416 218.84 258.274 214.125 257.539L221.503 201.502L243.11 184.544Z" fill="url(#paint1_linear_310_334)"/>
<path d="M317.225 157.012L310.388 141.619L301.411 258.7L316.545 262.874L317.225 157.012Z" fill="#CECDCD"/>
<path d="M317.225 157.012L310.388 141.619L301.411 258.7L316.545 262.874L317.225 157.012Z" fill="url(#paint2_linear_310_334)"/>
<path d="M264.024 83.838C264.024 83.838 280.668 95.1801 289.941 87.1679L265.397 190.949L264.024 83.838Z" fill="#25233A"/>
<path d="M268.218 56.2654C268.218 56.2654 260.496 85.7878 265.987 92.2072C271.478 98.6266 288.637 99.1689 289.941 87.1678C291.245 75.1666 296.935 59.1215 296.935 59.1215L268.218 56.2654Z" fill="url(#paint3_linear_310_334)"/>
<path opacity="0.19" d="M267.38 63.4813C267.38 63.4813 273.949 79.9589 279.611 82.5747C285.274 85.1905 290.202 83.2613 290.916 80.9613C291.63 78.6613 294.588 66.3236 294.588 66.3236L267.38 63.4813Z" fill="url(#paint4_linear_310_334)"/>
<path d="M307.794 40.035C307.794 58.7714 297.237 73.9583 284.21 73.9583C271.183 73.9583 260.633 58.7508 260.633 40.035C260.633 21.3192 272.219 14.3849 285.24 14.3849C298.26 14.3849 307.794 21.2849 307.794 40.035Z" fill="url(#paint5_linear_310_334)"/>
<path d="M316.943 29.2697C316.058 34.3846 313.189 38.9571 309.819 42.9049C309.819 42.5685 309.764 42.2183 309.729 41.8888C309.386 38.1264 308.796 34.3365 307.169 30.9517C305.391 27.2443 302.193 24.0243 298.178 23.1661C295.501 22.5894 292.625 23.07 289.859 23.2141C287.594 23.324 285.404 23.2141 283.455 22.1019C282.56 21.4607 281.612 20.8979 280.62 20.4198C274.972 18.3601 271.183 28.4938 270.956 32.3729C270.695 36.8494 271.423 41.518 269.844 45.7267C268.472 45.1912 267.971 43.5503 267.456 42.1565C266.941 40.7628 265.863 39.2249 264.401 39.4583C264.04 39.5434 263.701 39.7043 263.406 39.9303C263.111 40.1564 262.868 40.4425 262.692 40.7697C261.546 42.6303 261.834 45.0538 262.637 47.0861C263.44 49.1183 264.697 50.9583 265.472 53.0043C266.097 54.693 266.379 56.4895 266.301 58.2884C266.223 60.0874 265.787 61.8528 265.019 63.4813C261.795 59.1311 259.502 54.1619 258.286 48.8849L254.854 51.8714C254.932 47.5552 255.007 43.2367 255.08 38.9159C255.266 28.8783 255.767 17.9482 262.301 10.341C267.312 4.49832 275.123 1.71086 282.782 1.01056C291.287 0.241602 300.257 1.90996 307.135 6.97682C314.012 12.0437 318.405 20.8455 316.943 29.2697Z" fill="#3F3D56"/>
<path d="M313.511 29.3108C310.972 37.8174 309.729 41.8887 309.729 41.8887C309.386 38.1263 308.796 34.3365 307.169 30.9517C305.392 27.2442 302.193 24.0242 298.178 23.166C295.501 22.5893 292.625 23.0699 289.859 23.2141C289.859 23.2141 300.155 17.7833 304.726 16.4102C309.297 15.0371 316.051 20.8111 313.511 29.3108Z" fill="#25233A"/>
<path opacity="0.19" d="M267.38 48.2257C267.38 48.2257 265.033 47.2714 265.767 45.4383C266.502 43.6051 265.843 42.6233 265.081 42.383C264.319 42.1427 262.088 44.0445 264.395 48.2257C266.701 52.4069 267.38 48.2257 267.38 48.2257Z" fill="url(#paint6_linear_310_334)"/>
<path d="M262.15 68.4863L255.287 70.8687C254.7 71.0733 254.177 71.4281 253.769 71.8979C253.362 72.3678 253.086 72.9361 252.967 73.5463L246.858 105.128L258.663 107.01L252.527 115.482L265.369 184.523L264.443 70.1066C264.437 69.8335 264.368 69.5654 264.24 69.324C264.112 69.0827 263.929 68.8748 263.706 68.7171C263.483 68.5595 263.226 68.4564 262.955 68.4163C262.685 68.3762 262.409 68.4002 262.15 68.4863ZM291.884 76.478L299.221 79.1556L301.411 111.424H290.916L295.398 120.514L265.397 190.949C265.397 190.949 288.322 100.776 291.884 76.478Z" fill="#CECDCD"/>
<path d="M262.15 68.4863L255.287 70.8687C254.7 71.0733 254.177 71.4281 253.769 71.8979C253.362 72.3678 253.086 72.9361 252.967 73.5463L246.858 105.128L258.663 107.01L252.527 115.482L265.369 184.523L264.443 70.1066C264.437 69.8335 264.368 69.5654 264.24 69.324C264.112 69.0827 263.929 68.8748 263.706 68.7171C263.483 68.5594 263.226 68.4564 262.955 68.4163C262.685 68.3762 262.409 68.4002 262.15 68.4863Z" fill="url(#paint7_linear_310_334)"/>
<path d="M291.884 76.478L299.221 79.1556L301.411 111.424H290.916L295.398 120.514L265.397 190.949C265.397 190.949 288.321 100.776 291.884 76.478Z" fill="url(#paint8_linear_310_334)"/>
<path d="M232.101 108.431L221.538 163.233L243.124 184.544L232.101 108.431Z" fill="#CECDCD"/>
<path d="M232.101 108.431L221.538 163.233L243.124 184.544L239.081 156.628L232.101 108.431Z" fill="url(#paint9_linear_310_334)"/>
<path d="M243.124 184.544L227.454 204.07L221.51 201.495L241.257 182.697L243.124 184.544Z" fill="#25233A"/>
<path d="M241.367 186.727C241.367 186.727 246.103 197.025 246.858 202.964L227.427 204.07L241.367 186.727Z" fill="url(#paint10_linear_310_334)"/>
<path d="M225.354 204.07L256.151 202.964C256.151 202.964 253.928 234.546 253.735 238.048C253.543 241.549 220.316 243.945 220.316 243.945L225.354 204.07ZM314.548 205.209L284.231 203.15C284.231 203.15 280.943 234.512 281.135 238.034C281.327 241.556 312.146 246.046 312.146 246.046L314.548 205.209Z" fill="white"/>
<path d="M225.354 204.07L256.151 202.964C256.151 202.964 253.928 234.546 253.735 238.048C253.543 241.549 220.316 243.945 220.316 243.945L225.354 204.07Z" fill="#CECDCD"/>
<path d="M225.354 204.07L256.151 202.964C256.151 202.964 253.928 234.546 253.735 238.048C253.543 241.549 220.316 243.945 220.316 243.945L225.354 204.07Z" fill="url(#paint11_linear_310_334)"/>
<path d="M314.548 205.209L284.231 203.15C284.231 203.15 280.943 234.512 281.135 238.034C281.327 241.556 312.145 246.046 312.145 246.046L314.548 205.209Z" fill="#CECDCD"/>
<path d="M314.548 205.209L284.231 203.15C284.231 203.15 280.943 234.512 281.135 238.034C281.327 241.556 312.145 246.046 312.145 246.046L314.548 205.209Z" fill="url(#paint12_linear_310_334)"/>
<path d="M366.286 99.1622L367.838 96.6837L388.738 108.431L389.513 111.417L366.286 99.1622Z" fill="#25233A"/>
<path d="M251.038 90.6281C250.75 71.3287 266.268 66.3237 266.268 66.3237" stroke="#4A4A4A" stroke-width="2.41794" stroke-miterlimit="10" stroke-linecap="round"/>
<path d="M237.118 116.381C235.656 83.6457 265.452 81.9362 262.761 116.381" stroke="#4A4A4A" stroke-width="2.41794" stroke-miterlimit="10" stroke-linecap="round"/>
<path d="M240.365 117.555C240.366 118.165 240.187 118.762 239.849 119.27C239.511 119.778 239.03 120.174 238.467 120.408C237.904 120.643 237.284 120.705 236.686 120.586C236.088 120.468 235.538 120.175 235.106 119.744C234.675 119.314 234.38 118.764 234.261 118.166C234.141 117.568 234.202 116.948 234.435 116.384C234.668 115.82 235.063 115.339 235.57 115C236.077 114.66 236.673 114.479 237.283 114.479C238.099 114.479 238.882 114.803 239.46 115.38C240.037 115.957 240.363 116.739 240.365 117.555Z" fill="url(#paint13_linear_310_334)"/>
<path d="M265.452 117.926C265.452 118.536 265.271 119.132 264.932 119.639C264.594 120.146 264.112 120.541 263.549 120.774C262.986 121.007 262.366 121.068 261.769 120.95C261.171 120.831 260.622 120.537 260.191 120.106C259.76 119.675 259.466 119.125 259.347 118.527C259.228 117.929 259.289 117.31 259.523 116.746C259.756 116.183 260.151 115.702 260.658 115.363C261.165 115.024 261.76 114.843 262.37 114.843C263.187 114.843 263.971 115.168 264.549 115.746C265.127 116.324 265.452 117.108 265.452 117.926Z" fill="url(#paint14_linear_310_334)"/>
<path d="M293.154 72.3037C293.154 72.3037 316.312 83.4467 302.797 125.073L296.935 137.383" stroke="#4A4A4A" stroke-width="2.41794" stroke-miterlimit="10" stroke-linecap="round"/>
<path d="M299.65 144.668C301.996 142.322 301.996 138.518 299.65 136.172C297.305 133.826 293.502 133.826 291.157 136.172C288.811 138.518 288.811 142.322 291.157 144.668C293.502 147.014 297.305 147.014 299.65 144.668Z" fill="url(#paint15_linear_310_334)"/>
<path d="M298.667 142.874C300.318 141.222 300.318 138.544 298.667 136.893C297.016 135.241 294.338 135.241 292.687 136.893C291.036 138.544 291.036 141.222 292.687 142.874C294.338 144.525 297.016 144.525 298.667 142.874Z" fill="url(#paint16_linear_310_334)"/>
<path d="M300.028 140.377C301.679 138.726 301.679 136.048 300.028 134.396C298.377 132.744 295.7 132.744 294.049 134.396C292.397 136.048 292.397 138.726 294.049 140.377C295.7 142.029 298.377 142.029 300.028 140.377Z" fill="url(#paint17_linear_310_334)"/>
<path d="M184.083 234.924H97.6891C97.1619 234.924 96.6398 234.82 96.153 234.617C95.6662 234.415 95.2241 234.118 94.8523 233.744C94.4804 233.37 94.1861 232.927 93.9862 232.439C93.7863 231.951 93.6848 231.428 93.6876 230.901C93.6876 229.839 94.1091 228.821 94.8596 228.07C95.61 227.32 96.6278 226.898 97.6891 226.898H184.083C185.144 226.898 186.162 227.32 186.912 228.07C187.662 228.821 188.084 229.839 188.084 230.901C188.087 231.428 187.985 231.951 187.785 232.439C187.586 232.927 187.291 233.37 186.919 233.744C186.548 234.118 186.105 234.415 185.619 234.617C185.132 234.82 184.61 234.924 184.083 234.924Z" fill="#CECDCD"/>
<path d="M141.527 230.901C141.528 231.427 141.425 231.947 141.225 232.433C141.024 232.92 140.729 233.361 140.357 233.733C139.986 234.105 139.544 234.4 139.058 234.6C138.572 234.801 138.052 234.904 137.526 234.903H0.821533V226.919H137.54C138.594 226.924 139.605 227.345 140.351 228.09C141.098 228.836 141.52 229.846 141.527 230.901Z" fill="#CECDCD"/>
<path d="M188.07 230.901C188.068 231.962 187.646 232.979 186.896 233.729C186.146 234.479 185.129 234.901 184.069 234.903H137.54C138.601 234.903 139.619 234.482 140.369 233.731C141.12 232.98 141.541 231.962 141.541 230.901C141.541 229.839 141.12 228.821 140.369 228.07C139.619 227.32 138.601 226.898 137.54 226.898H184.082C185.141 226.902 186.156 227.325 186.903 228.075C187.651 228.825 188.07 229.841 188.07 230.901Z" fill="url(#paint18_linear_310_334)"/>
<path d="M141.527 230.901C141.528 231.427 141.425 231.947 141.225 232.433C141.024 232.92 140.729 233.361 140.357 233.733C139.986 234.105 139.544 234.4 139.058 234.6C138.572 234.801 138.052 234.904 137.526 234.903H0.821533V226.919H137.54C138.594 226.924 139.605 227.345 140.351 228.09C141.098 228.836 141.52 229.846 141.527 230.901Z" fill="url(#paint19_linear_310_334)"/>
<path d="M97.689 234.924H182.648V330.034H97.689V234.924Z" fill="#CECDCD"/>
<path d="M97.689 234.924H182.648V330.034H97.689V234.924Z" fill="url(#paint20_linear_310_334)"/>
<path d="M0.828613 234.924H141.541V330.034H0.828613V234.924Z" fill="#CECDCD"/>
<path d="M229.5 385.069L229.795 379.79L239.61 380.668L238.306 388.584C238.306 388.584 233.453 396.061 229.5 385.069Z" fill="url(#paint21_linear_310_334)"/>
<path d="M287.12 389.367L286.75 382.282L276.688 382.186V391.07C276.688 391.07 283.167 400.359 287.12 389.367Z" fill="url(#paint22_linear_310_334)"/>
<path d="M229.5 385.069C229.5 385.069 210.967 394.207 208.785 397.53C207.348 399.958 206.294 402.594 205.662 405.344C205.662 405.344 216.994 405.543 224.029 403.195C231.064 400.847 239.61 398.306 239.61 398.306V386.188C239.61 386.188 239.466 384.774 237.413 386.388C235.361 388.001 233.295 389.511 231.476 388.447C229.657 387.383 230.598 384.994 229.5 385.069ZM287.601 387.829C287.601 387.829 303.82 397.915 305.721 401.382C306.977 403.911 307.838 406.618 308.274 409.408C308.274 409.408 296.956 408.783 290.113 405.934C283.27 403.085 274.923 399.927 274.923 399.927L275.802 387.843C275.802 387.843 276.049 386.47 277.978 388.193C279.907 389.916 283.469 391.983 285.384 391.07C287.299 390.157 286.509 387.671 287.601 387.829Z" fill="#CECDCD"/>
<path d="M229.5 385.069C229.5 385.069 210.967 394.208 208.785 397.53C207.348 399.958 206.294 402.594 205.662 405.344C205.662 405.344 216.994 405.543 224.029 403.195C231.064 400.847 239.61 398.306 239.61 398.306V386.188C239.61 386.188 239.466 384.774 237.413 386.387C235.361 388.001 233.295 389.511 231.476 388.447C229.657 387.383 230.598 384.994 229.5 385.069Z" fill="url(#paint23_linear_310_334)"/>
<path d="M287.601 387.829C287.601 387.829 303.82 397.915 305.721 401.382C306.977 403.911 307.839 406.618 308.274 409.408C308.274 409.408 296.956 408.783 290.113 405.934C283.27 403.085 274.924 399.926 274.924 399.926L275.802 387.843C275.802 387.843 276.049 386.47 277.978 388.193C279.907 389.916 283.469 391.983 285.384 391.07C287.299 390.157 286.51 387.671 287.601 387.829Z" fill="url(#paint24_linear_310_334)"/>
<path d="M142.097 226.781V226.912H66.8984C66.8984 226.912 77.8804 190.778 111.293 191.897C111.945 191.897 112.583 191.952 113.201 192C144.108 194.259 142.557 223.76 142.097 226.781Z" fill="#CECDCD"/>
<path d="M142.097 226.781H122.879L123.023 224.879C123.023 224.879 128.885 196.73 113.208 192.027C144.108 194.259 142.557 223.76 142.097 226.781Z" fill="#CECDCD"/>
<path d="M142.097 226.781V226.912H66.8984C66.8984 226.912 77.8804 190.778 111.293 191.897C111.945 191.897 112.583 191.952 113.201 192C144.108 194.259 142.557 223.76 142.097 226.781Z" fill="url(#paint25_linear_310_334)"/>
<path d="M142.097 226.781H122.879L123.023 224.879C123.023 224.879 128.885 196.73 113.208 192.027C144.108 194.259 142.557 223.76 142.097 226.781Z" fill="url(#paint26_linear_310_334)"/>
</g>
<defs>
<linearGradient id="paint0_linear_310_334" x1="374.797" y1="126.192" x2="388.896" y2="50.3487" gradientUnits="userSpaceOnUse">
<stop stop-color="#ECC4D7"/>
<stop offset="0.42" stop-color="#EFD4D1"/>
<stop offset="1" stop-color="#F2EAC9"/>
</linearGradient>
<linearGradient id="paint1_linear_310_334" x1="214.132" y1="221.193" x2="243.117" y2="221.193" gradientUnits="userSpaceOnUse">
<stop offset="0.01" stop-color="white" stop-opacity="0"/>
<stop offset="0.13" stop-color="white" stop-opacity="0.17"/>
<stop offset="0.37" stop-color="white" stop-opacity="0.46"/>
<stop offset="0.59" stop-color="white" stop-opacity="0.68"/>
<stop offset="0.77" stop-color="white" stop-opacity="0.85"/>
<stop offset="0.91" stop-color="white" stop-opacity="0.95"/>
<stop offset="1" stop-color="white" stop-opacity="0.99"/>
</linearGradient>
<linearGradient id="paint2_linear_310_334" x1="326.175" y1="202.635" x2="297.848" y2="201.777" gradientUnits="userSpaceOnUse">
<stop offset="0.01" stop-color="white" stop-opacity="0"/>
<stop offset="0.13" stop-color="white" stop-opacity="0.17"/>
<stop offset="0.37" stop-color="white" stop-opacity="0.46"/>
<stop offset="0.59" stop-color="white" stop-opacity="0.68"/>
<stop offset="0.77" stop-color="white" stop-opacity="0.85"/>
<stop offset="0.91" stop-color="white" stop-opacity="0.95"/>
<stop offset="1" stop-color="white" stop-opacity="0.99"/>
</linearGradient>
<linearGradient id="paint3_linear_310_334" x1="285.809" y1="79.1075" x2="335.06" y2="116.622" gradientUnits="userSpaceOnUse">
<stop stop-color="#ECC4D7"/>
<stop offset="0.42" stop-color="#EFD4D1"/>
<stop offset="1" stop-color="#F2EAC9"/>
</linearGradient>
<linearGradient id="paint4_linear_310_334" x1="310.793" y1="61.909" x2="258.873" y2="79.9634" gradientUnits="userSpaceOnUse">
<stop stop-color="#183866"/>
<stop offset="1" stop-color="#1A7FC1"/>
</linearGradient>
<linearGradient id="paint5_linear_310_334" x1="260.633" y1="44.1476" x2="307.794" y2="44.1476" gradientUnits="userSpaceOnUse">
<stop stop-color="#ECC4D7"/>
<stop offset="0.42" stop-color="#EFD4D1"/>
<stop offset="1" stop-color="#F2EAC9"/>
</linearGradient>
<linearGradient id="paint6_linear_310_334" x1="268.897" y1="45.0744" x2="262.157" y2="47.4212" gradientUnits="userSpaceOnUse">
<stop stop-color="#183866"/>
<stop offset="1" stop-color="#1A7FC1"/>
</linearGradient>
<linearGradient id="paint7_linear_310_334" x1="233.81" y1="132.344" x2="282.77" y2="122.813" gradientUnits="userSpaceOnUse">
<stop offset="0.01" stop-color="white" stop-opacity="0"/>
<stop offset="0.13" stop-color="white" stop-opacity="0.17"/>
<stop offset="0.37" stop-color="white" stop-opacity="0.46"/>
<stop offset="0.59" stop-color="white" stop-opacity="0.68"/>
<stop offset="0.77" stop-color="white" stop-opacity="0.85"/>
<stop offset="0.91" stop-color="white" stop-opacity="0.95"/>
<stop offset="1" stop-color="white" stop-opacity="0.99"/>
</linearGradient>
<linearGradient id="paint8_linear_310_334" x1="305.405" y1="147.565" x2="262.11" y2="124.122" gradientUnits="userSpaceOnUse">
<stop offset="0.01" stop-color="white" stop-opacity="0"/>
<stop offset="0.13" stop-color="white" stop-opacity="0.17"/>
<stop offset="0.37" stop-color="white" stop-opacity="0.46"/>
<stop offset="0.59" stop-color="white" stop-opacity="0.68"/>
<stop offset="0.77" stop-color="white" stop-opacity="0.85"/>
<stop offset="0.91" stop-color="white" stop-opacity="0.95"/>
<stop offset="1" stop-color="white" stop-opacity="0.99"/>
</linearGradient>
<linearGradient id="paint9_linear_310_334" x1="219.582" y1="148.066" x2="237.352" y2="146.509" gradientUnits="userSpaceOnUse">
<stop offset="0.01" stop-color="white" stop-opacity="0"/>
<stop offset="0.13" stop-color="white" stop-opacity="0.17"/>
<stop offset="0.37" stop-color="white" stop-opacity="0.46"/>
<stop offset="0.59" stop-color="white" stop-opacity="0.68"/>
<stop offset="0.77" stop-color="white" stop-opacity="0.85"/>
<stop offset="0.91" stop-color="white" stop-opacity="0.95"/>
<stop offset="1" stop-color="white" stop-opacity="0.99"/>
</linearGradient>
<linearGradient id="paint10_linear_310_334" x1="235.409" y1="212.988" x2="240.436" y2="185.965" gradientUnits="userSpaceOnUse">
<stop stop-color="#ECC4D7"/>
<stop offset="0.42" stop-color="#EFD4D1"/>
<stop offset="1" stop-color="#F2EAC9"/>
</linearGradient>
<linearGradient id="paint11_linear_310_334" x1="239.521" y1="182.875" x2="237.824" y2="236.153" gradientUnits="userSpaceOnUse">
<stop offset="0.01" stop-color="white" stop-opacity="0"/>
<stop offset="0.13" stop-color="white" stop-opacity="0.17"/>
<stop offset="0.37" stop-color="white" stop-opacity="0.46"/>
<stop offset="0.59" stop-color="white" stop-opacity="0.68"/>
<stop offset="0.77" stop-color="white" stop-opacity="0.85"/>
<stop offset="0.91" stop-color="white" stop-opacity="0.95"/>
<stop offset="1" stop-color="white" stop-opacity="0.99"/>
</linearGradient>
<linearGradient id="paint12_linear_310_334" x1="300.457" y1="173.208" x2="296.487" y2="245.758" gradientUnits="userSpaceOnUse">
<stop offset="0.01" stop-color="white" stop-opacity="0"/>
<stop offset="0.13" stop-color="white" stop-opacity="0.17"/>
<stop offset="0.37" stop-color="white" stop-opacity="0.46"/>
<stop offset="0.59" stop-color="white" stop-opacity="0.68"/>
<stop offset="0.77" stop-color="white" stop-opacity="0.85"/>
<stop offset="0.91" stop-color="white" stop-opacity="0.95"/>
<stop offset="1" stop-color="white" stop-opacity="0.99"/>
</linearGradient>
<linearGradient id="paint13_linear_310_334" x1="234.187" y1="117.555" x2="240.344" y2="117.555" gradientUnits="userSpaceOnUse">
<stop stop-color="#68E1FD"/>
<stop offset="0.2" stop-color="#5DB4CF"/>
<stop offset="0.46" stop-color="#50819B"/>
<stop offset="0.69" stop-color="#475C76"/>
<stop offset="0.87" stop-color="#41455E"/>
<stop offset="0.99" stop-color="#3F3D56"/>
</linearGradient>
<linearGradient id="paint14_linear_310_334" x1="259.295" y1="117.926" x2="265.452" y2="117.926" gradientUnits="userSpaceOnUse">
<stop stop-color="#68E1FD"/>
<stop offset="0.2" stop-color="#5DB4CF"/>
<stop offset="0.46" stop-color="#50819B"/>
<stop offset="0.69" stop-color="#475C76"/>
<stop offset="0.87" stop-color="#41455E"/>
<stop offset="0.99" stop-color="#3F3D56"/>
</linearGradient>
<linearGradient id="paint15_linear_310_334" x1="289.4" y1="140.415" x2="301.419" y2="140.415" gradientUnits="userSpaceOnUse">
<stop stop-color="#68E1FD"/>
<stop offset="0.2" stop-color="#5DB4CF"/>
<stop offset="0.46" stop-color="#50819B"/>
<stop offset="0.69" stop-color="#475C76"/>
<stop offset="0.87" stop-color="#41455E"/>
<stop offset="0.99" stop-color="#3F3D56"/>
</linearGradient>
<linearGradient id="paint16_linear_310_334" x1="294.027" y1="139.882" x2="302.49" y2="139.882" gradientUnits="userSpaceOnUse">
<stop stop-color="#68E1FD"/>
<stop offset="0.2" stop-color="#5DB4CF"/>
<stop offset="0.46" stop-color="#50819B"/>
<stop offset="0.69" stop-color="#475C76"/>
<stop offset="0.87" stop-color="#41455E"/>
<stop offset="0.99" stop-color="#3F3D56"/>
</linearGradient>
<linearGradient id="paint17_linear_310_334" x1="301.962" y1="128.362" x2="290.92" y2="148.586" gradientUnits="userSpaceOnUse">
<stop stop-color="#68E1FD"/>
<stop offset="0.2" stop-color="#5DB4CF"/>
<stop offset="0.46" stop-color="#50819B"/>
<stop offset="0.69" stop-color="#475C76"/>
<stop offset="0.87" stop-color="#41455E"/>
<stop offset="0.99" stop-color="#3F3D56"/>
</linearGradient>
<linearGradient id="paint18_linear_310_334" x1="161.933" y1="223.335" x2="166.905" y2="277.367" gradientUnits="userSpaceOnUse">
<stop stop-opacity="0"/>
<stop offset="0.99"/>
</linearGradient>
<linearGradient id="paint19_linear_310_334" x1="71.9638" y1="204.681" x2="67.4999" y2="343.607" gradientUnits="userSpaceOnUse">
<stop stop-opacity="0"/>
<stop offset="0.99"/>
</linearGradient>
<linearGradient id="paint20_linear_310_334" x1="110.84" y1="282.887" x2="368.359" y2="279.285" gradientUnits="userSpaceOnUse">
<stop stop-opacity="0"/>
<stop offset="0.99"/>
</linearGradient>
<linearGradient id="paint21_linear_310_334" x1="229.5" y1="385.426" x2="239.61" y2="385.426" gradientUnits="userSpaceOnUse">
<stop stop-color="#ECC4D7"/>
<stop offset="0.42" stop-color="#EFD4D1"/>
<stop offset="1" stop-color="#F2EAC9"/>
</linearGradient>
<linearGradient id="paint22_linear_310_334" x1="287.127" y1="388.461" x2="276.688" y2="388.461" gradientUnits="userSpaceOnUse">
<stop stop-color="#ECC4D7"/>
<stop offset="0.42" stop-color="#EFD4D1"/>
<stop offset="1" stop-color="#F2EAC9"/>
</linearGradient>
<linearGradient id="paint23_linear_310_334" x1="205.662" y1="395.21" x2="239.61" y2="395.21" gradientUnits="userSpaceOnUse">
<stop stop-opacity="0"/>
<stop offset="0.99"/>
</linearGradient>
<linearGradient id="paint24_linear_310_334" x1="274.924" y1="398.361" x2="308.274" y2="398.361" gradientUnits="userSpaceOnUse">
<stop stop-opacity="0"/>
<stop offset="0.99"/>
</linearGradient>
<linearGradient id="paint25_linear_310_334" x1="102.192" y1="194.238" x2="109.148" y2="282.468" gradientUnits="userSpaceOnUse">
<stop stop-opacity="0"/>
<stop offset="0.99"/>
</linearGradient>
<linearGradient id="paint26_linear_310_334" x1="151.411" y1="184.441" x2="-2.88998" y2="346.516" gradientUnits="userSpaceOnUse">
<stop stop-opacity="0"/>
<stop offset="0.99"/>
</linearGradient>
<clipPath id="clip0_310_334">
<rect width="431.899" height="408.576" fill="white" transform="translate(0.395996 0.832031)"/>
</clipPath>
</defs>
</svg>
