<svg width="512" height="512" viewBox="0 0 512 512" fill="none" xmlns="http://www.w3.org/2000/svg">
<path d="M239 398.996H193.52C192.724 398.996 191.961 398.68 191.399 398.117C190.836 397.555 190.52 396.792 190.52 395.996C190.52 395.2 190.836 394.437 191.399 393.875C191.961 393.312 192.724 392.996 193.52 392.996H239C239.796 392.996 240.559 393.312 241.121 393.875C241.684 394.437 242 395.2 242 395.996C242 396.792 241.684 397.555 241.121 398.117C240.559 398.68 239.796 398.996 239 398.996ZM115.157 320.285H115.151C115.085 320.284 115.02 320.271 114.96 320.245C114.9 320.219 114.845 320.181 114.799 320.134C114.753 320.087 114.717 320.032 114.693 319.971C114.668 319.91 114.656 319.845 114.657 319.779L115.376 263.153C115.374 262.642 115.169 262.152 114.807 261.791C114.445 261.43 113.954 261.227 113.443 261.227H99.786C99.2738 261.228 98.7829 261.432 98.4207 261.794C98.0586 262.156 97.8548 262.647 97.854 263.159V264.259C97.8527 265.037 97.5431 265.782 96.9931 266.332C96.4431 266.881 95.6976 267.19 94.92 267.191H36.056C35.5433 267.191 35.0517 267.395 34.6891 267.757C34.3265 268.12 34.1225 268.611 34.122 269.124V273.912C34.122 274.045 34.0693 274.172 33.9756 274.266C33.8818 274.359 33.7546 274.412 33.622 274.412C33.4894 274.412 33.3622 274.359 33.2684 274.266C33.1747 274.172 33.122 274.045 33.122 273.912V269.124C33.1231 268.346 33.4325 267.601 33.9826 267.051C34.5326 266.501 35.2783 266.192 36.056 266.191H94.92C95.4325 266.191 95.924 265.987 96.2865 265.625C96.6491 265.263 96.8532 264.772 96.854 264.259V263.159C96.8551 262.382 97.1643 261.637 97.7139 261.087C98.2636 260.537 99.0087 260.228 99.786 260.227H113.443C114.22 260.228 114.966 260.537 115.516 261.087C116.066 261.636 116.375 262.382 116.376 263.159L115.657 319.792C115.655 319.923 115.602 320.049 115.508 320.141C115.415 320.233 115.288 320.285 115.157 320.285Z" fill="#242855"/>
<path d="M41.048 321.946H112.724C113.096 321.946 113.463 321.861 113.797 321.696C114.131 321.532 114.423 321.294 114.65 320.999C114.877 320.705 115.034 320.362 115.108 319.997C115.182 319.633 115.171 319.256 115.077 318.896L103.687 275.415C103.551 274.895 103.246 274.434 102.82 274.105C102.394 273.776 101.871 273.598 101.333 273.598H27.095C26.7119 273.598 26.3342 273.689 25.9928 273.862C25.6513 274.036 25.3557 274.288 25.1299 274.598C24.9042 274.907 24.7548 275.266 24.6938 275.644C24.6328 276.022 24.662 276.409 24.779 276.774L38.731 320.256C38.8884 320.747 39.1976 321.175 39.614 321.479C40.0305 321.782 40.5326 321.946 41.048 321.946Z" fill="#CECDCD"/>
<path d="M394.912 292.776C394.725 292.776 394.538 292.759 394.354 292.726C389.234 291.789 388.624 278.151 388.57 276.599C388.861 272.903 388.392 269.186 387.193 265.678C381.398 266.851 376.393 265.764 372.309 262.444C359.909 252.369 360.039 225.462 360.051 224.321C360.052 224.189 360.106 224.063 360.199 223.971C360.293 223.878 360.419 223.826 360.551 223.826H360.556C360.622 223.827 360.687 223.84 360.747 223.866C360.807 223.892 360.862 223.929 360.908 223.976C360.954 224.023 360.99 224.078 361.015 224.139C361.039 224.2 361.052 224.265 361.051 224.331C361.048 224.605 360.913 251.899 372.941 261.669C376.876 264.867 381.746 265.856 387.405 264.611C387.52 264.585 387.641 264.601 387.745 264.656C387.85 264.711 387.931 264.802 387.975 264.911C389.356 268.654 389.9 272.654 389.568 276.629C389.706 280.559 390.864 291.071 394.534 291.742C396.992 292.179 401.654 288.518 410.017 268.508C410.073 268.394 410.171 268.305 410.29 268.26C410.409 268.215 410.541 268.217 410.659 268.267C410.776 268.316 410.871 268.408 410.923 268.524C410.975 268.641 410.98 268.773 410.938 268.893C404.232 284.944 398.979 292.776 394.912 292.776Z" fill="#242855"/>
<path d="M374.889 248.522C374.232 248.536 373.585 248.355 373.031 248.002C372.596 247.673 372.232 247.26 371.961 246.787C371.69 246.314 371.517 245.791 371.453 245.25C371.228 243.96 371.367 242.633 371.854 241.418C372.01 240.909 372.18 240.35 372.332 239.687C372.782 237.732 373.34 235.301 372.359 232.988C372.027 232.151 371.519 231.395 370.869 230.773C370.219 230.15 369.442 229.675 368.591 229.38C367.382 229.04 366.094 229.103 364.924 229.56C364.862 229.587 364.795 229.602 364.728 229.603C364.66 229.604 364.593 229.591 364.531 229.565C364.468 229.539 364.411 229.501 364.364 229.453C364.317 229.405 364.28 229.347 364.255 229.284C364.231 229.221 364.219 229.154 364.221 229.086C364.224 229.019 364.24 228.952 364.268 228.891C364.297 228.83 364.338 228.775 364.388 228.73C364.439 228.685 364.498 228.651 364.562 228.629C365.938 228.09 367.453 228.017 368.874 228.421C369.866 228.757 370.773 229.304 371.533 230.024C372.293 230.745 372.888 231.621 373.277 232.593C374.387 235.209 373.763 237.926 373.307 239.91C373.148 240.599 372.973 241.18 372.812 241.709C372.379 242.767 372.248 243.925 372.434 245.053C372.476 245.463 372.599 245.861 372.796 246.224C372.993 246.587 373.259 246.907 373.58 247.166C373.936 247.356 374.326 247.473 374.728 247.511C375.129 247.55 375.535 247.508 375.92 247.389C377.035 247.108 378.004 246.418 378.633 245.455C378.709 245.349 378.823 245.277 378.951 245.255C379.079 245.232 379.211 245.26 379.319 245.333C379.427 245.406 379.502 245.518 379.529 245.645C379.555 245.772 379.531 245.905 379.461 246.015C378.963 246.776 378.286 247.403 377.488 247.84C376.691 248.278 375.798 248.511 374.889 248.522ZM376.518 230.586C376.428 230.586 376.34 230.562 376.263 230.516C376.186 230.471 376.122 230.405 376.079 230.327C376.036 230.248 376.015 230.159 376.018 230.069C376.021 229.98 376.048 229.893 376.096 229.817C379.444 224.57 387.174 227.545 387.502 227.675C387.623 227.726 387.719 227.821 387.77 227.942C387.821 228.062 387.822 228.198 387.774 228.32C387.726 228.442 387.632 228.54 387.513 228.593C387.393 228.646 387.258 228.651 387.135 228.605C387.063 228.576 379.843 225.807 376.939 230.355C376.894 230.426 376.831 230.484 376.758 230.524C376.684 230.564 376.602 230.586 376.518 230.586Z" fill="#242855"/>
<path d="M381.384 240.059C382.422 239.909 383.066 238.429 382.824 236.754C382.581 235.078 381.543 233.842 380.506 233.992C379.469 234.142 378.824 235.622 379.067 237.298C379.309 238.973 380.347 240.209 381.384 240.059Z" fill="#242855"/>
<path d="M367.573 242.058C368.611 241.908 369.255 240.428 369.012 238.753C368.77 237.078 367.732 235.841 366.695 235.992C365.657 236.142 365.013 237.622 365.256 239.297C365.498 240.972 366.536 242.209 367.573 242.058Z" fill="#242855"/>
<path d="M380.506 253.533C380.377 253.533 380.254 253.483 380.161 253.394C380.068 253.304 380.014 253.183 380.008 253.055C380.003 252.926 380.047 252.8 380.131 252.704C380.216 252.607 380.335 252.547 380.463 252.535C383.251 252.29 385.093 251.446 385.938 250.026C386.25 249.393 386.424 248.701 386.448 247.995C386.473 247.29 386.348 246.587 386.081 245.934C386.028 245.812 386.026 245.675 386.075 245.551C386.124 245.428 386.22 245.329 386.341 245.277C386.463 245.224 386.601 245.222 386.724 245.271C386.848 245.319 386.946 245.415 386.999 245.537C387.33 246.335 387.484 247.196 387.449 248.06C387.414 248.923 387.192 249.769 386.798 250.538C385.778 252.25 383.677 253.257 380.551 253.531C380.536 253.532 380.521 253.533 380.506 253.533ZM387.513 264.661C392.989 263.979 397.982 261.186 401.428 256.877C399.784 264.377 395.394 270.992 389.121 275.42C389.35 271.76 388.802 268.094 387.513 264.661Z" fill="#242855"/>
<path d="M376.614 340.722C376.486 340.722 376.363 340.672 376.27 340.584C374.138 338.559 371.566 337.054 368.756 336.187L367.768 335.883C367.663 335.851 367.572 335.785 367.508 335.696C367.444 335.606 367.412 335.499 367.415 335.389L368.29 309.131L362.12 305.391C362.012 305.326 361.932 305.222 361.897 305.1C361.863 304.978 361.875 304.848 361.933 304.735C368.239 292.358 377.297 281.591 388.413 273.261C388.466 273.222 388.525 273.193 388.589 273.177C388.653 273.16 388.719 273.157 388.784 273.166C388.849 273.175 388.911 273.197 388.968 273.231C389.024 273.264 389.074 273.308 389.113 273.361C389.152 273.413 389.181 273.473 389.197 273.537C389.214 273.6 389.217 273.667 389.208 273.732C389.199 273.797 389.177 273.859 389.143 273.916C389.11 273.972 389.066 274.022 389.013 274.061C378.145 282.206 369.264 292.708 363.036 304.777L369.059 308.427C369.135 308.473 369.197 308.538 369.239 308.616C369.281 308.694 369.302 308.782 369.299 308.871L368.428 335.04L369.05 335.231C371.94 336.123 374.59 337.656 376.805 339.715C379.977 339.599 417.737 338.215 421.896 337.937C422.004 337.932 422.11 337.899 422.202 337.842C422.294 337.785 422.37 337.706 422.423 337.611C424.093 335.056 420.046 322.291 418.346 317.588C418.319 317.512 418.31 317.432 418.321 317.352C418.331 317.272 418.361 317.197 418.407 317.131C418.453 317.065 418.514 317.011 418.585 316.974C418.657 316.937 418.736 316.918 418.816 316.918C421.061 316.918 426.975 314.946 435.921 311.215C440.175 309.441 444.567 307.609 448.487 305.715C439.824 289.872 426.47 277.098 410.257 269.148C410.138 269.089 410.047 268.986 410.004 268.861C409.961 268.735 409.97 268.598 410.029 268.478C410.087 268.359 410.19 268.268 410.316 268.226C410.441 268.183 410.579 268.191 410.698 268.25C427.257 276.371 440.864 289.463 449.616 305.697C449.648 305.756 449.668 305.821 449.674 305.889C449.681 305.956 449.673 306.024 449.653 306.088C449.632 306.152 449.599 306.212 449.555 306.263C449.511 306.314 449.457 306.355 449.396 306.385C445.334 308.373 440.744 310.287 436.306 312.139C427.896 315.645 422.256 317.571 419.511 317.875C420.725 321.321 425.335 334.983 423.26 338.158C423.122 338.382 422.933 338.57 422.707 338.706C422.481 338.841 422.226 338.92 421.963 338.936C417.628 339.225 377.042 340.706 376.633 340.722H376.614Z" fill="#242855"/>
<path d="M410.478 297.766L418.457 318.006L423.943 316.757L410.478 297.766ZM369.28 309.083L370.18 297L366.309 307.526L369.28 309.083Z" fill="#242855"/>
<path d="M330.469 385.138C329.944 385.139 329.422 385.073 328.914 384.94C327.017 384.44 325.511 383.005 324.431 380.669C323.126 381.484 319.611 383.379 316.749 382.137C314.772 381.278 313.552 379.126 313.12 375.74C312.716 372.265 313.235 368.745 314.624 365.534C316.433 360.975 318.922 356.716 322.006 352.902C318.062 355.024 311.261 358.895 307.917 362.042C304.99 364.796 302.005 364.862 300.343 363.707C298.848 362.667 297.81 360.233 299.377 356.52C302.021 350.257 316.711 338.509 321.267 336.277C319.611 334.867 315.408 330.953 314.673 327.03C314.051 323.713 314.512 321.194 315.971 319.941C317.209 318.876 319.056 318.763 321.46 319.606C324.295 320.779 326.975 322.296 329.44 324.123C332.592 326.251 335.85 328.451 339.052 329.075C342.865 329.819 346.752 330.275 349.592 330.606C351.265 330.803 352.587 330.957 353.493 331.117C358.707 332.038 371.429 334.733 376.954 339.854C377.051 339.944 377.109 340.069 377.114 340.202C377.119 340.334 377.071 340.464 376.981 340.561C376.891 340.658 376.766 340.716 376.633 340.721C376.501 340.726 376.371 340.678 376.274 340.588C370.944 335.648 358.445 333.008 353.319 332.101C352.441 331.947 351.067 331.786 349.476 331.599C346.621 331.265 342.712 330.809 338.86 330.057C335.459 329.393 332.115 327.136 328.88 324.952C326.485 323.176 323.882 321.698 321.13 320.55C319.085 319.834 317.57 319.885 316.622 320.7C315.462 321.696 315.109 323.936 315.655 326.847C316.486 331.274 322.482 335.985 322.543 336.032C322.617 336.09 322.673 336.167 322.705 336.256C322.738 336.344 322.744 336.439 322.724 336.531C322.705 336.623 322.659 336.708 322.594 336.775C322.528 336.842 322.445 336.89 322.354 336.912C319.591 337.585 303.034 350.431 300.299 356.909C299.182 359.555 299.417 361.845 300.913 362.886C302.244 363.81 304.713 363.686 307.231 361.313C312.191 356.646 324.071 350.682 324.574 350.43C324.684 350.376 324.81 350.364 324.928 350.397C325.046 350.43 325.148 350.505 325.215 350.608C325.281 350.711 325.307 350.835 325.288 350.956C325.27 351.077 325.207 351.187 325.112 351.265C320.636 354.884 317.197 362.002 315.546 365.923C314.225 368.971 313.73 372.313 314.112 375.613C314.496 378.623 315.517 380.51 317.144 381.218C320.139 382.519 324.317 379.547 324.359 379.518C324.42 379.474 324.491 379.444 324.565 379.431C324.64 379.418 324.716 379.422 324.789 379.442C324.861 379.463 324.928 379.5 324.985 379.55C325.041 379.601 325.085 379.663 325.114 379.733C326.08 382.091 327.444 383.517 329.165 383.973C332.295 384.8 335.695 382.184 335.728 382.157C335.826 382.081 335.949 382.044 336.073 382.053C336.197 382.062 336.313 382.116 336.399 382.206C336.723 382.618 337.143 382.945 337.622 383.156C338.102 383.367 338.626 383.457 339.149 383.418C342.249 383.034 345.453 377.353 347.367 373.958C347.879 372.989 348.448 372.051 349.071 371.15C350.274 369.602 352.511 370.87 355.603 372.618C359.017 374.548 363.249 376.948 367.898 376.796L369.495 376.746C429.838 374.87 466.327 370.823 469.607 365.643C474.933 357.237 446.855 307.676 446.571 307.176C446.539 307.119 446.518 307.056 446.509 306.991C446.501 306.925 446.506 306.859 446.523 306.796C446.541 306.733 446.571 306.673 446.611 306.621C446.651 306.569 446.701 306.526 446.759 306.493C446.816 306.461 446.879 306.44 446.944 306.432C447.009 306.424 447.075 306.428 447.139 306.446C447.202 306.463 447.261 306.493 447.313 306.533C447.365 306.574 447.409 306.624 447.441 306.681C448.613 308.743 476.096 357.269 470.453 366.179C465.713 373.66 405.185 376.637 369.526 377.745L367.932 377.795C363.002 377.952 358.448 375.375 355.112 373.489C352.655 372.1 350.533 370.899 349.86 371.764C349.27 372.628 348.728 373.525 348.238 374.45C346.101 378.24 342.872 383.965 339.271 384.41C338.668 384.471 338.059 384.394 337.49 384.186C336.921 383.977 336.407 383.641 335.987 383.204C334.369 384.359 332.455 385.03 330.469 385.138Z" fill="#242855"/>
<path d="M336.037 383.05C335.938 383.05 335.841 383.021 335.758 382.966C335.676 382.911 335.611 382.832 335.574 382.74C333.6 377.879 343.657 362.632 344.086 361.985C344.122 361.93 344.169 361.883 344.224 361.846C344.278 361.81 344.339 361.784 344.404 361.771C344.468 361.758 344.534 361.758 344.599 361.77C344.663 361.783 344.725 361.808 344.78 361.844C344.834 361.881 344.881 361.928 344.918 361.982C344.955 362.037 344.98 362.098 344.993 362.162C345.006 362.227 345.007 362.293 344.994 362.357C344.982 362.422 344.956 362.483 344.92 362.538C342.078 366.821 335.025 378.732 336.5 382.362C336.531 382.438 336.543 382.52 336.534 382.602C336.526 382.683 336.498 382.762 336.452 382.83C336.406 382.898 336.345 382.954 336.272 382.992C336.2 383.031 336.119 383.051 336.037 383.051V383.05ZM324.652 380.423L324.609 380.421C324.477 380.41 324.355 380.347 324.269 380.245C324.184 380.144 324.142 380.013 324.153 379.881C325.031 369.348 334.984 356.234 335.407 355.681C335.488 355.576 335.607 355.506 335.738 355.489C335.87 355.471 336.003 355.507 336.109 355.587C336.214 355.668 336.283 355.787 336.301 355.919C336.318 356.05 336.283 356.184 336.202 356.289C336.1 356.423 326.002 369.725 325.149 379.965C325.138 380.09 325.082 380.206 324.99 380.291C324.898 380.375 324.777 380.423 324.652 380.423ZM351.488 331.837C351.399 331.837 351.311 331.813 351.234 331.768C351.157 331.723 351.093 331.658 351.05 331.58C351.007 331.502 350.985 331.413 350.987 331.324C350.989 331.235 351.016 331.148 351.063 331.072L365.885 307.261C365.955 307.148 366.067 307.068 366.197 307.038C366.326 307.008 366.462 307.03 366.575 307.1C366.687 307.171 366.767 307.283 366.798 307.412C366.828 307.541 366.805 307.677 366.735 307.79L351.913 331.602C351.868 331.674 351.805 331.733 351.731 331.775C351.657 331.816 351.573 331.837 351.488 331.837ZM467.111 388.438C467.002 388.438 466.895 388.402 466.808 388.336C466.721 388.269 466.658 388.176 466.629 388.071L461.563 369.689C461.546 369.626 461.541 369.559 461.549 369.494C461.557 369.429 461.578 369.366 461.611 369.309C461.643 369.252 461.686 369.202 461.738 369.161C461.79 369.121 461.85 369.091 461.913 369.074C462.041 369.04 462.177 369.058 462.292 369.124C462.407 369.189 462.492 369.297 462.528 369.424L467.594 387.806C467.611 387.869 467.616 387.936 467.608 388.001C467.6 388.066 467.579 388.129 467.547 388.186C467.514 388.243 467.471 388.293 467.419 388.334C467.367 388.374 467.307 388.404 467.244 388.421C467.201 388.432 467.156 388.438 467.111 388.438ZM367.915 388.438C367.782 388.438 367.655 388.385 367.561 388.292C367.468 388.198 367.415 388.071 367.415 387.938V377.296C367.415 377.163 367.468 377.036 367.561 376.942C367.655 376.849 367.782 376.796 367.915 376.796C368.048 376.796 368.175 376.849 368.269 376.942C368.362 377.036 368.415 377.163 368.415 377.296V387.938C368.415 388.071 368.362 388.198 368.269 388.292C368.175 388.385 368.048 388.438 367.915 388.438Z" fill="#242855"/>
<path d="M477.426 388.438H151.638C151.505 388.438 151.378 388.385 151.284 388.292C151.191 388.198 151.138 388.071 151.138 387.938C151.138 387.805 151.191 387.678 151.284 387.584C151.378 387.491 151.505 387.438 151.638 387.438H477.426C477.559 387.438 477.686 387.491 477.78 387.584C477.873 387.678 477.926 387.805 477.926 387.938C477.926 388.071 477.873 388.198 477.78 388.292C477.686 388.385 477.559 388.438 477.426 388.438Z" fill="#242855"/>
<path d="M175.013 374.863H282.679L266.461 297.016H159.471C159.23 297.016 158.992 297.07 158.774 297.173C158.556 297.277 158.364 297.428 158.212 297.615C158.06 297.802 157.952 298.02 157.895 298.255C157.838 298.489 157.834 298.733 157.883 298.969L173.425 373.572C173.501 373.937 173.7 374.264 173.99 374.5C174.279 374.735 174.64 374.863 175.013 374.863Z" fill="#4A4A4A"/>
<path d="M273.038 298.307L288.581 372.91C288.63 373.146 288.626 373.39 288.569 373.624C288.512 373.859 288.404 374.077 288.252 374.264C288.1 374.451 287.908 374.602 287.69 374.706C287.472 374.809 287.234 374.863 286.993 374.863H282.679L266.461 297.016H271.451C271.824 297.016 272.185 297.145 272.474 297.38C272.763 297.615 272.962 297.942 273.038 298.307Z" fill="#242855"/>
<path d="M188.689 398.996H214.434L230.652 352.288H203.78C203.443 352.288 203.114 352.393 202.84 352.588C202.565 352.784 202.359 353.06 202.248 353.378L187.156 396.842C187.071 397.086 187.046 397.347 187.083 397.604C187.119 397.86 187.217 398.103 187.366 398.314C187.516 398.525 187.715 398.697 187.944 398.815C188.174 398.934 188.43 398.996 188.689 398.996Z" fill="#4CFBDA"/>
<path d="M235.339 354.441L220.247 397.906C220.136 398.224 219.93 398.5 219.655 398.696C219.381 398.891 219.052 398.996 218.715 398.996H214.434L230.652 352.288H233.807C234.066 352.288 234.32 352.35 234.55 352.469C234.78 352.587 234.978 352.759 235.128 352.97C235.278 353.18 235.375 353.424 235.412 353.68C235.449 353.936 235.424 354.197 235.339 354.441Z" fill="#242855"/>
<path d="M217.938 339.638H222.219C224.261 339.638 225.917 337.983 225.917 335.94C225.917 333.898 224.261 332.243 222.219 332.243H217.938C215.896 332.243 214.24 333.898 214.24 335.94C214.24 337.983 215.896 339.638 217.938 339.638Z" fill="#242855"/>
<path d="M487.34 342.234H441.818V337.041H487.339L487.34 342.234Z" fill="#CECDCD"/>
<path d="M154.635 278.396H200.156V283.589H154.635V278.396Z" fill="#4CFBDA"/>
<path d="M395.8 180.635H441.321V185.828H395.8V180.635Z" fill="#4A4A4A"/>
<path d="M344.503 269.967C343.748 269.967 343.01 269.743 342.382 269.324C341.754 268.904 341.265 268.308 340.976 267.61C340.687 266.913 340.611 266.145 340.758 265.405C340.906 264.664 341.269 263.984 341.803 263.45C342.337 262.916 343.017 262.552 343.758 262.405C344.498 262.257 345.266 262.333 345.963 262.621C346.661 262.91 347.257 263.399 347.677 264.027C348.097 264.655 348.321 265.393 348.321 266.148C348.32 267.16 347.917 268.131 347.202 268.847C346.486 269.563 345.515 269.966 344.503 269.967ZM344.503 263.33C343.946 263.33 343.401 263.495 342.937 263.805C342.474 264.115 342.113 264.555 341.899 265.07C341.686 265.585 341.63 266.151 341.739 266.698C341.848 267.244 342.116 267.747 342.51 268.141C342.904 268.535 343.407 268.803 343.953 268.912C344.5 269.021 345.066 268.965 345.581 268.752C346.096 268.538 346.536 268.177 346.846 267.714C347.156 267.25 347.321 266.705 347.321 266.148C347.32 265.401 347.023 264.685 346.494 264.157C345.966 263.628 345.25 263.331 344.503 263.33Z" fill="#242855"/>
<path d="M135.62 305.28L141.556 303.658L137.242 298.533L135.62 305.28Z" fill="#4A4A4A"/>
<path d="M467.79 291.336L473.726 289.715L469.412 284.59L467.79 291.336ZM350.263 172.808L356.198 171.186L351.884 166.061L350.263 172.808Z" fill="#CECDCD"/>
<path d="M415.593 204.739L421.528 203.117L417.214 197.992L415.593 204.739Z" fill="#4CFBDA"/>
<path d="M311.564 402.701L317.5 401.079L313.186 395.954L311.564 402.701Z" fill="#2CA68F"/>
<path d="M407.494 224.333C407.494 224.333 406.274 203.186 398.141 202.373C390.008 201.56 390.821 196.273 386.348 196.68C381.875 197.087 377.604 203.39 374.555 203.186C371.506 202.982 362.965 192.41 354.831 199.73C346.697 207.05 348.528 227.383 367.641 224.333C386.754 221.283 378.621 214.166 389.804 218.029C400.987 221.892 399.768 234.906 401.598 234.906C403.428 234.906 404.038 224.129 407.494 224.333Z" fill="#242855"/>
<path d="M410.478 269.2C410.393 269.2 410.309 269.179 410.234 269.137C410.16 269.096 410.098 269.036 410.053 268.963C404.018 259.212 405.378 243.997 405.438 243.354C405.448 243.258 405.485 243.166 405.546 243.09C409.679 237.907 411.391 233.4 410.636 229.695C410.436 228.688 410.034 227.732 409.453 226.886C408.872 226.039 408.124 225.32 407.256 224.772C407.146 224.705 407.067 224.599 407.033 224.475C407 224.351 407.015 224.219 407.077 224.107C407.138 223.994 407.24 223.909 407.362 223.869C407.484 223.83 407.616 223.839 407.732 223.894C408.731 224.509 409.593 225.324 410.261 226.288C410.93 227.252 411.391 228.344 411.616 229.496C412.426 233.476 410.68 238.218 406.422 243.594C406.296 245.191 405.352 259.468 410.902 268.438C410.949 268.514 410.974 268.6 410.976 268.689C410.978 268.778 410.956 268.866 410.913 268.943C410.87 269.021 410.807 269.085 410.73 269.131C410.654 269.176 410.567 269.2 410.478 269.2ZM189.107 257.392H138.587C138.454 257.392 138.327 257.339 138.233 257.246C138.14 257.152 138.087 257.025 138.087 256.892V192.285C138.087 192.152 138.14 192.025 138.233 191.931C138.327 191.838 138.454 191.785 138.587 191.785H176.012C176.145 191.785 176.272 191.838 176.366 191.931C176.459 192.025 176.512 192.152 176.512 192.285C176.512 192.418 176.459 192.545 176.366 192.639C176.272 192.732 176.145 192.785 176.012 192.785H139.088V256.392H188.608V205.38C188.608 205.247 188.661 205.12 188.754 205.026C188.848 204.933 188.975 204.88 189.108 204.88C189.241 204.88 189.368 204.933 189.462 205.026C189.555 205.12 189.608 205.247 189.608 205.38V256.89C189.608 257.023 189.555 257.15 189.462 257.244C189.368 257.337 189.241 257.39 189.108 257.39L189.107 257.392Z" fill="#242855"/>
<path d="M189.107 205.89H176.003C175.87 205.89 175.743 205.837 175.649 205.744C175.556 205.65 175.503 205.523 175.503 205.39V192.285C175.503 192.186 175.533 192.09 175.588 192.008C175.643 191.926 175.721 191.862 175.812 191.824C175.903 191.786 176.003 191.776 176.1 191.796C176.197 191.815 176.286 191.862 176.356 191.932L189.461 205.036C189.531 205.106 189.579 205.195 189.598 205.292C189.618 205.389 189.608 205.49 189.57 205.581C189.532 205.673 189.468 205.751 189.385 205.806C189.303 205.861 189.206 205.89 189.107 205.89ZM176.503 204.89H187.9L176.503 193.492V204.89ZM205.623 239.418H189.107C188.974 239.418 188.847 239.365 188.753 239.272C188.66 239.178 188.607 239.051 188.607 238.918C188.607 238.785 188.66 238.658 188.753 238.564C188.847 238.471 188.974 238.418 189.107 238.418H205.123V187.408C205.123 187.275 205.176 187.148 205.269 187.054C205.363 186.961 205.49 186.908 205.623 186.908C205.756 186.908 205.883 186.961 205.977 187.054C206.07 187.148 206.123 187.275 206.123 187.408V238.918C206.123 239.051 206.07 239.178 205.977 239.272C205.883 239.365 205.756 239.418 205.623 239.418ZM155.104 192.785C154.971 192.785 154.844 192.732 154.75 192.639C154.657 192.545 154.604 192.418 154.604 192.285V174.313C154.604 174.18 154.657 174.053 154.75 173.959C154.844 173.866 154.971 173.813 155.104 173.813H192.527C192.66 173.813 192.787 173.866 192.881 173.959C192.974 174.053 193.027 174.18 193.027 174.313C193.027 174.446 192.974 174.573 192.881 174.667C192.787 174.76 192.66 174.813 192.527 174.813H155.604V192.285C155.604 192.418 155.551 192.545 155.458 192.639C155.364 192.732 155.237 192.785 155.104 192.785Z" fill="#242855"/>
<path d="M205.623 187.917H192.519C192.386 187.917 192.259 187.864 192.165 187.771C192.072 187.677 192.019 187.55 192.019 187.417V174.312C192.019 174.213 192.049 174.117 192.104 174.035C192.159 173.953 192.237 173.889 192.328 173.851C192.419 173.813 192.519 173.803 192.616 173.823C192.713 173.842 192.802 173.889 192.872 173.959L205.977 187.063C206.047 187.133 206.095 187.222 206.114 187.319C206.134 187.416 206.124 187.517 206.086 187.608C206.048 187.7 205.984 187.778 205.901 187.833C205.819 187.888 205.722 187.917 205.623 187.917ZM193.019 186.917H204.416L193.019 175.52V186.917ZM222.139 221.445H205.623C205.49 221.445 205.363 221.392 205.269 221.299C205.176 221.205 205.123 221.078 205.123 220.945C205.123 220.812 205.176 220.685 205.269 220.591C205.363 220.498 205.49 220.445 205.623 220.445H221.639V169.435C221.639 169.302 221.692 169.175 221.785 169.081C221.879 168.988 222.006 168.935 222.139 168.935C222.272 168.935 222.399 168.988 222.493 169.081C222.586 169.175 222.639 169.302 222.639 169.435V220.945C222.639 221.078 222.586 221.205 222.493 221.299C222.399 221.392 222.272 221.445 222.139 221.445ZM171.62 174.813C171.487 174.813 171.36 174.76 171.266 174.667C171.173 174.573 171.12 174.446 171.12 174.313V156.34C171.12 156.207 171.173 156.08 171.266 155.986C171.36 155.893 171.487 155.84 171.62 155.84H209.043C209.176 155.84 209.303 155.893 209.397 155.986C209.49 156.08 209.543 156.207 209.543 156.34C209.543 156.473 209.49 156.6 209.397 156.694C209.303 156.787 209.176 156.84 209.043 156.84H172.12V174.312C172.12 174.445 172.067 174.572 171.974 174.666C171.88 174.759 171.753 174.812 171.62 174.812V174.813Z" fill="#242855"/>
<path d="M222.139 169.944H209.034C208.901 169.944 208.774 169.891 208.68 169.798C208.587 169.704 208.534 169.577 208.534 169.444V156.34C208.534 156.241 208.563 156.144 208.618 156.062C208.673 155.979 208.751 155.915 208.843 155.877C208.934 155.839 209.035 155.829 209.132 155.849C209.229 155.868 209.318 155.916 209.388 155.986L222.492 169.091C222.562 169.161 222.609 169.25 222.628 169.347C222.648 169.444 222.638 169.544 222.6 169.635C222.562 169.726 222.498 169.804 222.416 169.859C222.334 169.914 222.238 169.944 222.139 169.944ZM209.534 168.944H220.932L209.534 157.547V168.944ZM165.952 200.477H144.822C144.689 200.477 144.562 200.424 144.468 200.331C144.375 200.237 144.322 200.11 144.322 199.977C144.322 199.844 144.375 199.717 144.468 199.623C144.562 199.53 144.689 199.477 144.822 199.477H165.952C166.085 199.477 166.212 199.53 166.306 199.623C166.399 199.717 166.452 199.844 166.452 199.977C166.452 200.11 166.399 200.237 166.306 200.331C166.212 200.424 166.085 200.477 165.952 200.477ZM165.952 207.52H144.822C144.689 207.52 144.562 207.467 144.468 207.374C144.375 207.28 144.322 207.153 144.322 207.02C144.322 206.887 144.375 206.76 144.468 206.666C144.562 206.573 144.689 206.52 144.822 206.52H165.952C166.085 206.52 166.212 206.573 166.306 206.666C166.399 206.76 166.452 206.887 166.452 207.02C166.452 207.153 166.399 207.28 166.306 207.374C166.212 207.467 166.085 207.52 165.952 207.52ZM181.578 214.563H144.822C144.689 214.563 144.562 214.51 144.468 214.417C144.375 214.323 144.322 214.196 144.322 214.063C144.322 213.93 144.375 213.803 144.468 213.709C144.562 213.616 144.689 213.563 144.822 213.563H181.578C181.711 213.563 181.838 213.616 181.932 213.709C182.025 213.803 182.078 213.93 182.078 214.063C182.078 214.196 182.025 214.323 181.932 214.417C181.838 214.51 181.711 214.563 181.578 214.563ZM181.578 221.607H144.822C144.689 221.607 144.562 221.554 144.468 221.461C144.375 221.367 144.322 221.24 144.322 221.107C144.322 220.974 144.375 220.847 144.468 220.753C144.562 220.66 144.689 220.607 144.822 220.607H181.578C181.711 220.607 181.838 220.66 181.932 220.753C182.025 220.847 182.078 220.974 182.078 221.107C182.078 221.24 182.025 221.367 181.932 221.461C181.838 221.554 181.711 221.607 181.578 221.607ZM181.578 228.65H144.822C144.689 228.65 144.562 228.597 144.468 228.504C144.375 228.41 144.322 228.283 144.322 228.15C144.322 228.017 144.375 227.89 144.468 227.796C144.562 227.703 144.689 227.65 144.822 227.65H181.578C181.711 227.65 181.838 227.703 181.932 227.796C182.025 227.89 182.078 228.017 182.078 228.15C182.078 228.283 182.025 228.41 181.932 228.504C181.838 228.597 181.711 228.65 181.578 228.65ZM181.578 235.694H144.822C144.689 235.694 144.562 235.641 144.468 235.548C144.375 235.454 144.322 235.327 144.322 235.194C144.322 235.061 144.375 234.934 144.468 234.84C144.562 234.747 144.689 234.694 144.822 234.694H181.578C181.711 234.694 181.838 234.747 181.932 234.84C182.025 234.934 182.078 235.061 182.078 235.194C182.078 235.327 182.025 235.454 181.932 235.548C181.838 235.641 181.711 235.694 181.578 235.694ZM181.578 242.737H144.822C144.689 242.737 144.562 242.684 144.468 242.591C144.375 242.497 144.322 242.37 144.322 242.237C144.322 242.104 144.375 241.977 144.468 241.883C144.562 241.79 144.689 241.737 144.822 241.737H181.578C181.711 241.737 181.838 241.79 181.932 241.883C182.025 241.977 182.078 242.104 182.078 242.237C182.078 242.37 182.025 242.497 181.932 242.591C181.838 242.684 181.711 242.737 181.578 242.737ZM181.578 249.781H144.822C144.689 249.781 144.562 249.728 144.468 249.635C144.375 249.541 144.322 249.414 144.322 249.281C144.322 249.148 144.375 249.021 144.468 248.927C144.562 248.834 144.689 248.781 144.822 248.781H181.578C181.711 248.781 181.838 248.834 181.932 248.927C182.025 249.021 182.078 249.148 182.078 249.281C182.078 249.414 182.025 249.541 181.932 249.635C181.838 249.728 181.711 249.781 181.578 249.781ZM181.74 185.742H160.61C160.477 185.742 160.35 185.689 160.256 185.596C160.163 185.502 160.11 185.375 160.11 185.242C160.11 185.109 160.163 184.982 160.256 184.888C160.35 184.795 160.477 184.742 160.61 184.742H181.74C181.873 184.742 182 184.795 182.094 184.888C182.187 184.982 182.24 185.109 182.24 185.242C182.24 185.375 182.187 185.502 182.094 185.596C182 185.689 181.873 185.742 181.74 185.742ZM181.74 192.785H160.61C160.477 192.785 160.35 192.732 160.256 192.639C160.163 192.545 160.11 192.418 160.11 192.285C160.11 192.152 160.163 192.025 160.256 191.931C160.35 191.838 160.477 191.785 160.61 191.785H181.74C181.873 191.785 182 191.838 182.094 191.931C182.187 192.025 182.24 192.152 182.24 192.285C182.24 192.418 182.187 192.545 182.094 192.639C182 192.732 181.873 192.785 181.74 192.785ZM197.365 199.83H183.045C182.912 199.83 182.785 199.777 182.691 199.684C182.598 199.59 182.545 199.463 182.545 199.33C182.545 199.197 182.598 199.07 182.691 198.976C182.785 198.883 182.912 198.83 183.045 198.83H197.365C197.498 198.83 197.625 198.883 197.719 198.976C197.812 199.07 197.865 199.197 197.865 199.33C197.865 199.463 197.812 199.59 197.719 199.684C197.625 199.777 197.498 199.83 197.365 199.83ZM197.365 206.872H189.107C188.974 206.872 188.847 206.819 188.753 206.726C188.66 206.632 188.607 206.505 188.607 206.372C188.607 206.239 188.66 206.112 188.753 206.018C188.847 205.925 188.974 205.872 189.107 205.872H197.365C197.498 205.872 197.625 205.925 197.719 206.018C197.812 206.112 197.865 206.239 197.865 206.372C197.865 206.505 197.812 206.632 197.719 206.726C197.625 206.819 197.498 206.872 197.365 206.872ZM197.365 213.916H189.107C188.974 213.916 188.847 213.863 188.753 213.77C188.66 213.676 188.607 213.549 188.607 213.416C188.607 213.283 188.66 213.156 188.753 213.062C188.847 212.969 188.974 212.916 189.107 212.916H197.365C197.498 212.916 197.625 212.969 197.719 213.062C197.812 213.156 197.865 213.283 197.865 213.416C197.865 213.549 197.812 213.676 197.719 213.77C197.625 213.863 197.498 213.916 197.365 213.916ZM197.365 220.959H189.107C188.974 220.959 188.847 220.906 188.753 220.813C188.66 220.719 188.607 220.592 188.607 220.459C188.607 220.326 188.66 220.199 188.753 220.105C188.847 220.012 188.974 219.959 189.107 219.959H197.365C197.498 219.959 197.625 220.012 197.719 220.105C197.812 220.199 197.865 220.326 197.865 220.459C197.865 220.592 197.812 220.719 197.719 220.813C197.625 220.906 197.498 220.959 197.365 220.959ZM197.365 228.003H189.107C188.974 228.003 188.847 227.95 188.753 227.857C188.66 227.763 188.607 227.636 188.607 227.503C188.607 227.37 188.66 227.243 188.753 227.149C188.847 227.056 188.974 227.003 189.107 227.003H197.365C197.498 227.003 197.625 227.056 197.719 227.149C197.812 227.243 197.865 227.37 197.865 227.503C197.865 227.636 197.812 227.763 197.719 227.857C197.625 227.95 197.498 228.003 197.365 228.003ZM197.365 235.047H189.107C188.974 235.047 188.847 234.994 188.753 234.901C188.66 234.807 188.607 234.68 188.607 234.547C188.607 234.414 188.66 234.287 188.753 234.193C188.847 234.1 188.974 234.047 189.107 234.047H197.365C197.498 234.047 197.625 234.1 197.719 234.193C197.812 234.287 197.865 234.414 197.865 234.547C197.865 234.68 197.812 234.807 197.719 234.901C197.625 234.994 197.498 235.047 197.365 235.047ZM198.256 167.769H177.125C176.992 167.769 176.865 167.716 176.771 167.623C176.678 167.529 176.625 167.402 176.625 167.269C176.625 167.136 176.678 167.009 176.771 166.915C176.865 166.822 176.992 166.769 177.125 166.769H198.255C198.388 166.769 198.515 166.822 198.609 166.915C198.702 167.009 198.755 167.136 198.755 167.269C198.755 167.402 198.702 167.529 198.609 167.623C198.515 167.716 198.389 167.769 198.256 167.769ZM198.256 174.813H177.125C176.992 174.813 176.865 174.76 176.771 174.667C176.678 174.573 176.625 174.446 176.625 174.313C176.625 174.18 176.678 174.053 176.771 173.959C176.865 173.866 176.992 173.813 177.125 173.813H198.255C198.388 173.813 198.515 173.866 198.609 173.959C198.702 174.053 198.755 174.18 198.755 174.313C198.755 174.446 198.702 174.573 198.609 174.667C198.515 174.76 198.389 174.813 198.256 174.813ZM213.88 181.856H199.562C199.429 181.856 199.302 181.803 199.208 181.71C199.115 181.616 199.062 181.489 199.062 181.356C199.062 181.223 199.115 181.096 199.208 181.002C199.302 180.909 199.429 180.856 199.562 180.856H213.881C214.014 180.856 214.141 180.909 214.235 181.002C214.328 181.096 214.381 181.223 214.381 181.356C214.381 181.489 214.328 181.616 214.235 181.71C214.141 181.803 214.013 181.856 213.88 181.856ZM213.88 188.9H205.623C205.49 188.9 205.363 188.847 205.269 188.754C205.176 188.66 205.123 188.533 205.123 188.4C205.123 188.267 205.176 188.14 205.269 188.046C205.363 187.953 205.49 187.9 205.623 187.9H213.881C214.014 187.9 214.141 187.953 214.235 188.046C214.328 188.14 214.381 188.267 214.381 188.4C214.381 188.533 214.328 188.66 214.235 188.754C214.141 188.847 214.013 188.9 213.88 188.9ZM213.88 195.943H205.623C205.49 195.943 205.363 195.89 205.269 195.797C205.176 195.703 205.123 195.576 205.123 195.443C205.123 195.31 205.176 195.183 205.269 195.089C205.363 194.996 205.49 194.943 205.623 194.943H213.881C214.014 194.943 214.141 194.996 214.235 195.089C214.328 195.183 214.381 195.31 214.381 195.443C214.381 195.576 214.328 195.703 214.235 195.797C214.141 195.89 214.013 195.943 213.88 195.943ZM213.88 202.986H205.623C205.49 202.986 205.363 202.933 205.269 202.84C205.176 202.746 205.123 202.619 205.123 202.486C205.123 202.353 205.176 202.226 205.269 202.132C205.363 202.039 205.49 201.986 205.623 201.986H213.881C214.014 201.986 214.141 202.039 214.235 202.132C214.328 202.226 214.381 202.353 214.381 202.486C214.381 202.619 214.328 202.746 214.235 202.84C214.141 202.933 214.013 202.986 213.88 202.986ZM213.88 210.03H205.623C205.49 210.03 205.363 209.977 205.269 209.884C205.176 209.79 205.123 209.663 205.123 209.53C205.123 209.397 205.176 209.27 205.269 209.176C205.363 209.083 205.49 209.03 205.623 209.03H213.881C214.014 209.03 214.141 209.083 214.235 209.176C214.328 209.27 214.381 209.397 214.381 209.53C214.381 209.663 214.328 209.79 214.235 209.884C214.141 209.977 214.013 210.03 213.88 210.03ZM213.88 217.073H205.623C205.49 217.073 205.363 217.02 205.269 216.927C205.176 216.833 205.123 216.706 205.123 216.573C205.123 216.44 205.176 216.313 205.269 216.219C205.363 216.126 205.49 216.073 205.623 216.073H213.881C214.014 216.073 214.141 216.126 214.235 216.219C214.328 216.313 214.381 216.44 214.381 216.573C214.381 216.706 214.328 216.833 214.235 216.927C214.141 217.02 214.013 217.073 213.88 217.073Z" fill="#242855"/>
<path d="M235.851 158.253C236.443 155.947 237.613 153.829 239.249 152.099C240.885 150.369 242.934 149.083 245.203 148.363C247.473 147.643 249.888 147.511 252.222 147.981C254.557 148.451 256.733 149.507 258.547 151.049C259.246 148.519 260.448 146.157 262.079 144.101C263.711 142.046 265.74 140.34 268.045 139.085C270.35 137.83 272.883 137.051 275.495 136.796C278.107 136.541 280.744 136.814 283.248 137.599C283.238 137.301 283.226 137.004 283.226 136.703C283.226 129.435 286.113 122.465 291.252 117.325C296.392 112.186 303.362 109.299 310.63 109.299C317.898 109.299 324.868 112.186 330.008 117.325C335.147 122.465 338.034 129.435 338.034 136.703C338.034 136.907 338.024 137.108 338.019 137.311C341.065 136.545 344.252 136.524 347.308 137.25C350.364 137.977 353.2 139.428 355.577 141.483C357.953 143.537 359.799 146.134 360.959 149.053C362.12 151.972 362.56 155.128 362.242 158.253H235.851Z" fill="#4CFBDA"/>
<path d="M69.817 262.746C69.6844 262.746 69.5572 262.693 69.4634 262.6C69.3697 262.506 69.317 262.379 69.317 262.246V254.249C69.3189 252.826 69.885 251.463 70.8911 250.457C71.8973 249.451 73.2613 248.885 74.684 248.884H113.525C114.682 248.883 115.792 248.423 116.611 247.604C117.429 246.786 117.89 245.676 117.891 244.519V214.396C117.89 213.238 117.43 212.129 116.611 211.31C115.793 210.491 114.683 210.031 113.525 210.03H90.561C89.1383 210.028 87.7744 209.463 86.7684 208.457C85.7624 207.451 85.1966 206.087 85.195 204.664V174.3C85.1969 172.878 85.7628 171.514 86.7688 170.508C87.7747 169.502 89.1385 168.937 90.561 168.935H171.121V156.34C171.121 156.207 171.174 156.08 171.267 155.987C171.361 155.893 171.488 155.84 171.621 155.84H186.565V126.206C186.567 124.783 187.133 123.42 188.139 122.414C189.145 121.408 190.509 120.842 191.932 120.841H209.568C210.99 120.843 212.354 121.408 213.36 122.414C214.366 123.42 214.932 124.784 214.934 126.206V132.175C214.935 133.332 215.396 134.442 216.214 135.26C217.032 136.078 218.142 136.539 219.299 136.54H262.333C262.466 136.54 262.593 136.593 262.687 136.687C262.78 136.78 262.833 136.907 262.833 137.04C262.833 137.173 262.78 137.3 262.687 137.394C262.593 137.487 262.466 137.54 262.333 137.54H219.299C217.877 137.538 216.513 136.972 215.507 135.967C214.502 134.961 213.936 133.597 213.934 132.175V126.206C213.933 125.049 213.472 123.939 212.654 123.121C211.835 122.302 210.725 121.842 209.568 121.841H191.932C190.774 121.842 189.664 122.302 188.846 123.12C188.027 123.939 187.566 125.048 187.565 126.206V156.34C187.565 156.473 187.512 156.6 187.419 156.694C187.325 156.787 187.198 156.84 187.065 156.84H172.12V169.435C172.12 169.568 172.067 169.695 171.974 169.789C171.88 169.882 171.753 169.935 171.62 169.935H90.56C89.4027 169.936 88.2932 170.397 87.4749 171.215C86.6566 172.033 86.1963 173.143 86.195 174.3V204.664C86.1961 205.822 86.6564 206.932 87.4749 207.75C88.2935 208.569 89.4034 209.029 90.561 209.03H113.525C114.948 209.032 116.312 209.598 117.318 210.603C118.324 211.609 118.889 212.973 118.891 214.396V244.519C118.889 245.942 118.323 247.305 117.317 248.311C116.311 249.317 114.947 249.882 113.525 249.884H74.684C73.5264 249.885 72.4164 250.345 71.5976 251.163C70.7789 251.982 70.3183 253.091 70.317 254.249V262.246C70.317 262.379 70.2643 262.506 70.1706 262.6C70.0768 262.693 69.9496 262.746 69.817 262.746ZM252.092 289.407C251.959 289.407 251.832 289.354 251.738 289.261C251.645 289.167 251.592 289.04 251.592 288.907V265.592C251.591 264.435 251.13 263.325 250.312 262.507C249.494 261.689 248.384 261.228 247.227 261.227H235.517C234.095 261.225 232.731 260.659 231.725 259.653C230.719 258.647 230.154 257.284 230.152 255.861V233.525C230.154 232.102 230.719 230.738 231.725 229.732C232.731 228.727 234.095 228.161 235.518 228.159H312.034C313.191 228.158 314.301 227.697 315.119 226.879C315.937 226.061 316.398 224.951 316.399 223.794V197.15C316.398 195.993 315.938 194.883 315.119 194.064C314.301 193.246 313.191 192.785 312.034 192.784H273.89C272.467 192.783 271.103 192.217 270.097 191.211C269.091 190.206 268.525 188.842 268.523 187.419V177.673C268.525 176.25 269.091 174.886 270.097 173.88C271.103 172.874 272.467 172.308 273.89 172.307H294.231C295.389 172.306 296.498 171.846 297.317 171.027C298.136 170.209 298.596 169.099 298.597 167.941V164.273C298.597 164.14 298.65 164.013 298.743 163.92C298.837 163.826 298.964 163.773 299.097 163.773C299.23 163.773 299.357 163.826 299.451 163.92C299.544 164.013 299.597 164.14 299.597 164.273V167.941C299.595 169.364 299.03 170.728 298.024 171.734C297.018 172.74 295.654 173.305 294.231 173.307H273.89C272.732 173.308 271.623 173.769 270.804 174.587C269.985 175.406 269.525 176.515 269.523 177.673V187.419C269.524 188.577 269.985 189.686 270.804 190.505C271.622 191.323 272.732 191.783 273.89 191.784H312.034C313.456 191.786 314.82 192.352 315.826 193.358C316.832 194.364 317.397 195.728 317.399 197.15V223.793C317.397 225.215 316.831 226.579 315.826 227.585C314.82 228.59 313.456 229.156 312.034 229.158H235.518C234.36 229.159 233.251 229.619 232.432 230.438C231.613 231.257 231.153 232.366 231.152 233.524V255.86C231.153 257.018 231.613 258.128 232.432 258.946C233.251 259.765 234.36 260.225 235.518 260.226H247.227C248.649 260.228 250.013 260.794 251.019 261.799C252.024 262.805 252.59 264.169 252.592 265.591V288.906C252.592 289.039 252.539 289.166 252.446 289.26C252.352 289.353 252.225 289.406 252.092 289.406V289.407ZM323.34 136.988C323.344 138.716 322.91 140.416 322.079 141.93C321.247 143.445 320.046 144.724 318.586 145.648C318.323 145.815 318.005 145.871 317.701 145.804C317.398 145.736 317.133 145.551 316.966 145.288C316.799 145.025 316.743 144.707 316.81 144.404C316.878 144.1 317.063 143.835 317.326 143.668C318.772 142.749 319.88 141.385 320.485 139.782C321.089 138.179 321.157 136.423 320.679 134.778C320.2 133.133 319.201 131.688 317.831 130.659C316.461 129.631 314.794 129.075 313.081 129.074H308.291L309.662 130.446C309.777 130.554 309.869 130.683 309.933 130.827C309.996 130.971 310.03 131.126 310.033 131.283C310.036 131.44 310.006 131.596 309.947 131.742C309.888 131.888 309.8 132.02 309.689 132.131C309.578 132.242 309.445 132.33 309.299 132.389C309.154 132.448 308.997 132.476 308.84 132.474C308.683 132.471 308.528 132.436 308.384 132.372C308.241 132.308 308.111 132.216 308.004 132.101L304.631 128.731C304.576 128.676 304.527 128.616 304.484 128.551C304.467 128.523 304.452 128.494 304.438 128.465C304.391 128.394 304.358 128.315 304.34 128.231C304.33 128.199 304.317 128.165 304.31 128.131C304.28 127.98 304.28 127.824 304.31 127.672C304.317 127.636 304.33 127.604 304.34 127.57C304.358 127.487 304.391 127.408 304.438 127.338C304.451 127.308 304.466 127.279 304.484 127.251C304.527 127.186 304.576 127.126 304.631 127.071L308.004 123.699C308.224 123.479 308.522 123.356 308.833 123.356C309.144 123.356 309.442 123.479 309.662 123.699C309.882 123.919 310.005 124.217 310.005 124.528C310.005 124.839 309.882 125.137 309.662 125.357L308.29 126.729H313.081C315.801 126.732 318.409 127.814 320.332 129.738C322.256 131.661 323.338 134.269 323.341 136.989L323.34 136.988ZM314.164 146.524C314.178 146.485 314.19 146.446 314.201 146.407C314.211 146.373 314.224 146.341 314.231 146.304C314.261 146.153 314.261 145.997 314.231 145.846C314.224 145.812 314.211 145.777 314.201 145.746C314.184 145.662 314.15 145.583 314.102 145.512C314.089 145.482 314.073 145.453 314.056 145.425C314.013 145.361 313.964 145.301 313.91 145.246L310.537 141.876C310.315 141.668 310.021 141.555 309.717 141.56C309.413 141.565 309.123 141.688 308.908 141.902C308.693 142.117 308.57 142.407 308.564 142.711C308.559 143.015 308.672 143.309 308.879 143.531L310.251 144.903H305.46C303.746 144.903 302.079 144.347 300.709 143.319C299.338 142.29 298.338 140.844 297.86 139.199C297.381 137.554 297.449 135.797 298.054 134.194C298.659 132.591 299.768 131.227 301.214 130.308C301.476 130.141 301.662 129.876 301.729 129.573C301.797 129.269 301.741 128.951 301.573 128.689C301.406 128.426 301.142 128.241 300.838 128.173C300.534 128.106 300.216 128.162 299.954 128.329C298.079 129.521 296.642 131.289 295.858 133.367C295.074 135.445 294.986 137.722 295.606 139.855C296.227 141.988 297.523 143.862 299.3 145.195C301.077 146.528 303.239 147.249 305.46 147.248H310.25L308.879 148.62C308.77 148.729 308.684 148.858 308.625 149C308.566 149.143 308.536 149.295 308.536 149.449C308.536 149.603 308.566 149.755 308.625 149.898C308.684 150.04 308.77 150.169 308.879 150.278C308.988 150.387 309.117 150.473 309.259 150.532C309.402 150.591 309.554 150.621 309.708 150.621C309.862 150.621 310.014 150.591 310.157 150.532C310.299 150.473 310.428 150.387 310.537 150.278L313.91 146.907C313.964 146.851 314.013 146.79 314.056 146.725C314.074 146.698 314.089 146.669 314.102 146.639C314.125 146.602 314.145 146.563 314.164 146.524Z" fill="#242855"/>
</svg>
