<svg width="970" height="700" viewBox="0 0 970 700" fill="none" xmlns="http://www.w3.org/2000/svg">
<g clip-path="url(#clip0_17_606)">
<path d="M366.177 51.5042V68.8156H291.358C283.429 68.8159 275.825 72.1576 270.218 78.1059C264.611 84.0542 261.46 92.1221 261.458 100.535V668.273C261.458 676.687 264.608 684.757 270.215 690.707C275.823 696.657 283.428 700 291.358 700H690.79C694.717 700.001 698.605 699.181 702.233 697.587C705.861 695.993 709.158 693.656 711.934 690.709C714.711 687.763 716.913 684.265 718.416 680.415C719.918 676.566 720.691 672.439 720.69 668.273V100.535C720.688 92.1219 717.537 84.0537 711.93 78.1053C706.323 72.1568 698.719 68.8153 690.79 68.8156H615.97V51.5042C615.97 48.5692 615.426 45.6628 614.368 42.951C613.31 40.2392 611.759 37.7751 609.804 35.6995C607.848 33.6238 605.526 31.9773 602.971 30.8538C600.416 29.7304 597.677 29.1521 594.911 29.152H387.236C384.47 29.1521 381.732 29.7304 379.176 30.8538C376.621 31.9772 374.299 33.6238 372.344 35.6994C370.388 37.7751 368.837 40.2391 367.779 42.9509C366.721 45.6627 366.176 48.5691 366.177 51.5042Z" fill="black"/>
<path d="M289.111 109.542L289.111 659.268C289.111 667.154 295.136 673.548 302.569 673.548H679.577C687.009 673.548 693.034 667.154 693.034 659.268V109.542C693.034 101.655 687.009 95.2612 679.577 95.2612H302.569C295.136 95.2612 289.111 101.655 289.111 109.542Z" fill="#FAFAFA"/>
<path d="M392.967 69.7747V120.75C392.967 126.112 397.063 130.459 402.117 130.459H580.031C585.084 130.459 589.181 126.112 589.181 120.75V69.7747C589.181 64.4124 585.084 60.0653 580.031 60.0653L402.117 60.0653C397.063 60.0653 392.967 64.4124 392.967 69.7747Z" fill="#0CBC8B"/>
<path d="M399.538 169.075C389.052 157.477 371.692 160.084 360.763 171.211L360.075 171.94L359.332 171.152C348.63 159.78 331.263 156.776 320.548 168.133C317.999 170.833 315.977 174.039 314.596 177.569C313.216 181.099 312.504 184.882 312.501 188.704C312.498 192.526 313.205 196.31 314.581 199.842C315.957 203.374 317.975 206.583 320.519 209.288L360.051 250.489C360.082 250.521 360.123 250.539 360.166 250.539C360.209 250.539 360.251 250.521 360.281 250.489L399.538 209.366C404.437 203.947 407.172 196.729 407.172 189.22C407.172 181.712 404.437 174.493 399.538 169.075Z" fill="#FD5D76"/>
<path d="M370.403 206.931C370.027 206.933 369.66 207.049 369.344 207.266C369.028 207.482 368.777 207.79 368.62 208.152L365.289 216.001L360.571 183.329C360.5 182.851 360.273 182.414 359.93 182.095C359.588 181.775 359.151 181.593 358.695 181.579C358.244 181.58 357.807 181.74 357.452 182.034C357.097 182.329 356.845 182.74 356.735 183.203L351.06 210.413L349.681 208.618C349.499 208.381 349.269 208.19 349.008 208.058C348.747 207.927 348.462 207.859 348.173 207.859H317.895L319.452 209.661C319.566 209.793 319.684 209.919 319.809 210.05L321.682 212.003H347.24L350.57 216.343C350.801 216.646 351.108 216.874 351.455 217C351.803 217.127 352.177 217.146 352.534 217.057C352.892 216.968 353.218 216.774 353.477 216.497C353.735 216.22 353.914 215.871 353.994 215.491L358.294 194.904L362.428 223.543C362.486 223.971 362.671 224.368 362.956 224.677C363.241 224.986 363.611 225.192 364.012 225.264C364.127 225.289 364.243 225.301 364.36 225.299C364.736 225.298 365.103 225.182 365.418 224.966C365.734 224.749 365.984 224.441 366.138 224.078L371.664 211.067H399.343L400.266 210.099C400.68 209.641 401.078 209.173 401.462 208.693L402.881 206.922L370.403 206.931Z" fill="white"/>
<path d="M156.379 253.815L155.589 253.911H130.615C132.642 250.342 134.83 243.342 133.817 230.256L150.01 227.073C150.01 227.073 148.182 247.374 156.379 253.815Z" fill="#E98862"/>
<path opacity="0.15" d="M153.059 249.574L139.61 238.656L150.173 238.54C150.479 242.376 151.458 246.118 153.059 249.574Z" fill="black"/>
<path d="M124.63 221.48C125.752 228.35 129.284 234.854 134.994 237.071C141.219 239.692 147.953 240.657 154.609 239.883C172.332 238.341 168.826 195.583 160.412 187.275C151.999 178.968 127.304 184.229 124.301 198.121C122.748 205.308 123.564 214.941 124.63 221.48Z" fill="#E98862"/>
<path d="M166.258 188.754C165.729 187.863 164.988 187.136 164.11 186.646C156.239 182.105 141.655 180.535 134.65 182.758C126.523 185.339 116.333 192.568 118.944 210.096C119.054 210.835 119.173 211.546 119.295 212.247C116.729 211.781 114.091 212.074 111.671 213.094C109.251 214.113 107.142 215.82 105.575 218.027C104.008 220.233 103.044 222.855 102.788 225.605C102.532 228.354 102.994 231.126 104.123 233.615C105.253 236.105 107.006 238.216 109.192 239.719C111.377 241.221 113.91 242.056 116.513 242.133C119.115 242.209 121.688 241.524 123.948 240.152C126.208 238.781 128.069 236.775 129.327 234.356C130.533 235.461 131.835 236.441 133.216 237.284C134.186 237.896 134.421 237.398 134.757 236.255C135.933 232.266 137.088 216.484 136.166 205.024L155.263 204.324L158.59 194.278L161.317 204.324H167.821C168.694 198.877 169.594 192.707 166.258 188.754Z" fill="#0F1011"/>
<path d="M149.982 216.189C150.793 216.189 151.451 215.491 151.451 214.63C151.451 213.77 150.793 213.072 149.982 213.072C149.171 213.072 148.514 213.77 148.514 214.63C148.514 215.491 149.171 216.189 149.982 216.189Z" fill="#0F1011"/>
<path d="M161.565 215.181C162.376 215.181 163.034 214.483 163.034 213.623C163.034 212.762 162.376 212.065 161.565 212.065C160.754 212.065 160.097 212.762 160.097 213.623C160.097 214.483 160.754 215.181 161.565 215.181Z" fill="#0F1011"/>
<path d="M164.11 210.303H164.102L160.212 210.251C160.121 210.25 160.031 210.231 159.948 210.193C159.864 210.156 159.789 210.102 159.725 210.033C159.661 209.965 159.611 209.884 159.577 209.795C159.543 209.705 159.525 209.61 159.526 209.514C159.527 209.418 159.545 209.323 159.58 209.234C159.616 209.145 159.667 209.065 159.731 208.998C159.796 208.93 159.872 208.877 159.956 208.84C160.04 208.804 160.13 208.786 160.221 208.787H160.229L164.119 208.839C164.297 208.848 164.466 208.929 164.589 209.066C164.711 209.204 164.78 209.386 164.778 209.576C164.777 209.765 164.707 209.947 164.582 210.082C164.457 210.218 164.288 210.297 164.11 210.303Z" fill="#0F1011"/>
<path d="M146.813 211.808C146.644 211.808 146.481 211.741 146.355 211.622C146.229 211.503 146.149 211.339 146.129 211.161C146.109 210.983 146.152 210.804 146.248 210.657C146.345 210.51 146.489 210.406 146.653 210.364L150.487 209.384C150.663 209.344 150.847 209.378 151 209.48C151.153 209.582 151.262 209.743 151.304 209.929C151.346 210.115 151.318 210.311 151.225 210.476C151.133 210.64 150.983 210.759 150.809 210.808L146.975 211.788C146.922 211.801 146.867 211.808 146.813 211.808Z" fill="#0F1011"/>
<path d="M142.344 218.443C142.454 220.175 141.917 221.883 140.85 223.198C139.783 224.513 138.27 225.33 136.64 225.471C135.01 225.612 133.393 225.067 132.138 223.953C130.884 222.839 130.093 221.246 129.937 219.519C129.856 218.651 129.94 217.776 130.185 216.944C130.43 216.112 130.829 215.34 131.361 214.676C131.892 214.011 132.544 213.467 133.278 213.075C134.012 212.684 134.812 212.453 135.632 212.396C140.068 212.247 142.065 214.808 142.344 218.443Z" fill="#E98862"/>
<g opacity="0.15">
<path d="M156.5 223.272C156.378 223.272 156.261 223.226 156.169 223.142C156.077 223.058 156.017 222.942 155.998 222.815C155.98 222.687 156.006 222.557 156.071 222.448C156.135 222.339 156.235 222.258 156.351 222.221L159.337 221.248L157.249 216.311C157.199 216.182 157.198 216.037 157.247 215.907C157.295 215.778 157.39 215.673 157.51 215.616C157.63 215.559 157.766 215.554 157.89 215.601C158.014 215.649 158.115 215.746 158.173 215.871L160.496 221.363C160.526 221.432 160.541 221.507 160.541 221.584C160.541 221.66 160.525 221.735 160.496 221.805C160.466 221.874 160.423 221.936 160.369 221.987C160.315 222.037 160.252 222.075 160.183 222.097L156.649 223.249C156.601 223.264 156.55 223.272 156.5 223.272Z" fill="black"/>
</g>
<path d="M150.661 226.901C150.661 226.901 156.081 227.508 159.882 226.099C159.882 226.099 159.852 229.887 155.564 230.26C151.275 230.633 150.661 226.901 150.661 226.901Z" fill="#F8FCFF"/>
<path d="M95.8586 509.591H193.963L174.163 372.78L107.254 377.653L95.8586 509.591Z" fill="#DEE8F5"/>
<path opacity="0.07" d="M95.8586 509.591H193.963L174.163 372.78L107.254 377.653L95.8586 509.591Z" fill="#0F1011"/>
<path d="M195.293 688.371L174.163 685.704C175.114 677.218 176.189 667.023 176.262 665.352C176.262 665.46 176.262 665.547 176.262 665.616H197.542C197.537 666.289 197.537 668.348 195.293 688.371Z" fill="#E98862"/>
<path d="M110.504 691.066L89.2245 690.992C89.2245 690.992 89.2965 667.676 89.2965 665.616H110.576C110.576 667.682 110.504 691.066 110.504 691.066Z" fill="#E98862"/>
<path d="M165.657 681.237L203.143 680.558C201.383 633.214 201.275 583.552 200.726 536.093C193.409 484.939 190.569 424.354 181.539 373.567H100.986C100.986 373.567 88.3196 605.615 83.7405 679.954L121.1 683.305C127.831 610.418 139.261 513.893 145.669 437.324C153.025 474.602 157.018 503.525 163.416 540.483C164.695 586.747 165.777 635.11 165.657 681.237Z" fill="#262626"/>
<path d="M136.373 699.799C136.945 699.796 137.51 699.668 138.034 699.423C138.558 699.178 139.028 698.821 139.415 698.374C139.803 697.927 140.1 697.401 140.287 696.827C140.474 696.253 140.547 695.644 140.503 695.039C140.441 694.2 140.155 693.397 139.678 692.725C139.201 692.052 138.552 691.539 137.809 691.244L113.041 682.441C112.561 682.273 112.053 682.216 111.551 682.275C111.048 682.335 110.564 682.509 110.131 682.785C106.726 685.292 102.653 686.573 98.5104 686.441C95.284 686.198 92.1869 684.997 89.5721 682.977C89.3424 682.777 89.0637 682.65 88.7687 682.611C88.4737 682.573 88.1745 682.625 87.906 682.76C87.6375 682.895 87.4109 683.109 87.2525 683.376C87.0941 683.642 87.0105 683.952 87.0115 684.267V697.118C87.0115 697.497 87.082 697.873 87.2191 698.223C87.3562 698.573 87.557 698.891 87.8102 699.159C88.0634 699.426 88.3638 699.638 88.6944 699.782C89.0249 699.926 89.3789 699.999 89.7362 699.998L136.373 699.799Z" fill="#C1D8ED"/>
<path d="M221.22 699.799C221.792 699.796 222.358 699.668 222.881 699.423C223.405 699.178 223.875 698.821 224.263 698.374C224.65 697.927 224.947 697.401 225.134 696.827C225.322 696.253 225.395 695.644 225.351 695.039C225.289 694.2 225.003 693.397 224.525 692.724C224.048 692.052 223.4 691.539 222.656 691.244L197.889 682.441C197.409 682.273 196.901 682.216 196.398 682.275C195.896 682.335 195.411 682.509 194.978 682.785C191.573 685.292 187.5 686.573 183.357 686.441C180.131 686.198 177.035 684.997 174.42 682.977C174.19 682.777 173.912 682.65 173.617 682.611C173.322 682.573 173.023 682.625 172.754 682.76C172.486 682.895 172.259 683.109 172.101 683.376C171.942 683.642 171.859 683.952 171.86 684.267V697.118C171.86 697.497 171.93 697.873 172.067 698.223C172.204 698.573 172.405 698.891 172.658 699.159C172.911 699.426 173.212 699.638 173.542 699.782C173.873 699.926 174.227 699.999 174.584 699.998L221.22 699.799Z" fill="#C1D8ED"/>
<path d="M91.3484 406.049L91.5713 405.557C91.9381 408.738 94.7491 419.164 92.2918 420.255C91.3575 420.67 89.9247 417.733 89.0006 415.524C86.9932 420.376 87.2992 431.344 87.6671 437.503C87.6911 437.91 87.5986 438.316 87.4017 438.667C87.2048 439.018 86.9127 439.298 86.5636 439.47C86.2145 439.642 85.8246 439.698 85.4449 439.631C85.0653 439.564 84.7135 439.377 84.4356 439.094C73.5305 427.995 79.361 405.448 79.361 405.448L80.4888 399.757L91.3484 406.049Z" fill="#E98862"/>
<path d="M267.033 287.057C269.906 290.556 268.305 296.611 260.689 301.538C249.112 309.026 245.996 305.475 243.127 301.976C240.259 298.477 249.868 294.16 256.522 286.815C257.191 286.031 258.012 285.408 258.927 284.99C259.843 284.571 260.833 284.366 261.83 284.389C262.826 284.412 263.807 284.662 264.705 285.123C265.603 285.583 266.397 286.242 267.033 287.057Z" fill="#E98862"/>
<path d="M242.606 296.566C242.45 296.71 252.52 281.112 256.2 285.017C257.821 286.737 253.059 292.644 253.059 292.644" fill="#E98862"/>
<path d="M185.612 375.932C181.367 386.287 97.942 390.588 96.8273 372.373C96.118 360.782 105.744 350.664 105.744 328.073C105.744 305.482 86.1572 276.633 102.117 259.698C106.749 254.784 114.744 251.612 124.491 251.602C125.221 257.634 159.734 257.655 159.997 251.741C161.314 251.763 162.338 251.784 162.976 251.817C196.598 253.354 181.823 293.956 181.5 323.783C181.104 358.685 189.995 365.266 185.612 375.932Z" fill="#F4F4F4"/>
<path d="M185.612 375.932C181.367 386.287 102.101 391.781 100.986 373.567C100.277 361.975 105.748 350.664 105.748 328.073C105.748 305.482 88.0237 276.92 103.983 259.985C108.614 255.072 115.201 252.093 124.949 252.082C125.678 258.114 159.752 258.282 160.015 252.368C161.332 252.39 162.356 252.411 162.994 252.444C196.616 253.981 181.828 293.956 181.504 323.783C181.104 358.685 189.995 365.266 185.612 375.932Z" fill="#3BD6CC"/>
<path d="M160.001 251.741C159.738 257.655 155.794 258.677 146.441 259.333C133.977 260.204 125.225 257.634 124.495 251.602H124.526C136.796 251.607 152.842 251.623 160.001 251.741Z" fill="#E98862"/>
<path d="M139.824 311.872C144.289 359.773 138.291 448.468 138.237 522.388C138.237 522.388 108.72 528.701 83.7405 518.182C83.7405 518.182 98.7374 348.553 102.993 310.491C102.993 310.491 102.32 331.315 99.9412 343.264C97.562 355.213 95.2648 408.04 95.2648 408.04C95.2648 408.04 90.0037 409.254 73.419 409.254C73.419 409.254 73.419 349.977 77.384 332.726C81.3491 315.474 95.1675 258.728 107.253 254.28C116.936 250.715 130.458 251.602 130.458 251.602C130.458 251.602 137.787 290.017 139.824 311.872Z" fill="#DEE8F5"/>
<path d="M130.455 251.607C130.455 251.607 141.234 295.635 141.234 340.935L122.59 277.613L128.588 269.62L120.178 263.308L121.759 251.704C124.49 251.111 130.455 251.607 130.455 251.607Z" fill="white"/>
<path d="M155.697 251.607C155.697 251.607 153.811 283.083 153.811 312.536C153.811 341.989 158.214 524.227 158.214 524.227C158.214 524.227 193.545 524.515 204.905 521.928C204.905 521.928 200.78 462.252 193.302 388.691C188.812 344.52 184.939 320.271 184.047 312.536C184.047 312.536 199.638 343.82 210.875 343.82C222.111 343.82 253.705 310.487 253.705 310.487C253.705 310.487 254.422 303.012 246.74 286.811L214.758 310.495C214.758 310.495 185.96 260.305 176.347 254.751C172.152 252.327 166.402 251.987 162.972 251.821C158.736 251.612 155.697 251.607 155.697 251.607Z" fill="#DEE8F5"/>
<path d="M155.697 251.607C155.697 251.607 152.127 300.754 154.101 339.233L165.432 277.613L159.996 270.46L166.812 264.991L162.975 251.822L155.697 251.607Z" fill="white"/>
<path d="M149.616 261.118C147.04 261.14 144.517 260.341 142.373 258.825C137.926 255.707 134.722 249.347 133.355 240.929C131.954 232.327 132.818 219.424 132.856 218.873L135.888 219.108C135.879 219.238 135.014 232.17 136.35 240.379C137.576 247.913 140.312 253.508 144.051 256.136C145.324 256.997 146.753 257.562 148.246 257.795C149.739 258.028 151.261 257.924 152.713 257.489C155.723 256.736 157.813 255.389 158.926 253.473C160.087 251.473 160.274 248.69 159.484 245.201C159.029 243.13 158.324 241.131 157.384 239.254C157.384 239.254 158.048 238.978 158.861 238.54C159.344 238.281 159.797 237.963 160.211 237.591C161.162 239.794 161.909 242.09 162.44 244.446C163.426 248.801 163.115 252.403 161.514 255.165C159.961 257.838 157.234 259.681 153.407 260.629C152.166 260.947 150.894 261.11 149.616 261.118Z" fill="#262626"/>
<path d="M199.092 312.774C165.56 312.774 152.146 261.208 151.591 259.012L154.53 258.176C154.661 258.69 167.895 309.548 199.095 309.548C214.295 309.548 223.971 301.997 232.513 295.335C242.009 287.929 250.209 281.532 262.235 289.09L260.686 291.865C250.388 285.396 243.646 290.655 234.314 297.935C225.833 304.547 215.284 312.774 199.092 312.774Z" fill="#262626"/>
<path d="M265.97 302.385C270.058 302.385 273.371 298.869 273.371 294.532C273.371 290.194 270.058 286.678 265.97 286.678C261.883 286.678 258.569 290.194 258.569 294.532C258.569 298.869 261.883 302.385 265.97 302.385Z" fill="#262626"/>
<path d="M265.97 299.261C268.431 299.261 270.427 297.144 270.427 294.532C270.427 291.92 268.431 289.803 265.97 289.803C263.509 289.803 261.514 291.92 261.514 294.532C261.514 297.144 263.509 299.261 265.97 299.261Z" fill="white"/>
<path d="M134.328 221.849C135.815 221.849 137.021 220.569 137.021 218.991C137.021 217.412 135.815 216.133 134.328 216.133C132.84 216.133 131.634 217.412 131.634 218.991C131.634 220.569 132.84 221.849 134.328 221.849Z" fill="#262626"/>
<path d="M385.888 380.104H333.783C328.481 380.098 323.398 377.86 319.649 373.882C315.9 369.904 313.791 364.51 313.785 358.884V303.597C313.791 297.971 315.9 292.578 319.649 288.599C323.398 284.621 328.481 282.384 333.783 282.377H385.885C391.186 282.384 396.27 284.621 400.019 288.599C403.768 292.578 405.876 297.971 405.882 303.597V358.884C405.876 364.51 403.768 369.903 400.02 373.881C396.271 377.859 391.189 380.097 385.888 380.104ZM333.783 293.13C331.167 293.133 328.66 294.237 326.811 296.199C324.961 298.161 323.921 300.822 323.918 303.597V358.884C323.921 361.659 324.961 364.32 326.811 366.282C328.66 368.245 331.167 369.349 333.783 369.352H385.885C388.5 369.349 391.007 368.245 392.857 366.282C394.706 364.32 395.746 361.659 395.749 358.884V303.597C395.746 300.822 394.706 298.161 392.857 296.199C391.007 294.237 388.5 293.133 385.885 293.13H333.783Z" fill="#DEE8F5"/>
<path d="M385.888 504.289H333.783C328.481 504.283 323.398 502.045 319.649 498.067C315.9 494.089 313.791 488.695 313.785 483.07V427.787C313.791 422.161 315.9 416.767 319.649 412.789C323.398 408.811 328.481 406.573 333.783 406.567H385.885C391.186 406.573 396.27 408.811 400.019 412.789C403.768 416.767 405.876 422.161 405.882 427.787V483.074C405.875 488.698 403.766 494.091 400.018 498.068C396.27 502.045 391.188 504.282 385.888 504.289ZM333.783 417.319C331.167 417.323 328.66 418.426 326.811 420.389C324.961 422.351 323.921 425.012 323.918 427.787V483.074C323.922 485.848 324.963 488.508 326.812 490.469C328.661 492.431 331.168 493.534 333.783 493.537H385.885C388.5 493.534 391.007 492.43 392.857 490.468C394.706 488.505 395.746 485.845 395.749 483.07V427.787C395.746 425.012 394.706 422.351 392.857 420.389C391.007 418.426 388.5 417.323 385.885 417.319H333.783Z" fill="#DEE8F5"/>
<path d="M385.888 628.48H333.783C328.481 628.474 323.398 626.236 319.649 622.257C315.9 618.279 313.791 612.885 313.785 607.259V551.977C313.791 546.351 315.9 540.957 319.649 536.979C323.398 533.001 328.481 530.763 333.783 530.757H385.885C391.186 530.763 396.27 533.001 400.019 536.979C403.768 540.957 405.876 546.351 405.882 551.977V607.263C405.875 612.888 403.766 618.28 400.018 622.258C396.27 626.235 391.188 628.473 385.888 628.48ZM333.783 541.509C331.167 541.512 328.66 542.616 326.811 544.578C324.961 546.541 323.921 549.201 323.918 551.977V607.263C323.922 610.038 324.963 612.698 326.812 614.659C328.661 616.621 331.168 617.724 333.783 617.728H385.885C388.5 617.724 391.007 616.62 392.857 614.658C394.706 612.695 395.746 610.034 395.749 607.259V551.977C395.746 549.201 394.706 546.541 392.857 544.578C391.007 542.616 388.5 541.512 385.885 541.509H333.783Z" fill="#DEE8F5"/>
<path d="M348.972 352.573C348.322 352.574 347.679 352.428 347.086 352.143C346.494 351.859 345.965 351.443 345.537 350.924L330.074 332.164C329.315 331.193 328.943 329.946 329.038 328.688C329.133 327.43 329.687 326.262 330.583 325.431C331.478 324.601 332.644 324.175 333.831 324.243C335.019 324.312 336.134 324.87 336.939 325.799L349.466 340.996L383.242 311.037C383.698 310.607 384.231 310.278 384.809 310.07C385.387 309.862 385.999 309.78 386.608 309.827C387.216 309.875 387.81 310.052 388.353 310.347C388.896 310.643 389.378 311.051 389.77 311.548C390.161 312.045 390.455 312.62 390.633 313.24C390.811 313.859 390.871 314.51 390.807 315.155C390.744 315.799 390.559 316.423 390.265 316.99C389.97 317.557 389.571 318.056 389.091 318.456L351.895 351.451C351.075 352.178 350.04 352.575 348.972 352.573Z" fill="#FD5D76"/>
<path d="M348.972 476.763C348.322 476.765 347.678 476.618 347.086 476.334C346.493 476.049 345.965 475.633 345.537 475.114L330.074 456.355C329.68 455.877 329.378 455.321 329.186 454.719C328.994 454.117 328.916 453.48 328.956 452.846C329.037 451.566 329.594 450.372 330.504 449.527C330.955 449.108 331.479 448.788 332.046 448.585C332.613 448.381 333.213 448.298 333.811 448.341C335.017 448.426 336.143 449.017 336.939 449.983L349.466 465.182L383.242 435.221C383.701 434.808 384.232 434.495 384.805 434.3C385.378 434.106 385.982 434.034 386.582 434.088C387.182 434.142 387.765 434.322 388.299 434.617C388.833 434.912 389.306 435.316 389.692 435.806C390.078 436.296 390.369 436.862 390.548 437.472C390.727 438.082 390.79 438.723 390.734 439.359C390.678 439.995 390.504 440.612 390.222 441.176C389.94 441.741 389.555 442.24 389.091 442.646L351.895 475.64C351.076 476.367 350.041 476.765 348.972 476.763Z" fill="#FD5D76"/>
<path d="M348.972 600.954C348.322 600.955 347.678 600.809 347.086 600.524C346.493 600.239 345.965 599.823 345.537 599.303L330.074 580.545C329.68 580.066 329.378 579.51 329.186 578.908C328.994 578.306 328.916 577.67 328.956 577.036C328.996 576.402 329.153 575.782 329.419 575.213C329.685 574.643 330.053 574.135 330.504 573.716C330.955 573.298 331.479 572.978 332.046 572.774C332.613 572.571 333.213 572.488 333.811 572.53C334.408 572.573 334.992 572.74 335.529 573.021C336.066 573.303 336.545 573.694 336.939 574.173L349.466 589.371L383.242 559.411C383.698 558.98 384.231 558.651 384.809 558.444C385.387 558.236 385.999 558.153 386.608 558.201C387.216 558.249 387.81 558.426 388.353 558.721C388.896 559.017 389.378 559.425 389.77 559.922C390.161 560.419 390.455 560.994 390.633 561.613C390.811 562.233 390.871 562.884 390.807 563.528C390.744 564.173 390.559 564.797 390.265 565.364C389.97 565.931 389.571 566.43 389.091 566.83L351.895 599.824C351.076 600.553 350.041 600.954 348.972 600.954Z" fill="#FD5D76"/>
<g opacity="0.62">
<path d="M434.071 324.797C430.717 324.797 427.998 327.682 427.998 331.241C427.998 334.8 430.717 337.686 434.071 337.686H662.133C665.487 337.686 668.206 334.8 668.206 331.241C668.206 327.682 665.487 324.797 662.133 324.797H434.071Z" fill="#DEE8F5"/>
<path d="M434.07 285.29C430.716 285.29 427.997 288.175 427.997 291.735C427.997 295.294 430.716 298.179 434.07 298.179H662.132C665.486 298.179 668.205 295.294 668.205 291.735C668.205 288.175 665.486 285.29 662.132 285.29H434.07Z" fill="#DEE8F5"/>
<path d="M434.07 364.303C430.716 364.303 427.997 367.189 427.997 370.748C427.997 374.307 430.716 377.192 434.07 377.192H611.467C614.821 377.192 617.54 374.307 617.54 370.748C617.54 367.189 614.821 364.303 611.467 364.303H434.07Z" fill="#DEE8F5"/>
</g>
<g opacity="0.62">
<path d="M434.071 448.986C430.717 448.986 427.998 451.872 427.998 455.431C427.998 458.99 430.717 461.875 434.071 461.875H662.133C665.487 461.875 668.206 458.99 668.206 455.431C668.206 451.872 665.487 448.986 662.133 448.986H434.071Z" fill="#DEE8F5"/>
<path d="M434.07 409.48C430.716 409.48 427.997 412.365 427.997 415.924C427.997 419.483 430.716 422.369 434.07 422.369H662.132C665.486 422.369 668.206 419.483 668.206 415.924C668.206 412.365 665.486 409.48 662.132 409.48H434.07Z" fill="#DEE8F5"/>
<path d="M434.07 488.493C430.716 488.493 427.997 491.378 427.997 494.938C427.997 498.497 430.716 501.382 434.07 501.382H611.467C614.821 501.382 617.54 498.497 617.54 494.938C617.54 491.378 614.821 488.493 611.467 488.493H434.07Z" fill="#DEE8F5"/>
</g>
<g opacity="0.62">
<path d="M434.071 573.176C430.717 573.176 427.998 576.061 427.998 579.621C427.998 583.18 430.717 586.065 434.071 586.065H662.133C665.487 586.065 668.206 583.18 668.206 579.621C668.206 576.061 665.487 573.176 662.133 573.176H434.071Z" fill="#DEE8F5"/>
<path d="M434.07 533.669C430.716 533.669 427.997 536.555 427.997 540.114C427.997 543.673 430.716 546.558 434.07 546.558H662.132C665.486 546.558 668.205 543.673 668.205 540.114C668.205 536.555 665.486 533.669 662.132 533.669H434.07Z" fill="#DEE8F5"/>
<path d="M434.07 612.683C430.716 612.683 427.997 615.568 427.997 619.127C427.997 622.686 430.716 625.572 434.07 625.572H611.466C614.821 625.572 617.54 622.686 617.54 619.127C617.54 615.568 614.821 612.683 611.466 612.683H434.07Z" fill="#DEE8F5"/>
</g>
<path d="M434.07 172.901C430.716 172.901 427.997 175.787 427.997 179.346C427.997 182.905 430.716 185.79 434.07 185.79H641.866C645.22 185.79 647.939 182.905 647.939 179.346C647.939 175.787 645.22 172.901 641.866 172.901H434.07Z" fill="#D7E8F4"/>
<path d="M459.404 210.359C456.05 210.359 453.33 213.244 453.33 216.803C453.33 220.362 456.05 223.248 459.404 223.248H616.534C619.888 223.248 622.608 220.362 622.608 216.803C622.608 213.244 619.888 210.359 616.534 210.359H459.404Z" fill="#D7E8F4"/>
<path d="M622.514 212.763L622.125 225.534L566.502 224.24C560.608 224.102 554.881 226.435 550.578 230.724C546.276 235.014 543.75 240.91 543.557 247.115L530.791 665.962C530.602 672.168 532.76 678.174 536.792 682.661C540.824 687.147 546.399 689.747 552.293 689.888L849.258 696.783C852.176 696.852 855.084 696.315 857.817 695.203C860.549 694.09 863.053 692.425 865.183 690.3C867.314 688.176 869.03 685.635 870.235 682.823C871.439 680.01 872.108 676.98 872.202 673.907L884.968 255.06C885.158 248.854 883 242.848 878.968 238.362C874.936 233.875 869.36 231.276 863.467 231.135L807.837 229.841L808.227 217.07C808.297 214.904 807.961 212.75 807.237 210.73C806.512 208.71 805.415 206.864 804.007 205.299C802.6 203.733 800.909 202.479 799.034 201.608C797.158 200.737 795.134 200.266 793.077 200.223L638.677 196.637C634.524 196.541 630.488 198.186 627.457 201.21C624.426 204.234 622.648 208.39 622.514 212.763Z" fill="#262626"/>
<path d="M565.588 252.818L553.375 661.29C553.199 667.15 557.486 672.005 562.949 672.134L840.063 678.682C845.526 678.812 850.096 674.166 850.272 668.306L862.485 259.834C862.66 253.974 858.373 249.119 852.91 248.99L575.796 242.441C570.333 242.312 565.763 246.958 565.588 252.818Z" fill="#FAFAFA"/>
<path d="M641.54 225.671L640.402 263.962C640.283 267.99 643.211 271.327 646.942 271.415L778.327 274.538C782.059 274.627 785.181 271.434 785.301 267.406L786.438 229.115C786.558 225.088 783.63 221.751 779.898 221.662L648.513 218.54C644.782 218.451 641.66 221.644 641.54 225.671Z" fill="#0CBC8B"/>
<path d="M654.507 569.312C652.025 569.25 649.949 571.489 649.87 574.313C649.791 577.137 651.738 579.476 654.22 579.538L815.373 583.567C817.855 583.629 819.931 581.39 820.011 578.566C820.09 575.742 818.142 573.402 815.661 573.34L654.507 569.312Z" fill="#9EBCEA"/>
<path d="M704.436 598.506C701.955 598.444 699.879 600.649 699.799 603.428C699.72 606.208 701.667 608.511 704.149 608.572L814.685 611.294C817.166 611.356 819.242 609.152 819.321 606.372C819.401 603.593 817.454 601.289 814.972 601.228L704.436 598.506Z" fill="#9EBCEA"/>
<path d="M591.442 388.909C588.961 388.857 586.878 391.253 586.79 394.26C586.702 397.266 588.642 399.745 591.123 399.797L744.747 402.984C747.228 403.036 749.311 400.64 749.399 397.633C749.487 394.627 747.547 392.148 745.066 392.096L591.442 388.909Z" fill="#9EBCEA"/>
<path d="M590.727 416.627C588.246 416.577 586.164 418.904 586.075 421.824C585.987 424.745 587.927 427.154 590.407 427.204L699.062 429.402C701.542 429.452 703.625 427.124 703.713 424.204C703.801 421.283 701.862 418.875 699.381 418.825L590.727 416.627Z" fill="#9EBCEA"/>
<path d="M590.019 444.362C587.538 444.31 585.455 446.727 585.367 449.76C585.279 452.793 587.219 455.294 589.7 455.346L758.317 458.872C760.798 458.923 762.881 456.506 762.969 453.473C763.057 450.44 761.117 447.939 758.636 447.887L590.019 444.362Z" fill="#9EBCEA"/>
<path d="M589.319 472.088C586.838 472.037 584.755 474.4 584.667 477.365C584.579 480.33 586.518 482.774 588.999 482.825L720.139 485.513C722.62 485.564 724.702 483.202 724.791 480.237C724.879 477.271 722.939 474.827 720.458 474.776L589.319 472.088Z" fill="#9EBCEA"/>
<path d="M620.858 356.489L626.647 343.96L619.677 343.831L615.73 352.536C615.377 351.782 606.983 334.299 606.983 334.299C608.753 333.557 610.289 332.3 611.407 330.679C612.601 328.816 613.234 326.63 613.222 324.407C613.343 322.631 613.055 320.857 612.383 319.236C611.795 317.893 610.89 316.732 609.753 315.859C608.559 314.974 607.206 314.344 605.771 314.006C604.153 313.615 602.496 313.406 600.829 313.383L588.879 313.163L587.691 347.829L595.162 347.962L595.592 335.47L599.709 335.546L609.7 356.305L603.778 369.946L611.505 370.087L615.406 360.769C615.791 361.519 618.925 370.239 618.925 370.239L626.172 370.381L620.858 356.489ZM599.66 329.319L595.793 329.253L596.129 319.522L599.99 319.596C601.555 319.524 603.101 319.901 604.46 320.686C604.984 321.092 605.393 321.638 605.644 322.269C605.895 322.899 605.98 323.591 605.89 324.274C605.911 324.999 605.769 325.723 605.477 326.388C605.185 327.053 604.749 327.64 604.205 328.103C602.857 329.035 601.254 329.464 599.66 329.319Z" fill="#9EBCEA"/>
<path d="M801.779 395.011C799.302 394.964 797.223 397.139 797.134 399.87C797.046 402.601 798.982 404.853 801.459 404.901L827.683 405.402C830.16 405.449 832.24 403.273 832.328 400.542C832.417 397.811 830.48 395.559 828.003 395.512L801.779 395.011Z" fill="#9EBCEA"/>
<path d="M801.054 422.727C798.577 422.679 796.498 424.855 796.409 427.586C796.321 430.317 798.257 432.57 800.734 432.617L826.958 433.118C829.435 433.165 831.515 430.99 831.603 428.259C831.692 425.528 829.756 423.275 827.279 423.228L801.054 422.727Z" fill="#9EBCEA"/>
<path d="M800.349 450.455C797.872 450.408 795.793 452.584 795.704 455.315C795.616 458.046 797.552 460.298 800.029 460.346L826.253 460.846C828.73 460.894 830.81 458.718 830.898 455.987C830.987 453.256 829.05 451.004 826.573 450.956L800.349 450.455Z" fill="#9EBCEA"/>
<path d="M799.644 478.183C797.167 478.136 795.088 480.312 794.999 483.043C794.911 485.774 796.847 488.026 799.324 488.073L825.549 488.574C828.025 488.622 830.105 486.446 830.194 483.715C830.282 480.984 828.346 478.731 825.869 478.684L799.644 478.183Z" fill="#9EBCEA"/>
</g>
<defs>
<clipPath id="clip0_17_606">
<rect width="970" height="700" fill="white"/>
</clipPath>
</defs>
</svg>
