<svg width="150" height="100" viewBox="0 0 229 182" fill="none" xmlns="http://www.w3.org/2000/svg">
<path d="M77.6529 98.2419L52.5854 59.3162L52.875 40.9016L58.8394 40.9954L58.998 30.9076L22.5798 30.3349L22.421 40.4329L28.4342 40.5274L28.1446 58.9421L1.81679 97.0493C0.832447 98.4687 0.259974 100.121 0.159937 101.833C0.0598998 103.544 0.436018 105.25 1.2485 106.771C2.06099 108.292 3.27963 109.57 4.7755 110.471C6.27138 111.373 7.98886 111.863 9.74627 111.89L69.2293 112.826C70.9899 112.851 72.7244 112.412 74.2497 111.555C75.775 110.698 77.0344 109.455 77.8951 107.958C78.7557 106.46 79.1857 104.763 79.1395 103.047C79.0932 101.33 78.5726 99.6569 77.6326 98.2041L77.6564 98.242L77.6529 98.2419ZM74.3694 106.032C73.8671 106.904 73.1323 107.628 72.2428 108.126C71.3533 108.624 70.342 108.878 69.3161 108.862L9.80861 107.926C8.77836 107.911 7.77118 107.625 6.89383 107.097C6.01648 106.57 5.30166 105.821 4.82514 104.929C4.34862 104.038 4.12816 103.038 4.18713 102.034C4.2461 101.031 4.58231 100.063 5.1601 99.231L5.14581 99.2512L32.1283 60.1595L32.4363 40.5733L48.7999 40.8307L48.4918 60.4271L74.2038 100.347C74.784 101.212 75.1236 102.273 75.1057 103.41C75.0904 104.381 74.8176 105.29 74.3513 106.073L74.3657 106.046L74.3694 106.032Z" fill="#242855"/>
<path d="M50.9509 72.8553L29.3318 72.5153L9.1186 101.828C9.015 101.976 8.95486 102.149 8.94465 102.328C8.93445 102.508 8.97456 102.686 9.06068 102.845L9.05724 102.842C9.22718 103.141 9.54534 103.343 9.91544 103.353L69.3915 104.288C69.5675 104.292 69.7413 104.249 69.8944 104.165C70.0476 104.08 70.1745 103.957 70.2618 103.808L70.2653 103.804C70.359 103.65 70.406 103.472 70.4008 103.293C70.3956 103.113 70.3384 102.938 70.2359 102.789L70.2393 102.792L50.9509 72.8553Z" fill="#05B9AE"/>
<path d="M224.969 68.2419L199.902 29.3162L200.191 10.9016L206.156 10.9954L206.314 0.907649L169.896 0.33494L169.737 10.4329L175.751 10.5274L175.461 28.9421L149.133 67.0493C148.149 68.4687 147.576 70.1215 147.476 71.8328C147.376 73.5441 147.752 75.2504 148.565 76.7711C149.377 78.2917 150.596 79.5703 152.092 80.4714C153.588 81.3726 155.305 81.8628 157.063 81.8903L216.546 82.8257C218.306 82.8507 220.041 82.4116 221.566 81.5548C223.091 80.698 224.351 79.4552 225.212 77.9577C226.072 76.4602 226.502 74.7635 226.456 73.0467C226.41 71.33 225.889 69.6569 224.949 68.2041L224.973 68.242L224.969 68.2419ZM221.686 76.0321C221.184 76.9044 220.449 77.6278 219.559 78.126C218.67 78.6241 217.658 78.8783 216.632 78.8619L157.125 77.9261C156.095 77.9113 155.088 77.625 154.21 77.0974C153.333 76.5698 152.618 75.8206 152.142 74.9293C151.665 74.038 151.445 73.0377 151.504 72.0345C151.563 71.0313 151.899 70.0626 152.477 69.231L152.462 69.2512L179.445 30.1595L179.753 10.5733L196.116 10.8307L195.808 30.4271L221.52 70.3474C222.1 71.2116 222.44 72.2729 222.422 73.4105C222.407 74.3811 222.134 75.2897 221.668 76.0727L221.682 76.0457L221.686 76.0321Z" fill="#242855"/>
<path d="M198.267 42.8553L176.648 42.5153L156.435 71.8276C156.331 71.976 156.271 72.1492 156.261 72.3285C156.251 72.5078 156.291 72.6864 156.377 72.8453L156.374 72.8418C156.544 73.1408 156.862 73.3434 157.232 73.3526L216.708 74.288C216.884 74.2918 217.058 74.2492 217.211 74.1646C217.364 74.0801 217.491 73.9568 217.578 73.8077L217.582 73.8043C217.675 73.6496 217.722 73.4722 217.717 73.2925C217.712 73.1128 217.655 72.9382 217.552 72.7887L217.556 72.7922L198.267 42.8553Z" fill="#3BD6CC"/>
<path d="M140.313 173.994L120.36 143.002L122.724 90.3522L125.388 90.4718C127.598 90.571 129.484 88.5186 129.602 85.8854C129.72 83.2521 128.026 81.039 125.816 80.9398L119.151 80.6406C116.941 80.5414 115.055 82.5938 114.937 85.2271L112.277 144.478C112.224 145.658 112.541 146.813 113.166 147.718L128.411 171.884L77.7482 169.609L95.0971 146.907C95.8009 146.061 96.2198 144.94 96.2725 143.76L98.9322 84.5088C99.0504 81.8755 97.3561 79.6624 95.146 79.5632L88.4815 79.264C86.2713 79.1648 84.3855 81.2172 84.2673 83.8505C84.1491 86.4837 85.8434 88.6968 88.0536 88.796L90.7177 88.9156L88.3543 141.566L65.7048 170.645C65.156 171.306 64.7773 172.139 64.6143 173.044C64.4514 173.948 64.5112 174.886 64.7865 175.742C65.0629 176.599 65.5435 177.338 66.1699 177.87C66.7963 178.402 67.5417 178.703 68.3158 178.738L136.988 181.82C137.762 181.855 138.531 181.622 139.203 181.148C139.874 180.675 140.419 179.982 140.771 179.153C141.488 177.462 141.311 175.438 140.313 173.994L140.313 173.994ZM103.361 75.1753C107.77 75.3732 111.533 71.2751 111.769 66.0253C112.004 60.7803 108.623 56.3617 104.215 56.1638C99.8047 55.9658 96.0433 60.0638 95.8079 65.3088C95.5722 70.5586 98.9513 74.9773 103.361 75.1753ZM130.058 62.1972C137.854 62.5472 144.511 55.334 144.926 46.0879C145.341 36.8418 139.36 29.0613 131.561 28.7112C123.767 28.3613 117.108 35.5744 116.693 44.8205C116.278 54.0666 122.264 61.8474 130.058 62.1972ZM131.073 38.2117C134.405 38.3613 136.971 41.6976 136.793 45.651C136.616 49.6021 133.761 52.6975 130.429 52.5479C127.097 52.3983 124.531 49.0596 124.709 45.1086C124.888 41.1552 127.74 38.0621 131.073 38.2117Z" fill="#242855"/>
</svg>
