<svg width="1262" height="362" viewBox="0 0 1262 362" fill="none" xmlns="http://www.w3.org/2000/svg">
<g clip-path="url(#clip0_40_11)">
<rect width="1262" height="362" fill="white"/>
<rect x="245.712" y="56" width="195.051" height="195.051" rx="25" transform="rotate(20 245.712 56)" fill="#242855"/>
<rect x="206.474" y="83.4741" width="195.051" height="195.051" rx="25" fill="#3BD6CC"/>
<g clip-path="url(#clip1_40_11)">
<path d="M333.258 122.485C327.581 122.475 321.98 123.79 316.901 126.325C311.822 128.861 307.404 132.546 304 137.089C299.389 130.954 292.966 126.425 285.639 124.141C278.313 121.858 270.453 121.937 263.174 124.366C255.894 126.795 249.563 131.452 245.076 137.678C240.589 143.904 238.173 151.383 238.17 159.057C238.209 164.874 239.225 170.643 241.175 176.124H267.256L275.561 163.666C276.007 162.998 276.61 162.451 277.318 162.072C278.025 161.693 278.816 161.495 279.619 161.495C280.421 161.495 281.212 161.693 281.919 162.072C282.627 162.451 283.231 162.998 283.676 163.666L299.124 186.838L304.819 178.295C305.264 177.627 305.868 177.08 306.575 176.701C307.283 176.322 308.074 176.124 308.876 176.124H323.505C324.798 176.124 326.039 176.638 326.953 177.552C327.868 178.467 328.381 179.707 328.381 181C328.381 182.293 327.868 183.534 326.953 184.448C326.039 185.363 324.798 185.876 323.505 185.876H311.486L303.181 198.334C302.736 199.002 302.132 199.549 301.425 199.928C300.717 200.307 299.926 200.505 299.124 200.505C298.321 200.505 297.531 200.307 296.823 199.928C296.115 199.549 295.512 199.002 295.067 198.334L279.619 175.162L273.923 183.705C273.478 184.373 272.875 184.921 272.167 185.299C271.459 185.678 270.669 185.876 269.866 185.876H245.475C261.719 216.237 299.586 237.756 301.617 238.894C302.345 239.302 303.166 239.516 304 239.516C304.834 239.516 305.655 239.302 306.383 238.894C317.575 232.338 328.08 224.674 337.739 216.016C359.033 196.851 369.83 177.687 369.83 159.057C369.819 149.361 365.962 140.065 359.106 133.209C352.25 126.352 342.954 122.496 333.258 122.485Z" fill="white"/>
</g>
<g filter="url(#filter0_d_40_11)">
<mask id="path-4-outside-1_40_11" maskUnits="userSpaceOnUse" x="428" y="103" width="616" height="162" fill="black">
<rect fill="white" x="428" y="103" width="616" height="162"/>
<path d="M437.65 228L484.45 123H508.45L555.4 228H529.9L491.5 135.3H501.1L462.55 228H437.65ZM461.05 205.5L467.5 187.05H521.5L528.1 205.5H461.05ZM667.994 146.1C674.394 146.1 680.044 147.4 684.944 150C689.944 152.5 693.844 156.4 696.644 161.7C699.544 166.9 700.994 173.6 700.994 181.8V228H677.594V185.4C677.594 178.9 676.244 174.1 673.544 171C670.844 167.9 667.044 166.35 662.144 166.35C658.744 166.35 655.694 167.15 652.994 168.75C650.294 170.25 648.194 172.55 646.694 175.65C645.194 178.75 644.444 182.7 644.444 187.5V228H621.044V185.4C621.044 178.9 619.694 174.1 616.994 171C614.394 167.9 610.644 166.35 605.744 166.35C602.344 166.35 599.294 167.15 596.594 168.75C593.894 170.25 591.794 172.55 590.294 175.65C588.794 178.75 588.044 182.7 588.044 187.5V228H564.644V147.3H586.994V169.35L582.794 162.9C585.594 157.4 589.544 153.25 594.644 150.45C599.844 147.55 605.744 146.1 612.344 146.1C619.744 146.1 626.194 148 631.694 151.8C637.294 155.5 640.994 161.2 642.794 168.9L634.544 166.65C637.244 160.35 641.544 155.35 647.444 151.65C653.444 147.95 660.294 146.1 667.994 146.1ZM762.604 229.2C753.404 229.2 745.304 227.4 738.304 223.8C731.404 220.2 726.054 215.3 722.254 209.1C718.454 202.8 716.554 195.65 716.554 187.65C716.554 179.55 718.404 172.4 722.104 166.2C725.904 159.9 731.054 155 737.554 151.5C744.054 147.9 751.404 146.1 759.604 146.1C767.504 146.1 774.604 147.8 780.904 151.2C787.304 154.5 792.354 159.3 796.054 165.6C799.754 171.8 801.604 179.25 801.604 187.95C801.604 188.85 801.554 189.9 801.454 191.1C801.354 192.2 801.254 193.25 801.154 194.25H735.604V180.6H788.854L779.854 184.65C779.854 180.45 779.004 176.8 777.304 173.7C775.604 170.6 773.254 168.2 770.254 166.5C767.254 164.7 763.754 163.8 759.754 163.8C755.754 163.8 752.204 164.7 749.104 166.5C746.104 168.2 743.754 170.65 742.054 173.85C740.354 176.95 739.504 180.65 739.504 184.95V188.55C739.504 192.95 740.454 196.85 742.354 200.25C744.354 203.55 747.104 206.1 750.604 207.9C754.204 209.6 758.404 210.45 763.204 210.45C767.504 210.45 771.254 209.8 774.454 208.5C777.754 207.2 780.754 205.25 783.454 202.65L795.904 216.15C792.204 220.35 787.554 223.6 781.954 225.9C776.354 228.1 769.904 229.2 762.604 229.2ZM811.183 258.3C807.583 258.3 804.133 257.9 800.833 257.1C797.533 256.4 794.733 255.3 792.433 253.8L798.733 236.85C801.433 238.75 804.733 239.7 808.633 239.7C811.533 239.7 813.833 238.7 815.533 236.7C817.333 234.8 818.233 231.9 818.233 228V147.3H841.633V227.85C841.633 237.15 838.983 244.55 833.683 250.05C828.383 255.55 820.883 258.3 811.183 258.3ZM829.933 136.05C825.633 136.05 822.133 134.8 819.433 132.3C816.733 129.8 815.383 126.7 815.383 123C815.383 119.3 816.733 116.2 819.433 113.7C822.133 111.2 825.633 109.95 829.933 109.95C834.233 109.95 837.733 111.15 840.433 113.55C843.133 115.85 844.483 118.85 844.483 122.55C844.483 126.45 843.133 129.7 840.433 132.3C837.833 134.8 834.333 136.05 829.933 136.05ZM912.679 228V212.25L911.179 208.8V180.6C911.179 175.6 909.629 171.7 906.529 168.9C903.529 166.1 898.879 164.7 892.579 164.7C888.279 164.7 884.029 165.4 879.829 166.8C875.729 168.1 872.229 169.9 869.329 172.2L860.929 155.85C865.329 152.75 870.629 150.35 876.829 148.65C883.029 146.95 889.329 146.1 895.729 146.1C908.029 146.1 917.579 149 924.379 154.8C931.179 160.6 934.579 169.65 934.579 181.95V228H912.679ZM888.079 229.2C881.779 229.2 876.379 228.15 871.879 226.05C867.379 223.85 863.929 220.9 861.529 217.2C859.129 213.5 857.929 209.35 857.929 204.75C857.929 199.95 859.079 195.75 861.379 192.15C863.779 188.55 867.529 185.75 872.629 183.75C877.729 181.65 884.379 180.6 892.579 180.6H914.029V194.25H895.129C889.629 194.25 885.829 195.15 883.729 196.95C881.729 198.75 880.729 201 880.729 203.7C880.729 206.7 881.879 209.1 884.179 210.9C886.579 212.6 889.829 213.45 893.929 213.45C897.829 213.45 901.329 212.55 904.429 210.75C907.529 208.85 909.779 206.1 911.179 202.5L914.779 213.3C913.079 218.5 909.979 222.45 905.479 225.15C900.979 227.85 895.179 229.2 888.079 229.2ZM964.492 258.3C960.292 258.3 956.142 257.65 952.042 256.35C947.942 255.05 944.592 253.25 941.992 250.95L950.542 234.3C952.342 235.9 954.392 237.15 956.692 238.05C959.092 238.95 961.442 239.4 963.742 239.4C967.042 239.4 969.642 238.6 971.542 237C973.542 235.5 975.342 232.95 976.942 229.35L981.142 219.45L982.942 216.9L1011.89 147.3H1034.39L997.942 232.95C995.342 239.45 992.342 244.55 988.942 248.25C985.642 251.95 981.942 254.55 977.842 256.05C973.842 257.55 969.392 258.3 964.492 258.3ZM978.292 231.15L942.292 147.3H966.442L994.342 214.8L978.292 231.15Z"/>
</mask>
<path d="M437.65 228L484.45 123H508.45L555.4 228H529.9L491.5 135.3H501.1L462.55 228H437.65ZM461.05 205.5L467.5 187.05H521.5L528.1 205.5H461.05ZM667.994 146.1C674.394 146.1 680.044 147.4 684.944 150C689.944 152.5 693.844 156.4 696.644 161.7C699.544 166.9 700.994 173.6 700.994 181.8V228H677.594V185.4C677.594 178.9 676.244 174.1 673.544 171C670.844 167.9 667.044 166.35 662.144 166.35C658.744 166.35 655.694 167.15 652.994 168.75C650.294 170.25 648.194 172.55 646.694 175.65C645.194 178.75 644.444 182.7 644.444 187.5V228H621.044V185.4C621.044 178.9 619.694 174.1 616.994 171C614.394 167.9 610.644 166.35 605.744 166.35C602.344 166.35 599.294 167.15 596.594 168.75C593.894 170.25 591.794 172.55 590.294 175.65C588.794 178.75 588.044 182.7 588.044 187.5V228H564.644V147.3H586.994V169.35L582.794 162.9C585.594 157.4 589.544 153.25 594.644 150.45C599.844 147.55 605.744 146.1 612.344 146.1C619.744 146.1 626.194 148 631.694 151.8C637.294 155.5 640.994 161.2 642.794 168.9L634.544 166.65C637.244 160.35 641.544 155.35 647.444 151.65C653.444 147.95 660.294 146.1 667.994 146.1ZM762.604 229.2C753.404 229.2 745.304 227.4 738.304 223.8C731.404 220.2 726.054 215.3 722.254 209.1C718.454 202.8 716.554 195.65 716.554 187.65C716.554 179.55 718.404 172.4 722.104 166.2C725.904 159.9 731.054 155 737.554 151.5C744.054 147.9 751.404 146.1 759.604 146.1C767.504 146.1 774.604 147.8 780.904 151.2C787.304 154.5 792.354 159.3 796.054 165.6C799.754 171.8 801.604 179.25 801.604 187.95C801.604 188.85 801.554 189.9 801.454 191.1C801.354 192.2 801.254 193.25 801.154 194.25H735.604V180.6H788.854L779.854 184.65C779.854 180.45 779.004 176.8 777.304 173.7C775.604 170.6 773.254 168.2 770.254 166.5C767.254 164.7 763.754 163.8 759.754 163.8C755.754 163.8 752.204 164.7 749.104 166.5C746.104 168.2 743.754 170.65 742.054 173.85C740.354 176.95 739.504 180.65 739.504 184.95V188.55C739.504 192.95 740.454 196.85 742.354 200.25C744.354 203.55 747.104 206.1 750.604 207.9C754.204 209.6 758.404 210.45 763.204 210.45C767.504 210.45 771.254 209.8 774.454 208.5C777.754 207.2 780.754 205.25 783.454 202.65L795.904 216.15C792.204 220.35 787.554 223.6 781.954 225.9C776.354 228.1 769.904 229.2 762.604 229.2ZM811.183 258.3C807.583 258.3 804.133 257.9 800.833 257.1C797.533 256.4 794.733 255.3 792.433 253.8L798.733 236.85C801.433 238.75 804.733 239.7 808.633 239.7C811.533 239.7 813.833 238.7 815.533 236.7C817.333 234.8 818.233 231.9 818.233 228V147.3H841.633V227.85C841.633 237.15 838.983 244.55 833.683 250.05C828.383 255.55 820.883 258.3 811.183 258.3ZM829.933 136.05C825.633 136.05 822.133 134.8 819.433 132.3C816.733 129.8 815.383 126.7 815.383 123C815.383 119.3 816.733 116.2 819.433 113.7C822.133 111.2 825.633 109.95 829.933 109.95C834.233 109.95 837.733 111.15 840.433 113.55C843.133 115.85 844.483 118.85 844.483 122.55C844.483 126.45 843.133 129.7 840.433 132.3C837.833 134.8 834.333 136.05 829.933 136.05ZM912.679 228V212.25L911.179 208.8V180.6C911.179 175.6 909.629 171.7 906.529 168.9C903.529 166.1 898.879 164.7 892.579 164.7C888.279 164.7 884.029 165.4 879.829 166.8C875.729 168.1 872.229 169.9 869.329 172.2L860.929 155.85C865.329 152.75 870.629 150.35 876.829 148.65C883.029 146.95 889.329 146.1 895.729 146.1C908.029 146.1 917.579 149 924.379 154.8C931.179 160.6 934.579 169.65 934.579 181.95V228H912.679ZM888.079 229.2C881.779 229.2 876.379 228.15 871.879 226.05C867.379 223.85 863.929 220.9 861.529 217.2C859.129 213.5 857.929 209.35 857.929 204.75C857.929 199.95 859.079 195.75 861.379 192.15C863.779 188.55 867.529 185.75 872.629 183.75C877.729 181.65 884.379 180.6 892.579 180.6H914.029V194.25H895.129C889.629 194.25 885.829 195.15 883.729 196.95C881.729 198.75 880.729 201 880.729 203.7C880.729 206.7 881.879 209.1 884.179 210.9C886.579 212.6 889.829 213.45 893.929 213.45C897.829 213.45 901.329 212.55 904.429 210.75C907.529 208.85 909.779 206.1 911.179 202.5L914.779 213.3C913.079 218.5 909.979 222.45 905.479 225.15C900.979 227.85 895.179 229.2 888.079 229.2ZM964.492 258.3C960.292 258.3 956.142 257.65 952.042 256.35C947.942 255.05 944.592 253.25 941.992 250.95L950.542 234.3C952.342 235.9 954.392 237.15 956.692 238.05C959.092 238.95 961.442 239.4 963.742 239.4C967.042 239.4 969.642 238.6 971.542 237C973.542 235.5 975.342 232.95 976.942 229.35L981.142 219.45L982.942 216.9L1011.89 147.3H1034.39L997.942 232.95C995.342 239.45 992.342 244.55 988.942 248.25C985.642 251.95 981.942 254.55 977.842 256.05C973.842 257.55 969.392 258.3 964.492 258.3ZM978.292 231.15L942.292 147.3H966.442L994.342 214.8L978.292 231.15Z" fill="#3BD6CC"/>
<path d="M437.65 228L432.17 225.557L428.407 234H437.65V228ZM484.45 123V117H480.555L478.97 120.557L484.45 123ZM508.45 123L513.927 120.551L512.34 117H508.45V123ZM555.4 228V234H564.655L560.877 225.551L555.4 228ZM529.9 228L524.357 230.296L525.891 234H529.9V228ZM491.5 135.3V129.3H482.52L485.957 137.596L491.5 135.3ZM501.1 135.3L506.64 137.604L510.093 129.3H501.1V135.3ZM462.55 228V234H466.553L468.09 230.304L462.55 228ZM461.05 205.5L455.386 203.52L452.596 211.5H461.05V205.5ZM467.5 187.05V181.05H463.241L461.836 185.07L467.5 187.05ZM521.5 187.05L527.149 185.029L525.726 181.05H521.5V187.05ZM528.1 205.5V211.5H536.619L533.749 203.479L528.1 205.5ZM443.13 230.443L489.93 125.443L478.97 120.557L432.17 225.557L443.13 230.443ZM484.45 129H508.45V117H484.45V129ZM502.973 125.449L549.923 230.449L560.877 225.551L513.927 120.551L502.973 125.449ZM555.4 222H529.9V234H555.4V222ZM535.443 225.704L497.043 133.004L485.957 137.596L524.357 230.296L535.443 225.704ZM491.5 141.3H501.1V129.3H491.5V141.3ZM495.56 132.996L457.01 225.696L468.09 230.304L506.64 137.604L495.56 132.996ZM462.55 222H437.65V234H462.55V222ZM466.714 207.48L473.164 189.03L461.836 185.07L455.386 203.52L466.714 207.48ZM467.5 193.05H521.5V181.05H467.5V193.05ZM515.851 189.071L522.451 207.521L533.749 203.479L527.149 185.029L515.851 189.071ZM528.1 199.5H461.05V211.5H528.1V199.5ZM684.944 150L682.131 155.3L682.196 155.334L682.26 155.367L684.944 150ZM696.644 161.7L691.339 164.503L691.37 164.563L691.404 164.622L696.644 161.7ZM700.994 228V234H706.994V228H700.994ZM677.594 228H671.594V234H677.594V228ZM673.544 171L678.068 167.059H678.068L673.544 171ZM652.994 168.75L655.908 173.995L655.981 173.954L656.053 173.912L652.994 168.75ZM646.694 175.65L652.095 178.263V178.263L646.694 175.65ZM644.444 228V234H650.444V228H644.444ZM621.044 228H615.044V234H621.044V228ZM616.994 171L612.397 174.856L612.433 174.899L612.469 174.941L616.994 171ZM596.594 168.75L599.508 173.995L599.581 173.954L599.653 173.912L596.594 168.75ZM590.294 175.65L595.695 178.263L590.294 175.65ZM588.044 228V234H594.044V228H588.044ZM564.644 228H558.644V234H564.644V228ZM564.644 147.3V141.3H558.644V147.3H564.644ZM586.994 147.3H592.994V141.3H586.994V147.3ZM586.994 169.35L581.966 172.624L592.994 189.56V169.35H586.994ZM582.794 162.9L577.447 160.178L575.874 163.268L577.766 166.174L582.794 162.9ZM594.644 150.45L597.531 155.709L597.549 155.7L597.566 155.69L594.644 150.45ZM631.694 151.8L628.283 156.736L628.334 156.772L628.386 156.806L631.694 151.8ZM642.794 168.9L641.215 174.689L650.928 177.338L648.636 167.534L642.794 168.9ZM634.544 166.65L629.029 164.286L626.313 170.624L632.965 172.439L634.544 166.65ZM647.444 151.65L644.294 146.543L644.275 146.555L644.256 146.567L647.444 151.65ZM667.994 152.1C673.565 152.1 678.222 153.226 682.131 155.3L687.756 144.7C681.865 141.574 675.223 140.1 667.994 140.1V152.1ZM682.26 155.367C686.058 157.265 689.079 160.225 691.339 164.503L701.949 158.897C698.609 152.575 693.83 147.735 687.627 144.633L682.26 155.367ZM691.404 164.622C693.653 168.655 694.994 174.255 694.994 181.8H706.994C706.994 172.945 705.435 165.145 701.884 158.778L691.404 164.622ZM694.994 181.8V228H706.994V181.8H694.994ZM700.994 222H677.594V234H700.994V222ZM683.594 228V185.4H671.594V228H683.594ZM683.594 185.4C683.594 178.25 682.138 171.732 678.068 167.059L669.019 174.941C670.35 176.468 671.594 179.55 671.594 185.4H683.594ZM678.068 167.059C674.009 162.399 668.413 160.35 662.144 160.35V172.35C665.674 172.35 667.679 173.401 669.019 174.941L678.068 167.059ZM662.144 160.35C657.76 160.35 653.638 161.394 649.935 163.588L656.053 173.912C657.75 172.906 659.727 172.35 662.144 172.35V160.35ZM650.08 163.505C646.177 165.673 643.266 168.958 641.293 173.037L652.095 178.263C653.121 176.142 654.411 174.827 655.908 173.995L650.08 163.505ZM641.293 173.037C639.275 177.207 638.444 182.13 638.444 187.5H650.444C650.444 183.27 651.113 180.293 652.095 178.263L641.293 173.037ZM638.444 187.5V228H650.444V187.5H638.444ZM644.444 222H621.044V234H644.444V222ZM627.044 228V185.4H615.044V228H627.044ZM627.044 185.4C627.044 178.25 625.588 171.732 621.518 167.059L612.469 174.941C613.799 176.468 615.044 179.55 615.044 185.4H627.044ZM621.591 167.144C617.611 162.399 612.006 160.35 605.744 160.35V172.35C609.281 172.35 611.177 173.401 612.397 174.856L621.591 167.144ZM605.744 160.35C601.36 160.35 597.238 161.394 593.535 163.588L599.653 173.912C601.35 172.906 603.327 172.35 605.744 172.35V160.35ZM593.68 163.505C589.777 165.673 586.866 168.958 584.893 173.037L595.695 178.263C596.721 176.142 598.011 174.827 599.508 173.995L593.68 163.505ZM584.893 173.037C582.875 177.207 582.044 182.13 582.044 187.5H594.044C594.044 183.27 594.713 180.293 595.695 178.263L584.893 173.037ZM582.044 187.5V228H594.044V187.5H582.044ZM588.044 222H564.644V234H588.044V222ZM570.644 228V147.3H558.644V228H570.644ZM564.644 153.3H586.994V141.3H564.644V153.3ZM580.994 147.3V169.35H592.994V147.3H580.994ZM592.022 166.076L587.822 159.626L577.766 166.174L581.966 172.624L592.022 166.076ZM588.141 165.622C590.429 161.127 593.553 157.894 597.531 155.709L591.756 145.191C585.535 148.606 580.758 153.673 577.447 160.178L588.141 165.622ZM597.566 155.69C601.779 153.341 606.653 152.1 612.344 152.1V140.1C604.834 140.1 597.909 141.759 591.721 145.21L597.566 155.69ZM612.344 152.1C618.661 152.1 623.892 153.702 628.283 156.736L635.104 146.864C628.495 142.298 620.826 140.1 612.344 140.1V152.1ZM628.386 156.806C632.483 159.513 635.434 163.775 636.951 170.266L648.636 167.534C646.554 158.625 642.104 151.487 635.001 146.794L628.386 156.806ZM644.372 163.111L636.122 160.861L632.965 172.439L641.215 174.689L644.372 163.111ZM640.059 169.014C642.27 163.855 645.748 159.796 650.631 156.733L644.256 146.567C637.339 150.904 632.218 156.845 629.029 164.286L640.059 169.014ZM650.593 156.757C655.56 153.694 661.3 152.1 667.994 152.1V140.1C659.288 140.1 651.328 142.206 644.294 146.543L650.593 156.757ZM738.304 223.8L735.529 229.12L735.544 229.128L735.56 229.136L738.304 223.8ZM722.254 209.1L717.116 212.199L717.127 212.217L717.138 212.235L722.254 209.1ZM722.104 166.2L716.966 163.101L716.959 163.113L716.952 163.125L722.104 166.2ZM737.554 151.5L740.398 156.783L740.43 156.766L740.461 156.749L737.554 151.5ZM780.904 151.2L778.054 156.48L778.104 156.507L778.154 156.533L780.904 151.2ZM796.054 165.6L790.88 168.639L790.891 168.657L790.902 168.675L796.054 165.6ZM801.454 191.1L807.429 191.643L807.431 191.621L807.433 191.598L801.454 191.1ZM801.154 194.25V200.25H806.584L807.124 194.847L801.154 194.25ZM735.604 194.25H729.604V200.25H735.604V194.25ZM735.604 180.6V174.6H729.604V180.6H735.604ZM788.854 180.6L791.316 186.072L788.854 174.6V180.6ZM779.854 184.65H773.854V193.93L782.316 190.122L779.854 184.65ZM777.304 173.7L772.043 176.585V176.585L777.304 173.7ZM770.254 166.5L767.167 171.645L767.231 171.683L767.296 171.72L770.254 166.5ZM749.104 166.5L752.062 171.72L752.089 171.705L752.117 171.689L749.104 166.5ZM742.054 173.85L747.315 176.735L747.334 176.7L747.353 176.665L742.054 173.85ZM742.354 200.25L737.116 203.177L737.168 203.269L737.223 203.36L742.354 200.25ZM750.604 207.9L747.86 213.236L747.95 213.282L748.042 213.325L750.604 207.9ZM774.454 208.5L772.255 202.918L772.225 202.929L772.196 202.941L774.454 208.5ZM783.454 202.65L787.865 198.582L783.708 194.075L779.292 198.328L783.454 202.65ZM795.904 216.15L800.406 220.116L803.981 216.058L800.315 212.082L795.904 216.15ZM781.954 225.9L784.148 231.485L784.191 231.468L784.233 231.45L781.954 225.9ZM762.604 223.2C754.197 223.2 747.067 221.56 741.048 218.464L735.56 229.136C743.541 233.24 752.61 235.2 762.604 235.2V223.2ZM741.079 218.48C735.072 215.346 730.562 211.173 727.37 205.965L717.138 212.235C721.546 219.427 727.735 225.053 735.529 229.12L741.079 218.48ZM727.392 206.001C724.205 200.717 722.554 194.656 722.554 187.65H710.554C710.554 196.644 712.703 204.883 717.116 212.199L727.392 206.001ZM722.554 187.65C722.554 180.497 724.176 174.435 727.256 169.275L716.952 163.125C712.631 170.365 710.554 178.603 710.554 187.65H722.554ZM727.242 169.299C730.485 163.922 734.841 159.775 740.398 156.783L734.709 146.217C727.267 150.225 721.323 155.878 716.966 163.101L727.242 169.299ZM740.461 156.749C745.982 153.691 752.313 152.1 759.604 152.1V140.1C750.495 140.1 742.126 142.109 734.647 146.251L740.461 156.749ZM759.604 152.1C766.614 152.1 772.718 153.6 778.054 156.48L783.754 145.92C776.49 142 768.394 140.1 759.604 140.1V152.1ZM778.154 156.533C783.53 159.305 787.746 163.302 790.88 168.639L801.228 162.561C796.962 155.298 791.078 149.695 783.654 145.867L778.154 156.533ZM790.902 168.675C793.943 173.771 795.604 180.11 795.604 187.95H807.604C807.604 178.39 805.565 169.829 801.206 162.525L790.902 168.675ZM795.604 187.95C795.604 188.639 795.565 189.516 795.475 190.602L807.433 191.598C807.543 190.284 807.604 189.061 807.604 187.95H795.604ZM795.479 190.557C795.38 191.641 795.282 192.673 795.184 193.653L807.124 194.847C807.226 193.827 807.328 192.759 807.429 191.643L795.479 190.557ZM801.154 188.25H735.604V200.25H801.154V188.25ZM741.604 194.25V180.6H729.604V194.25H741.604ZM735.604 186.6H788.854V174.6H735.604V186.6ZM786.392 175.128L777.392 179.178L782.316 190.122L791.316 186.072L786.392 175.128ZM785.854 184.65C785.854 179.631 784.833 174.952 782.565 170.815L772.043 176.585C773.174 178.648 773.854 181.269 773.854 184.65H785.854ZM782.565 170.815C780.343 166.764 777.207 163.544 773.212 161.28L767.296 171.72C769.301 172.856 770.865 174.436 772.043 176.585L782.565 170.815ZM773.341 161.355C769.281 158.919 764.682 157.8 759.754 157.8V169.8C762.825 169.8 765.227 170.481 767.167 171.645L773.341 161.355ZM759.754 157.8C754.821 157.8 750.209 158.92 746.091 161.311L752.117 171.689C754.199 170.48 756.687 169.8 759.754 169.8V157.8ZM746.146 161.28C742.101 163.572 738.962 166.881 736.755 171.035L747.353 176.665C748.546 174.419 750.107 172.828 752.062 171.72L746.146 161.28ZM736.793 170.965C734.514 175.121 733.504 179.858 733.504 184.95H745.504C745.504 181.442 746.194 178.779 747.315 176.735L736.793 170.965ZM733.504 184.95V188.55H745.504V184.95H733.504ZM733.504 188.55C733.504 193.84 734.654 198.771 737.116 203.177L747.592 197.323C746.253 194.929 745.504 192.06 745.504 188.55H733.504ZM737.223 203.36C739.809 207.628 743.394 210.939 747.86 213.236L753.348 202.564C750.813 201.261 748.898 199.472 747.485 197.14L737.223 203.36ZM748.042 213.325C752.591 215.474 757.697 216.45 763.204 216.45V204.45C759.11 204.45 755.817 203.726 753.166 202.475L748.042 213.325ZM763.204 216.45C768.095 216.45 772.643 215.712 776.712 214.059L772.196 202.941C769.865 203.888 766.913 204.45 763.204 204.45V216.45ZM776.653 214.082C780.724 212.479 784.383 210.085 787.616 206.972L779.292 198.328C777.125 200.415 774.783 201.921 772.255 202.918L776.653 214.082ZM779.043 206.718L791.493 220.218L800.315 212.082L787.865 198.582L779.043 206.718ZM791.402 212.184C788.36 215.637 784.493 218.371 779.674 220.35L784.233 231.45C790.615 228.829 796.048 225.063 800.406 220.116L791.402 212.184ZM779.76 220.315C774.99 222.189 769.309 223.2 762.604 223.2V235.2C770.499 235.2 777.717 234.011 784.148 231.485L779.76 220.315ZM800.833 257.1L802.246 251.269L802.162 251.249L802.078 251.231L800.833 257.1ZM792.433 253.8L786.809 251.71L785.138 256.206L789.155 258.826L792.433 253.8ZM798.733 236.85L802.186 231.943L795.82 227.464L793.109 234.76L798.733 236.85ZM815.533 236.7L811.177 232.574L811.066 232.691L810.961 232.814L815.533 236.7ZM818.233 147.3V141.3H812.233V147.3H818.233ZM841.633 147.3H847.633V141.3H841.633V147.3ZM833.683 250.05L829.362 245.887L833.683 250.05ZM819.433 132.3L815.356 136.703V136.703L819.433 132.3ZM819.433 113.7L823.509 118.103L823.509 118.103L819.433 113.7ZM840.433 113.55L836.447 118.034L836.494 118.076L836.542 118.117L840.433 113.55ZM840.433 132.3L844.591 136.625L844.595 136.622L840.433 132.3ZM811.183 252.3C808.031 252.3 805.057 251.95 802.246 251.269L799.419 262.931C803.209 263.85 807.135 264.3 811.183 264.3V252.3ZM802.078 251.231C799.342 250.65 797.267 249.79 795.71 248.774L789.155 258.826C792.199 260.811 795.724 262.15 799.588 262.969L802.078 251.231ZM798.057 255.89L804.357 238.94L793.109 234.76L786.809 251.71L798.057 255.89ZM795.28 241.757C799.164 244.49 803.727 245.7 808.633 245.7V233.7C805.739 233.7 803.702 233.01 802.186 231.943L795.28 241.757ZM808.633 245.7C813.085 245.7 817.136 244.078 820.104 240.586L810.961 232.814C810.529 233.322 809.981 233.7 808.633 233.7V245.7ZM819.889 240.826C823.162 237.371 824.233 232.696 824.233 228H812.233C812.233 231.104 811.504 232.229 811.177 232.574L819.889 240.826ZM824.233 228V147.3H812.233V228H824.233ZM818.233 153.3H841.633V141.3H818.233V153.3ZM835.633 147.3V227.85H847.633V147.3H835.633ZM835.633 227.85C835.633 235.955 833.36 241.738 829.362 245.887L838.003 254.213C844.606 247.362 847.633 238.345 847.633 227.85H835.633ZM829.362 245.887C825.48 249.916 819.718 252.3 811.183 252.3V264.3C822.048 264.3 831.286 261.184 838.003 254.213L829.362 245.887ZM829.933 130.05C826.873 130.05 824.916 129.2 823.509 127.897L815.356 136.703C819.35 140.4 824.393 142.05 829.933 142.05V130.05ZM823.509 127.897C822.043 126.54 821.383 125.039 821.383 123H809.383C809.383 128.361 811.422 133.06 815.356 136.703L823.509 127.897ZM821.383 123C821.383 120.961 822.043 119.46 823.509 118.103L815.356 109.297C811.422 112.94 809.383 117.639 809.383 123H821.383ZM823.509 118.103C824.916 116.8 826.873 115.95 829.933 115.95V103.95C824.393 103.95 819.35 105.6 815.356 109.297L823.509 118.103ZM829.933 115.95C833.058 115.95 835.047 116.79 836.447 118.034L844.419 109.066C840.419 105.51 835.407 103.95 829.933 103.95V115.95ZM836.542 118.117C837.839 119.222 838.483 120.521 838.483 122.55H850.483C850.483 117.179 848.427 112.478 844.324 108.983L836.542 118.117ZM838.483 122.55C838.483 124.893 837.744 126.559 836.271 127.978L844.595 136.622C848.521 132.841 850.483 128.007 850.483 122.55H838.483ZM836.274 127.975C835.027 129.174 833.143 130.05 829.933 130.05V142.05C835.523 142.05 840.638 140.426 844.591 136.625L836.274 127.975ZM912.679 228H906.679V234H912.679V228ZM912.679 212.25H918.679V211.002L918.181 209.858L912.679 212.25ZM911.179 208.8H905.179V210.048L905.676 211.192L911.179 208.8ZM906.529 168.9L902.435 173.286L902.471 173.32L902.507 173.353L906.529 168.9ZM879.829 166.8L881.642 172.519L881.684 172.506L881.726 172.492L879.829 166.8ZM869.329 172.2L863.992 174.942L867.332 181.442L873.057 176.901L869.329 172.2ZM860.929 155.85L857.473 150.945L853.207 153.95L855.592 158.592L860.929 155.85ZM876.829 148.65L875.242 142.864V142.864L876.829 148.65ZM924.379 154.8L928.273 150.235L924.379 154.8ZM934.579 228V234H940.579V228H934.579ZM871.879 226.05L869.244 231.44L869.292 231.464L869.342 231.487L871.879 226.05ZM861.529 217.2L866.563 213.935V213.935L861.529 217.2ZM861.379 192.15L856.387 188.822L856.354 188.87L856.323 188.92L861.379 192.15ZM872.629 183.75L874.819 189.336L874.867 189.317L874.913 189.298L872.629 183.75ZM914.029 180.6H920.029V174.6H914.029V180.6ZM914.029 194.25V200.25H920.029V194.25H914.029ZM883.729 196.95L879.824 192.394L879.769 192.442L879.715 192.49L883.729 196.95ZM884.179 210.9L880.481 215.625L880.594 215.713L880.711 215.796L884.179 210.9ZM904.429 210.75L907.442 215.939L907.503 215.903L907.564 215.866L904.429 210.75ZM911.179 202.5L916.871 200.603L911.613 184.829L905.587 200.325L911.179 202.5ZM914.779 213.3L920.482 215.164L921.097 213.282L920.471 211.403L914.779 213.3ZM905.479 225.15L902.392 220.005L905.479 225.15ZM918.679 228V212.25H906.679V228H918.679ZM918.181 209.858L916.681 206.408L905.676 211.192L907.176 214.642L918.181 209.858ZM917.179 208.8V180.6H905.179V208.8H917.179ZM917.179 180.6C917.179 174.267 915.157 168.608 910.551 164.447L902.507 173.353C904.101 174.792 905.179 176.933 905.179 180.6H917.179ZM910.623 164.514C906.045 160.241 899.61 158.7 892.579 158.7V170.7C898.147 170.7 901.012 171.959 902.435 173.286L910.623 164.514ZM892.579 158.7C887.615 158.7 882.725 159.51 877.932 161.108L881.726 172.492C885.333 171.29 888.943 170.7 892.579 170.7V158.7ZM878.015 161.081C873.331 162.566 869.156 164.679 865.601 167.499L873.057 176.901C875.302 175.121 878.126 173.634 881.642 172.519L878.015 161.081ZM874.666 169.458L866.266 153.108L855.592 158.592L863.992 174.942L874.666 169.458ZM864.385 160.755C868.119 158.124 872.758 155.988 878.415 154.436L875.242 142.864C868.5 144.712 862.539 147.376 857.473 150.945L864.385 160.755ZM878.415 154.436C884.101 152.878 889.867 152.1 895.729 152.1V140.1C888.79 140.1 881.957 141.022 875.242 142.864L878.415 154.436ZM895.729 152.1C907.138 152.1 915.119 154.788 920.485 159.365L928.273 150.235C920.039 143.212 908.92 140.1 895.729 140.1V152.1ZM920.485 159.365C925.499 163.641 928.579 170.714 928.579 181.95H940.579C940.579 168.586 936.859 157.559 928.273 150.235L920.485 159.365ZM928.579 181.95V228H940.579V181.95H928.579ZM934.579 222H912.679V234H934.579V222ZM888.079 223.2C882.428 223.2 877.938 222.257 874.416 220.613L869.342 231.487C874.82 234.043 881.13 235.2 888.079 235.2V223.2ZM874.514 220.66C870.856 218.871 868.294 216.603 866.563 213.935L856.495 220.465C859.564 225.197 863.902 228.829 869.244 231.44L874.514 220.66ZM866.563 213.935C864.821 211.25 863.929 208.244 863.929 204.75H851.929C851.929 210.456 853.436 215.75 856.495 220.465L866.563 213.935ZM863.929 204.75C863.929 200.949 864.826 197.9 866.435 195.38L856.323 188.92C853.332 193.6 851.929 198.951 851.929 204.75H863.929ZM866.371 195.478C867.929 193.142 870.557 191.007 874.819 189.336L870.438 178.164C864.5 180.493 859.629 183.958 856.387 188.822L866.371 195.478ZM874.913 189.298C879.026 187.605 884.816 186.6 892.579 186.6V174.6C883.942 174.6 876.432 175.695 870.344 178.202L874.913 189.298ZM892.579 186.6H914.029V174.6H892.579V186.6ZM908.029 180.6V194.25H920.029V180.6H908.029ZM914.029 188.25H895.129V200.25H914.029V188.25ZM895.129 188.25C889.403 188.25 883.669 189.099 879.824 192.394L887.634 201.506C887.989 201.201 889.854 200.25 895.129 200.25V188.25ZM879.715 192.49C876.446 195.433 874.729 199.306 874.729 203.7H886.729C886.729 202.694 887.012 202.067 887.743 201.41L879.715 192.49ZM874.729 203.7C874.729 208.487 876.682 212.652 880.481 215.625L887.877 206.175C887.075 205.548 886.729 204.913 886.729 203.7H874.729ZM880.711 215.796C884.454 218.447 889.062 219.45 893.929 219.45V207.45C890.596 207.45 888.704 206.753 887.647 206.004L880.711 215.796ZM893.929 219.45C898.791 219.45 903.347 218.316 907.442 215.939L901.416 205.561C899.311 206.784 896.867 207.45 893.929 207.45V219.45ZM907.564 215.866C911.855 213.236 914.927 209.416 916.771 204.675L905.587 200.325C904.631 202.784 903.203 204.464 901.294 205.634L907.564 215.866ZM905.487 204.397L909.087 215.197L920.471 211.403L916.871 200.603L905.487 204.397ZM909.076 211.436C907.804 215.327 905.597 218.082 902.392 220.005L908.566 230.295C914.361 226.818 918.354 221.673 920.482 215.164L909.076 211.436ZM902.392 220.005C899.098 221.982 894.462 223.2 888.079 223.2V235.2C895.896 235.2 902.86 233.718 908.566 230.295L902.392 220.005ZM952.042 256.35L953.856 250.631L952.042 256.35ZM941.992 250.95L936.655 248.209L934.526 252.356L938.017 255.444L941.992 250.95ZM950.542 234.3L954.528 229.816L948.742 224.672L945.205 231.559L950.542 234.3ZM956.692 238.05L954.506 243.637L954.546 243.653L954.585 243.668L956.692 238.05ZM971.542 237L967.942 232.2L967.807 232.302L967.677 232.411L971.542 237ZM976.942 229.35L982.425 231.787L982.446 231.74L982.466 231.693L976.942 229.35ZM981.142 219.45L976.24 215.99L975.87 216.515L975.619 217.107L981.142 219.45ZM982.942 216.9L987.844 220.36L988.227 219.818L988.482 219.204L982.942 216.9ZM1011.89 147.3V141.3H1007.89L1006.35 144.996L1011.89 147.3ZM1034.39 147.3L1039.91 149.649L1043.47 141.3H1034.39V147.3ZM997.942 232.95L992.421 230.6L992.396 230.661L992.371 230.722L997.942 232.95ZM988.942 248.25L984.524 244.19L984.494 244.223L984.464 244.256L988.942 248.25ZM977.842 256.05L975.781 250.415L975.758 250.424L975.735 250.432L977.842 256.05ZM978.292 231.15L972.779 233.517L976.308 241.736L982.574 235.353L978.292 231.15ZM942.292 147.3V141.3H933.187L936.779 149.667L942.292 147.3ZM966.442 147.3L971.987 145.008L970.455 141.3H966.442V147.3ZM994.342 214.8L998.624 219.003L1001.4 216.173L999.887 212.508L994.342 214.8ZM964.492 252.3C960.922 252.3 957.383 251.749 953.856 250.631L950.229 262.069C954.901 263.551 959.662 264.3 964.492 264.3V252.3ZM953.856 250.631C950.368 249.525 947.809 248.085 945.968 246.456L938.017 255.444C941.375 258.415 945.516 260.575 950.229 262.069L953.856 250.631ZM947.33 253.691L955.88 237.041L945.205 231.559L936.655 248.209L947.33 253.691ZM946.556 238.784C948.9 240.868 951.563 242.486 954.506 243.637L958.879 232.463C957.222 231.814 955.785 230.932 954.528 229.816L946.556 238.784ZM954.585 243.668C957.582 244.792 960.645 245.4 963.742 245.4V233.4C962.239 233.4 960.602 233.108 958.799 232.432L954.585 243.668ZM963.742 245.4C967.988 245.4 972.114 244.363 975.407 241.589L967.677 232.411C967.171 232.837 966.097 233.4 963.742 233.4V245.4ZM975.142 241.8C978.302 239.43 980.626 235.835 982.425 231.787L971.459 226.913C970.058 230.065 968.782 231.57 967.942 232.2L975.142 241.8ZM982.466 231.693L986.666 221.793L975.619 217.107L971.419 227.007L982.466 231.693ZM986.044 222.91L987.844 220.36L978.04 213.44L976.24 215.99L986.044 222.91ZM988.482 219.204L1017.43 149.604L1006.35 144.996L977.402 214.596L988.482 219.204ZM1011.89 153.3H1034.39V141.3H1011.89V153.3ZM1028.87 144.95L992.421 230.6L1003.46 235.299L1039.91 149.649L1028.87 144.95ZM992.371 230.722C989.943 236.792 987.28 241.191 984.524 244.19L993.36 252.31C997.404 247.909 1000.74 242.108 1003.51 235.178L992.371 230.722ZM984.464 244.256C981.732 247.32 978.833 249.299 975.781 250.415L979.904 261.685C985.052 259.801 989.552 256.58 993.42 252.244L984.464 244.256ZM975.735 250.432C972.5 251.645 968.777 252.3 964.492 252.3V264.3C970.007 264.3 975.184 263.455 979.949 261.668L975.735 250.432ZM983.806 228.783L947.806 144.933L936.779 149.667L972.779 233.517L983.806 228.783ZM942.292 153.3H966.442V141.3H942.292V153.3ZM960.897 149.592L988.797 217.092L999.887 212.508L971.987 145.008L960.897 149.592ZM990.06 210.597L974.01 226.947L982.574 235.353L998.624 219.003L990.06 210.597Z" fill="#242855" mask="url(#path-4-outside-1_40_11)"/>
</g>
</g>
<defs>
<filter id="filter0_d_40_11" x="433.65" y="109.95" width="604.742" height="158.35" filterUnits="userSpaceOnUse" color-interpolation-filters="sRGB">
<feFlood flood-opacity="0" result="BackgroundImageFix"/>
<feColorMatrix in="SourceAlpha" type="matrix" values="0 0 0 0 0 0 0 0 0 0 0 0 0 0 0 0 0 0 127 0" result="hardAlpha"/>
<feOffset dy="6"/>
<feGaussianBlur stdDeviation="2"/>
<feComposite in2="hardAlpha" operator="out"/>
<feColorMatrix type="matrix" values="0 0 0 0 0 0 0 0 0 0 0 0 0 0 0 0 0 0 0.25 0"/>
<feBlend mode="normal" in2="BackgroundImageFix" result="effect1_dropShadow_40_11"/>
<feBlend mode="normal" in="SourceGraphic" in2="effect1_dropShadow_40_11" result="shape"/>
</filter>
<clipPath id="clip0_40_11">
<rect width="1262" height="362" fill="white"/>
</clipPath>
<clipPath id="clip1_40_11">
<rect width="156.041" height="156.041" fill="white" transform="translate(225.979 102.979)"/>
</clipPath>
</defs>
</svg>
