<svg width="80" height="80" viewBox="0 0 185 105" fill="none" xmlns="http://www.w3.org/2000/svg">
<path fill-rule="evenodd" clip-rule="evenodd" d="M48.8545 65.8749L29.1067 89.2024C26.4747 92.2511 22.9349 93.944 19.2567 93.9131C15.5785 93.8822 12.0592 92.13 9.46393 89.0374C6.86865 85.9448 5.40715 81.7618 5.39715 77.3977C5.38714 73.0337 6.82944 68.8413 9.4105 65.732L29.1583 42.4045C31.7902 39.3558 35.33 37.6629 39.0083 37.6938C42.6865 37.7247 46.2057 39.4769 48.801 42.5695C51.3963 45.6621 52.8578 49.8451 52.8678 54.2091C52.8778 58.5732 51.4355 62.7656 48.8545 65.8749ZM45.4128 46.5724C43.7206 44.5587 41.424 43.424 39.0272 43.4174C36.6305 43.4109 34.3295 44.533 32.6295 46.5374L12.8792 69.8649C11.1798 71.8723 10.2221 74.5984 10.2168 77.4435C10.2115 80.2886 11.159 83.0197 12.8509 85.0359C14.5429 87.0522 16.8406 88.1884 19.2386 88.1947C21.6366 88.201 23.9385 87.0768 25.638 85.0695L45.3857 61.742C47.0838 59.7341 48.0406 57.0087 48.0462 54.1644C48.0517 51.3201 47.1054 48.5895 45.4152 46.5724H45.4128Z" fill="#242855"/>
<path fill-rule="evenodd" clip-rule="evenodd" d="M19.9567 54.8618C20.4177 54.315 21.0429 54.0078 21.6947 54.0078C22.3466 54.0078 22.9718 54.315 23.4328 54.8618L38.3057 72.5076C38.7535 73.0577 39.0013 73.7945 38.9957 74.5592C38.9901 75.3239 38.7316 76.0555 38.2758 76.5962C37.82 77.137 37.2034 77.4438 36.5588 77.4504C35.9142 77.4571 35.2933 77.1631 34.8296 76.6318L19.9567 58.9859C19.4958 58.439 19.2369 57.6973 19.2369 56.9239C19.2369 56.1505 19.4958 55.4087 19.9567 54.8618Z" fill="#242855"/>
<path d="M71.5833 70.6252C71.5833 77.5293 76.7917 80.0002 82 80.0002C87.2083 80.0002 92.4167 77.5293 92.4167 70.6252C92.4167 63.721 82 55.0002 82 55.0002C82 55.0002 71.5833 63.721 71.5833 70.6252ZM69.7833 13.3335H94.2167C98.05 13.3335 99.975 13.3335 101.167 14.5543C103.388 16.8293 103.388 26.5043 101.167 28.7793C99.9709 30.0002 98.0542 30.0002 94.2167 30.0002H69.7833C65.95 30.0002 64.0292 30.0002 62.8333 28.7793C60.6125 26.5043 60.6125 16.8293 62.8333 14.5543C64.025 13.3335 65.9458 13.3335 69.7833 13.3335Z" stroke="#242855" stroke-width="5" stroke-linecap="round" stroke-linejoin="round"/>
<path d="M65.3333 30C65.8052 30.8885 66.2308 31.8008 66.6083 32.7333C67.2372 34.4606 67.4774 36.3054 67.3118 38.1362C67.1461 39.9669 66.5787 41.7386 65.65 43.325C65.1122 44.1739 64.5309 44.9944 63.9083 45.7833L62.2292 48.0292C60.3542 50.5292 59.4167 51.7792 58.7375 53.15C58.051 54.5337 57.5602 56.0061 57.2792 57.525C57 59.0208 57 60.5833 57 63.7167V71.6667C57 83.45 57 89.3458 60.6625 93.0042C64.3208 96.6667 70.2167 96.6667 82 96.6667C93.7833 96.6667 99.6792 96.6667 103.337 93.0042C107 89.3458 107 83.45 107 71.6667V63.7167C107 60.5917 107 59.025 106.721 57.5208C106.44 56.002 105.949 54.5295 105.262 53.1458C104.583 51.7792 103.646 50.5292 101.771 48.0292L100.092 45.7875C99.4677 44.9987 98.885 44.1782 98.3458 43.3292C97.4165 41.7423 96.8488 39.9698 96.6831 38.1383C96.5175 36.3068 96.758 34.4612 97.3875 32.7333C97.6375 32.0625 97.9792 31.375 98.6667 30" stroke="#242855" stroke-width="5" stroke-linecap="round" stroke-linejoin="round"/>
<path d="M118.333 25.0002C118.805 25.8887 119.231 26.801 119.608 27.7335C120.237 29.4608 120.477 31.3056 120.312 33.1363C120.146 34.9671 119.579 36.7388 118.65 38.3252C118.112 39.1741 117.531 39.9946 116.908 40.7835L115.229 43.0293C113.354 45.5293 112.417 46.7793 111.737 48.1502C111.051 49.5339 110.56 51.0063 110.279 52.5252C110 54.021 110 55.5835 110 58.7168V66.6668C110 78.4502 110 84.346 113.663 88.0043C117.321 91.6668 123.217 91.6668 135 91.6668C146.783 91.6668 152.679 91.6668 156.337 88.0043C160 84.346 160 78.4502 160 66.6668V58.7168C160 55.5918 160 54.0252 159.721 52.521C159.44 51.0021 158.949 49.5297 158.262 48.146C157.583 46.7793 156.646 45.5293 154.771 43.0293L153.092 40.7877C152.468 39.9989 151.885 39.1783 151.346 38.3293C150.416 36.7424 149.849 34.97 149.683 33.1385C149.517 31.3069 149.758 29.4614 150.387 27.7335C150.637 27.0627 150.979 26.3752 151.667 25.0002M135 54.1668V75.0002M124.583 64.5835H145.417M122.783 8.3335H147.217C151.05 8.3335 152.975 8.3335 154.167 9.55433C156.387 11.8293 156.387 21.5043 154.167 23.7793C152.971 25.0002 151.054 25.0002 147.217 25.0002H122.783C118.95 25.0002 117.029 25.0002 115.833 23.7793C113.613 21.5043 113.613 11.8293 115.833 9.55433C117.025 8.3335 118.946 8.3335 122.783 8.3335Z" stroke="#242855" stroke-width="5" stroke-linecap="round" stroke-linejoin="round"/>
</svg>
