<svg width="40" height="40" viewBox="0 0 75 75" fill="none" xmlns="http://www.w3.org/2000/svg">
<path fill-rule="evenodd" clip-rule="evenodd" d="M75.0022 16.6667C75.0022 21.0869 73.2462 25.3262 70.1206 28.4518C66.995 31.5774 62.7558 33.3333 58.3355 33.3333C53.9152 33.3333 49.676 31.5774 46.5504 28.4518C43.4248 25.3262 41.6688 21.0869 41.6688 16.6667C41.6688 12.2464 43.4248 8.00716 46.5504 4.88155C49.676 1.75595 53.9152 0 58.3355 0C62.7558 0 66.995 1.75595 70.1206 4.88155C73.2462 8.00716 75.0022 12.2464 75.0022 16.6667ZM67.2563 18.7187C67.1323 19.2568 66.7997 19.7235 66.3317 20.0165C65.8638 20.3095 65.2986 20.4047 64.7605 20.2812L50.9772 17.1146C50.4384 16.9908 49.9709 16.6581 49.6775 16.1897C49.3841 15.7212 49.2888 15.1554 49.4126 14.6167C49.5363 14.0779 49.869 13.6105 50.3375 13.317C50.8059 13.0236 51.3718 12.9283 51.9105 13.0521L65.6938 16.2208C65.9604 16.2822 66.2123 16.3956 66.4352 16.5543C66.658 16.7131 66.8473 16.9142 66.9924 17.1462C67.1375 17.3781 67.2355 17.6364 67.2808 17.9062C67.3261 18.176 67.3178 18.4521 67.2563 18.7187Z" fill="#05B9AE"/>
<path d="M22.4563 6.76053C21.1084 3.56886 16.5959 3.24803 14.7855 6.21261L0.610477 29.4064C-1.02494 32.0814 0.802144 35.498 3.99173 35.7251L28.7126 37.4876C31.9001 37.7168 34.2209 34.5959 33.0042 31.7168L22.4563 6.76053Z" fill="#05B9AE"/>
<path fill-rule="evenodd" clip-rule="evenodd" d="M61.2209 63.2502C64.2256 61.8492 66.5507 59.312 67.6847 56.1968C68.8187 53.0815 68.6687 49.6434 67.2678 46.6387C65.8668 43.634 63.3297 41.3089 60.2144 40.1749C57.0992 39.0409 53.661 39.1909 50.6563 40.5918L27.998 51.1543C24.993 52.5553 22.6677 55.0926 21.5335 58.208C20.3993 61.3235 20.5491 64.7619 21.9501 67.7668C23.351 70.7718 25.8883 73.0972 29.0038 74.2314C32.1192 75.3656 35.5576 75.2157 38.5626 73.8148L61.2209 63.2502ZM49.8834 63.9377L59.4605 59.4731C61.4412 58.5253 62.9677 56.8341 63.7084 54.767C64.4491 52.6999 64.344 50.424 63.4159 48.434C62.4879 46.444 60.8119 44.9007 58.7523 44.1395C56.6927 43.3783 54.4159 43.4607 52.4167 44.3689L42.8397 48.8335L49.8834 63.9377Z" fill="#05B9AE"/>
</svg>
