<svg width="40" height="40" viewBox="0 0 86 85" fill="none" xmlns="http://www.w3.org/2000/svg">
<path d="M39.5163 0.841704C34.597 0.525027 29.9126 3.18458 27.5229 7.69422L50.9433 17.1508C52.5318 10.7359 49.2623 4.12274 43.3268 1.71134C42.2632 1.28048 41.134 0.999713 39.9917 0.880613L39.5163 0.841704ZM26.351 10.751C24.7434 17.1826 28.0115 23.8139 33.965 26.2213C39.9361 28.6301 46.7239 26.0404 49.7896 20.2017L26.351 10.751ZM72.4388 22.6224C67.9828 22.2759 63.0652 24.1045 59.0643 29.0253L34.4608 59.3612C27.8578 67.4888 29.6909 76.7092 35.1533 81.4354C40.6318 86.1812 49.7395 86.4329 56.3425 78.3053L80.9269 47.9862C87.5314 39.8404 85.6968 30.6382 80.2359 25.8938C78.1835 24.1166 75.6359 22.9755 72.879 22.6584L72.4388 22.6224ZM71.8647 25.739C72.0936 25.7577 72.3225 25.7765 72.5323 25.8119C74.6553 26.0771 76.5985 27.0225 78.1862 28.4143C82.4406 32.0907 84.1722 38.8706 78.4757 45.8837L65.7589 61.5754C59.5984 59.3156 51.9853 52.7127 48.7619 46.8348L61.5155 31.1278C64.8464 27.0298 68.5311 25.5393 71.8647 25.739ZM14.3633 34.9674C12.6681 34.8469 10.9674 35.0735 9.35652 35.6548C3.3113 37.8116 -0.27247 44.2845 0.988437 50.7516L24.8531 42.2629C22.8752 38.0596 18.884 35.2825 14.3633 34.9674ZM25.8594 45.3444L1.99673 53.8514C4.77836 59.8212 11.4313 62.6699 17.51 60.5158C23.5725 58.3421 27.154 51.8325 25.8594 45.3444Z" fill="#05B9AE"/>
</svg>
