<svg width="40" height="40" viewBox="0 0 100 100" fill="none" xmlns="http://www.w3.org/2000/svg">
<path d="M66.6667 12.5C69.8551 12.4998 72.923 13.718 75.2428 15.9053C77.5625 18.0927 78.9588 21.0838 79.1458 24.2667L79.1667 25V66.6667H82.2917C84.9875 66.6667 87.2083 68.7167 87.475 71.3417L87.5 71.875V79.1667C87.5002 82.355 86.282 85.423 84.0947 87.7427C81.9073 90.0625 78.9162 91.4588 75.7333 91.6458L75 91.6667H33.3333C30.145 91.6668 27.077 90.4486 24.7573 88.2613C22.4375 86.074 21.0412 83.0829 20.8542 79.9L20.8333 79.1667V37.5H13.5417C12.2523 37.5006 11.0085 37.0229 10.051 36.1593C9.0935 35.2957 8.49038 34.1076 8.35834 32.825L8.33334 32.2917V25C8.33317 21.8116 9.55136 18.7437 11.7387 16.4239C13.926 14.1041 16.9171 12.7079 20.1 12.5208L20.8333 12.5H66.6667ZM66.6667 20.8333H29.1667V79.1667C29.1667 80.2717 29.6057 81.3315 30.3871 82.1129C31.1685 82.8943 32.2283 83.3333 33.3333 83.3333C34.4384 83.3333 35.4982 82.8943 36.2796 82.1129C37.061 81.3315 37.5 80.2717 37.5 79.1667V71.875C37.5 69 39.8333 66.6667 42.7083 66.6667H70.8333V25C70.8333 23.8949 70.3944 22.8351 69.613 22.0537C68.8316 21.2723 67.7717 20.8333 66.6667 20.8333ZM79.1667 75H45.8333V79.1667C45.8333 80.625 45.5833 82.0292 45.125 83.3333H75C76.1051 83.3333 77.1649 82.8943 77.9463 82.1129C78.7277 81.3315 79.1667 80.2717 79.1667 79.1667V75ZM50 50C51.1051 50 52.1649 50.439 52.9463 51.2204C53.7277 52.0018 54.1667 53.0616 54.1667 54.1667C54.1667 55.2717 53.7277 56.3315 52.9463 57.1129C52.1649 57.8943 51.1051 58.3333 50 58.3333H41.6667C40.5616 58.3333 39.5018 57.8943 38.7204 57.1129C37.939 56.3315 37.5 55.2717 37.5 54.1667C37.5 53.0616 37.939 52.0018 38.7204 51.2204C39.5018 50.439 40.5616 50 41.6667 50H50ZM58.3333 33.3333C59.4384 33.3333 60.4982 33.7723 61.2796 34.5537C62.061 35.3351 62.5 36.3949 62.5 37.5C62.5 38.6051 62.061 39.6649 61.2796 40.4463C60.4982 41.2277 59.4384 41.6667 58.3333 41.6667H41.6667C40.5616 41.6667 39.5018 41.2277 38.7204 40.4463C37.939 39.6649 37.5 38.6051 37.5 37.5C37.5 36.3949 37.939 35.3351 38.7204 34.5537C39.5018 33.7723 40.5616 33.3333 41.6667 33.3333H58.3333ZM20.8333 20.8333C19.8128 20.8335 18.8278 21.2081 18.0651 21.8863C17.3025 22.5645 16.8152 23.499 16.6958 24.5125L16.6667 25V29.1667H20.8333V20.8333Z" fill="#242855"/>
</svg>
