<svg width="40" height="40" viewBox="0 0 40 40" fill="none" xmlns="http://www.w3.org/2000/svg">
<path d="M26.6667 5C27.942 4.99993 29.1692 5.48721 30.0971 6.36214C31.025 7.23707 31.5835 8.43351 31.6583 9.70667L31.6667 10V26.6667H32.9167C33.995 26.6667 34.8833 27.4867 34.99 28.5367L35 28.75V31.6667C35.0001 32.942 34.5128 34.1692 33.6379 35.0971C32.7629 36.025 31.5665 36.5835 30.2933 36.6583L30 36.6667H13.3333C12.058 36.6667 10.8308 36.1795 9.90291 35.3045C8.975 34.4296 8.4165 33.2332 8.34168 31.96L8.33334 31.6667V15H5.41668C4.90091 15.0002 4.4034 14.8091 4.0204 14.4637C3.6374 14.1183 3.39616 13.6431 3.34334 13.13L3.33334 12.9167V10C3.33327 8.72465 3.82055 7.49748 4.69548 6.56957C5.57041 5.64166 6.76686 5.08315 8.04001 5.00833L8.33334 5H26.6667ZM26.6667 8.33333H11.6667V31.6667C11.6667 32.1087 11.8423 32.5326 12.1548 32.8452C12.4674 33.1577 12.8913 33.3333 13.3333 33.3333C13.7754 33.3333 14.1993 33.1577 14.5119 32.8452C14.8244 32.5326 15 32.1087 15 31.6667V28.75C15 27.6 15.9333 26.6667 17.0833 26.6667H28.3333V10C28.3333 9.55797 28.1577 9.13405 27.8452 8.82149C27.5326 8.50893 27.1087 8.33333 26.6667 8.33333ZM31.6667 30H18.3333V31.6667C18.3333 32.25 18.2333 32.8117 18.05 33.3333H30C30.442 33.3333 30.866 33.1577 31.1785 32.8452C31.4911 32.5326 31.6667 32.1087 31.6667 31.6667V30ZM20 20C20.442 20 20.866 20.1756 21.1785 20.4882C21.4911 20.8007 21.6667 21.2246 21.6667 21.6667C21.6667 22.1087 21.4911 22.5326 21.1785 22.8452C20.866 23.1577 20.442 23.3333 20 23.3333H16.6667C16.2246 23.3333 15.8007 23.1577 15.4882 22.8452C15.1756 22.5326 15 22.1087 15 21.6667C15 21.2246 15.1756 20.8007 15.4882 20.4882C15.8007 20.1756 16.2246 20 16.6667 20H20ZM23.3333 13.3333C23.7754 13.3333 24.1993 13.5089 24.5119 13.8215C24.8244 14.134 25 14.558 25 15C25 15.442 24.8244 15.866 24.5119 16.1785C24.1993 16.4911 23.7754 16.6667 23.3333 16.6667H16.6667C16.2246 16.6667 15.8007 16.4911 15.4882 16.1785C15.1756 15.866 15 15.442 15 15C15 14.558 15.1756 14.134 15.4882 13.8215C15.8007 13.5089 16.2246 13.3333 16.6667 13.3333H23.3333ZM8.33334 8.33333C7.92512 8.33339 7.53112 8.48326 7.22606 8.75453C6.921 9.02579 6.72611 9.39958 6.67834 9.805L6.66668 10V11.6667H8.33334V8.33333Z" fill="#CFCDCD"/>
</svg>
