<svg width="512" height="512" viewBox="0 0 512 512" fill="none" xmlns="http://www.w3.org/2000/svg">
<g clip-path="url(#clip0_16_290)">
<path d="M417.607 32.7017H303.976V174.226H417.607V32.7017Z" fill="#F3F5FD"/>
<path d="M353.84 136.494H319.504C311.497 136.494 313.368 130.076 313.368 122.159V109.804C313.368 101.216 315.663 92.782 320.021 85.355C324.378 77.928 330.643 71.7725 338.18 67.5122L338.388 67.395C339.733 66.6348 341.256 66.2373 342.805 66.2424C344.354 66.2475 345.874 66.655 347.214 67.424C348.554 68.193 349.666 69.2967 350.439 70.6245C351.212 71.9522 351.619 73.4576 351.62 74.9898V122.154C351.62 130.074 353.488 136.489 345.484 136.489L353.84 136.494Z" fill="#D7E8F4"/>
<path d="M365.157 136.494H399.493C407.5 136.494 405.629 130.076 405.629 122.159V109.804C405.628 101.217 403.332 92.784 398.975 85.358C394.618 77.932 388.353 71.7773 380.816 67.5175L380.609 67.4002C379.264 66.64 377.741 66.2426 376.192 66.2477C374.643 66.2528 373.122 66.6602 371.783 67.4293C370.443 68.1983 369.331 69.3019 368.558 70.6297C367.784 71.9575 367.377 73.4629 367.377 74.9951V122.159C367.377 130.079 365.509 136.494 373.514 136.494H365.157Z" fill="#D7E8F4"/>
<path d="M380.989 101.595C380.386 102.19 379.569 102.524 378.718 102.524C377.866 102.524 377.049 102.19 376.446 101.595L364.109 89.3928C362.886 88.1845 361.227 87.5058 359.498 87.5058C357.769 87.5058 356.111 88.1845 354.887 89.3928L342.55 101.595C342.252 101.89 341.898 102.124 341.508 102.284C341.118 102.444 340.7 102.526 340.278 102.526C339.856 102.526 339.438 102.444 339.048 102.285C338.659 102.125 338.304 101.891 338.006 101.596C337.707 101.301 337.471 100.95 337.309 100.565C337.148 100.179 337.065 99.7657 337.064 99.3483C337.064 98.9309 337.147 98.5176 337.309 98.1319C337.47 97.7463 337.707 97.3959 338.005 97.1007L354.374 80.9099C354.982 80.3124 355.464 79.6014 355.791 78.8183C356.119 78.0352 356.287 77.1955 356.284 76.3479V59.8212C356.276 59.399 356.353 58.9795 356.511 58.5871C356.669 58.1948 356.905 57.8376 357.204 57.5362C357.503 57.2349 357.86 56.9956 358.254 56.8322C358.647 56.6688 359.07 56.5847 359.497 56.5847C359.924 56.5847 360.346 56.6688 360.74 56.8322C361.134 56.9956 361.491 57.2349 361.79 57.5362C362.089 57.8376 362.324 58.1948 362.482 58.5871C362.64 58.9795 362.718 59.399 362.71 59.8212V76.35C362.708 77.1972 362.875 78.0364 363.203 78.819C363.531 79.6017 364.013 80.3124 364.62 80.9099L380.989 97.1007C381.288 97.3957 381.525 97.746 381.686 98.1316C381.848 98.5172 381.931 98.9305 381.931 99.3479C381.931 99.7653 381.848 100.179 381.686 100.564C381.525 100.95 381.288 101.3 380.989 101.595Z" fill="#D7E8F4"/>
<path d="M127.246 105.226H37.5894V216.891H127.246V105.226Z" fill="#F3F5FD"/>
<path d="M70.8133 185.048C75.2738 185.048 78.8897 182.671 78.8897 179.738C78.8897 176.806 75.2738 174.429 70.8133 174.429C66.3528 174.429 62.7368 176.806 62.7368 179.738C62.7368 182.671 66.3528 185.048 70.8133 185.048Z" fill="#C1D8ED"/>
<path d="M52.9223 188.72C44.9761 185.966 37.8743 138.11 58.9009 133.64C79.9275 129.17 110.837 125.038 116.686 127.515C122.536 129.992 117.25 153.013 96.3623 165.065C74.3951 177.74 62.5863 192.07 52.9223 188.72Z" fill="#D7E8F4"/>
<path d="M89.6761 510.403L454.099 510.403V306.591L89.6761 306.591V510.403Z" fill="#F3F5FD"/>
<path d="M89.6759 306.592H7.56177V510.404H89.6759V306.592Z" fill="#C1D8ED"/>
<path d="M80.4048 306.592L463.37 306.592V292.368L80.4048 292.368V306.592Z" fill="#C1D8ED"/>
<path d="M-0.000114441 306.592H80.4048V292.368H-0.000114441V306.592Z" fill="#C1D8ED"/>
<path opacity="0.08" d="M-0.000114441 306.592H80.4048V292.368H-0.000114441V306.592Z" fill="black"/>
<path d="M89.6761 457.915L454.099 457.915V359.08L89.6761 359.08V457.915Z" fill="#DEE8F5"/>
<path d="M271.887 449.84C294.97 449.84 313.683 431.33 313.683 408.498C313.683 385.665 294.97 367.156 271.887 367.156C248.804 367.156 230.091 385.665 230.091 408.498C230.091 431.33 248.804 449.84 271.887 449.84Z" fill="#FAFAFA"/>
<path d="M241.47 402.863V414.134H266.19V438.585H277.585V414.134H302.305V402.863H277.585V378.411H266.19V402.863H241.47Z" fill="#FD5D76"/>
<path opacity="0.04" d="M405.818 218.633C405.818 218.633 444.309 231.695 492.828 224L491.603 211.76L405.818 218.633Z" fill="black"/>
<path d="M189.328 500.575L167.064 497.955C168.066 489.621 169.199 479.609 169.276 477.968C169.27 478.073 169.276 478.159 169.276 478.226H191.696C191.691 478.892 191.691 480.91 189.328 500.575Z" fill="#E98862"/>
<path d="M99.9943 503.226L77.5745 503.153C77.5745 503.153 77.6492 480.254 77.6492 478.231H100.069C100.069 480.26 99.9943 503.226 99.9943 503.226Z" fill="#E98862"/>
<path d="M183.496 344.567C176.182 296.695 172.296 243.284 163.092 195.737L162.807 195.82L161.972 190.192L80.7517 185.228L71.7432 493.191L111.215 494.724L125.676 246.052C130.252 268.581 133.713 291.411 137.936 313.977C149.169 373.045 153.104 435.253 158.183 495.038L197.517 491.438C191.723 442.909 188.365 393.183 183.496 344.567Z" fill="#262626"/>
<path opacity="0.04" d="M79.4075 231.187C79.4075 231.187 167.064 226.82 167.064 217.443C167.064 195.868 79.8986 214.652 79.8986 214.652L79.4075 231.187Z" fill="black"/>
<path d="M127.248 511.803C127.851 511.8 128.447 511.674 128.999 511.433C129.55 511.193 130.046 510.842 130.454 510.403C130.863 509.965 131.175 509.447 131.373 508.884C131.57 508.32 131.648 507.722 131.601 507.128C131.536 506.303 131.234 505.515 130.731 504.855C130.228 504.194 129.545 503.69 128.762 503.401L102.666 494.755C102.161 494.59 101.625 494.534 101.096 494.593C100.567 494.651 100.056 494.822 99.6002 495.093C96.0126 497.555 91.7212 498.813 87.3568 498.684C83.9576 498.445 80.6947 497.265 77.9405 495.28C77.6984 495.084 77.4049 494.96 77.0942 494.923C76.7835 494.885 76.4685 494.936 76.1858 495.068C75.9031 495.201 75.6643 495.411 75.4974 495.673C75.3304 495.934 75.2421 496.238 75.2427 496.547V509.169C75.2427 509.541 75.317 509.91 75.4613 510.254C75.6057 510.597 75.8172 510.91 76.0839 511.172C76.3505 511.435 76.6669 511.643 77.015 511.785C77.3631 511.926 77.7361 511.998 78.1124 511.997L127.248 511.803Z" fill="#C1D8ED"/>
<path d="M216.643 511.803C217.246 511.8 217.842 511.674 218.394 511.433C218.945 511.193 219.441 510.842 219.849 510.403C220.258 509.964 220.57 509.447 220.767 508.884C220.964 508.32 221.042 507.722 220.995 507.128C220.93 506.303 220.629 505.515 220.126 504.855C219.623 504.194 218.94 503.69 218.157 503.401L192.063 494.755C191.557 494.59 191.021 494.534 190.492 494.593C189.963 494.651 189.453 494.822 188.997 495.093C185.409 497.555 181.118 498.813 176.753 498.684C173.354 498.445 170.091 497.265 167.337 495.28C167.095 495.084 166.801 494.959 166.49 494.922C166.179 494.884 165.864 494.935 165.581 495.067C165.298 495.2 165.059 495.41 164.892 495.672C164.725 495.934 164.637 496.238 164.638 496.547V509.169C164.638 509.541 164.712 509.91 164.857 510.254C165.001 510.598 165.213 510.91 165.479 511.173C165.746 511.435 166.063 511.644 166.411 511.785C166.759 511.926 167.132 511.998 167.509 511.997L216.643 511.803Z" fill="#C1D8ED"/>
<path d="M113.682 58.0978C113.693 57.9077 113.693 57.7176 113.693 57.5275C113.693 55.6056 113.618 53.5147 113.426 51.2337L115.839 50.7902L130.476 48.1079C130.187 51.8578 130.247 55.626 130.656 59.365C130.7 59.7874 130.752 60.2204 130.817 60.6534C130.82 60.6923 130.827 60.7309 130.837 60.7685C130.923 61.3394 131.019 61.91 131.126 62.4803C131.19 62.8499 131.265 63.2195 131.351 63.5891C131.435 64.0643 131.553 64.5289 131.681 64.9925C131.809 65.4561 131.938 65.9123 132.087 66.3653C132.235 66.8184 132.376 67.263 132.547 67.6959C132.858 68.551 133.236 69.3807 133.678 70.1776V70.1881C134.487 71.7511 135.622 73.1259 137.009 74.221H110.191C111.867 71.3614 113.593 66.4086 113.682 58.0978Z" fill="#E98862"/>
<path opacity="0.15" d="M133.697 70.204L119.526 59.4812L130.655 59.3671C130.977 63.1353 132.009 66.8107 133.697 70.204Z" fill="black"/>
<path d="M103.745 42.6124C104.926 49.3582 108.647 55.7471 114.663 57.9246C121.806 60.5119 127.096 60.6872 135.33 60.6872C146.567 60.6872 146.195 49.0953 146.51 37.4147C146.83 25.6865 145.884 13.1062 141.443 9.01944C132.579 0.863828 106.561 6.02986 103.397 19.6736C101.76 26.7299 102.621 36.1907 103.745 42.6124Z" fill="#E98862"/>
<path d="M152.533 15.8013C152.533 15.8013 157.135 14.7843 155.871 10.2434C155.036 7.23274 151.136 7.9012 151.136 7.9012C151.136 7.9012 154.828 7.23274 154.828 4.04463C154.828 2.0382 153.268 -1.3664 148.56 0.578781C143.036 2.86083 136.737 2.56726 131.948 1.77102C129.239 1.18499 126.49 0.801627 123.723 0.62419H123.709C120.527 0.569137 117.355 0.988867 114.299 1.86923C105.737 4.40367 92.7783 11.9964 95.5327 29.2127C98.6085 48.4258 107.723 55.7736 111.734 58.1306C111.971 58.272 112.237 58.3582 112.513 58.3827C112.789 58.4072 113.067 58.3694 113.326 58.272C113.585 58.1747 113.818 58.0204 114.008 57.8208C114.197 57.6212 114.339 57.3816 114.421 57.12C115.559 53.519 117.517 44.4584 116.97 25.7753C143.289 24.4986 150.862 24.1111 150.862 24.1111C150.862 24.1111 157.054 24.3413 157.054 19.8638C157.054 15.3862 152.533 15.8013 152.533 15.8013Z" fill="#0F1011"/>
<path d="M130.454 37.4157C131.309 37.4157 132.001 36.7306 132.001 35.8855C132.001 35.0405 131.309 34.3554 130.454 34.3554C129.6 34.3554 128.907 35.0405 128.907 35.8855C128.907 36.7306 129.6 37.4157 130.454 37.4157Z" fill="#0F1011"/>
<path d="M142.659 36.4262C143.513 36.4262 144.206 35.7411 144.206 34.8961C144.206 34.051 143.513 33.3659 142.659 33.3659C141.805 33.3659 141.112 34.051 141.112 34.8961C141.112 35.7411 141.805 36.4262 142.659 36.4262Z" fill="#0F1011"/>
<path d="M145.339 31.6351H145.33L141.232 31.5844C141.044 31.5761 140.866 31.4962 140.737 31.3613C140.607 31.2265 140.536 31.0472 140.537 30.8612C140.538 30.6752 140.612 30.4969 140.744 30.3637C140.875 30.2306 141.053 30.1529 141.241 30.1472H141.25L145.348 30.1978C145.536 30.2061 145.714 30.286 145.843 30.4209C145.973 30.5557 146.044 30.735 146.043 30.921C146.042 31.1071 145.968 31.2854 145.837 31.4185C145.705 31.5517 145.527 31.6293 145.339 31.6351Z" fill="#0F1011"/>
<path d="M127.115 33.1124C126.936 33.1131 126.764 33.0488 126.631 32.9319C126.497 32.8149 126.412 32.6535 126.391 32.4783C126.37 32.3031 126.415 32.1265 126.518 31.9821C126.62 31.8377 126.772 31.7356 126.946 31.6953L130.986 30.7322C131.173 30.6876 131.371 30.7186 131.536 30.8184C131.7 30.9181 131.818 31.0783 131.863 31.2639C131.908 31.4494 131.877 31.6451 131.776 31.8078C131.675 31.9705 131.513 32.0869 131.325 32.1314L127.286 33.0934C127.23 33.106 127.172 33.1124 127.115 33.1124Z" fill="#0F1011"/>
<path d="M122.407 39.6302C122.49 40.4859 122.4 41.3494 122.143 42.1705C121.885 42.9915 121.466 43.7539 120.908 44.4131C120.35 45.0723 119.665 45.6153 118.894 46.0106C118.122 46.4058 117.278 46.6454 116.412 46.7153C115.546 46.7853 114.674 46.6843 113.848 46.4182C113.022 46.1521 112.257 45.7261 111.599 45.1652C110.94 44.6042 110.401 43.9193 110.012 43.1504C109.624 42.3815 109.393 41.5439 109.335 40.6862C109.25 39.8344 109.338 38.9743 109.596 38.1571C109.854 37.3399 110.275 36.5824 110.835 35.9296C111.395 35.2768 112.082 34.7421 112.855 34.3574C113.628 33.9727 114.471 33.7457 115.335 33.6901C120.009 33.5444 122.111 36.0587 122.407 39.6302Z" fill="#E98862"/>
<g opacity="0.15">
<path d="M137.321 44.3728C137.193 44.3728 137.069 44.3275 136.973 44.245C136.876 44.1625 136.812 44.0483 136.793 43.9232C136.774 43.7981 136.801 43.6705 136.869 43.5634C136.937 43.4564 137.042 43.3771 137.164 43.34L140.31 42.3896L138.11 37.5424C138.08 37.4791 138.063 37.4105 138.061 37.3406C138.058 37.2708 138.069 37.2011 138.094 37.1356C138.119 37.0701 138.156 37.0101 138.204 36.9591C138.253 36.908 138.311 36.867 138.375 36.8384C138.44 36.8097 138.509 36.794 138.58 36.7921C138.65 36.7903 138.721 36.8023 138.787 36.8275C138.853 36.8527 138.913 36.8906 138.964 36.939C139.015 36.9874 139.055 37.0454 139.084 37.1095L141.532 42.5025C141.563 42.5708 141.579 42.6448 141.579 42.7197C141.579 42.7946 141.562 42.8686 141.531 42.9368C141.5 43.005 141.454 43.0658 141.398 43.1153C141.341 43.1648 141.274 43.2018 141.202 43.2238L137.478 44.3527C137.427 44.3671 137.374 44.3738 137.321 44.3728Z" fill="black"/>
</g>
<path d="M131.169 47.9368C131.169 47.9368 136.88 48.5324 140.885 47.149C140.885 47.149 140.853 50.8683 136.335 51.2347C131.816 51.6012 131.169 47.9368 131.169 47.9368Z" fill="#F8FCFF"/>
<path d="M169.805 215.479C165.33 225.647 75.0582 229.367 73.8838 211.478C73.1365 200.094 84.3026 168.911 84.3026 146.724C84.3026 124.537 63.6657 96.2041 80.4806 79.5719C85.3595 74.7459 93.783 71.6306 104.053 71.6201C104.822 77.5443 141.185 77.5655 141.462 71.7574C142.85 71.7785 143.929 71.7996 144.601 71.8313C180.024 73.3414 164.459 113.217 164.117 142.51C163.701 176.789 174.415 205.002 169.805 215.479Z" fill="#262626"/>
<path d="M141.458 71.7574C141.181 77.5655 137.988 86.1086 128.134 86.7528C115.003 87.6082 104.818 77.5443 104.049 71.6201H107.796C112.533 71.6201 117.047 79.2002 121.882 79.2118C127.746 79.2255 133.819 71.6771 137.973 71.7141C139.284 71.7278 140.457 71.7415 141.458 71.7574Z" fill="#05B9AE"/>
<path d="M138.121 71.731C137.896 76.4408 135.307 83.3672 127.318 83.8899C116.671 84.5837 108.413 76.4239 107.789 71.6201H107.815C113.538 71.6201 120.222 71.6201 126.108 71.6454C131.003 71.6613 135.345 71.6887 138.121 71.731Z" fill="#E98862"/>
<path d="M129.536 160.873C129.536 160.873 152.655 162.959 161.482 149.854C161.707 149.52 161.825 149.127 161.82 148.726C161.815 148.325 161.688 147.934 161.455 147.606C161.222 147.277 160.895 147.026 160.515 146.885C160.136 146.743 159.722 146.719 159.328 146.814C151.234 148.774 134.413 152.163 134.706 146.399L121.887 150.306L129.536 160.873Z" fill="#E98862"/>
<path d="M67.1462 169.042C65.3467 169.042 63.5718 168.629 61.9608 167.836C60.3498 167.043 58.9467 165.892 57.8617 164.472C56.7767 163.052 56.0394 161.402 55.7077 159.653C55.376 157.904 55.459 156.102 55.9501 154.39L65.6173 120.634L88.0137 126.91L83.0439 144.262L130.186 139.261L132.669 162.156L68.3888 168.974C67.9761 169.019 67.5613 169.041 67.1462 169.042Z" fill="#05B9AE"/>
<path d="M178.958 165.282C178.374 165.283 177.792 165.239 177.215 165.153L104.831 154.315L108.314 131.549L161.252 139.469L154.717 121.872L176.569 113.933L189.886 149.795C190.533 151.535 190.745 153.404 190.505 155.242C190.264 157.081 189.579 158.834 188.506 160.355C187.433 161.875 186.005 163.116 184.344 163.973C182.682 164.83 180.835 165.278 178.961 165.277L178.958 165.282Z" fill="#05B9AE"/>
<path d="M107.801 134.431C107.801 134.431 95.5691 133.576 90.8342 143.369L106.955 141.923L107.801 134.431Z" fill="#E98862"/>
<path d="M74.6946 88.9336L65.6167 120.634L88.0137 126.909L97.0916 95.2088L74.6946 88.9336Z" fill="#262626"/>
<path d="M165.137 82.9599L143.278 90.9036L154.787 121.886L176.645 113.942L165.137 82.9599Z" fill="#262626"/>
<path d="M104.775 71.5419L102.487 71.652L103.761 97.5898L106.05 97.4798L104.775 71.5419Z" fill="white"/>
<path d="M141.299 88.1647L140.338 71.6665L137.982 71.7162L138.713 88.19C136.004 88.526 133.512 89.8276 131.704 91.851C129.896 93.8743 128.896 96.4805 128.891 99.1811V112.443H131.478V99.1821C131.478 96.9208 132.386 94.7521 134.003 93.1531C135.619 91.5541 137.812 90.6558 140.098 90.6558C142.384 90.6558 144.577 91.5541 146.193 93.1531C147.81 94.7521 148.718 96.9208 148.718 99.1821V112.444H151.304V99.1821C151.3 96.4494 150.277 93.8141 148.431 91.7811C146.585 89.7481 144.046 88.4604 141.299 88.1647Z" fill="white"/>
<path d="M104.827 104.46C107.596 104.46 109.841 102.24 109.841 99.501C109.841 96.7622 107.596 94.542 104.827 94.542C102.059 94.542 99.814 96.7622 99.814 99.501C99.814 102.24 102.059 104.46 104.827 104.46Z" fill="white"/>
<path d="M130.153 114.639C131.379 114.639 132.373 113.656 132.373 112.444C132.373 111.231 131.379 110.248 130.153 110.248C128.928 110.248 127.934 111.231 127.934 112.444C127.934 113.656 128.928 114.639 130.153 114.639Z" fill="white"/>
<path d="M149.932 114.639C151.158 114.639 152.151 113.656 152.151 112.444C152.151 111.231 151.158 110.248 149.932 110.248C148.706 110.248 147.712 111.231 147.712 112.444C147.712 113.656 148.706 114.639 149.932 114.639Z" fill="white"/>
<path d="M381.796 500.575C379.434 480.914 379.434 478.892 379.434 478.226H401.854C401.854 478.159 401.854 478.072 401.854 477.968C401.933 479.609 403.063 489.621 404.066 497.955L381.796 500.575Z" fill="#E98862"/>
<path d="M471.13 503.226C471.13 503.226 471.055 480.26 471.055 478.226H493.475C493.475 480.254 493.549 503.148 493.549 503.148L471.13 503.226Z" fill="#E98862"/>
<path d="M459.967 495.602L499.329 492.313C494.533 419.749 479.696 185.234 479.696 185.234L398.476 190.197L397.642 195.826L397.357 195.742C387.834 245.677 383.781 300.828 376.061 351.118C375.517 397.688 375.368 446.469 373.526 492.911L413.027 493.577C412.902 448.244 414.04 400.811 415.389 355.344C422.126 319.085 427.404 281.137 435.156 244.523C441.92 319.93 452.832 423.58 459.967 495.602Z" fill="#262626"/>
<path d="M443.876 511.803C443.273 511.8 442.677 511.674 442.125 511.433C441.574 511.193 441.078 510.842 440.67 510.403C440.262 509.964 439.949 509.447 439.752 508.884C439.555 508.32 439.477 507.722 439.524 507.128C439.589 506.303 439.89 505.515 440.393 504.855C440.896 504.194 441.579 503.69 442.362 503.401L468.458 494.755C468.963 494.59 469.499 494.534 470.028 494.593C470.557 494.651 471.067 494.822 471.524 495.093C475.111 497.555 479.403 498.813 483.767 498.684C487.166 498.445 490.429 497.265 493.183 495.28C493.426 495.084 493.719 494.959 494.03 494.922C494.341 494.884 494.656 494.935 494.939 495.067C495.222 495.2 495.461 495.41 495.628 495.672C495.795 495.934 495.883 496.238 495.882 496.547V509.169C495.882 509.541 495.808 509.91 495.664 510.254C495.519 510.598 495.308 510.91 495.041 511.173C494.774 511.435 494.458 511.644 494.109 511.785C493.761 511.926 493.388 511.998 493.012 511.997L443.876 511.803Z" fill="#C1D8ED"/>
<path d="M354.481 511.803C353.878 511.8 353.282 511.674 352.73 511.433C352.179 511.192 351.683 510.842 351.275 510.403C350.867 509.964 350.554 509.447 350.357 508.883C350.16 508.32 350.082 507.722 350.129 507.128C350.194 506.303 350.496 505.515 350.999 504.854C351.501 504.194 352.185 503.69 352.968 503.401L379.062 494.755C379.568 494.59 380.104 494.534 380.633 494.593C381.163 494.651 381.673 494.822 382.13 495.093C385.717 497.555 390.008 498.814 394.372 498.684C397.771 498.445 401.035 497.265 403.789 495.28C404.031 495.084 404.325 494.96 404.636 494.923C404.946 494.885 405.261 494.936 405.544 495.068C405.827 495.201 406.065 495.411 406.232 495.673C406.399 495.934 406.488 496.238 406.487 496.547V509.169C406.487 509.541 406.413 509.91 406.268 510.254C406.124 510.598 405.912 510.91 405.645 511.173C405.379 511.435 405.062 511.644 404.714 511.785C404.366 511.926 403.993 511.998 403.616 511.997L354.481 511.803Z" fill="#C1D8ED"/>
<path d="M302.357 79.3469C299.33 82.7822 301.017 88.7297 309.041 93.5683C321.238 100.922 324.521 97.4344 327.544 93.9992C330.566 90.5639 320.442 86.323 313.431 79.1093C312.726 78.3389 311.862 77.7274 310.897 77.3163C309.932 76.9052 308.889 76.7041 307.839 76.7267C306.789 76.7492 305.756 76.9948 304.81 77.4469C303.864 77.899 303.027 78.547 302.357 79.3469Z" fill="#E98862"/>
<path d="M268.935 120.957L311.499 117.427C314.23 117.201 316.258 114.827 316.029 112.126L310.977 52.5117C310.748 49.8104 308.348 47.8041 305.617 48.0305L263.054 51.56C260.323 51.7864 258.295 54.1599 258.523 56.8612L263.576 116.475C263.805 119.177 266.204 121.183 268.935 120.957Z" fill="#262626"/>
<path d="M269.81 116.423L309.873 113.101C311.156 112.995 312.108 111.88 312.001 110.611L307.255 54.6098C307.147 53.3411 306.02 52.3988 304.737 52.5051L264.674 55.8273C263.391 55.9336 262.439 57.0484 262.546 58.3171L267.292 114.319C267.4 115.587 268.527 116.53 269.81 116.423Z" fill="white"/>
<path d="M328.095 92.073C328.259 92.2145 313.293 71.8197 309.412 75.6551C307.703 77.3447 312.721 83.1444 312.721 83.1444" fill="#E98862"/>
<path d="M364.422 160.366C362.638 160.366 360.878 159.96 359.278 159.18C357.678 158.4 356.281 157.267 355.194 155.868L311.327 99.3711L329.785 85.3493L363.809 129.167L376.076 111.199L395.371 124.082L374.07 155.301C373.039 156.813 371.659 158.062 370.044 158.943C368.429 159.824 366.625 160.313 364.782 160.37C364.66 160.363 364.541 160.366 364.422 160.366Z" fill="#05B9AE"/>
<path d="M390.644 215.479C395.118 225.647 485.39 229.367 486.564 211.478C487.312 200.094 476.145 168.911 476.145 146.724C476.145 124.537 496.783 96.2041 479.969 79.5719C475.089 74.7459 466.665 71.6306 456.395 71.6201C455.626 77.5443 445.441 87.6082 432.309 86.7528C422.455 86.1086 419.263 77.5655 418.986 71.7574C417.598 71.7785 416.519 71.7996 415.847 71.8313C380.424 73.3414 395.989 113.217 396.331 142.51C396.747 176.789 386.033 205.002 390.644 215.479Z" fill="#262626"/>
<path d="M397.27 80.1354L376.077 111.194L395.372 124.075L416.565 93.0167L397.27 80.1354Z" fill="#262626"/>
<path d="M453.008 102.189L399.162 109.802L409.261 179.686L463.108 172.073L453.008 102.189Z" fill="white"/>
<path d="M446.402 103.122L399.162 109.801L409.262 179.685L456.501 173.006L446.402 103.122Z" fill="#D7E8F4"/>
<path d="M446.402 103.125L450.649 102.524L452.204 113.432L447.965 113.938L446.402 103.125Z" fill="#0CBC8B"/>
<path d="M449.303 124L453.551 123.399L452.204 113.432L447.965 113.938L449.303 124Z" fill="#262626"/>
<path d="M418.986 71.7574C419.263 77.5655 422.455 86.1086 432.309 86.7528C445.441 87.6082 455.626 77.5443 456.395 71.6201H453.319C448.66 71.6201 442.046 79.2012 437.232 79.2118C430.866 79.2266 426.449 71.6761 422.062 71.7194C420.918 71.731 419.891 71.7436 418.986 71.7574Z" fill="#05B9AE"/>
<path d="M422.062 71.7352C422.294 76.5876 424.961 83.7252 433.194 84.2638C444.166 84.9787 452.676 76.5696 453.319 71.6201H453.292C442.49 71.6201 428.36 71.638 422.062 71.7352Z" fill="#E98862"/>
<path d="M432.55 140.782L433.072 140.639C430.031 139.712 420.361 135.026 418.839 137.359C418.261 138.246 420.868 140.223 422.85 141.554C417.735 142.773 407.072 140.564 401.121 139.125C400.727 139.03 400.314 139.055 399.934 139.196C399.555 139.338 399.227 139.589 398.995 139.917C398.762 140.246 398.634 140.636 398.629 141.037C398.624 141.438 398.741 141.831 398.966 142.165C407.793 155.271 430.912 153.185 430.912 153.185L438.561 142.616L432.55 140.782Z" fill="#E98862"/>
<path d="M500.362 161.058C500.194 161.058 500.026 161.058 499.856 161.048L428.516 157.985L429.526 134.981L482.099 137.236L478.256 128.67L499.528 119.33L510.999 144.876C511.786 146.629 512.119 148.548 511.966 150.461C511.813 152.373 511.179 154.217 510.122 155.825C509.065 157.433 507.619 158.755 505.914 159.67C504.21 160.584 502.301 161.063 500.362 161.063V161.058Z" fill="#05B9AE"/>
<path d="M424.395 73.9211L425.228 74.0162H451.543C449.408 70.5102 447.102 63.6355 448.17 50.7838L431.11 47.658C431.11 47.658 433.032 67.5967 424.395 73.9211Z" fill="#E98862"/>
<path opacity="0.15" d="M427.898 69.7573L442.062 59.0313L430.933 58.9257C430.612 62.6917 429.583 66.3652 427.898 69.7573Z" fill="black"/>
<path d="M457.844 42.1657C456.663 48.9126 452.942 55.3004 446.925 57.4779C440.367 60.0519 433.272 61 426.259 60.2394C407.587 58.7251 411.28 16.7315 420.145 8.57274C429.009 0.413953 455.027 5.58104 458.192 19.2248C459.829 26.2832 458.965 35.744 457.844 42.1657Z" fill="#E98862"/>
<path d="M413.987 10.0248C414.544 9.14999 415.324 8.43604 416.249 7.95497C424.541 3.49541 439.907 1.95257 447.288 4.13641C455.85 6.67085 466.587 13.7704 463.836 30.9856C463.721 31.7111 463.595 32.4091 463.465 33.0977C466.169 32.6405 468.949 32.9283 471.498 33.9296C474.048 34.9309 476.27 36.607 477.921 38.7743C479.572 40.9416 480.588 43.5165 480.858 46.2169C481.127 48.9174 480.64 51.6391 479.45 54.0841C478.26 56.529 476.413 58.6028 474.11 60.0783C471.808 61.5538 469.14 62.374 466.397 62.4491C463.655 62.5242 460.945 61.8514 458.563 60.5042C456.182 59.157 454.221 57.1875 452.896 54.8115C451.626 55.897 450.254 56.8599 448.799 57.687C447.777 58.2879 447.529 57.7989 447.175 56.6774C445.937 52.7586 444.719 37.2594 445.692 26.0044L425.571 25.3169L422.066 15.4506L419.192 25.3169H412.34C411.42 19.9672 410.472 13.9077 413.987 10.0248Z" fill="#0F1011"/>
<path d="M431.134 36.969C431.988 36.969 432.681 36.2839 432.681 35.4389C432.681 34.5938 431.988 33.9087 431.134 33.9087C430.28 33.9087 429.587 34.5938 429.587 35.4389C429.587 36.2839 430.28 36.969 431.134 36.969Z" fill="#0F1011"/>
<path d="M418.93 35.9795C419.784 35.9795 420.477 35.2944 420.477 34.4494C420.477 33.6043 419.784 32.9192 418.93 32.9192C418.076 32.9192 417.383 33.6043 417.383 34.4494C417.383 35.2944 418.076 35.9795 418.93 35.9795Z" fill="#0F1011"/>
<path d="M416.249 31.1884H416.259L420.357 31.1377C420.55 31.1364 420.735 31.0595 420.87 30.9237C421.006 30.7879 421.081 30.6045 421.08 30.4138C421.078 30.2231 421.001 30.0406 420.863 29.9067C420.726 29.7727 420.541 29.6981 420.348 29.6994H420.338L416.24 29.7511C416.052 29.7594 415.874 29.8393 415.745 29.9742C415.615 30.109 415.544 30.2883 415.545 30.4743C415.546 30.6604 415.62 30.8387 415.752 30.9718C415.883 31.105 416.061 31.1826 416.249 31.1884Z" fill="#0F1011"/>
<path d="M434.473 32.6668C434.651 32.6664 434.823 32.6015 434.955 32.4845C435.088 32.3674 435.173 32.2063 435.194 32.0317C435.214 31.857 435.17 31.6809 435.068 31.5366C434.966 31.3923 434.815 31.2898 434.642 31.2486L430.602 30.2865C430.507 30.2558 430.406 30.2449 430.306 30.2545C430.206 30.2641 430.11 30.2941 430.022 30.3425C429.934 30.3909 429.858 30.4566 429.797 30.5357C429.737 30.6148 429.693 30.7054 429.67 30.8018C429.646 30.8983 429.643 30.9985 429.661 31.0962C429.678 31.1939 429.716 31.2869 429.772 31.3694C429.828 31.4519 429.9 31.5222 429.984 31.5757C430.069 31.6293 430.164 31.6649 430.263 31.6805L434.302 32.6425C434.358 32.6568 434.416 32.6649 434.473 32.6668Z" fill="#0F1011"/>
<path d="M439.181 39.1782C439.065 40.8789 439.631 42.5564 440.755 43.848C441.88 45.1396 443.473 45.9415 445.191 46.0802C446.909 46.219 448.612 45.6835 449.934 44.5895C451.255 43.4955 452.089 41.931 452.253 40.2342C452.339 39.3824 452.25 38.5223 451.992 37.7051C451.735 36.8879 451.313 36.1304 450.753 35.4777C450.194 34.8249 449.507 34.2904 448.733 33.9058C447.96 33.5212 447.117 33.2945 446.253 33.2392C441.579 33.0977 439.477 35.6131 439.181 39.1782Z" fill="#E98862"/>
<g opacity="0.15">
<path d="M424.268 43.9303C424.396 43.9304 424.52 43.885 424.617 43.8025C424.714 43.72 424.777 43.6058 424.796 43.4808C424.815 43.3557 424.788 43.228 424.72 43.1209C424.652 43.0139 424.547 42.9346 424.425 42.8975L421.279 41.9418L423.48 37.0936C423.538 36.9658 423.542 36.8204 423.492 36.6895C423.441 36.5586 423.34 36.4529 423.211 36.3956C423.082 36.3383 422.935 36.3342 422.803 36.3841C422.67 36.434 422.563 36.5339 422.506 36.6617L420.057 42.0548C420.026 42.1231 420.01 42.1971 420.01 42.272C420.011 42.3468 420.027 42.4208 420.058 42.489C420.089 42.5572 420.135 42.6181 420.191 42.6676C420.248 42.7171 420.315 42.754 420.387 42.7761L424.111 43.907C424.162 43.9223 424.215 43.9302 424.268 43.9303Z" fill="black"/>
</g>
<path d="M430.419 47.4901C430.419 47.4901 424.708 48.0857 420.703 46.7023C420.703 46.7023 420.735 50.4227 425.254 50.7891C429.772 51.1555 430.419 47.4901 430.419 47.4901Z" fill="#F8FCFF"/>
<path d="M267.184 64.2058C266.925 64.2063 266.675 64.1075 266.488 63.93C266.301 63.7525 266.19 63.5102 266.18 63.2538C266.169 62.9975 266.259 62.747 266.431 62.5549C266.603 62.3628 266.844 62.2441 267.102 62.2236L298.782 59.6311C298.914 59.6204 299.046 59.6353 299.172 59.6751C299.297 59.7149 299.413 59.7788 299.514 59.8631C299.615 59.9474 299.697 60.0504 299.758 60.1663C299.818 60.2823 299.855 60.4088 299.866 60.5388C299.876 60.6687 299.861 60.7995 299.821 60.9237C299.781 61.0478 299.716 61.1629 299.631 61.2624C299.546 61.3619 299.442 61.4438 299.324 61.5035C299.207 61.5631 299.079 61.5994 298.948 61.6101L267.269 64.2016C267.241 64.2045 267.213 64.2059 267.184 64.2058Z" fill="#D7E8F4"/>
<path d="M267.747 71.0699C267.487 71.071 267.237 70.9726 267.05 70.7953C266.862 70.6179 266.751 70.3756 266.74 70.119C266.729 69.8624 266.819 69.6117 266.991 69.4194C267.163 69.2271 267.404 69.1082 267.663 69.0878L284.68 67.6558C284.813 67.6428 284.946 67.6559 285.073 67.6944C285.2 67.7329 285.319 67.796 285.421 67.8801C285.523 67.9641 285.607 68.0674 285.669 68.184C285.731 68.3006 285.768 68.4281 285.779 68.5591C285.791 68.6901 285.776 68.8221 285.735 68.9473C285.694 69.0725 285.629 69.1884 285.542 69.2884C285.456 69.3884 285.35 69.4704 285.232 69.5297C285.113 69.589 284.984 69.6243 284.851 69.6337L267.832 71.0699H267.747Z" fill="#D7E8F4"/>
<path d="M268.406 75.8537C268.146 75.8545 267.896 75.7558 267.709 75.5784C267.521 75.401 267.411 75.1587 267.4 74.9022C267.389 74.6457 267.479 74.3951 267.651 74.2029C267.823 74.0108 268.064 73.892 268.322 73.8715L281.164 72.7901C281.429 72.7677 281.692 72.8505 281.896 73.0202C282.1 73.1899 282.227 73.4327 282.249 73.6952C282.272 73.9576 282.188 74.2182 282.017 74.4196C281.845 74.621 281.6 74.7467 281.334 74.7691L268.492 75.8505C268.463 75.8526 268.434 75.8537 268.406 75.8537Z" fill="#D7E8F4"/>
<path d="M268.723 80.8486C268.463 80.8494 268.214 80.7508 268.026 80.5734C267.839 80.396 267.728 80.1536 267.717 79.8972C267.706 79.6407 267.796 79.3901 267.968 79.1979C268.14 79.0057 268.381 78.8869 268.64 78.8665L281.481 77.7862C281.613 77.7732 281.747 77.7863 281.874 77.8248C282.001 77.8633 282.119 77.9264 282.221 78.0105C282.324 78.0945 282.408 78.1978 282.469 78.3144C282.531 78.4309 282.569 78.5584 282.58 78.6895C282.591 78.8205 282.576 78.9525 282.535 79.0777C282.495 79.2029 282.429 79.3188 282.343 79.4188C282.257 79.5188 282.151 79.6008 282.032 79.6601C281.914 79.7193 281.784 79.7547 281.652 79.7641L268.809 80.8444C268.781 80.8474 268.752 80.8488 268.723 80.8486Z" fill="#D7E8F4"/>
<path d="M269.472 90.5935C269.213 90.5946 268.963 90.4962 268.775 90.3189C268.587 90.1416 268.476 89.8992 268.465 89.6426C268.454 89.3861 268.544 89.1353 268.716 88.943C268.888 88.7507 269.129 88.6319 269.388 88.6114L279.005 87.8014C279.27 87.779 279.534 87.8618 279.737 88.0315C279.941 88.2012 280.068 88.444 280.091 88.7064C280.113 88.9689 280.03 89.2294 279.858 89.4308C279.687 89.6323 279.441 89.758 279.176 89.7804L269.559 90.5904C269.53 90.5925 269.501 90.5935 269.472 90.5935Z" fill="#D7E8F4"/>
<path d="M269.002 85.9597C268.742 85.9608 268.492 85.8624 268.304 85.6851C268.116 85.5078 268.005 85.2654 267.995 85.0088C267.984 84.7523 268.074 84.5015 268.246 84.3092C268.418 84.1169 268.658 83.9981 268.917 83.9776L284.237 82.6882C284.503 82.6658 284.766 82.7485 284.97 82.9183C285.173 83.088 285.301 83.3308 285.323 83.5932C285.346 83.8556 285.262 84.1162 285.091 84.3176C284.919 84.519 284.674 84.6448 284.408 84.6672L269.088 85.9597H269.002Z" fill="#D7E8F4"/>
<path d="M300.086 68.056C299.826 68.058 299.576 67.9602 299.387 67.7831C299.199 67.6061 299.087 67.3636 299.076 67.1067C299.064 66.8499 299.154 66.5987 299.326 66.406C299.498 66.2134 299.739 66.0943 299.999 66.0739L304.621 65.6853C304.884 65.6676 305.143 65.7527 305.343 65.9223C305.543 66.0918 305.667 66.3322 305.689 66.5917C305.712 66.8511 305.63 67.1089 305.462 67.3093C305.294 67.5097 305.053 67.6368 304.791 67.6632L300.168 68.0529L300.086 68.056Z" fill="#D7E8F4"/>
<path d="M300.746 72.8387C300.486 72.8395 300.237 72.7409 300.049 72.5635C299.861 72.3861 299.751 72.1438 299.74 71.8873C299.729 71.6308 299.819 71.3802 299.991 71.188C300.163 70.9958 300.404 70.8771 300.663 70.8566L304.626 70.5229C304.891 70.5006 305.154 70.5835 305.358 70.7533C305.561 70.9232 305.688 71.166 305.711 71.4284C305.733 71.6908 305.649 71.9514 305.478 72.1527C305.306 72.354 305.061 72.4796 304.795 72.5019L300.832 72.8356C300.803 72.8377 300.774 72.8387 300.746 72.8387Z" fill="#D7E8F4"/>
<path d="M301.066 77.8337C300.807 77.8345 300.557 77.7359 300.369 77.5585C300.182 77.3811 300.071 77.1387 300.06 76.8822C300.049 76.6258 300.139 76.3752 300.312 76.183C300.484 75.9908 300.724 75.872 300.983 75.8515L305.232 75.4935C305.497 75.4711 305.761 75.5539 305.964 75.7236C306.168 75.8933 306.295 76.1361 306.318 76.3986C306.34 76.661 306.257 76.9216 306.085 77.123C305.913 77.3244 305.668 77.4501 305.403 77.4725L301.153 77.8305C301.121 77.8291 301.092 77.8302 301.066 77.8337Z" fill="#D7E8F4"/>
<path d="M301.813 87.5786C301.554 87.5797 301.304 87.4813 301.116 87.304C300.928 87.1266 300.817 86.8843 300.806 86.6277C300.795 86.3711 300.885 86.1204 301.057 85.9281C301.229 85.7358 301.47 85.6169 301.729 85.5965L305.847 85.2501C305.979 85.2371 306.113 85.2502 306.24 85.2887C306.367 85.3272 306.485 85.3903 306.587 85.4744C306.69 85.5584 306.774 85.6617 306.835 85.7783C306.897 85.8949 306.935 86.0224 306.946 86.1534C306.957 86.2844 306.942 86.4164 306.901 86.5416C306.861 86.6668 306.795 86.7827 306.709 86.8827C306.623 86.9827 306.517 87.0647 306.398 87.124C306.28 87.1833 306.15 87.2186 306.018 87.228L301.9 87.5744C301.871 87.5774 301.842 87.5788 301.813 87.5786Z" fill="#D7E8F4"/>
<path d="M301.34 82.9459C301.081 82.947 300.831 82.8485 300.643 82.6712C300.455 82.4939 300.344 82.2515 300.333 81.995C300.322 81.7384 300.413 81.4876 300.585 81.2953C300.757 81.1031 300.997 80.9842 301.256 80.9637L305.229 80.63C305.361 80.6164 305.495 80.6291 305.623 80.6673C305.751 80.7056 305.87 80.7686 305.972 80.8528C306.075 80.937 306.16 81.0406 306.222 81.1575C306.283 81.2745 306.321 81.4024 306.332 81.5339C306.343 81.6654 306.328 81.7978 306.287 81.9234C306.246 82.0489 306.18 82.1651 306.093 82.2651C306.006 82.3651 305.899 82.4469 305.78 82.5058C305.661 82.5646 305.53 82.5994 305.397 82.6079L301.426 82.9427L301.34 82.9459Z" fill="#D7E8F4"/>
<path d="M290.329 105.32C290.069 105.321 289.819 105.222 289.632 105.045C289.444 104.868 289.333 104.625 289.322 104.369C289.311 104.112 289.401 103.861 289.573 103.669C289.745 103.477 289.986 103.358 290.245 103.338L307.258 101.906C307.389 101.894 307.522 101.909 307.647 101.949C307.773 101.988 307.89 102.052 307.99 102.136C308.091 102.22 308.174 102.323 308.235 102.438C308.296 102.554 308.333 102.681 308.344 102.811C308.355 102.941 308.34 103.071 308.3 103.196C308.26 103.32 308.196 103.435 308.111 103.535C308.026 103.635 307.922 103.717 307.805 103.777C307.688 103.837 307.56 103.873 307.429 103.885L290.414 105.317L290.329 105.32Z" fill="#D7E8F4"/>
<path d="M294.527 109.277C294.267 109.278 294.017 109.179 293.829 109.002C293.642 108.825 293.531 108.582 293.52 108.326C293.509 108.069 293.599 107.818 293.771 107.626C293.943 107.434 294.184 107.315 294.442 107.294L307.285 106.213C307.55 106.191 307.813 106.274 308.017 106.444C308.22 106.613 308.347 106.856 308.37 107.119C308.392 107.381 308.309 107.642 308.137 107.843C307.965 108.044 307.72 108.17 307.454 108.192L294.613 109.273C294.584 109.276 294.555 109.277 294.527 109.277Z" fill="#D7E8F4"/>
<path d="M272.945 45.1791L294.793 43.3675C295.401 43.317 296.005 43.5077 296.471 43.8975C296.937 44.2873 297.228 44.8444 297.279 45.4461L297.736 50.8456L271.301 53.0376L270.843 47.6381C270.792 47.0364 270.985 46.4393 271.379 45.9781C271.773 45.517 272.337 45.2296 272.945 45.1791Z" fill="#262626"/>
<path d="M485.193 87.3994L463.918 96.746L478.254 128.673L499.529 119.326L485.193 87.3994Z" fill="#262626"/>
</g>
<defs>
<clipPath id="clip0_16_290">
<rect width="512" height="512" fill="white"/>
</clipPath>
</defs>
</svg>
