<svg width="512" height="512" viewBox="0 0 512 512" fill="none" xmlns="http://www.w3.org/2000/svg">
<path d="M226.785 228.809C234.265 274.185 257.782 337.497 306.125 377.757C352.961 419.823 408.783 421.975 441.96 401.698C476.505 382.015 488.405 339.907 478.997 307.157C469.517 272.905 447.57 249.632 426.724 234.644C405.044 219.435 384.467 212.507 358.471 205.836C333.164 199.371 306.432 189.225 285.274 175.121C263.806 162.082 247.913 145.084 237.142 149.54C227.379 153.196 219.063 182.035 226.785 228.809Z" fill="#4A4A4A"/>
<path d="M279.668 292.71C274.51 246.82 254.26 181.721 208.065 137.602C163.464 91.8017 107.866 85.1013 73.7279 102.629C38.253 119.453 24.2377 160.504 31.9608 193.951C39.6799 228.907 60.3997 253.92 80.4391 270.577C101.3 287.522 121.481 296.114 147.085 304.893C172.012 313.409 198.172 325.714 218.57 341.514C239.33 356.277 254.326 374.537 265.302 370.968C275.23 368.118 284.994 340.018 279.668 292.71Z" fill="#4A4A4A"/>
<path d="M290.769 386.374H223.994V430.058H290.769V386.374Z" fill="#FFA0A0"/>
<g opacity="0.3">
<path d="M290.769 414.723L223.994 405.313V386.374H290.769V414.723Z" fill="#000541"/>
</g>
<path d="M386.344 422.391H126.585C121.115 422.391 116.679 428.01 116.679 434.939H396.251C396.25 428.008 391.816 422.391 386.344 422.391Z" fill="#FFC7C7"/>
<path d="M453.971 96.3106V375.509C453.971 386.891 446.675 396.133 437.69 396.133H88.4895C80.8836 396.133 74.4917 389.502 72.7064 380.553C72.3817 378.935 72.2146 377.248 72.2146 375.509V96.3106C72.2146 84.9186 79.5106 75.6873 88.4881 75.6873H437.688C446.675 75.6873 453.971 84.9186 453.971 96.3106Z" fill="#FFA0A0"/>
<path d="M431.496 87.4257H94.6887C87.3941 87.4257 81.4805 94.9162 81.4805 104.156V367.659C81.4805 376.899 87.3941 384.389 94.6887 384.389H431.496C438.79 384.389 444.704 376.899 444.704 367.659V104.156C444.704 94.9162 438.79 87.4257 431.496 87.4257Z" fill="#4A4A4A"/>
<path d="M431.496 87.4257H94.6887C87.3941 87.4257 81.4805 94.9162 81.4805 104.156V367.659C81.4805 376.899 87.3941 384.389 94.6887 384.389H431.496C438.79 384.389 444.704 376.899 444.704 367.659V104.156C444.704 94.9162 438.79 87.4257 431.496 87.4257Z" fill="#4A4A4A"/>
<path d="M431.496 97.4712H283.512V374.342H431.496C434.406 374.342 436.774 371.343 436.774 367.659V104.156C436.774 100.47 434.405 97.4712 431.496 97.4712Z" fill="white"/>
<path d="M78.9851 436.313H447.202C448.209 436.313 449.025 435.279 449.025 434.004C449.025 432.729 448.209 431.695 447.202 431.695H78.9851C77.9786 431.695 77.1621 432.729 77.1621 434.004C77.1621 435.28 77.9773 436.313 78.9851 436.313Z" fill="#FFA0A0"/>
<path d="M316.295 147.121C311.145 147.121 306.972 152.407 306.972 158.93C306.972 165.453 311.146 170.738 316.295 170.738C321.444 170.738 325.617 165.453 325.617 158.93C325.617 152.409 321.444 147.121 316.295 147.121ZM316.295 168.798C311.991 168.798 308.496 164.383 308.496 158.932C308.496 153.481 311.991 149.065 316.295 149.065C320.598 149.065 324.084 153.481 324.084 158.932C324.084 164.383 320.598 168.798 316.295 168.798Z" fill="#FFA0A0"/>
<path d="M360.977 149.862H336.447C335.844 149.862 335.284 150.385 335.187 151.139C335.063 152.1 335.647 152.931 336.382 152.931H360.977C361.647 152.931 362.189 152.243 362.189 151.397C362.189 150.55 361.646 149.862 360.977 149.862ZM407.824 149.862H365.046C364.377 149.862 363.835 150.55 363.835 151.397C363.835 152.245 364.378 152.931 365.046 152.931H407.889C408.624 152.931 409.208 152.1 409.084 151.139C408.987 150.385 408.428 149.862 407.824 149.862ZM371.551 157.396H336.448C335.845 157.396 335.286 157.918 335.189 158.672C335.065 159.633 335.648 160.464 336.384 160.464H371.553C372.222 160.464 372.764 159.776 372.764 158.93C372.763 158.083 372.22 157.396 371.551 157.396ZM371.551 164.931H336.448C335.845 164.931 335.286 165.453 335.189 166.207C335.065 167.168 335.648 168.001 336.384 168.001H371.553C372.222 168.001 372.764 167.313 372.764 166.467C372.763 165.617 372.22 164.931 371.551 164.931ZM407.824 157.396H375.619C374.951 157.396 374.408 158.083 374.408 158.93C374.408 159.778 374.951 160.464 375.619 160.464H407.887C408.623 160.464 409.206 159.633 409.082 158.672C408.987 157.92 408.428 157.396 407.824 157.396Z" fill="#FFA0A0"/>
<path d="M316.16 164.823C316.009 164.823 315.858 164.804 315.708 164.765C315.121 164.611 314.608 164.166 314.283 163.528L310.983 157.058C310.314 155.745 310.611 153.993 311.649 153.144C312.686 152.293 314.069 152.673 314.74 153.986L316.805 158.039L327.475 148.992C328.5 148.118 329.888 148.468 330.575 149.77C331.262 151.067 330.988 152.825 329.961 153.696L317.403 164.343C317.033 164.659 316.599 164.823 316.16 164.823Z" fill="#FFA0A0"/>
<path d="M390.455 198.898C390.455 205.421 394.628 210.707 399.777 210.707C404.927 210.707 409.1 205.421 409.1 198.898C409.1 192.375 404.927 187.09 399.777 187.09C394.628 187.09 390.455 192.375 390.455 198.898ZM391.988 198.898C391.988 193.447 395.474 189.032 399.777 189.032C404.081 189.032 407.576 193.447 407.576 198.898C407.576 204.349 404.081 208.765 399.777 208.765C395.474 208.765 391.988 204.349 391.988 198.898Z" fill="#FFA0A0"/>
<path d="M355.095 189.831H379.625C380.228 189.831 380.788 190.353 380.885 191.107C381.008 192.068 380.425 192.899 379.689 192.899H355.095C354.425 192.899 353.883 192.212 353.883 191.365C353.883 190.517 354.426 189.831 355.095 189.831ZM308.248 189.831H351.026C351.695 189.831 352.237 190.519 352.237 191.365C352.237 192.213 351.694 192.899 351.026 192.899H308.183C307.448 192.899 306.864 192.068 306.988 191.107C307.085 190.353 307.644 189.831 308.248 189.831ZM344.52 197.364H379.623C380.227 197.364 380.786 197.886 380.883 198.641C381.007 199.602 380.424 200.433 379.688 200.433H344.519C343.849 200.433 343.308 199.745 343.308 198.898C343.309 198.052 343.852 197.364 344.52 197.364ZM344.52 204.897H379.623C380.227 204.897 380.786 205.42 380.883 206.174C381.007 207.135 380.424 207.968 379.688 207.968H344.519C343.849 207.968 343.308 207.28 343.308 206.433C343.309 205.585 343.852 204.897 344.52 204.897ZM308.249 197.364H340.453C341.121 197.364 341.664 198.052 341.664 198.898C341.664 199.747 341.121 200.433 340.453 200.433H308.183C307.448 200.433 306.864 199.602 306.988 198.641C307.085 197.886 307.646 197.364 308.249 197.364Z" fill="#FFA0A0"/>
<path d="M400.816 203.401C400.665 203.401 400.514 203.382 400.365 203.343C399.777 203.189 399.264 202.743 398.939 202.105L395.639 195.635C394.97 194.323 395.268 192.57 396.305 191.722C397.343 190.87 398.725 191.251 399.396 192.563L401.461 196.617L412.131 187.57C413.157 186.696 414.544 187.046 415.232 188.348C415.919 189.645 415.644 191.403 414.617 192.273L402.06 202.921C401.689 203.237 401.255 203.401 400.816 203.401Z" fill="#FFA0A0"/>
<path d="M382.452 344.356C382.452 344.356 376.782 363.092 372.014 373.9C380.342 373.9 386.66 373.9 386.66 373.9V349.988L382.452 344.356Z" fill="#FECCCC"/>
<path d="M400.19 317.075C400.19 317.075 386.821 328.87 381.007 344.192C381.007 344.192 388.996 363.839 393.764 360.677C400.727 356.057 400.19 317.075 400.19 317.075Z" fill="#FFA0A0"/>
<path d="M426.243 373.9C426.014 349.075 420.151 316.624 404.446 316.17C391.89 315.808 383.923 347.981 382.45 373.9H426.243Z" fill="#2CA68F"/>
<path d="M394.224 332.023C394.164 332.023 394.107 331.986 394.073 331.916C394.022 331.81 394.049 331.674 394.132 331.609C394.967 330.965 394.756 329.909 394.747 329.865C394.721 329.745 394.778 329.622 394.87 329.59C394.963 329.557 395.06 329.627 395.087 329.745C395.194 330.233 395.17 331.332 394.317 331.989C394.287 332.013 394.255 332.023 394.224 332.023ZM398.483 342.368C398.423 342.368 398.366 342.33 398.332 342.26C398.281 342.154 398.308 342.016 398.391 341.953C399.227 341.309 399.015 340.253 399.006 340.209C398.98 340.089 399.037 339.966 399.13 339.934C399.222 339.901 399.319 339.971 399.346 340.089C399.453 340.577 399.429 341.675 398.576 342.333C398.546 342.357 398.515 342.368 398.483 342.368ZM407.285 333.617C407.226 333.617 407.168 333.58 407.134 333.51C407.083 333.404 407.11 333.266 407.194 333.203C408.029 332.559 407.817 331.503 407.808 331.459C407.782 331.339 407.839 331.216 407.932 331.184C408.025 331.151 408.122 331.221 408.149 331.339C408.255 331.827 408.231 332.925 407.378 333.583C407.348 333.607 407.316 333.617 407.285 333.617ZM395.011 348.326C395.011 348.401 394.981 348.474 394.926 348.517C394.842 348.582 394.733 348.547 394.683 348.442C394.175 347.383 393.341 347.651 393.306 347.663C393.212 347.696 393.115 347.624 393.089 347.506C393.062 347.389 393.119 347.266 393.212 347.232C393.597 347.097 394.464 347.127 394.984 348.208C395.003 348.245 395.011 348.286 395.011 348.326ZM386.836 357.878C386.777 357.878 386.719 357.84 386.685 357.77C386.634 357.664 386.661 357.526 386.745 357.463C387.58 356.82 387.368 355.763 387.359 355.719C387.333 355.599 387.39 355.476 387.483 355.444C387.576 355.412 387.673 355.482 387.7 355.599C387.806 356.087 387.782 357.185 386.929 357.844C386.899 357.868 386.867 357.878 386.836 357.878ZM393.165 336.659C393.159 336.584 393.184 336.507 393.235 336.457C393.313 336.384 393.423 336.403 393.481 336.502C394.066 337.493 394.876 337.126 394.91 337.111C395.001 337.068 395.102 337.126 395.137 337.242C395.172 337.357 395.126 337.486 395.035 337.531C394.66 337.712 393.797 337.785 393.197 336.771C393.18 336.737 393.169 336.698 393.165 336.659ZM403.234 328.764C403.228 328.689 403.252 328.612 403.304 328.562C403.382 328.489 403.492 328.509 403.552 328.608C404.136 329.6 404.946 329.233 404.98 329.218C405.071 329.175 405.172 329.233 405.207 329.349C405.243 329.463 405.197 329.593 405.105 329.638C404.732 329.818 403.867 329.892 403.267 328.878C403.248 328.842 403.238 328.803 403.234 328.764ZM397.029 357.13C397.024 357.055 397.048 356.978 397.099 356.929C397.177 356.855 397.288 356.876 397.346 356.975C397.93 357.966 398.74 357.6 398.774 357.584C398.865 357.542 398.966 357.6 399.002 357.716C399.037 357.83 398.991 357.96 398.899 358.004C398.525 358.185 397.66 358.258 397.061 357.245C397.044 357.209 397.032 357.169 397.029 357.13ZM405.666 340.779C405.66 340.704 405.684 340.627 405.736 340.577C405.814 340.504 405.924 340.524 405.984 340.622C406.568 341.613 407.378 341.246 407.412 341.231C407.503 341.188 407.604 341.246 407.639 341.362C407.675 341.477 407.629 341.606 407.537 341.651C407.163 341.832 406.299 341.905 405.699 340.891C405.679 340.857 405.668 340.818 405.666 340.779ZM386.122 349.293C386.117 349.218 386.141 349.141 386.192 349.092C386.27 349.018 386.381 349.039 386.439 349.138C387.023 350.129 387.833 349.763 387.867 349.747C387.958 349.705 388.06 349.763 388.095 349.879C388.13 349.993 388.084 350.123 387.992 350.167C387.618 350.348 386.754 350.421 386.154 349.408C386.137 349.372 386.125 349.332 386.122 349.293ZM401.438 334.747C401.114 334.747 400.893 334.505 400.61 334.193C400.481 334.051 400.335 333.891 400.152 333.72C399.737 333.336 399.679 333.402 399.399 333.722C399.245 333.897 399.034 334.136 398.706 334.35C398.403 334.546 398.119 334.578 397.859 334.447C397.397 334.211 397.207 333.536 397.2 333.507C397.168 333.391 397.218 333.262 397.309 333.222C397.401 333.181 397.502 333.242 397.534 333.358C397.536 333.363 397.681 333.873 397.994 334.032C398.157 334.114 398.337 334.089 398.547 333.952C398.834 333.766 399.018 333.558 399.165 333.39C399.507 333.001 399.748 332.791 400.362 333.36C400.558 333.541 400.71 333.708 400.843 333.855C401.262 334.316 401.389 334.455 401.925 334.104C402.012 334.048 402.118 334.09 402.164 334.199C402.208 334.309 402.175 334.444 402.088 334.502C401.822 334.676 401.614 334.747 401.438 334.747ZM404.636 356.306C404.313 356.306 404.092 356.064 403.809 355.751C403.68 355.61 403.534 355.449 403.351 355.278C402.936 354.894 402.878 354.961 402.598 355.28C402.444 355.456 402.232 355.695 401.905 355.908C401.602 356.105 401.318 356.137 401.058 356.004C400.595 355.768 400.405 355.092 400.399 355.063C400.366 354.947 400.415 354.819 400.508 354.778C400.6 354.737 400.701 354.799 400.733 354.915C400.734 354.92 400.88 355.43 401.192 355.589C401.355 355.671 401.536 355.645 401.746 355.509C402.033 355.323 402.216 355.115 402.363 354.947C402.705 354.558 402.947 354.348 403.561 354.917C403.756 355.098 403.909 355.265 404.042 355.412C404.461 355.872 404.588 356.012 405.124 355.661C405.21 355.604 405.317 355.647 405.362 355.756C405.407 355.866 405.373 356 405.287 356.058C405.02 356.233 404.813 356.306 404.636 356.306ZM388.938 344.356C388.923 344.356 388.908 344.354 388.894 344.349C388.425 344.195 388.22 343.827 388.131 343.545C387.964 343.016 388.077 342.398 388.263 342.019C388.592 341.35 388.71 340.797 388.223 340.275C387.975 340.009 387.938 339.734 387.952 339.55C387.994 338.976 388.55 338.56 388.613 338.514C388.698 338.452 388.806 338.49 388.854 338.598C388.903 338.705 388.873 338.842 388.788 338.903C388.67 338.99 388.325 339.301 388.303 339.591C388.301 339.633 388.291 339.763 388.45 339.932C389.272 340.813 388.757 341.861 388.563 342.255C388.429 342.528 388.338 342.997 388.46 343.378C388.545 343.648 388.721 343.828 388.982 343.914C389.077 343.945 389.133 344.067 389.109 344.187C389.089 344.289 389.016 344.356 388.938 344.356ZM392.553 371.475C392.538 371.475 392.523 371.473 392.509 371.468C392.04 371.314 391.835 370.946 391.746 370.664C391.579 370.135 391.692 369.517 391.878 369.138C392.207 368.469 392.325 367.916 391.838 367.394C391.59 367.128 391.553 366.853 391.567 366.669C391.608 366.095 392.165 365.679 392.228 365.633C392.313 365.571 392.421 365.609 392.469 365.716C392.518 365.824 392.488 365.961 392.403 366.022C392.285 366.109 391.94 366.42 391.92 366.71C391.917 366.752 391.908 366.882 392.067 367.051C392.889 367.932 392.374 368.98 392.18 369.374C392.045 369.647 391.955 370.116 392.076 370.497C392.161 370.766 392.337 370.947 392.599 371.033C392.693 371.063 392.75 371.186 392.725 371.306C392.703 371.408 392.631 371.475 392.553 371.475ZM390.838 364.807C390.823 364.807 390.808 364.805 390.793 364.8C390.324 364.646 390.12 364.278 390.031 363.996C389.864 363.467 389.977 362.849 390.163 362.47C390.492 361.801 390.61 361.248 390.122 360.726C389.874 360.46 389.838 360.185 389.852 360.001C389.893 359.427 390.45 359.011 390.513 358.965C390.598 358.903 390.706 358.941 390.754 359.049C390.803 359.156 390.773 359.293 390.688 359.354C390.57 359.441 390.225 359.752 390.205 360.042C390.202 360.084 390.192 360.214 390.351 360.383C391.173 361.264 390.659 362.312 390.465 362.706C390.33 362.979 390.24 363.448 390.361 363.829C390.446 364.099 390.622 364.279 390.884 364.365C390.978 364.396 391.035 364.518 391.01 364.638C390.987 364.739 390.916 364.807 390.838 364.807ZM403.363 346.494C403.371 346.51 403.378 346.527 403.383 346.545C403.546 347.124 403.421 347.546 403.287 347.796C403.037 348.268 402.568 348.498 402.216 348.515C401.595 348.546 401.167 348.732 401.101 349.539C401.067 349.949 400.907 350.141 400.779 350.23C400.38 350.508 399.796 350.16 399.73 350.119C399.643 350.065 399.606 349.932 399.65 349.821C399.693 349.71 399.798 349.664 399.885 349.718C400.008 349.795 400.405 349.979 400.608 349.839C400.637 349.819 400.726 349.756 400.749 349.493C400.862 348.136 401.836 348.087 402.203 348.07C402.458 348.056 402.813 347.889 402.995 347.547C403.123 347.307 403.142 347.02 403.052 346.697C403.019 346.581 403.067 346.453 403.158 346.411C403.235 346.375 403.318 346.412 403.363 346.494ZM400.339 366.954C400.339 366.973 400.338 366.991 400.334 367.01C400.213 367.604 399.922 367.863 399.699 367.976C399.282 368.188 398.794 368.044 398.495 367.809C397.967 367.392 397.53 367.242 397.118 367.86C396.908 368.174 396.691 368.22 396.545 368.203C396.093 368.15 395.764 367.445 395.727 367.365C395.679 367.258 395.709 367.121 395.793 367.06C395.878 366.998 395.986 367.036 396.035 367.143C396.103 367.293 396.349 367.73 396.578 367.758C396.611 367.761 396.714 367.773 396.847 367.572C397.542 366.531 398.37 367.182 398.681 367.428C398.896 367.599 399.267 367.713 399.567 367.56C399.78 367.452 399.923 367.229 399.99 366.897C400.015 366.778 400.112 366.706 400.206 366.737C400.286 366.764 400.339 366.855 400.339 366.954ZM392.583 357.815C392.079 357.815 391.669 357.296 391.669 356.657C391.669 356.021 392.079 355.502 392.583 355.502C393.087 355.502 393.496 356.021 393.496 356.657C393.495 357.296 393.085 357.815 392.583 357.815ZM392.583 355.949C392.274 355.949 392.024 356.267 392.024 356.657C392.024 357.048 392.274 357.366 392.583 357.366C392.891 357.366 393.142 357.048 393.142 356.657C393.142 356.267 392.891 355.949 392.583 355.949ZM406.293 338.727C405.79 338.727 405.38 338.208 405.38 337.57C405.38 336.932 405.79 336.413 406.293 336.413C406.797 336.413 407.207 336.932 407.207 337.57C407.206 338.208 406.796 338.727 406.293 338.727ZM406.293 336.862C405.985 336.862 405.734 337.179 405.734 337.57C405.734 337.961 405.985 338.278 406.293 338.278C406.602 338.278 406.853 337.961 406.853 337.57C406.853 337.179 406.602 336.862 406.293 336.862ZM392.145 341.082C391.641 341.082 391.231 340.564 391.231 339.925C391.231 339.287 391.641 338.77 392.145 338.77C392.649 338.77 393.058 339.289 393.058 339.925C393.057 340.564 392.649 341.082 392.145 341.082ZM392.145 339.217C391.836 339.217 391.586 339.534 391.586 339.925C391.586 340.316 391.836 340.634 392.145 340.634C392.453 340.634 392.704 340.316 392.704 339.925C392.704 339.534 392.453 339.217 392.145 339.217ZM385.618 371.476C385.114 371.476 384.705 370.958 384.705 370.319C384.705 369.683 385.114 369.164 385.618 369.164C386.122 369.164 386.532 369.683 386.532 370.319C386.532 370.958 386.122 371.476 385.618 371.476ZM385.618 369.613C385.31 369.613 385.059 369.93 385.059 370.321C385.059 370.712 385.31 371.029 385.618 371.029C385.927 371.029 386.177 370.712 386.177 370.321C386.179 369.93 385.927 369.613 385.618 369.613ZM399.856 329.132C399.352 329.132 398.942 328.614 398.942 327.975C398.942 327.339 399.352 326.82 399.856 326.82C400.36 326.82 400.769 327.339 400.769 327.975C400.768 328.614 400.358 329.132 399.856 329.132ZM399.856 327.267C399.547 327.267 399.297 327.584 399.297 327.975C399.297 328.366 399.547 328.684 399.856 328.684C400.164 328.684 400.415 328.366 400.415 327.975C400.415 327.584 400.164 327.267 399.856 327.267ZM406.853 367.469C406.349 367.469 405.939 366.95 405.939 366.312C405.939 365.674 406.349 365.155 406.853 365.155C407.357 365.155 407.766 365.674 407.766 366.312C407.766 366.95 407.357 367.469 406.853 367.469ZM406.853 365.604C406.544 365.604 406.293 365.921 406.293 366.312C406.293 366.703 406.544 367.02 406.853 367.02C407.161 367.02 407.412 366.703 407.412 366.312C407.412 365.921 407.161 365.604 406.853 365.604Z" fill="#FFA0A0"/>
<path d="M401.204 309.709L400.199 317.23C400.199 317.23 401.301 324.303 408.898 318.923L407.043 308.173L401.204 309.709Z" fill="#FECCCC"/>
<path opacity="0.1" d="M407.041 308.175L401.204 309.709L400.768 312.972C400.907 313.023 401.047 313.073 401.187 313.119C401.857 313.342 402.54 313.53 403.193 313.791C403.705 313.996 404.216 314.259 404.594 314.646C404.992 315.054 405.189 315.563 405.215 316.109C405.261 317.003 404.76 317.785 404.406 318.585C404.178 319.099 404.055 319.79 403.554 320.147C403.19 320.406 402.713 320.5 402.243 320.492C403.534 321.249 405.605 321.258 408.898 318.927L407.041 308.175Z" fill="#242855"/>
<path d="M395.955 288.969C395.955 288.969 392.454 313.131 399.59 313.699C406.727 314.267 411.619 304.659 411.619 304.659C411.619 304.659 414.582 304.061 414.784 299.542C414.947 295.899 413.169 296.557 413.169 296.557C413.169 296.557 414.538 287.261 409.422 285.442C404.303 283.626 395.955 288.969 395.955 288.969Z" fill="#FECCCC"/>
<path opacity="0.1" d="M406.45 301.46C406.528 302.048 406.023 302.647 405.321 302.797C404.619 302.947 403.987 302.592 403.909 302.003C403.83 301.416 404.336 300.817 405.038 300.667C405.74 300.518 406.372 300.873 406.45 301.46ZM398.499 301.517C398.577 302.104 398.072 302.703 397.37 302.851C396.668 303.002 396.036 302.647 395.958 302.058C395.88 301.471 396.385 300.872 397.087 300.723C397.787 300.573 398.419 300.928 398.499 301.517Z" fill="#242855"/>
<path d="M398.836 295.991C398.768 295.991 398.702 295.946 398.666 295.866C398.634 295.796 397.875 294.209 396.013 295.253C395.913 295.31 395.797 295.252 395.754 295.127C395.71 295.002 395.754 294.854 395.854 294.799C398.049 293.567 398.996 295.6 399.006 295.619C399.059 295.738 399.027 295.89 398.933 295.958C398.902 295.98 398.868 295.991 398.836 295.991ZM402.642 296.035C402.618 296.035 402.594 296.03 402.569 296.018C402.468 295.967 402.418 295.823 402.459 295.695C402.466 295.673 403.18 293.504 405.76 294.204C405.866 294.233 405.934 294.364 405.911 294.499C405.888 294.632 405.785 294.719 405.678 294.69C403.417 294.076 402.829 295.861 402.824 295.88C402.793 295.975 402.72 296.035 402.642 296.035ZM400.407 302.256C400.339 302.256 400.272 302.244 400.206 302.22C399.79 302.066 399.615 301.472 399.606 301.449C399.585 301.375 399.593 301.293 399.627 301.227C400.331 299.858 400.144 298.01 400.141 297.991C400.127 297.854 400.202 297.73 400.31 297.711C400.42 297.69 400.516 297.788 400.531 297.924C400.54 298.004 400.729 299.877 400.013 301.38C400.07 301.51 400.175 301.691 400.317 301.744C400.449 301.792 400.61 301.725 400.796 301.546C400.882 301.462 401.005 301.483 401.071 301.592C401.137 301.701 401.121 301.856 401.035 301.94C400.819 302.15 400.608 302.256 400.407 302.256Z" fill="#000541"/>
<path d="M397.888 305.493C397.888 305.493 400.126 306.778 402.634 305.3C403.202 306.621 400.232 310.057 397.888 305.493Z" fill="#FCF7F7"/>
<path d="M398.24 297.994C398.24 298.769 397.901 299.397 397.483 299.397C397.065 299.397 396.726 298.769 396.726 297.994C396.726 297.219 397.065 296.593 397.483 296.593C397.901 296.593 398.24 297.221 398.24 297.994ZM405.055 297.994C405.055 298.769 404.717 299.397 404.298 299.397C403.88 299.397 403.541 298.769 403.541 297.994C403.541 297.219 403.88 296.593 404.298 296.593C404.717 296.593 405.055 297.221 405.055 297.994Z" fill="#000541"/>
<path opacity="0.1" d="M400.791 309.014C400.583 309.014 400.449 308.975 400.435 308.972C400.383 308.956 400.35 308.89 400.362 308.823C400.375 308.756 400.428 308.716 400.481 308.731C400.489 308.734 401.35 308.977 402.132 308.118C402.173 308.076 402.235 308.081 402.27 308.132C402.305 308.183 402.301 308.262 402.261 308.308C401.717 308.902 401.147 309.014 400.791 309.014Z" fill="#242855"/>
<path opacity="0.1" d="M412.831 298.037C412.831 298.037 413.975 297.354 414.2 298.378C414.425 299.402 413.707 301.988 412.607 302.585C412.607 302.585 414.604 300.141 413.953 298.662C413.302 297.184 412.898 298.747 412.831 298.037Z" fill="#242855"/>
<path d="M408.583 316.793C408.583 316.793 410.294 318.79 409.368 321.857C408.583 324.46 407.565 326.748 404.69 326.117C401.815 325.485 401.712 321.857 401.712 321.857C401.712 321.857 399.228 326.031 397.154 323.838C393.632 320.111 400.298 316.505 400.298 316.505C400.298 316.505 400.201 318.624 402.723 319.573C405.245 320.524 408.583 316.793 408.583 316.793Z" fill="#FFA0A0"/>
<path d="M406.676 286.954C406.676 286.954 404.615 291.707 402.402 291.504C400.19 291.301 399.982 290.78 399.982 290.78C399.982 290.78 398.7 293.268 395.424 293.065C392.149 292.862 391.881 290.016 391.881 290.016C391.881 290.016 389.451 289.05 390.165 285.595C390.879 282.141 393.178 283.218 393.178 283.218C393.178 283.218 391.953 281.112 394.302 278.804C396.652 276.495 398.927 280.637 398.927 280.637C398.927 280.637 399.556 279.441 402.796 278.105C406.035 276.767 408.255 281.182 408.255 281.182C408.255 281.182 412.735 279.349 413.647 284.781C413.647 284.781 416.649 287.022 415.31 290.35C415.31 290.35 417.576 297.004 412.921 297.039C412.921 297.039 412.146 300.39 410.269 300.192C408.393 299.994 409.476 296.694 409.069 295.39C408.659 294.084 405.657 292.931 406.676 286.954Z" fill="#000541"/>
<path d="M424.77 350.336C424.77 350.336 430.445 370.331 427.73 373.902H405.38C405.38 373.902 414.565 369.988 414.794 365.604C415.023 361.219 411.692 354.569 411.692 354.569L424.77 350.336Z" fill="#FECCCC"/>
<path d="M410.264 358.001C410.264 358.001 420.728 361.955 426.408 352.732C426.408 352.732 423.806 329.897 413.111 320.022C406.727 321.917 410.264 358.001 410.264 358.001Z" fill="#FFA0A0"/>
<path opacity="0.1" d="M373.87 229.192H274.502C271.827 229.192 269.66 231.941 269.664 235.329L269.726 298.143C269.728 301.525 271.895 304.265 274.564 304.265H358.614L368.663 308.618L370.766 304.265H373.872C380.437 304.265 385.76 297.523 385.76 289.207V244.251C385.758 235.935 380.436 229.192 373.87 229.192Z" fill="#000541"/>
<path d="M368.663 298.249V308.618L351.853 299.498L368.663 298.249Z" fill="white"/>
<path d="M276.53 226.961H371.764C378.33 226.961 383.652 233.702 383.652 242.019V286.971C383.652 295.287 378.33 302.029 371.764 302.029H276.53C269.964 302.029 264.642 295.287 264.642 286.971V242.019C264.642 233.702 269.964 226.961 276.53 226.961Z" fill="white"/>
<path d="M281.859 262.386C278.326 262.386 275.463 266.013 275.463 270.488C275.463 274.963 278.326 278.589 281.859 278.589C285.391 278.589 288.255 274.963 288.255 270.488C288.255 266.013 285.391 262.386 281.859 262.386ZM281.859 277.255C278.907 277.255 276.508 274.225 276.508 270.486C276.508 266.747 278.905 263.718 281.859 263.718C284.811 263.718 287.202 266.747 287.202 270.486C287.202 274.225 284.811 277.255 281.859 277.255Z" fill="#FFA0A0"/>
<path d="M282.698 270.486C282.698 271.075 282.322 271.551 281.857 271.551C281.392 271.551 281.015 271.075 281.015 270.486C281.015 269.897 281.392 269.421 281.857 269.421C282.322 269.421 282.698 269.897 282.698 270.486Z" fill="#FFA0A0"/>
<path d="M281.856 264.748C281.558 264.748 281.316 265.054 281.316 265.433V270.182C281.316 270.56 281.557 270.867 281.856 270.867C282.154 270.867 282.396 270.561 282.396 270.182V265.433C282.396 265.054 282.154 264.748 281.856 264.748Z" fill="#FFA0A0"/>
<path d="M285.013 266.706C284.803 266.44 284.46 266.44 284.249 266.706L281.597 270.065C281.387 270.331 281.387 270.764 281.597 271.032C281.808 271.299 282.15 271.299 282.361 271.032L285.013 267.674C285.223 267.406 285.223 266.972 285.013 266.706Z" fill="#FFA0A0"/>
<path d="M312.513 264.265H295.685C295.272 264.265 294.888 264.624 294.822 265.141C294.737 265.801 295.137 266.37 295.641 266.37H312.514C312.973 266.37 313.345 265.899 313.345 265.317C313.343 264.736 312.971 264.265 312.513 264.265ZM344.65 264.265H315.303C314.844 264.265 314.472 264.736 314.472 265.318C314.472 265.9 314.844 266.371 315.303 266.371H344.695C345.2 266.371 345.599 265.801 345.514 265.143C345.448 264.624 345.064 264.265 344.65 264.265ZM319.766 269.433H295.684C295.27 269.433 294.886 269.792 294.819 270.309C294.734 270.967 295.134 271.539 295.638 271.539H319.764C320.224 271.539 320.596 271.068 320.596 270.486C320.597 269.906 320.225 269.433 319.766 269.433ZM319.766 274.603H295.684C295.27 274.603 294.886 274.961 294.819 275.478C294.734 276.139 295.134 276.709 295.638 276.709H319.764C320.224 276.709 320.596 276.238 320.596 275.656C320.597 275.074 320.225 274.603 319.766 274.603ZM344.65 269.433H322.557C322.098 269.433 321.726 269.904 321.726 270.486C321.726 271.068 322.098 271.539 322.557 271.539H344.695C345.2 271.539 345.599 270.969 345.514 270.309C345.448 269.792 345.064 269.433 344.65 269.433Z" fill="#FFA0A0"/>
<path d="M266.746 249.902V242.019C266.746 235.186 271.135 229.627 276.528 229.627H371.763C377.156 229.627 381.545 235.186 381.545 242.019V249.902H266.746Z" fill="#2CA68F"/>
<path d="M288.188 241.842L287.602 244.134H285.673L288.19 235.3H290.413L292.93 244.134H290.949L290.363 241.842H288.188ZM288.633 240.05H289.927L289.28 237.336L288.633 240.05ZM299.789 238.167C299.789 239.908 298.869 240.818 297.858 240.971C297.485 241.022 297.202 241.034 296.767 241.034H295.959V244.132H294.14V235.298H296.768C297.204 235.298 297.487 235.312 297.86 235.363C298.87 235.517 299.789 236.426 299.789 238.167ZM297.889 238.167C297.889 237.501 297.617 237.155 297.151 237.106C297.02 237.092 296.859 237.092 296.666 237.092H295.959V239.242H296.666C296.859 239.242 297.02 239.242 297.151 239.229C297.617 239.179 297.889 238.833 297.889 238.167ZM306.852 238.167C306.852 239.908 305.932 240.818 304.921 240.971C304.548 241.022 304.265 241.034 303.83 241.034H303.022V244.132H301.203V235.298H303.831C304.267 235.298 304.549 235.312 304.923 235.363C305.932 235.517 306.852 236.426 306.852 238.167ZM304.951 238.167C304.951 237.501 304.677 237.155 304.213 237.106C304.082 237.092 303.92 237.092 303.728 237.092H303.02V239.242H303.728C303.92 239.242 304.082 239.242 304.213 239.229C304.679 239.179 304.951 238.833 304.951 238.167ZM315.138 239.717C315.138 242.546 313.743 244.313 311.571 244.313C309.397 244.313 308.003 242.546 308.003 239.717C308.003 236.875 309.397 235.121 311.571 235.121C313.743 235.121 315.138 236.875 315.138 239.717ZM313.278 239.717C313.278 237.834 312.622 236.81 311.569 236.81C310.518 236.81 309.861 237.834 309.861 239.717C309.861 241.586 310.518 242.623 311.569 242.623C312.622 242.623 313.278 241.586 313.278 239.717ZM316.782 244.134V235.3H318.601V244.134H316.782ZM324.806 244.134L322.269 238.295C322.329 239.191 322.329 239.973 322.329 240.485V244.134H320.51V235.3H322.774L325.423 241.394C325.372 240.498 325.362 239.589 325.362 239.077V235.3H327.181V244.134H324.806ZM332.505 237.092V244.134H330.686V237.092H328.422V235.3H334.77V237.092H332.505ZM344.004 244.134H342.186V240.42C342.186 239.652 342.186 238.512 342.206 237.616C342.084 238.512 341.882 239.638 341.721 240.42L340.953 244.134H339.083L338.304 240.42C338.142 239.652 337.94 238.512 337.829 237.616C337.85 238.512 337.85 239.652 337.85 240.42V244.134H336.031V235.3H338.871L340.054 241.893L341.237 235.3H344.007V244.134H344.004ZM351.257 244.134H345.911V235.3H351.156V237.092H347.73V238.807H350.954V240.599H347.73V242.342H351.257V244.134ZM357.219 244.134L354.682 238.295C354.743 239.191 354.743 239.973 354.743 240.485V244.134H352.924V235.3H355.188L357.837 241.394C357.785 240.498 357.776 239.589 357.776 239.077V235.3H359.595V244.134H357.219ZM364.918 237.092V244.134H363.099V237.092H360.836V235.3H367.183V237.092H364.918Z" fill="white"/>
<path d="M372.347 257.993H356.969C354.144 257.993 351.853 260.895 351.853 264.474V283.82C351.853 287.399 354.144 290.301 356.969 290.301H372.347C375.172 290.301 377.462 287.399 377.462 283.82V264.474C377.462 260.895 375.172 257.993 372.347 257.993Z" fill="#4A4A4A"/>
<path d="M376.557 267.866V264.474C376.557 261.533 374.668 259.14 372.347 259.14H356.969C354.648 259.14 352.759 261.533 352.759 264.474V267.866H376.557Z" fill="#FFA0A0"/>
<path d="M360.258 264.603L360.066 265.349H359.437L360.256 262.472H360.981L361.801 265.349H361.155L360.964 264.603H360.258ZM360.403 264.02H360.825L360.615 263.136L360.403 264.02ZM364.036 263.407C364.036 263.974 363.737 264.27 363.407 264.32C363.285 264.337 363.192 264.34 363.051 264.34H362.787V265.349H362.194V262.472H363.05C363.191 262.472 363.283 262.475 363.405 262.492C363.737 262.543 364.036 262.839 364.036 263.407ZM363.417 263.407C363.417 263.19 363.328 263.078 363.178 263.06C363.134 263.057 363.082 263.057 363.02 263.057H362.79V263.758H363.02C363.082 263.758 363.136 263.758 363.178 263.755C363.328 263.736 363.417 263.624 363.417 263.407ZM366.438 265.349H365.793C365.74 265.144 365.707 264.979 365.688 264.774C365.658 264.457 365.56 264.274 365.407 264.26C365.341 264.255 365.286 264.255 365.22 264.255H365.088V265.347H364.495V262.47H365.397C365.538 262.47 365.631 262.473 365.752 262.49C366.081 262.54 366.368 262.745 366.368 263.253C366.368 263.617 366.213 263.857 365.91 263.97C366.147 264.079 366.233 264.3 366.266 264.646C366.297 264.975 366.349 265.178 366.438 265.349ZM365.302 263.716C365.364 263.716 365.418 263.716 365.46 263.712C365.611 263.695 365.75 263.629 365.75 263.388C365.75 263.148 365.628 263.079 365.476 263.062C365.433 263.059 365.381 263.059 365.319 263.059H365.088V263.718H365.302V263.716ZM366.922 265.349V262.472H367.515V265.349H366.922ZM369.878 265.349H368.137V262.472H368.73V264.716H369.879V265.349H369.878Z" fill="white"/>
<path d="M363.427 280.754V282.982H356.705V281.742L359.432 278.496C360.725 276.951 361.166 276.188 361.166 275.139C361.166 274.311 360.802 273.85 360.186 273.85C359.533 273.85 359.207 274.376 359.118 275.521L359.106 275.68H356.845L356.857 275.521C357.046 273.103 358.252 271.749 360.375 271.749C362.397 271.749 363.529 272.975 363.529 275.028C363.529 276.316 363.064 277.304 361.394 279.34L360.238 280.757H363.427V280.754ZM372.611 279.719C372.611 281.82 371.254 283.204 369.067 283.204C366.868 283.204 365.587 281.851 365.41 279.656L365.398 279.497H367.659L367.685 279.656C367.81 280.421 368.237 281.105 368.979 281.105C369.758 281.105 370.249 280.549 370.249 279.799C370.249 278.861 369.708 278.383 368.804 278.335L368.465 278.32V276.473L368.804 276.441C369.633 276.361 370.048 275.789 370.048 275.04C370.048 274.323 369.708 273.877 369.08 273.877C368.415 273.877 368.139 274.562 368.087 275.279L368.075 275.437H365.813L365.825 275.279C365.976 273.432 367.057 271.776 369.305 271.776C371.429 271.776 372.408 273.145 372.408 274.705C372.408 275.994 371.894 276.854 370.762 277.204C371.995 277.506 372.611 278.303 372.611 279.719Z" fill="#FFA0A0"/>
<path d="M207.441 164.463C206.05 175.942 206.505 182.938 207.278 188.508C208.624 198.327 210.948 203.824 205.927 221.807C198.051 249.999 175.442 229.272 155.512 253.578C133.587 280.349 112.807 291.279 95.4204 291.441C74.9848 291.637 59.2125 276.913 51.6942 255.464C37.7853 215.718 50.4951 203.621 78.2589 192.142C106.007 180.664 93.4882 147.937 108.246 136.139C123.006 124.363 140.937 127.659 147.962 120.141C154.985 112.623 176.388 102.327 195.727 112.121C211.884 120.274 211.26 132.811 207.441 164.463Z" fill="#000541"/>
<path opacity="0.5" d="M205.928 221.807C198.051 249.999 175.442 229.272 155.512 253.578C133.587 280.349 112.807 291.278 95.4204 291.441C95.4824 290.872 95.5282 290.306 95.5929 289.76C97.5371 271.877 101.676 253.216 108.156 237.126C114.471 221.428 123.896 208.867 134.948 198.366C140.511 193.056 146.363 188.259 152.153 183.364C155.204 180.774 158.316 178.282 161.644 176.27C164.814 174.37 168.38 173.051 171.153 170.225C175.621 165.67 177.035 158.7 177.606 151.798C178.104 145.703 178.201 139.307 181.536 134.803C189.756 133.197 189.851 148.886 190.347 155.94C190.745 161.678 191.484 167.426 192.845 172.945C194.571 179.932 198.045 185.052 203.601 187.37C204.804 187.866 206.029 188.25 207.275 188.505C208.624 198.327 210.949 203.822 205.928 221.807Z" fill="black"/>
<path d="M200.1 209.034L198.994 188.029C198.994 188.029 229.189 197.082 239.228 279.308C242.933 309.666 235.498 321.86 223.835 324.236C212.171 326.613 182.801 274.133 200.1 209.034Z" fill="#2CA68F"/>
<path d="M253.464 169.994C253.428 170.324 253.371 170.615 253.31 170.839C253.297 170.885 253.286 170.926 253.274 170.962C252.971 171.907 252.631 172.829 252.294 173.669C251.393 175.93 250.52 177.62 250.52 177.62C250.52 177.62 250.283 192.363 249.694 194.138C248.564 195.64 242.288 193.671 242.288 193.671C241.437 192.217 243.115 177.534 242.973 174.628C242.835 171.718 243.644 168.421 243.644 168.421C243.644 168.421 243.803 153.393 246.485 153.446C247.677 153.469 247.166 161.055 247.231 163.968C247.232 163.992 247.231 164.016 247.232 164.04C247.235 164.033 248.054 163.198 248.882 163.814C249.287 164.113 249.404 164.49 249.404 164.49C249.404 164.49 249.992 164.217 250.42 164.381C250.851 164.545 251.432 165.093 251.423 165.366C251.431 165.366 251.94 165.089 252.398 165.509C252.856 165.926 252.995 166.985 252.995 166.985H252.99C253.049 167.093 253.104 167.2 253.153 167.311C253.521 168.161 253.552 169.194 253.464 169.994Z" fill="#FECCCC"/>
<path opacity="0.2" d="M253.464 169.994C253.386 169.885 253.294 169.795 253.181 169.74C252.679 169.498 252.354 170.047 252.172 170.516C252.065 170.791 251.994 171.1 251.861 171.358C251.749 171.585 251.549 171.769 251.366 171.906C249.807 173.107 246.731 172.088 246.707 169.53C246.696 168.482 246.761 167.393 246.869 166.362C246.959 165.501 247.007 164.852 247.232 164.04C247.235 164.033 248.054 163.198 248.882 163.814C249.287 164.113 249.404 164.49 249.404 164.49C249.404 164.49 249.992 164.217 250.42 164.381C250.851 164.545 251.432 165.093 251.423 165.366C251.431 165.366 251.94 165.089 252.398 165.509C252.856 165.925 252.995 166.985 252.995 166.985H252.99C253.049 167.093 253.104 167.2 253.153 167.311C253.521 168.161 253.552 169.194 253.464 169.994Z" fill="white"/>
<path opacity="0.1" d="M252.334 170.008C251.876 172.592 250.763 173.158 250.269 173.281C248.953 172.877 247.734 172.218 247.157 171.525C246.754 171.042 246.623 169.936 246.641 168.683C246.63 168.752 246.619 168.82 246.609 168.89C246.447 170.04 246.311 171.368 246.722 172.462C247.127 173.542 248.029 174.032 248.932 174.077C249.656 174.112 250.383 173.918 251.077 173.623H251.078C251.079 173.623 251.081 173.621 251.082 173.619C251.147 173.592 251.211 173.565 251.276 173.536C251.258 173.532 251.241 173.529 251.223 173.524C252.301 172.733 252.334 170.008 252.334 170.008Z" fill="#2CA68F"/>
<path d="M250.24 172.986C250.508 172.216 250.672 171.585 250.841 170.779C251.008 169.957 251.122 169.105 251.08 168.259C251.075 169.107 250.916 169.933 250.707 170.73C250.494 171.523 249.943 172.981 249.943 172.981C249.717 172.976 248.969 172.628 248.652 172.455C248.636 172.447 248.621 172.438 248.605 172.43C248.825 171.619 249.019 170.805 249.183 169.977C249.346 169.141 249.491 168.289 249.517 167.427C249.445 168.284 249.256 169.114 249.05 169.929C248.844 170.728 248.608 171.517 248.352 172.288C248.139 172.165 247.929 172.039 247.735 171.882C247.2 171.448 246.962 171.093 246.793 169.815C246.737 169.387 246.726 168.946 246.719 168.506C246.704 168.066 246.712 167.625 246.72 167.182C246.59 168.054 246.534 168.945 246.582 169.842C246.607 170.291 246.661 170.745 246.813 171.182C246.858 171.288 246.893 171.401 246.957 171.496L247.048 171.643L247.15 171.766C247.218 171.851 247.289 171.923 247.364 171.989C247.437 172.061 247.513 172.126 247.591 172.182C248.212 172.65 248.883 172.943 249.562 173.172C250.241 173.399 250.903 173.353 251.512 172.3C251.117 172.896 250.384 173.039 250.24 172.986Z" fill="#CECDCD"/>
<path opacity="0.1" d="M250.455 177.475C249.589 178.342 247.804 178.217 246.184 177.893C244.953 177.647 243.964 176.718 243.262 175.799C243.349 176.065 243.444 176.331 243.555 176.589C243.846 177.261 244.989 180.263 246.606 180.4C249.134 180.613 249.946 177.908 250.442 177.603C250.446 177.56 250.451 177.517 250.455 177.475Z" fill="#2CA68F"/>
<path opacity="0.1" d="M246.421 167.844C246.421 167.844 246.677 168.74 246.052 169.011C245.427 169.281 244.461 168.18 244.21 170.416C243.96 172.65 243.146 175.222 242.956 173.396C242.767 171.569 242.527 168.317 243.516 167.835C244.507 167.351 246.421 167.844 246.421 167.844Z" fill="#2CA68F"/>
<path d="M242.973 174.628C242.973 174.628 241.125 170.206 241.079 168.697C241.033 167.188 242.482 165.337 243.372 165.199C244.195 165.072 245.986 166.403 246.334 167.084C246.681 167.765 246.982 168.726 245.322 168.581C243.66 168.436 243.566 168.996 243.566 168.996L242.973 174.628Z" fill="#CECDCD"/>
<path opacity="0.2" d="M245.269 167.195C245.269 167.195 246.171 168.037 246.375 167.943C246.58 167.849 246.215 166.912 245.872 166.74C245.528 166.567 245.269 167.195 245.269 167.195Z" fill="white"/>
<path d="M241.335 185.098C241.334 186.848 224.843 262.931 223.923 268.494C215.472 319.578 239.829 320.978 239.829 320.978C240.187 320.826 240.543 320.667 240.867 320.461C267.083 303.882 251.535 184.501 251.535 184.501C251.535 184.501 241.363 183.291 241.335 185.098Z" fill="#2CA68F"/>
<g opacity="0.1">
<path d="M245.387 304.358C243.139 303.816 241.214 302.235 240.37 299.46C239.504 296.612 239.675 293.376 239.963 290.406C240.303 286.911 240.911 283.467 241.328 279.987C241.676 277.081 242.061 273.811 241.278 270.962C239.971 266.208 237.518 262.135 235.357 257.971C233.089 253.599 231.141 249.057 230.521 243.819C230.314 242.065 230.218 240.3 230.175 238.532C226.994 253.505 224.281 266.332 223.923 268.494C215.472 319.578 239.829 320.978 239.829 320.978C240.187 320.826 240.543 320.667 240.867 320.461C245.325 317.641 248.573 311.845 250.897 304.176C249.1 304.729 247.207 304.799 245.387 304.358Z" fill="#000541"/>
</g>
<path d="M128.893 375.066H226.092C218.395 315.472 229.595 192.901 187.179 181.692C164.717 175.756 123.106 214.772 132.817 266.742C135.48 302.957 139.663 338.714 128.893 375.066Z" fill="#FFC7C7"/>
<path d="M207.922 282.528C207.922 283.955 207.978 285.454 208.035 286.879C207.978 286.95 208.035 286.95 208.035 286.95C208.129 291.651 208.287 296.557 208.486 301.363C208.537 303.194 208.555 304.951 208.711 306.715C208.805 310.24 208.963 314.165 209.104 317.703C210.065 345.201 212.858 358.197 215.98 375.066H235.468C229.43 178.905 201.204 190.585 198.032 187.902C197.479 207.413 207.039 254.798 207.922 282.387C207.866 282.457 207.866 282.457 207.922 282.528Z" fill="#FFC7C7"/>
<path d="M169.27 373.9C170.901 364.923 179.848 357.39 180.27 339.574C180.326 339.502 180.326 339.43 180.27 339.359C180.356 337.58 180.318 335.51 180.326 333.722C180.326 333.652 180.326 333.652 180.27 333.582C180.139 302.305 176.727 270.606 172.383 239.973C172.328 239.901 172.328 239.901 172.328 239.901C169.992 227.548 168.34 186.04 170.348 183.948C166.226 188.24 158.578 203.189 155.161 207.966C157 213.42 162.864 223.947 164.78 229.625L149.233 268.797C171.306 309.767 169.27 373.9 169.27 373.9ZM202.345 231.436C204.189 256.877 192.585 323.234 204.536 373.478C204.536 373.478 206.597 309.767 215.189 269.995L202.927 236.39C213.731 229.518 210.467 213.424 211.77 207.969C207.883 203.192 199.44 187.204 194.455 185.153C198.954 187.003 200.229 202.25 202.345 231.436Z" fill="#2CA68F"/>
<path d="M169.27 186.887C168.562 190.86 171.998 208.263 180.093 216.274C183.382 219.735 187.075 221.722 190.667 220.952C202.657 218.517 196.941 193.458 194.867 186.151C194.816 185.895 194.715 185.638 194.665 185.446C192.742 179.231 193.451 157.954 193.451 157.954L181.156 154.685C181.156 154.685 181.915 158.403 178.778 169.105C175.589 179.808 170.331 181.313 169.27 186.887Z" fill="#FECCCC"/>
<path opacity="0.5" d="M180.093 216.274C183.382 219.735 187.075 221.722 190.667 220.952C202.657 218.517 196.941 193.458 194.867 186.151C194.816 185.895 194.715 185.638 194.665 185.446C192.742 179.231 193.451 157.954 193.451 157.954L181.915 154.941C182.32 155.325 182.572 155.967 182.623 156.8C182.877 165.323 188.695 171.283 191.123 178.845C192.994 184.678 194.208 192.688 191.376 198.391C190.566 200.059 184.899 209.161 180.093 216.274Z" fill="#CECDCD"/>
<path d="M202.061 165.77C197.676 173.536 181.498 166.818 179.67 156.809C179.102 153.658 178.125 148.241 178.125 148.241C178.125 148.241 174.235 146.084 174.789 141.039C175.252 137.134 177.801 139.602 177.801 139.602L177.788 135.265L201.806 131.512C201.806 131.512 202.182 133.717 202.672 137.114C202.91 138.863 203.132 140.977 203.38 143.206C204.159 151.318 204.501 161.497 202.061 165.77Z" fill="#FECCCC"/>
<path opacity="0.5" d="M203.38 143.203C199.864 144.096 195.497 144.835 193.237 144.606C189.255 144.171 177.844 138.764 177.844 138.764L201.17 129.811C202.629 132.108 203.132 140.974 203.38 143.203Z" fill="#CECDCD"/>
<path opacity="0.1" d="M187.18 153.976C187.148 154.877 187.993 155.658 189.068 155.721C190.143 155.785 191.042 155.107 191.076 154.206C191.109 153.306 190.264 152.525 189.188 152.46C188.113 152.397 187.214 153.076 187.18 153.976ZM199.127 152.231C199.094 153.131 199.939 153.912 201.015 153.976C202.09 154.039 202.989 153.361 203.023 152.46C203.056 151.561 202.21 150.779 201.135 150.716C200.058 150.651 199.161 151.33 199.127 152.231Z" fill="#242855"/>
<path d="M197.83 144.012C197.932 143.997 198.024 143.915 198.067 143.787C198.105 143.676 199.018 141.116 201.962 142.256C202.121 142.316 202.286 142.205 202.333 142.007C202.38 141.809 202.292 141.599 202.136 141.537C198.665 140.191 197.532 143.461 197.521 143.493C197.458 143.684 197.528 143.904 197.679 143.986C197.728 144.012 197.78 144.021 197.83 144.012ZM192.121 144.954C192.158 144.949 192.194 144.934 192.228 144.911C192.372 144.812 192.426 144.584 192.346 144.403C192.333 144.37 190.95 141.28 187.176 142.923C187.021 142.99 186.939 143.205 186.993 143.401C187.047 143.597 187.213 143.703 187.37 143.635C190.677 142.193 191.814 144.737 191.826 144.763C191.884 144.899 192.004 144.973 192.121 144.954ZM196.368 153.781C196.47 153.766 196.569 153.731 196.663 153.68C197.265 153.354 197.445 152.422 197.453 152.383C197.474 152.267 197.451 152.146 197.391 152.055C196.138 150.163 196.154 147.343 196.154 147.316C196.157 147.108 196.025 146.937 195.861 146.935C195.693 146.93 195.562 147.099 195.561 147.306C195.56 147.43 195.544 150.282 196.833 152.376C196.767 152.585 196.635 152.882 196.429 152.991C196.237 153.091 195.984 153.032 195.681 152.803C195.539 152.697 195.358 152.757 195.275 152.936C195.192 153.115 195.239 153.346 195.38 153.452C195.735 153.716 196.066 153.827 196.368 153.781Z" fill="#000541"/>
<path d="M200.614 158.063C200.614 158.063 197.438 160.507 193.46 158.865C192.796 160.976 197.751 165.451 200.614 158.063Z" fill="#FCF7F7"/>
<path d="M199.01 146.884C199.121 148.047 199.72 148.912 200.348 148.815C200.976 148.719 201.395 147.697 201.285 146.534C201.174 145.372 200.575 144.507 199.947 144.604C199.319 144.701 198.9 145.722 199.01 146.884ZM188.778 148.451C188.889 149.613 189.488 150.479 190.116 150.381C190.744 150.286 191.163 149.265 191.053 148.101C190.942 146.939 190.343 146.074 189.715 146.171C189.086 146.268 188.666 147.289 188.778 148.451Z" fill="#000541"/>
<path opacity="0.1" d="M196.76 164.016C197.072 163.968 197.268 163.879 197.288 163.869C197.365 163.833 197.404 163.726 197.376 163.628C197.348 163.531 197.261 163.482 197.186 163.516C197.174 163.523 195.915 164.084 194.621 162.975C194.551 162.92 194.46 162.941 194.415 163.026C194.369 163.111 194.388 163.229 194.455 163.287C195.355 164.058 196.227 164.098 196.76 164.016Z" fill="#242855"/>
<path opacity="0.5" d="M177.234 140.602C177.234 140.602 176.364 139.416 175.946 140.319C175.531 141.223 175.806 144.659 177.148 145.811C177.148 145.811 175.769 142.729 176.163 141.672C176.555 140.614 177.614 141.491 177.234 140.602Z" fill="#CECDCD"/>
<path d="M202.287 137.699C201.865 135.163 201.146 133.656 198.84 133.019C198.4 132.896 200.956 135.178 201.163 138.506C199.917 139.578 198.443 140.489 196.896 141.068C191.186 143.227 177.289 138.54 177.289 138.54C175.508 114.111 202.834 120.516 205.698 129.191C206.329 131.089 204.472 135.112 202.287 137.699Z" fill="#000541"/>
<path d="M195.038 361.615C206.754 321.164 212.06 278.521 210.416 232.269C210.347 230.383 209.269 229.033 208.028 229.238C191.174 232.064 173.113 234.301 153.743 235.913C152.816 235.989 152.028 237.348 151.949 238.947C150.099 278.506 142.95 315.81 130.634 351.732C130.118 353.237 130.497 354.635 131.499 354.843C152.554 359.24 172.584 362.4 191.59 364.438C192.988 364.593 194.548 363.319 195.038 361.615Z" fill="white"/>
<g opacity="0.2">
<path opacity="0.1" d="M193.056 350.051C202.327 314.761 206.764 277.705 206.016 237.964C190.462 240.138 173.924 241.809 156.336 242.949C154.489 279.922 147.989 314.911 136.964 348.636C149.226 350.954 161.125 352.864 172.661 354.389C179.624 352.988 186.42 351.541 193.056 350.051Z" fill="#2CA68F"/>
</g>
<path d="M192.585 348.418C201.718 313.168 206.038 276.13 205.191 236.375C189.728 238.589 173.286 240.306 155.8 241.505C154.046 278.472 147.658 313.434 136.763 347.109C148.972 349.391 160.818 351.275 172.303 352.777C179.227 351.369 185.987 349.914 192.585 348.418Z" fill="#FFA0A0"/>
<g opacity="0.1">
<path d="M205.191 236.375C201.832 236.856 198.404 237.303 194.951 237.737C198.47 247.501 200.566 258.256 197.853 268.029C195.705 275.76 191.225 280.308 185.236 282.761C183.533 283.459 181.168 284.239 180.007 286.148C179.979 286.194 179.964 286.206 179.941 286.242C179.941 286.244 179.942 286.244 179.942 286.246C179.972 286.541 180.423 287.331 180.497 287.505C181.951 290.896 183.037 294.451 183.385 298.308C183.998 305.113 181.583 311.001 177.227 314.912C171.356 320.186 163.658 324.362 156.479 325.34C152.145 325.931 147.766 325.168 143.515 323.729C141.492 331.592 139.261 339.389 136.763 347.109C148.972 349.392 160.818 351.275 172.304 352.777C179.228 351.369 185.988 349.914 192.586 348.418C201.718 313.168 206.039 276.13 205.191 236.375Z" fill="#2CA68F"/>
</g>
<path d="M192.585 348.418C191.412 346.619 190.232 344.8 189.041 342.955C183.63 346.208 178.053 349.483 172.303 352.777C179.227 351.369 185.987 349.915 192.585 348.418Z" fill="#FFA0A0"/>
<path opacity="0.25" d="M130.404 329.88V343.397C130.404 343.397 161.599 355.348 180.682 336.638C199.765 317.928 199.198 309.521 199.198 309.521C199.198 309.521 208.581 314.334 208.12 308.907C207.659 303.481 197.849 300.093 193.883 301.215C189.918 302.338 130.404 329.88 130.404 329.88Z" fill="#000541"/>
<path d="M199.013 298.412C196.889 299.039 187.634 298.779 186.696 300.017C186.696 300.017 186.252 306.478 187.54 307.575C188.944 307.995 199.561 306.478 199.561 306.478C199.561 306.478 200.82 307.924 203.566 308.688C204.297 308.893 205.038 309.045 205.744 309.111V309.115C205.747 309.115 205.747 309.115 205.751 309.118C205.786 309.123 205.967 309.166 206.231 309.219H206.233C207.187 309.41 209.237 309.762 209.565 309.284C209.98 308.687 210.157 307.83 209.757 307.319C209.774 307.294 209.789 307.265 209.807 307.239C210.056 307.202 210.682 307.041 210.933 306.415C211.18 305.806 210.88 305.312 210.734 305.12C210.742 305.087 210.752 305.055 210.76 305.024C210.968 305.007 211.422 304.927 211.539 304.553C211.687 304.07 211.811 303.23 211.236 302.826C211.239 302.816 211.239 302.802 211.241 302.792C211.363 302.713 211.832 302.362 211.764 301.508C211.687 300.53 211.326 300.394 211.326 300.394C211.326 300.394 211.794 299.585 211.693 298.902C211.593 298.216 211.108 297.376 209.879 297.17L209.869 297.172C209.75 297.114 209.623 297.061 209.487 297.035C208.932 296.921 208.385 296.858 207.865 296.832C207.759 296.829 207.653 296.827 207.547 296.822C205.522 296.774 203.972 297.252 203.972 297.252C203.972 297.252 206.854 293.596 205.748 291.577C204.646 289.56 201.139 297.784 199.013 298.412Z" fill="#FECCCC"/>
<path opacity="0.2" d="M207.866 296.834C208.707 301.099 206.634 306.9 205.746 309.11C205.743 309.11 205.743 309.113 205.743 309.113H205.746C205.748 309.113 205.748 309.113 205.752 309.117C205.894 309.13 206.056 309.166 206.232 309.217H206.235C207.189 309.408 209.238 309.76 209.567 309.282C209.982 308.685 210.158 307.828 209.758 307.318C209.776 307.292 209.79 307.263 209.808 307.238C210.057 307.2 210.684 307.04 210.934 306.413C211.181 305.804 210.882 305.311 210.735 305.118C210.743 305.085 210.754 305.053 210.762 305.022C210.969 305.005 211.423 304.925 211.541 304.551C211.689 304.068 211.813 303.229 211.237 302.824C211.24 302.814 211.24 302.8 211.243 302.79C211.364 302.712 211.833 302.36 211.766 301.507C211.689 300.529 211.328 300.392 211.328 300.392C211.328 300.392 211.795 299.583 211.694 298.901C211.595 298.214 211.109 297.375 209.881 297.168L209.87 297.17C209.751 297.112 209.625 297.059 209.489 297.033C208.932 296.922 208.385 296.859 207.866 296.834Z" fill="white"/>
<path d="M209.669 307.06C209.256 306.749 208.828 306.497 208.385 306.287C207.942 306.079 207.482 305.925 207.015 305.864C207.477 305.97 207.922 306.164 208.345 306.41C208.766 306.656 209.176 306.949 209.552 307.282L209.555 307.284C209.602 307.326 209.668 307.313 209.702 307.251C209.735 307.191 209.723 307.108 209.676 307.067C209.673 307.063 209.671 307.062 209.669 307.06ZM211.192 300.192C210.728 299.873 210.251 299.617 209.759 299.411C209.266 299.204 208.757 299.061 208.244 299.018C208.754 299.11 209.246 299.3 209.719 299.547C210.189 299.795 210.649 300.095 211.069 300.44L211.073 300.443C211.126 300.488 211.198 300.469 211.232 300.401C211.267 300.332 211.252 300.242 211.198 300.199C211.197 300.196 211.194 300.194 211.192 300.192ZM211.088 302.554C210.626 302.206 210.148 301.925 209.65 301.689C209.155 301.457 208.641 301.285 208.118 301.216C208.636 301.334 209.133 301.553 209.606 301.827C210.077 302.102 210.537 302.43 210.956 302.802L210.96 302.805C211.013 302.853 211.087 302.836 211.123 302.769C211.161 302.703 211.147 302.609 211.095 302.563C211.093 302.56 211.091 302.556 211.088 302.554ZM210.623 304.817C210.161 304.471 209.684 304.188 209.188 303.954C208.694 303.722 208.18 303.551 207.659 303.483C208.175 303.601 208.671 303.817 209.144 304.092C209.615 304.367 210.072 304.693 210.491 305.065L210.495 305.068C210.549 305.116 210.622 305.099 210.658 305.033C210.696 304.966 210.682 304.872 210.63 304.826C210.627 304.821 210.624 304.819 210.623 304.817Z" fill="#FF9797"/>
<path opacity="0.2" d="M205.042 291.516C205.042 291.516 204.224 293.146 203.951 293.169C203.677 293.193 203.59 292.785 203.59 292.785C203.59 292.785 204.56 291.396 205.042 291.516Z" fill="white"/>
<path d="M153.378 196.226C153.378 196.226 102.594 246.559 114.139 316.836C116.764 332.81 146.297 310.661 143.841 302.962C128.412 254.606 153.378 196.226 153.378 196.226Z" fill="#2CA68F"/>
<path opacity="0.25" d="M142.538 298.469C137.743 280.429 138.16 261.318 140.526 244.559C140.526 244.548 140.526 244.54 140.526 244.53C140.549 242.145 140.718 239.768 140.898 237.396C139.5 239.017 138.389 241.01 137.399 243.046C136.246 245.42 135.254 247.912 134.225 250.373C133.715 251.592 133.183 252.785 132.813 254.087C132.433 255.421 132.201 256.812 132.098 258.224C131.904 260.917 132.186 263.612 132.54 266.266C133.213 271.312 134.419 276.833 132.627 281.718C131.855 283.822 130.717 285.652 129.625 287.497C128.361 289.63 127.207 291.854 126.283 294.255C124.433 299.064 123.431 304.493 124.222 309.799C126.089 307.405 128.159 305.277 130.438 303.538C134.121 300.733 138.273 299.037 142.538 298.469Z" fill="#000541"/>
<path d="M196.46 296.276C196.46 296.276 199.123 306.127 196.481 309.891C193.84 313.656 143.105 335.782 128.893 332.023C103.584 325.33 112.028 299.254 134.814 294.233C157.599 289.213 196.46 296.276 196.46 296.276Z" fill="#2CA68F"/>
<path d="M115.322 375.122H243.5C243.851 375.122 244.135 374.762 244.135 374.318C244.135 373.874 243.851 373.514 243.5 373.514H115.322C114.972 373.514 114.688 373.874 114.688 374.318C114.688 374.762 114.972 375.122 115.322 375.122Z" fill="#FFA0A0"/>
<path d="M314.276 123.353C314.276 126.787 312.582 128.932 309.946 128.932C307.307 128.932 305.614 126.787 305.614 123.353C305.614 119.902 307.307 117.774 309.946 117.774C312.582 117.774 314.276 119.902 314.276 123.353ZM312.018 123.353C312.018 121.068 311.22 119.825 309.944 119.825C308.668 119.825 307.871 121.068 307.871 123.353C307.871 125.621 308.668 126.88 309.944 126.88C311.22 126.88 312.018 125.621 312.018 123.353ZM321.493 128.713L318.412 121.626C318.487 122.714 318.487 123.662 318.487 124.283V128.712H316.278V117.989H319.027L322.242 125.387C322.18 124.298 322.168 123.196 322.168 122.573V117.989H324.376V128.712H321.493V128.713ZM333.189 128.713H326.699V117.99H328.907V126.351H333.189V128.713ZM335.081 128.713V117.99H337.289V128.713H335.081ZM344.824 128.713L341.743 121.626C341.818 122.714 341.818 123.662 341.818 124.283V128.712H339.609V117.989H342.358L345.573 125.387C345.511 124.298 345.499 123.196 345.499 122.573V117.989H347.707V128.712H344.824V128.713ZM356.519 128.713H350.028V117.99H356.396V120.166H352.237V122.249H356.151V124.425H352.237V126.537H356.519V128.713ZM369.246 123.213C369.246 126.57 367.626 128.372 365.663 128.652C365.233 128.713 365.038 128.713 364.584 128.713H361.381V117.99H364.584C365.038 117.99 365.233 117.99 365.663 118.052C367.626 118.332 369.246 119.856 369.246 123.213ZM366.939 123.259C366.939 121.347 366.178 120.322 365.074 120.197C364.793 120.166 364.596 120.166 364.277 120.166H363.59V126.539H364.277C364.596 126.539 364.793 126.539 365.074 126.508C366.178 126.384 366.939 125.17 366.939 123.259ZM379.591 123.353C379.591 126.787 377.897 128.932 375.259 128.932C372.621 128.932 370.927 126.787 370.927 123.353C370.927 119.902 372.621 117.774 375.259 117.774C377.897 117.774 379.591 119.902 379.591 123.353ZM377.334 123.353C377.334 121.068 376.537 119.825 375.261 119.825C373.985 119.825 373.187 121.068 373.187 123.353C373.187 125.621 373.985 126.88 375.261 126.88C376.537 126.88 377.334 125.621 377.334 123.353ZM389.287 121.518L389.299 121.673H387.09L387.066 121.518C386.882 120.368 386.331 119.825 385.435 119.825C384.38 119.825 383.582 120.945 383.582 123.259C383.582 125.964 384.466 126.88 385.447 126.88C386.306 126.88 386.857 126.211 387.042 125.03L387.066 124.875H389.275L389.262 125.03C389.054 127.611 387.496 128.932 385.373 128.932C383.102 128.932 381.275 127.066 381.275 123.43C381.275 119.699 383.164 117.772 385.459 117.772C387.876 117.774 389.116 119.405 389.287 121.518ZM395.424 120.166V128.715H393.216V120.166H390.467V117.99H398.173V120.166H395.424ZM407.782 123.353C407.782 126.787 406.088 128.932 403.45 128.932C400.812 128.932 399.118 126.787 399.118 123.353C399.118 119.902 400.812 117.774 403.45 117.774C406.088 117.774 407.782 119.902 407.782 123.353ZM405.524 123.353C405.524 121.068 404.726 119.825 403.45 119.825C402.174 119.825 401.377 121.068 401.377 123.353C401.377 125.621 402.174 126.88 403.45 126.88C404.726 126.88 405.524 125.621 405.524 123.353ZM417.024 128.713H414.619C414.422 127.952 414.299 127.331 414.226 126.568C414.116 125.387 413.748 124.703 413.184 124.657C412.938 124.641 412.73 124.641 412.484 124.641H411.994V128.713H409.786V117.99H413.147C413.675 117.99 414.018 118.006 414.472 118.067C415.699 118.253 416.766 119.014 416.766 120.912C416.766 122.264 416.19 123.165 415.061 123.585C415.944 123.989 416.262 124.814 416.385 126.102C416.495 127.316 416.692 128.077 417.024 128.713ZM412.79 122.622C413.023 122.622 413.22 122.622 413.379 122.607C413.944 122.546 414.458 122.296 414.458 121.395C414.458 120.494 414.004 120.245 413.44 120.183C413.281 120.168 413.084 120.168 412.851 120.168H411.993V122.624H412.79V122.622Z" fill="#2CA68F"/>
<path d="M231.472 152.685V141.099H231.309C226.938 141.099 223.381 136.595 223.381 131.058V125.181C223.381 119.644 226.937 115.14 231.309 115.14H264.242C268.613 115.14 272.168 119.644 272.168 125.181V131.058C272.168 136.595 268.611 141.099 264.242 141.099H241.525L231.472 152.685ZM231.309 116.33C227.457 116.33 224.323 120.3 224.323 125.179V131.057C224.323 135.936 227.457 139.906 231.309 139.906H232.413V149.989L241.16 139.906H264.24C268.092 139.906 271.226 135.936 271.226 131.057V125.179C271.226 120.3 268.092 116.33 264.24 116.33H231.309Z" fill="#FFA0A0"/>
<path d="M245.246 128.526C245.337 130.296 246.541 131.637 247.938 131.523C249.336 131.41 250.395 129.883 250.304 128.114C250.214 126.345 249.01 125.003 247.614 125.118C246.216 125.23 245.156 126.756 245.246 128.526Z" fill="#FFA0A0"/>
<path d="M255.035 128.321C255.035 130.094 256.169 131.531 257.569 131.531C258.969 131.531 260.104 130.094 260.104 128.321C260.104 126.548 258.969 125.111 257.569 125.111C256.169 125.111 255.035 126.548 255.035 128.321Z" fill="#FFA0A0"/>
<path d="M235.452 128.526C235.541 130.296 236.747 131.637 238.143 131.523C239.54 131.41 240.599 129.883 240.51 128.114C240.42 126.345 239.216 125.003 237.818 125.118C236.422 125.23 235.362 126.756 235.452 128.526Z" fill="#FFA0A0"/>
<path opacity="0.2" d="M72.1216 179.739V186.877C72.1216 186.877 76.6892 188.566 81.4804 183.95V176.089L72.1216 179.739Z" fill="#000541"/>
<path d="M67.9017 183.409C62.1444 183.409 56.3871 180.634 52.0041 175.08C43.2395 163.977 43.2395 145.908 52.0041 134.806C60.7688 123.701 75.0347 123.701 83.7993 134.806C84.9203 136.226 84.9203 138.525 83.7993 139.945C82.6783 141.365 80.8621 141.365 79.7424 139.945C76.5801 135.939 72.3737 133.733 67.9017 133.733C63.4298 133.733 59.2233 135.939 56.0611 139.945C49.5331 148.215 49.5331 161.671 56.0611 169.941C59.2233 173.947 63.4298 176.154 67.9017 176.154C72.3737 176.154 76.5801 173.947 79.7424 169.941C84.8678 163.447 86.1195 153.581 82.8575 145.389C82.1434 143.597 82.712 141.411 84.1254 140.506C85.5415 139.592 87.2648 140.32 87.9802 142.112C92.3632 153.114 90.683 166.362 83.8007 175.08C79.4164 180.632 73.6577 183.409 67.9017 183.409Z" fill="#FFA0A0"/>
<path d="M80.8999 138.477C88.0786 147.57 88.0786 162.314 80.8999 171.407C73.7211 180.501 62.0812 180.501 54.9024 171.407C47.7236 162.314 47.7236 147.57 54.9024 138.477C62.0812 129.382 73.7197 129.382 80.8999 138.477Z" fill="white"/>
<path opacity="0.54" d="M73.9176 152.325V163.888C73.9176 165.818 72.6875 167.378 71.1703 167.378H64.8458C63.33 167.378 62.0999 165.818 62.0999 163.888V152.325C62.0999 152.201 62.1079 152.088 62.116 151.974C62.1645 151.313 62.3693 150.683 62.6954 150.168L65.9062 145.005H70.1127L73.3234 150.168C73.6495 150.683 73.8529 151.315 73.9028 151.974C73.9095 152.088 73.9176 152.202 73.9176 152.325Z" fill="#FFA0A0"/>
<path d="M73.9176 152.325V162.422H62.0999L62.116 151.974H73.9015C73.9095 152.088 73.9176 152.202 73.9176 152.325Z" fill="#2CA68F"/>
<path d="M70.7839 141.177V143.867C70.7839 144.503 70.3797 145.017 69.8758 145.017H66.1247C65.6221 145.017 65.2166 144.503 65.2166 143.867V141.129C65.2395 140.512 65.6369 140.027 66.1247 140.027H69.8758C70.3797 140.027 70.7839 140.541 70.7839 141.177Z" fill="#FFA0A0"/>
<path d="M68.9459 141.129H65.2178V141.367H68.9459V141.129Z" fill="white"/>
<path d="M68.2494 141.87H65.2178V142.107H68.2494V141.87Z" fill="white"/>
<path d="M68.9459 142.669H65.2178V142.906H68.9459V142.669Z" fill="white"/>
<path d="M68.2494 143.409H65.2178V143.657H68.2494V143.409Z" fill="white"/>
<path d="M71.8118 151.974V162.422H71.0896V152.325C71.0896 152.201 71.0842 152.088 71.0789 151.974H71.8118Z" fill="white"/>
<path opacity="0.2" d="M453.971 265.349V273.248C453.971 273.248 451.068 275.521 444.704 273.248V263.397L453.971 265.349Z" fill="#000541"/>
<path d="M449.013 269.36C443.085 269.36 437.156 266.501 432.644 260.784C423.619 249.351 423.619 230.747 432.644 219.315C441.668 207.881 456.357 207.881 465.382 219.315C466.535 220.776 466.535 223.145 465.382 224.608C464.229 226.07 462.359 226.07 461.204 224.608C457.947 220.483 453.617 218.213 449.013 218.213C444.408 218.213 440.077 220.484 436.822 224.608C430.101 233.122 430.101 246.977 436.822 255.493C440.079 259.618 444.409 261.888 449.013 261.888C453.617 261.888 457.949 259.616 461.204 255.493C466.48 248.808 467.771 238.648 464.411 230.212C463.675 228.367 464.26 226.116 465.716 225.186C467.175 224.244 468.95 224.995 469.686 226.84C474.198 238.167 472.468 251.808 465.382 260.786C460.868 266.499 454.94 269.36 449.013 269.36Z" fill="#FFA0A0"/>
<path d="M462.396 223.096C469.788 232.458 469.788 247.639 462.396 257.002C455.005 266.365 443.02 266.365 435.628 257.002C428.237 247.639 428.237 232.458 435.628 223.096C443.02 213.733 455.005 213.733 462.396 223.096Z" fill="url(#paint0_linear_16_6)"/>
<path d="M455.856 230.059L452.689 243.453C452.181 245.603 450.391 246.84 448.691 246.195C446.993 245.55 446.037 243.272 446.545 241.12L449.712 227.727C450.222 225.577 452.011 224.34 453.709 224.985C455.408 225.628 456.366 227.908 455.856 230.059Z" fill="#2CA68F"/>
<path d="M455.856 230.059L454.299 236.643L448.155 234.312L449.712 227.727C450.221 225.577 452.011 224.34 453.708 224.985C455.407 225.628 456.365 227.908 455.856 230.059Z" fill="#FFA0A0"/>
<path opacity="0.44" d="M448.155 234.312L454.074 237.614L454.299 236.643L448.155 234.312Z" fill="#F1BABA"/>
<path opacity="0.49" d="M453.972 225.853C454.511 226.263 454.982 226.864 455.269 227.63C455.612 228.403 455.407 229.41 455.248 230.113C454.953 231.658 454.626 233.19 454.278 234.714C453.586 237.766 452.838 240.795 451.978 243.782L451.966 243.825L451.961 243.835C451.67 244.424 451.286 244.895 450.812 245.21C450.339 245.528 449.765 245.571 449.302 245.315C449.801 245.427 450.296 245.28 450.677 244.927C451.051 244.57 451.353 244.069 451.563 243.567L451.546 243.618C452.127 240.524 452.816 237.472 453.563 234.443C453.935 232.928 454.327 231.419 454.75 229.924C454.986 229.147 455.155 228.511 454.97 227.77C454.808 227.053 454.423 226.403 453.972 225.853Z" fill="white"/>
<path d="M448.434 236.655V250.636C448.434 252.882 447 254.717 445.227 254.717C443.454 254.717 442.019 252.882 442.019 250.636V236.655C442.019 234.409 443.452 232.574 445.227 232.574C447 232.574 448.434 234.409 448.434 236.655Z" fill="#2CA68F"/>
<path d="M448.433 236.655V243.528H442.02V236.655C442.02 234.409 443.454 232.574 445.228 232.574C447 232.574 448.433 234.409 448.433 236.655Z" fill="#FFA0A0"/>
<path opacity="0.44" d="M442.02 243.528L448.438 244.54L448.433 243.528H442.02Z" fill="#F1BABA"/>
<path opacity="0.49" d="M445.677 233.312C446.287 233.508 446.872 233.911 447.321 234.542C447.825 235.157 447.856 236.196 447.864 236.928C447.93 238.515 447.965 240.102 447.977 241.69C448.005 244.864 447.975 248.037 447.83 251.211L447.827 251.257L447.825 251.267C447.679 251.938 447.419 252.529 447.035 253.003C446.655 253.479 446.115 253.728 445.614 253.652C446.117 253.578 446.558 253.257 446.842 252.78C447.121 252.302 447.296 251.711 447.383 251.155L447.379 251.211C447.233 248.037 447.202 244.862 447.23 241.69C447.244 240.102 447.278 238.515 447.344 236.928C447.395 236.099 447.412 235.428 447.067 234.786C446.748 234.156 446.232 233.673 445.677 233.312Z" fill="white"/>
<path d="M453.793 252.353C453.252 253.44 452.243 253.909 451.316 253.629C451.206 253.604 451.104 253.568 450.996 253.513C450.868 253.455 450.732 253.363 450.61 253.268C450.471 253.157 450.351 253.03 450.238 252.894C450.154 252.795 450.083 252.693 450.018 252.58C449.441 251.643 449.351 250.313 449.887 249.237C450.418 248.17 451.41 247.687 452.325 247.941C452.434 247.967 452.536 248.003 452.644 248.057C452.79 248.129 452.931 248.211 453.07 248.322C453.191 248.419 453.316 248.533 453.412 248.656C453.497 248.755 453.567 248.858 453.632 248.97C454.233 249.911 454.334 251.266 453.793 252.353Z" fill="#2CA68F"/>
<path d="M453.633 248.97C453.633 248.97 451.104 253.57 450.996 253.515C450.868 253.457 450.732 253.365 450.61 253.269C450.471 253.158 450.351 253.032 450.238 252.896C450.154 252.797 452.325 247.943 452.325 247.943C452.434 247.968 452.536 248.004 452.644 248.059C452.79 248.131 452.931 248.213 453.07 248.323C453.191 248.421 453.316 248.535 453.412 248.658C453.498 248.755 453.568 248.858 453.633 248.97Z" fill="#FFA0A0"/>
<path opacity="0.49" d="M453.414 248.658L450.996 253.515C450.868 253.457 450.732 253.365 450.61 253.269C450.471 253.158 450.351 253.032 450.238 252.896L452.644 248.059C452.79 248.131 452.931 248.213 453.07 248.323C453.193 248.419 453.318 248.533 453.414 248.658Z" fill="white"/>
<path d="M459.361 246.118C459.563 247.719 458.915 249.226 457.852 249.938C457.732 250.03 457.611 250.104 457.474 250.163C457.314 250.245 457.125 250.3 456.946 250.336C456.741 250.377 456.546 250.383 456.349 250.373C456.204 250.368 456.072 250.346 455.936 250.308C454.776 250.028 453.816 248.861 453.618 247.277C453.422 245.709 454.043 244.209 455.077 243.485C455.197 243.393 455.319 243.32 455.455 243.26C455.639 243.173 455.828 243.101 456.031 243.06C456.211 243.026 456.405 243.004 456.576 243.017C456.721 243.023 456.853 243.045 456.989 243.084C458.174 243.342 459.16 244.518 459.361 246.118Z" fill="#2CA68F"/>
<path d="M456.989 243.084C456.989 243.084 457.61 250.104 457.474 250.163C457.314 250.245 457.125 250.3 456.946 250.336C456.741 250.377 456.546 250.383 456.349 250.373C456.204 250.368 455.077 243.485 455.077 243.485C455.197 243.393 455.319 243.32 455.455 243.26C455.639 243.173 455.828 243.101 456.031 243.06C456.211 243.026 456.405 243.004 456.576 243.017C456.721 243.023 456.855 243.045 456.989 243.084Z" fill="#FFA0A0"/>
<path opacity="0.49" d="M456.577 243.017L457.476 250.163C457.315 250.245 457.127 250.3 456.948 250.336C456.743 250.377 456.547 250.383 456.351 250.373L455.456 243.26C455.641 243.173 455.829 243.101 456.033 243.06C456.211 243.026 456.405 243.004 456.577 243.017Z" fill="white"/>
<path d="M462.613 169.434C463.038 169.434 463.381 168.999 463.381 168.462C463.381 167.924 463.038 167.489 462.613 167.489C462.189 167.489 461.845 167.924 461.845 168.462C461.845 168.999 462.19 169.434 462.613 169.434ZM462.613 176.893C463.038 176.893 463.381 176.457 463.381 175.92C463.381 175.382 463.038 174.947 462.613 174.947C462.189 174.947 461.845 175.382 461.845 175.92C461.845 176.457 462.19 176.893 462.613 176.893ZM462.613 184.351C463.038 184.351 463.381 183.916 463.381 183.378C463.381 182.84 463.038 182.405 462.613 182.405C462.189 182.405 461.845 182.84 461.845 183.378C461.845 183.916 462.19 184.351 462.613 184.351ZM462.613 191.809C463.038 191.809 463.381 191.374 463.381 190.836C463.381 190.298 463.038 189.863 462.613 189.863C462.189 189.863 461.845 190.298 461.845 190.836C461.845 191.374 462.19 191.809 462.613 191.809ZM465.928 165.535C466.352 165.535 466.696 165.1 466.696 164.562C466.696 164.024 466.352 163.589 465.928 163.589C465.504 163.589 465.16 164.024 465.16 164.562C465.16 165.1 465.505 165.535 465.928 165.535ZM465.928 172.995C466.352 172.995 466.696 172.559 466.696 172.022C466.696 171.484 466.352 171.049 465.928 171.049C465.504 171.049 465.16 171.484 465.16 172.022C465.16 172.558 465.505 172.995 465.928 172.995ZM465.928 180.453C466.352 180.453 466.696 180.017 466.696 179.48C466.696 178.942 466.352 178.507 465.928 178.507C465.504 178.507 465.16 178.942 465.16 179.48C465.16 180.017 465.505 180.453 465.928 180.453ZM465.928 187.911C466.352 187.911 466.696 187.476 466.696 186.938C466.696 186.4 466.352 185.965 465.928 185.965C465.504 185.965 465.16 186.4 465.16 186.938C465.16 187.476 465.505 187.911 465.928 187.911Z" fill="#FFA0A0"/>
<path d="M49.1493 351.485C49.6828 351.485 50.114 350.937 50.114 350.263C50.114 349.587 49.6815 349.041 49.1493 349.041C48.6171 349.041 48.1846 349.589 48.1846 350.263C48.1846 350.938 48.6157 351.485 49.1493 351.485ZM49.1493 360.856C49.6828 360.856 50.114 360.308 50.114 359.634C50.114 358.96 49.6815 358.412 49.1493 358.412C48.6171 358.412 48.1846 358.96 48.1846 359.634C48.1846 360.31 48.6157 360.856 49.1493 360.856ZM49.1493 370.227C49.6828 370.227 50.114 369.679 50.114 369.005C50.114 368.329 49.6815 367.783 49.1493 367.783C48.6171 367.783 48.1846 368.331 48.1846 369.005C48.1846 369.679 48.6157 370.227 49.1493 370.227ZM49.1493 379.599C49.6828 379.599 50.114 379.051 50.114 378.377C50.114 377.701 49.6815 377.155 49.1493 377.155C48.6171 377.155 48.1846 377.702 48.1846 378.377C48.1846 379.051 48.6157 379.599 49.1493 379.599ZM53.314 346.586C53.8476 346.586 54.2787 346.039 54.2787 345.364C54.2787 344.69 53.8462 344.143 53.314 344.143C52.7818 344.143 52.3493 344.69 52.3493 345.364C52.3493 346.039 52.7804 346.586 53.314 346.586ZM53.314 355.958C53.8476 355.958 54.2787 355.41 54.2787 354.736C54.2787 354.062 53.8462 353.514 53.314 353.514C52.7818 353.514 52.3493 354.062 52.3493 354.736C52.3493 355.41 52.7804 355.958 53.314 355.958ZM53.314 365.329C53.8476 365.329 54.2787 364.781 54.2787 364.107C54.2787 363.431 53.8462 362.885 53.314 362.885C52.7818 362.885 52.3493 363.433 52.3493 364.107C52.3479 364.781 52.7804 365.329 53.314 365.329ZM53.314 374.7C53.8476 374.7 54.2787 374.153 54.2787 373.478C54.2787 372.804 53.8462 372.256 53.314 372.256C52.7818 372.256 52.3493 372.804 52.3493 373.478C52.3479 374.153 52.7804 374.7 53.314 374.7Z" fill="#FFA0A0"/>
<defs>
<linearGradient id="paint0_linear_16_6" x1="430.084" y1="240.049" x2="467.94" y2="240.049" gradientUnits="userSpaceOnUse">
<stop stop-color="#FFD1D1"/>
<stop offset="0.418" stop-color="#FEFBFB"/>
<stop offset="1" stop-color="#FFD1D1"/>
</linearGradient>
</defs>
</svg>
