<svg width="27" height="31" viewBox="0 0 27 31" fill="none" xmlns="http://www.w3.org/2000/svg">
<path d="M25.6783 13.6881H23.0817V5.13458C23.0817 2.43486 20.8937 0.246826 18.194 0.246826H8.72394C6.02423 0.246826 3.83619 2.43486 3.83619 5.13458V13.6881H1.23958C0.563692 13.6881 0.0176392 14.2342 0.0176392 14.9101V29.5733C0.0176392 30.2492 0.563692 30.7953 1.23958 30.7953H25.6783C26.3542 30.7953 26.9003 30.2492 26.9003 29.5733V14.9101C26.9003 14.2342 26.3542 13.6881 25.6783 13.6881ZM6.58555 5.13458C6.58555 3.95464 7.54401 2.99619 8.72394 2.99619H18.194C19.3739 2.99619 20.3323 3.95464 20.3323 5.13458V13.6881H6.58555V5.13458ZM24.1509 28.0459H2.767V16.4375H24.1509V28.0459ZM12.3898 22.7381V24.7619C12.3898 24.93 12.5272 25.0674 12.6952 25.0674H14.2227C14.3907 25.0674 14.5281 24.93 14.5281 24.7619V22.7381C14.8434 22.5118 15.0786 22.1913 15.2001 21.8228C15.3216 21.4543 15.323 21.0567 15.2041 20.6873C15.0852 20.3179 14.8522 19.9958 14.5386 19.7673C14.225 19.5387 13.847 19.4156 13.459 19.4156C13.0709 19.4156 12.6929 19.5387 12.3793 19.7673C12.0657 19.9958 11.8327 20.3179 11.7138 20.6873C11.5949 21.0567 11.5963 21.4543 11.7178 21.8228C11.8393 22.1913 12.0745 22.5118 12.3898 22.7381Z" fill="#CECDCD"/>
</svg>
