<svg width="891" height="863" viewBox="0 0 891 863" fill="none" xmlns="http://www.w3.org/2000/svg">
<g clip-path="url(#clip0_17_449)">
<path d="M252 862.058C112.824 862.058 0 851.647 0 838.805C0 825.963 112.824 815.552 252 815.552C391.176 815.552 504 825.963 504 838.805C504 851.647 391.176 862.058 252 862.058Z" fill="white"/>
<path opacity="0.1" d="M252 862.058C112.824 862.058 0 851.647 0 838.805C0 825.963 112.824 815.552 252 815.552C391.176 815.552 504 825.963 504 838.805C504 851.647 391.176 862.058 252 862.058Z" fill="#292A2E"/>
<path d="M670.331 493.015H750.657V516.387H670.331V493.015Z" fill="#F4F4F4"/>
<path opacity="0.05" d="M729.345 493.015H739.87V516.387H729.345V493.015Z" fill="#292A2E"/>
<path d="M680.595 498.095H724.359V511.945H680.595V498.095Z" fill="white"/>
<path d="M606.26 496.064L680.897 463.466L690.251 484.884L615.615 517.482L606.26 496.064Z" fill="#F4F4F4"/>
<path opacity="0.05" d="M606.26 496.064L680.897 463.466L690.251 484.884L615.615 517.482L606.26 496.064Z" fill="#292A2E"/>
<path d="M616.283 491.687L626.063 487.415L635.417 508.833L625.638 513.105L616.283 491.687Z" fill="white"/>
<path d="M632.73 490.047L673.393 472.287L678.937 484.979L638.273 502.739L632.73 490.047Z" fill="white"/>
<path opacity="0.05" d="M606.12 789.091H626.306V802.572H606.12V789.091Z" fill="#292A2E"/>
<path opacity="0.05" d="M812.501 789.091H832.687V802.572H812.501V789.091Z" fill="#292A2E"/>
<path d="M587.616 517.483H851.19V788.635H587.616V517.483Z" fill="#F4F4F4"/>
<path opacity="0.03" d="M587.616 517.483H851.19V788.635H587.616V517.483Z" fill="#292A2E"/>
<path d="M538.772 517.483H802.346V788.635H538.772V517.483Z" fill="#F4F4F4"/>
<path opacity="0.05" d="M557.276 789.091H577.462V802.572H557.276V789.091Z" fill="#292A2E"/>
<path opacity="0.05" d="M763.656 789.091H783.842V802.572H763.656V789.091Z" fill="#292A2E"/>
<path opacity="0.7" d="M548.665 530.183H792.451V582.277H548.665V530.183Z" fill="white"/>
<path opacity="0.7" d="M548.665 595.027H792.451V647.121H548.665V595.027Z" fill="white"/>
<path opacity="0.7" d="M548.665 659.871H792.451V711.965H548.665V659.871Z" fill="white"/>
<path opacity="0.05" d="M670.558 563.519C666.533 563.519 663.269 560.256 663.269 556.23C663.269 552.204 666.533 548.941 670.558 548.941C674.584 548.941 677.847 552.204 677.847 556.23C677.847 560.256 674.584 563.519 670.558 563.519Z" fill="#292A2E"/>
<path opacity="0.05" d="M670.558 628.363C666.533 628.363 663.269 625.1 663.269 621.074C663.269 617.048 666.533 613.785 670.558 613.785C674.584 613.785 677.847 617.048 677.847 621.074C677.847 625.1 674.584 628.363 670.558 628.363Z" fill="#292A2E"/>
<path opacity="0.05" d="M670.558 693.208C666.533 693.208 663.269 689.945 663.269 685.919C663.269 681.893 666.533 678.63 670.558 678.63C674.584 678.63 677.847 681.893 677.847 685.919C677.847 689.945 674.584 693.208 670.558 693.208Z" fill="#292A2E"/>
<path opacity="0.7" d="M548.665 726.177H792.451V778.271H548.665V726.177Z" fill="white"/>
<path opacity="0.05" d="M670.558 759.513C666.533 759.513 663.269 756.25 663.269 752.224C663.269 748.198 666.533 744.935 670.558 744.935C674.584 744.935 677.847 748.198 677.847 752.224C677.847 756.25 674.584 759.513 670.558 759.513Z" fill="#292A2E"/>
<path d="M757.626 248.353L601.773 248.353V45.4919L757.626 45.4919V248.353Z" fill="#F4F4F4"/>
<path d="M757.625 45.4919H762.681V248.353H757.625V45.4919Z" fill="#F4F4F4"/>
<path opacity="0.05" d="M757.625 45.4919H762.681V248.353H757.625V45.4919Z" fill="#292A2E"/>
<path opacity="0.05" d="M729.234 211.399H630.163V82.4449H729.234V211.399Z" fill="#292A2E"/>
<path opacity="0.03" d="M729.234 211.399H724.071V82.4449H729.234V211.399Z" fill="#292A2E"/>
<path d="M885.088 426.872H757.626V298.239H885.088V426.872Z" fill="#F4F4F4"/>
<path opacity="0.05" d="M861.869 403.44H780.845V321.672H861.869V403.44Z" fill="#292A2E"/>
<path d="M885.087 298.24H890.143V426.873H885.087V298.24Z" fill="#F4F4F4"/>
<path opacity="0.05" d="M885.087 298.24H890.143V426.873H885.087V298.24Z" fill="#292A2E"/>
<path opacity="0.03" d="M861.869 403.44H856.706V321.672H861.869V403.44Z" fill="#292A2E"/>
<path d="M107.842 45.009H433.082V370.249H107.842V45.009Z" fill="#F4F4F4"/>
<path d="M433.082 45.009H436.81V370.249H433.082V45.009Z" fill="#F4F4F4"/>
<path opacity="0.05" d="M433.082 45.009H436.81V370.249H433.082V45.009Z" fill="#292A2E"/>
<path opacity="0.05" d="M354.291 269.126V184.032H284.587V233.47H176.616V321.005H130.726V370.249H176.616H185.456H417.437V269.126H354.291Z" fill="#292A2E"/>
<path opacity="0.34" d="M293.535 193.271H344.294V202.51H293.535V193.271Z" fill="#FFFFFA"/>
<path opacity="0.34" d="M293.535 212.417H344.294V221.656H293.535V212.417Z" fill="#FFFFFA"/>
<path opacity="0.34" d="M293.535 231.563H344.294V240.802H293.535V231.563Z" fill="#FFFFFA"/>
<path opacity="0.34" d="M399.08 278.094H408.436V287.333H399.08V278.094Z" fill="#FFFFFA"/>
<path opacity="0.34" d="M399.08 297.24H408.436V306.479H399.08V297.24Z" fill="#FFFFFA"/>
<path opacity="0.34" d="M399.08 316.385H408.436V325.624H399.08V316.385Z" fill="#FFFFFA"/>
<path opacity="0.34" d="M381.772 278.094H391.128V287.333H381.772V278.094Z" fill="#FFFFFA"/>
<path opacity="0.34" d="M381.772 297.24H391.128V306.479H381.772V297.24Z" fill="#FFFFFA"/>
<path opacity="0.34" d="M381.772 316.385H391.128V325.624H381.772V316.385Z" fill="#FFFFFA"/>
<path opacity="0.34" d="M364.932 278.094H374.288V287.333H364.932V278.094Z" fill="#FFFFFA"/>
<path opacity="0.34" d="M364.932 297.24H374.288V306.479H364.932V297.24Z" fill="#FFFFFA"/>
<path opacity="0.34" d="M364.932 316.385H374.288V325.624H364.932V316.385Z" fill="#FFFFFA"/>
<path d="M433.082 205.804H367.639V45.0081H362.226V205.804H185.456V45.0081H180.044V205.804H107.842V211.216H180.044V370.249H185.456V211.216H362.226V370.249H367.639V211.216H433.082V205.804Z" fill="white"/>
<path d="M94.886 369.856H446.039V380.672H94.886V369.856Z" fill="#F4F4F4"/>
<path opacity="0.1" d="M94.886 369.856H446.039V380.672H94.886V369.856Z" fill="#292A2E"/>
<path opacity="0.1" d="M446.039 369.856H451.109V380.672H446.039V369.856Z" fill="#292A2E"/>
<path opacity="0.1" d="M446.039 369.856H451.109V380.672H446.039V369.856Z" fill="#292A2E"/>
<path d="M163.614 425.574C213.406 425.574 253.771 439.158 253.771 455.915V492.036H73.456V455.915C73.456 439.158 113.821 425.574 163.614 425.574Z" fill="#3BD6CC"/>
<path opacity="0.49" d="M163.614 425.574C213.406 425.574 253.771 439.158 253.771 455.915V492.036H73.456V455.915C73.456 439.158 113.821 425.574 163.614 425.574Z" fill="white"/>
<path opacity="0.49" d="M98.0161 455.919V492.034H253.773V455.919C253.773 440.56 219.873 427.869 175.895 425.863C131.912 427.869 98.0161 440.56 98.0161 455.919Z" fill="white"/>
<path d="M73.4561 843.01H70.4301L73.4561 488.832L76.4561 491.858L74.3171 739.261L181.13 741.076L183.285 491.832L186.285 491.858L184.129 741.127L248.608 742.223L250.773 491.832L253.773 488.858L250.747 843.01L247.773 842.985L248.583 745.224L184.104 744.128L183.285 843.01L180.285 842.985L181.104 744.077L74.2911 742.261L73.4561 843.01Z" fill="#292A2E"/>
<path d="M345.403 789.984C345.403 789.984 350.765 817.777 376.788 819.326C402.811 820.875 397.168 841.606 397.168 841.606H297.723V791.922L345.403 789.984Z" fill="#3BD6CC"/>
<path d="M288.666 706.388C288.666 706.388 281.209 733.694 303.875 746.571C326.541 759.448 312.327 775.559 312.327 775.559L223.096 731.659L245.027 687.078L288.666 706.388Z" fill="#3BD6CC"/>
<path d="M298.107 724.435L365.343 470.746C370.443 442.72 362.765 430.572 350.934 418.771C330.148 398.038 244.017 353.91 244.017 353.91L140.687 353.628C113.287 353.628 86.354 380.645 86.354 408.043C86.354 435.441 114.207 458.677 141.606 458.677L268.848 471.377L234.356 703.663L298.107 724.435Z" fill="#262626"/>
<path d="M234.357 703.661L247.936 612.213L316.728 654.177L298.107 724.435L234.357 703.661Z" fill="#0C0C0C"/>
<path d="M218.764 405.247C218.764 405.247 262.201 414.927 305.221 457.947C331.304 484.03 329.165 531.231 325.252 622.014L282.525 558.904L235.661 474.382L218.764 405.247Z" fill="#0C0C0C"/>
<path d="M68.3661 353.6L138.54 353.269L138.566 354.193H159.815C159.815 354.193 213.043 403.169 255.893 434.032C287.063 456.48 306.078 477.882 307.723 501.208C311.734 558.069 356.972 800.574 356.972 800.574L288.89 810.883L229.143 521.071C229.143 521.071 135.723 478 114.114 463.015C93.7661 448.902 79.3931 443.446 72.6591 428.044C61.0301 401.443 68.3661 353.6 68.3661 353.6Z" fill="#262626"/>
<path d="M147.093 371.275L260.933 372.783L197.074 410.923L143.938 383.484C142.658 382.796 141.645 381.699 141.063 380.368C140.48 379.037 140.361 377.548 140.724 376.141C141.088 374.734 141.913 373.49 143.068 372.608C144.223 371.726 145.64 371.256 147.093 371.275Z" fill="#292A2E"/>
<path opacity="0.2" d="M147.093 371.275L260.933 372.783L197.074 410.923L143.938 383.484C142.658 382.796 141.645 381.699 141.063 380.368C140.48 379.037 140.361 377.548 140.724 376.141C141.088 374.734 141.913 373.49 143.068 372.608C144.223 371.726 145.64 371.256 147.093 371.275Z" fill="white"/>
<path d="M260.281 167.045L292.481 271.376L356.976 355.818L319.301 399.066L242.572 313.427C239.037 310.633 236.272 306.985 234.537 302.827L233.342 299.934L189.022 192.7L260.281 167.045Z" fill="#3BD6CC"/>
<path d="M210.678 56.2999C210.678 56.2999 223.653 46.4999 226.867 23.9599C229.357 6.50692 213.257 17.8139 213.257 17.8139C213.257 17.8139 214.927 5.22892 205.757 6.47792C196.587 7.72692 191.457 20.9469 191.457 20.9469" fill="#0C0C0C"/>
<path d="M158.367 7.95093C158.367 7.95093 112.873 12.8279 129.319 74.4759L133.344 74.7459L141.516 75.2939" fill="#0C0C0C"/>
<path d="M203.058 138.858C202.858 138.832 200.638 175.658 157.858 172.451C128.237 170.232 117.676 138.806 116.998 138.806C120.191 138.127 124.138 137.097 125.706 136.744C129.125 135.951 132.22 134.135 134.582 131.539C136.944 128.943 138.459 125.69 138.926 122.212C139.792 116.992 138.326 90.284 138.775 85.002L184.237 95.15C183.601 106.306 179.155 132.167 194.737 136.744C197.332 137.5 200.126 138.2 203.058 138.858Z" fill="#E98862"/>
<path opacity="0.52" d="M184.874 126.175C184.162 123.88 183.703 121.513 183.506 119.118C183.007 113.652 183.108 108.149 183.806 102.705C174.565 101.46 165.858 97.6469 158.675 91.7C157.83 94.818 153.187 108.442 154.475 111.4C156.903 117 168.322 126.175 184.874 126.175Z" fill="#0C0C0C"/>
<path d="M175.49 118.886C157.553 117.277 136.084 105.944 135.774 81.595L135.495 59.625C135.185 35.277 147.723 15.376 170.648 15.084C193.573 14.793 210.96 34.313 211.27 58.662L211.393 68.388C211.378 71.7284 211.134 75.0638 210.665 78.371C209.489 87.121 207.665 100.424 201.727 109.423C196.12 117.919 186.95 119.913 175.49 118.886Z" fill="#E98862"/>
<path opacity="0.52" d="M183.812 96.63C187.514 96.7977 191.204 96.0931 194.583 94.573C194.721 94.5106 194.829 94.3967 194.884 94.2556C194.939 94.1146 194.937 93.9576 194.877 93.8183C194.818 93.679 194.706 93.5686 194.566 93.5105C194.427 93.4525 194.27 93.4516 194.129 93.508C186.848 96.613 180.237 96.159 175.011 92.194C174.906 92.1106 174.796 92.0328 174.683 91.961C174.552 91.8991 174.402 91.889 174.263 91.9325C174.125 91.976 174.007 92.07 173.935 92.1959C173.862 92.3218 173.84 92.4703 173.872 92.612C173.904 92.7537 173.988 92.8783 174.107 92.961C174.149 92.987 174.217 93.04 174.307 93.112C177.054 95.2048 180.364 96.4298 183.812 96.63Z" fill="#0C0C0C"/>
<path opacity="0.52" d="M183.643 102.115C184.312 102.156 184.983 102.14 185.649 102.067C185.725 102.059 185.798 102.036 185.864 102C185.931 101.964 185.99 101.914 186.038 101.855C186.085 101.796 186.121 101.728 186.143 101.656C186.164 101.583 186.171 101.506 186.163 101.431C186.155 101.355 186.132 101.282 186.096 101.216C186.06 101.149 186.011 101.09 185.951 101.042C185.892 100.995 185.825 100.959 185.752 100.937C185.679 100.916 185.602 100.909 185.527 100.917C181.521 101.342 179.608 99.507 179.527 99.428C179.419 99.3194 179.272 99.2582 179.118 99.2581C178.965 99.2579 178.818 99.3186 178.709 99.427C178.6 99.5353 178.539 99.6824 178.539 99.8358C178.539 99.9892 178.6 100.136 178.708 100.245C180.088 101.42 181.831 102.08 183.643 102.115Z" fill="#0C0C0C"/>
<path d="M203.699 73.07C202.139 73.07 200.875 71.8057 200.875 70.246C200.875 68.6864 202.139 67.422 203.699 67.422C205.259 67.422 206.523 68.6864 206.523 70.246C206.523 71.8057 205.259 73.07 203.699 73.07Z" fill="#0C0C0C"/>
<path d="M176.11 71.339C174.55 71.339 173.286 70.0747 173.286 68.515C173.286 66.9554 174.55 65.691 176.11 65.691C177.67 65.691 178.934 66.9554 178.934 68.515C178.934 70.0747 177.67 71.339 176.11 71.339Z" fill="#0C0C0C"/>
<path d="M137.292 89C130.325 89.089 124.583 81.707 124.492 74.74C124.401 67.773 130.003 63.859 136.97 63.771L140.619 68.393L143.28 88.924L137.292 89Z" fill="#E98862"/>
<path d="M144.224 77.8C144.224 77.8 146.576 43.347 157.024 41.219C163.982 39.802 180.855 49.672 196.484 46.691C203.321 45.391 209.812 47.079 210.472 50.309C210.734 51.588 214.993 33.209 204.286 19.265C195.761 8.16504 167.864 5.02504 155.172 8.66504C120.028 18.747 135.536 65.282 135.536 65.282L137.103 77.16L144.224 77.8Z" fill="#0C0C0C"/>
<g opacity="0.52">
<path d="M188.024 88.5001C188.039 88.5011 188.053 88.5011 188.068 88.5001C190.313 88.4781 194.077 88.1891 194.062 86.5101C194.046 85.1181 190.086 70.1351 189.634 68.4311C189.595 68.2844 189.5 68.1592 189.368 68.083C189.237 68.0067 189.081 67.9857 188.934 68.0246C188.788 68.0634 188.663 68.159 188.586 68.2901C188.51 68.4213 188.489 68.5774 188.528 68.7241C190.288 75.3601 192.908 85.5761 192.918 86.5241C192.701 86.9241 190.382 87.3361 188.058 87.3601C187.911 87.3632 187.772 87.4225 187.667 87.5258C187.563 87.629 187.503 87.7683 187.498 87.9149C187.494 88.0615 187.546 88.2042 187.644 88.3134C187.742 88.4227 187.878 88.4902 188.024 88.5021V88.5001Z" fill="#0C0C0C"/>
</g>
<path d="M195.683 54.934C198.043 54.2845 200.534 54.2845 202.894 54.934C204.053 55.2457 205.158 55.7297 206.173 56.37C207.177 56.9969 208.097 57.7482 208.913 58.606C209.063 58.7588 209.149 58.9637 209.152 59.178C209.155 59.3924 209.076 59.5997 208.93 59.7568C208.784 59.914 208.583 60.0088 208.369 60.0217C208.155 60.0346 207.944 59.9645 207.781 59.826L207.73 59.782C206.975 59.0827 206.135 58.4816 205.23 57.993C204.342 57.5065 203.385 57.1572 202.393 56.957C200.439 56.5474 198.412 56.6608 196.516 57.286L196.437 57.314C196.127 57.414 195.789 57.3891 195.497 57.2444C195.205 57.0998 194.981 56.8469 194.872 56.5395C194.764 56.2321 194.779 55.8945 194.916 55.5984C195.052 55.3023 195.299 55.0711 195.603 54.954L195.683 54.934Z" fill="#0C0C0C"/>
<path d="M178.976 56.3511C177.18 55.4787 175.186 55.0961 173.195 55.2421C172.185 55.3077 171.191 55.5262 170.246 55.8901C169.285 56.2546 168.373 56.7384 167.533 57.3301L167.479 57.3661C167.298 57.4824 167.08 57.5245 166.869 57.4836C166.658 57.4428 166.472 57.3221 166.348 57.1468C166.224 56.9715 166.172 56.7551 166.204 56.5427C166.236 56.3304 166.348 56.1385 166.518 56.0071C167.44 55.2656 168.453 54.6437 169.531 54.1561C170.622 53.6569 171.783 53.3246 172.973 53.1701C175.398 52.8396 177.867 53.1703 180.119 54.1271C180.27 54.1927 180.407 54.2875 180.521 54.406C180.635 54.5244 180.725 54.6642 180.786 54.8175C180.846 54.9707 180.876 55.1343 180.873 55.2989C180.87 55.4636 180.835 55.6261 180.769 55.7771C180.636 56.0821 180.388 56.3219 180.079 56.4438C179.925 56.5042 179.762 56.5338 179.597 56.5309C179.432 56.528 179.27 56.4927 179.119 56.4271L179.049 56.3941L178.976 56.3511Z" fill="#0C0C0C"/>
<path d="M180.12 19.422C178.534 11.8318 181.429 4.80531 186.586 3.72789C191.743 2.65046 197.209 7.93014 198.795 15.5203C200.381 23.1105 197.486 30.137 192.329 31.2144C187.172 32.2918 181.706 27.0122 180.12 19.422Z" fill="#0C0C0C"/>
<path d="M256.217 219.8C254.869 235.632 245.317 334.41 244.017 353.912H68.4431C67.4341 336.323 62.905 259.412 59.079 225.012C55.427 192.19 50.3091 177.254 54.5151 167.055C61.9331 149.065 85.5451 141.032 101.534 138.867C111.298 137.545 125.983 136.598 125.983 136.598C125.983 136.598 127.226 161.751 156.874 163.151C197.234 165.051 194.538 136.598 194.738 136.598C201.277 136.598 236.866 141.353 245.766 147.153C258.335 155.345 262.05 166.51 262.197 176.767C262.365 188.58 257.743 201.841 256.217 219.8Z" fill="#3BD6CC"/>
<path d="M247.314 314.986C247.439 314.986 247.56 314.94 247.653 314.855C247.746 314.771 247.803 314.655 247.814 314.53L254.466 238.45C254.478 238.318 254.436 238.187 254.351 238.085C254.266 237.983 254.144 237.92 254.012 237.908C253.946 237.901 253.88 237.908 253.817 237.927C253.754 237.947 253.695 237.978 253.645 238.021C253.594 238.063 253.553 238.115 253.523 238.174C253.493 238.233 253.475 238.297 253.47 238.363L246.818 314.443C246.807 314.575 246.848 314.706 246.933 314.807C247.018 314.909 247.14 314.972 247.272 314.984C247.286 314.985 247.3 314.986 247.314 314.986Z" fill="#0C0C0C"/>
<path d="M234.583 359.178L210.475 339.619L214.532 340.766C215.849 341.11 217.247 340.941 218.445 340.294C219.642 339.646 220.549 338.568 220.982 337.278C221.182 336.604 221.243 335.897 221.161 335.199C221.079 334.501 220.856 333.827 220.504 333.218C220.153 332.609 219.682 332.078 219.119 331.657C218.555 331.237 217.913 330.935 217.229 330.771L166.583 318.453L162.225 334.585C160.871 339.595 161.044 344.895 162.722 349.807C164.4 354.718 167.506 359.016 171.643 362.15L190.409 376.312C191.37 377.066 192.561 377.465 193.782 377.441C195.003 377.418 196.178 376.974 197.109 376.184C197.936 375.452 198.506 374.475 198.738 373.395C198.97 372.316 198.85 371.191 198.396 370.184C198.477 370.16 198.551 370.114 198.608 370.052C198.659 369.991 198.693 369.919 198.709 369.842C198.725 369.765 198.722 369.685 198.699 369.609L202.156 372.227C203.224 373.071 204.573 373.477 205.929 373.365C207.286 373.252 208.549 372.628 209.463 371.62C210.249 370.69 210.681 369.514 210.685 368.296C210.688 367.079 210.262 365.9 209.482 364.966C209.536 364.958 209.589 364.94 209.637 364.913L211.057 365.989C212.018 366.743 213.209 367.142 214.43 367.118C215.651 367.095 216.826 366.651 217.757 365.861C218.759 364.973 219.379 363.732 219.486 362.397C219.593 361.062 219.179 359.738 218.331 358.702C218.351 358.673 218.368 358.642 218.381 358.609L228.421 366.754C228.919 367.158 229.491 367.46 230.105 367.642C230.72 367.825 231.364 367.884 232.001 367.818C232.639 367.751 233.257 367.56 233.82 367.255C234.384 366.95 234.882 366.536 235.286 366.039C235.689 365.541 235.991 364.968 236.174 364.354C236.356 363.74 236.416 363.095 236.349 362.458C236.283 361.821 236.092 361.203 235.786 360.639C235.481 360.076 235.068 359.578 234.57 359.174L234.583 359.178Z" fill="#E98862"/>
<path opacity="0.2" d="M217.781 358.9C217.728 358.881 217.678 358.853 217.635 358.817L207.975 350.792C207.926 350.751 207.886 350.701 207.856 350.645C207.826 350.588 207.808 350.526 207.802 350.463C207.796 350.399 207.803 350.335 207.822 350.274C207.841 350.213 207.872 350.157 207.913 350.108C207.953 350.058 208.004 350.018 208.06 349.988C208.117 349.959 208.178 349.94 208.242 349.935C208.305 349.929 208.37 349.935 208.43 349.954C208.491 349.973 208.548 350.004 208.597 350.045L218.256 358.069C218.344 358.142 218.403 358.244 218.423 358.356C218.444 358.469 218.424 358.585 218.367 358.684C218.31 358.783 218.221 358.859 218.113 358.898C218.006 358.938 217.889 358.939 217.781 358.9Z" fill="#0A0A0A"/>
<path opacity="0.2" d="M209.268 364.961C209.216 364.943 209.168 364.915 209.125 364.88L201.484 358.632C201.384 358.55 201.321 358.433 201.308 358.304C201.295 358.176 201.333 358.048 201.415 357.948C201.496 357.848 201.614 357.785 201.743 357.772C201.871 357.759 201.999 357.797 202.099 357.879L209.74 364.127C209.829 364.199 209.89 364.301 209.911 364.414C209.932 364.527 209.913 364.643 209.856 364.743C209.8 364.843 209.71 364.92 209.602 364.96C209.494 365 209.376 365 209.268 364.961Z" fill="#0A0A0A"/>
<path opacity="0.2" d="M198.084 370.2C198.028 370.18 197.976 370.149 197.931 370.111L194.392 367.076C194.344 367.034 194.304 366.984 194.275 366.927C194.246 366.87 194.229 366.808 194.224 366.745C194.219 366.681 194.227 366.617 194.247 366.557C194.266 366.496 194.298 366.44 194.339 366.391C194.381 366.343 194.432 366.303 194.488 366.275C194.545 366.246 194.607 366.228 194.671 366.223C194.734 366.219 194.798 366.226 194.859 366.246C194.92 366.266 194.976 366.297 195.024 366.339L198.564 369.374C198.65 369.448 198.707 369.55 198.726 369.662C198.745 369.773 198.724 369.888 198.667 369.986C198.61 370.084 198.52 370.159 198.414 370.198C198.308 370.237 198.191 370.238 198.084 370.2Z" fill="#0A0A0A"/>
<path d="M21.511 311.271L21.696 310.45L53.743 168.708L117.143 183.04L92.13 293.679L192.328 318.3L179.997 374.838L46.471 349.37C46.171 349.311 45.726 349.221 45.422 349.152C41.3646 348.235 37.5277 346.527 34.1302 344.127C30.7327 341.727 27.8412 338.681 25.6208 335.164C23.4005 331.646 21.8947 327.726 21.1896 323.626C20.4844 319.527 20.5936 315.328 21.511 311.271Z" fill="#3BD6CC"/>
<path d="M192.818 318.407C192.845 318.28 192.821 318.148 192.752 318.038C192.683 317.929 192.574 317.85 192.448 317.819L92.696 293.319L108.915 221.683C108.933 221.618 108.938 221.549 108.929 221.482C108.92 221.415 108.898 221.35 108.863 221.292C108.828 221.234 108.782 221.184 108.727 221.144C108.673 221.104 108.61 221.076 108.544 221.061C108.478 221.046 108.41 221.044 108.343 221.056C108.276 221.069 108.213 221.094 108.156 221.132C108.1 221.17 108.052 221.218 108.015 221.275C107.978 221.332 107.953 221.395 107.941 221.462L91.613 293.577C91.5828 293.705 91.6046 293.84 91.6735 293.953C91.7424 294.065 91.853 294.146 91.981 294.177L191.74 318.677C191.74 318.677 191.072 321.593 190.883 322.577C190.868 322.705 190.905 322.834 190.985 322.935C191.065 323.036 191.182 323.101 191.31 323.116C191.438 323.131 191.567 323.094 191.668 323.014C191.769 322.934 191.834 322.817 191.849 322.689C192.079 321.61 192.818 318.407 192.818 318.407Z" fill="#0C0C0C"/>
<path d="M188.908 397.357L227.433 278.934C228.11 276.853 229.428 275.039 231.199 273.753C232.969 272.467 235.102 271.775 237.29 271.775H394.243C395.879 271.775 397.492 272.162 398.95 272.905C400.408 273.648 401.669 274.725 402.63 276.049C403.592 277.373 404.226 278.905 404.482 280.521C404.737 282.138 404.606 283.791 404.1 285.347L365.574 403.77C364.897 405.851 363.579 407.664 361.808 408.95C360.038 410.236 357.905 410.929 355.717 410.929H198.765C197.129 410.929 195.516 410.541 194.059 409.798C192.601 409.056 191.34 407.978 190.378 406.654C189.417 405.331 188.783 403.798 188.527 402.182C188.272 400.566 188.402 398.913 188.908 397.357Z" fill="#292A2E"/>
<path opacity="0.2" d="M188.908 397.357L227.433 278.934C228.11 276.853 229.428 275.039 231.199 273.753C232.969 272.467 235.102 271.775 237.29 271.775H394.243C395.879 271.775 397.492 272.162 398.95 272.905C400.408 273.648 401.669 274.725 402.63 276.049C403.592 277.373 404.226 278.905 404.482 280.521C404.737 282.138 404.606 283.791 404.1 285.347L365.574 403.77C364.897 405.851 363.579 407.664 361.808 408.95C360.038 410.236 357.905 410.929 355.717 410.929H198.765C197.129 410.929 195.516 410.541 194.059 409.798C192.601 409.056 191.34 407.978 190.378 406.654C189.417 405.331 188.783 403.798 188.527 402.182C188.272 400.566 188.402 398.913 188.908 397.357Z" fill="white"/>
<path d="M301.025 357.813C291.934 357.813 284.564 350.443 284.564 341.352C284.564 332.261 291.934 324.891 301.025 324.891C310.116 324.891 317.486 332.261 317.486 341.352C317.486 350.443 310.116 357.813 301.025 357.813Z" fill="white"/>
<path d="M455.987 12.514H767.5C781.932 12.514 793.631 24.2133 793.631 38.645V416.815C793.631 431.247 781.932 442.946 767.5 442.946H455.987C441.555 442.946 429.856 431.247 429.856 416.815V38.645C429.856 24.2133 441.555 12.514 455.987 12.514Z" fill="#292A2E"/>
<path d="M444.473 1H755.986C770.418 1 782.117 12.6992 782.117 27.131V405.301C782.117 419.733 770.418 431.432 755.986 431.432H444.473C430.041 431.432 418.342 419.733 418.342 405.301V27.131C418.342 12.6992 430.041 1 444.473 1Z" fill="white"/>
<path d="M444.473 432.432H755.986C763.18 432.424 770.076 429.563 775.162 424.476C780.249 419.39 783.11 412.493 783.117 405.3V27.131C783.109 19.9378 780.248 13.0416 775.162 7.95526C770.076 2.86893 763.179 0.00794064 755.986 0L444.473 0C437.28 0.00820527 430.384 2.86931 425.298 7.95561C420.212 13.0419 417.351 19.938 417.343 27.131V405.3C417.351 412.493 420.212 419.39 425.298 424.476C430.384 429.563 437.28 432.424 444.473 432.432ZM755.986 2C762.649 2.00741 769.037 4.65751 773.748 9.36889C778.46 14.0803 781.11 20.4681 781.117 27.131V405.3C781.11 411.963 778.46 418.351 773.748 423.062C769.037 427.773 762.649 430.424 755.986 430.431H444.473C437.81 430.424 431.423 427.773 426.711 423.062C422 418.351 419.35 411.963 419.343 405.3V27.131C419.35 20.4682 422 14.0803 426.711 9.36895C431.423 4.65755 437.81 2.00741 444.473 2H755.986Z" fill="#292A2E"/>
<path d="M786.313 485.544C750.483 485.544 721.436 456.498 721.436 420.667C721.436 384.836 750.483 355.79 786.313 355.79C822.144 355.79 851.19 384.836 851.19 420.667C851.19 456.498 822.144 485.544 786.313 485.544Z" fill="#292A2E"/>
<path d="M799.781 412.2C800.635 412.2 801.454 411.861 802.058 411.257C802.662 410.653 803.002 409.834 803.002 408.98V393.389C803.002 384.768 795.515 377.753 786.313 377.753C777.111 377.753 769.624 384.768 769.624 393.389V407.91C769.617 408.338 769.694 408.763 769.853 409.16C770.011 409.557 770.247 409.919 770.547 410.224C770.847 410.529 771.204 410.772 771.599 410.937C771.993 411.103 772.417 411.188 772.845 411.188C773.272 411.188 773.696 411.103 774.09 410.937C774.485 410.772 774.842 410.529 775.142 410.224C775.442 409.919 775.678 409.557 775.837 409.16C775.995 408.763 776.073 408.338 776.065 407.91V393.389C776.065 388.319 780.665 384.194 786.313 384.194C791.961 384.194 796.561 388.319 796.561 393.389V408.982C796.562 409.836 796.901 410.654 797.505 411.258C798.109 411.861 798.928 412.2 799.781 412.2Z" fill="white"/>
<path d="M765.767 406.285H806.859C809.256 406.285 811.198 408.228 811.198 410.624V449.33C811.198 451.726 809.256 453.669 806.859 453.669H765.767C763.371 453.669 761.428 451.726 761.428 449.33V410.624C761.428 408.228 763.371 406.285 765.767 406.285Z" fill="white"/>
<path d="M790.404 426.145C790.405 426.913 790.189 427.665 789.782 428.316C789.376 428.967 788.794 429.491 788.104 429.827V436.113C788.104 436.587 787.916 437.041 787.581 437.376C787.246 437.711 786.792 437.899 786.318 437.899C785.845 437.899 785.39 437.711 785.055 437.376C784.72 437.041 784.532 436.587 784.532 436.113V429.827C783.875 429.508 783.315 429.019 782.911 428.411C782.507 427.802 782.273 427.097 782.233 426.367C782.194 425.638 782.35 424.911 782.687 424.262C783.023 423.614 783.527 423.067 784.146 422.68C784.765 422.292 785.477 422.077 786.207 422.057C786.937 422.037 787.66 422.213 788.299 422.567C788.938 422.921 789.471 423.439 789.842 424.068C790.213 424.697 790.409 425.414 790.409 426.145H790.404Z" fill="#292A2E"/>
<path d="M471.676 215.773H728.783C734.921 215.773 739.896 220.748 739.896 226.886V262.93C739.896 269.067 734.921 274.043 728.783 274.043H471.676C465.539 274.043 460.563 269.067 460.563 262.93V226.886C460.563 220.748 465.539 215.773 471.676 215.773Z" fill="white"/>
<path d="M471.677 275.042H728.783C731.995 275.038 735.074 273.761 737.344 271.49C739.615 269.219 740.893 266.14 740.896 262.929V226.886C740.893 223.674 739.615 220.596 737.344 218.325C735.074 216.054 731.995 214.776 728.783 214.772H471.677C468.466 214.776 465.386 216.053 463.115 218.324C460.844 220.595 459.567 223.674 459.563 226.886V262.929C459.567 266.141 460.844 269.22 463.115 271.49C465.387 273.761 468.466 275.039 471.677 275.042ZM728.783 216.772C731.465 216.775 734.035 217.841 735.931 219.738C737.827 221.634 738.894 224.205 738.896 226.886V262.929C738.893 265.61 737.827 268.181 735.931 270.077C734.035 271.973 731.464 273.039 728.783 273.042H471.677C468.996 273.039 466.425 271.973 464.529 270.077C462.633 268.181 461.566 265.61 461.563 262.929V226.886C461.566 224.204 462.633 221.634 464.529 219.738C466.425 217.841 468.996 216.775 471.677 216.772H728.783Z" fill="#292A2E"/>
<path d="M471.676 299.047H728.783C734.921 299.047 739.896 304.022 739.896 310.16V346.204C739.896 352.342 734.921 357.317 728.783 357.317H471.676C465.539 357.317 460.563 352.342 460.563 346.204V310.16C460.563 304.022 465.539 299.047 471.676 299.047Z" fill="white"/>
<path d="M471.677 358.316H728.783C731.995 358.312 735.074 357.035 737.345 354.763C739.616 352.492 740.893 349.412 740.896 346.2V310.16C740.893 306.949 739.615 303.87 737.344 301.599C735.074 299.328 731.995 298.051 728.783 298.047H471.677C468.466 298.05 465.387 299.328 463.115 301.599C460.844 303.869 459.567 306.948 459.563 310.16V346.2C459.566 349.412 460.843 352.492 463.114 354.763C465.386 357.035 468.465 358.313 471.677 358.316ZM728.783 300.047C731.464 300.05 734.035 301.116 735.931 303.012C737.827 304.908 738.893 307.479 738.896 310.16V346.2C738.893 348.881 737.827 351.452 735.931 353.348C734.035 355.244 731.464 356.31 728.783 356.313H471.677C468.996 356.31 466.425 355.244 464.529 353.348C462.633 351.452 461.566 348.881 461.563 346.2V310.16C461.566 307.479 462.633 304.908 464.529 303.012C466.425 301.116 468.996 300.05 471.677 300.047H728.783Z" fill="#292A2E"/>
<path d="M600.23 172.43C567.262 172.43 540.536 145.704 540.536 112.736C540.536 79.7679 567.262 53.042 600.23 53.042C633.198 53.042 659.924 79.7679 659.924 112.736C659.924 145.704 633.198 172.43 600.23 172.43Z" fill="white"/>
<path d="M600.23 173.43C612.234 173.43 623.969 169.87 633.95 163.201C643.931 156.532 651.71 147.053 656.304 135.963C660.898 124.872 662.1 112.669 659.758 100.895C657.416 89.1217 651.636 78.3071 643.147 69.8189C634.659 61.3307 623.845 55.5501 612.071 53.2082C600.298 50.8663 588.094 52.0683 577.004 56.6621C565.913 61.2559 556.434 69.0352 549.765 79.0162C543.096 88.9973 539.536 100.732 539.536 112.736C539.554 128.828 545.955 144.255 557.333 155.633C568.711 167.012 584.139 173.412 600.23 173.43ZM600.23 54.042C611.839 54.042 623.187 57.4844 632.839 63.9337C642.491 70.3831 650.014 79.5499 654.456 90.2748C658.899 101 660.061 112.801 657.797 124.187C655.532 135.572 649.942 146.03 641.733 154.239C633.525 162.447 623.066 168.038 611.681 170.302C600.295 172.567 588.494 171.405 577.769 166.962C567.044 162.52 557.877 154.997 551.428 145.345C544.979 135.692 541.536 124.345 541.536 112.736C541.554 97.1748 547.743 82.2559 558.747 71.2524C569.75 60.2489 584.669 54.0595 600.23 54.042Z" fill="#292A2E"/>
<path opacity="0.5" d="M541.862 112.736C541.845 126.553 546.748 139.924 555.692 150.455C561.201 144.033 568.034 138.878 575.722 135.344C583.411 131.81 591.772 129.982 600.234 129.983C608.695 129.985 617.056 131.816 624.743 135.353C632.43 138.889 639.262 144.047 644.768 150.471C650.842 143.303 655.095 134.774 657.167 125.61C659.239 116.446 659.068 106.917 656.669 97.8326C654.27 88.7486 649.714 80.3779 643.387 73.4319C637.06 66.4858 629.15 61.1696 620.329 57.9349C611.508 54.7003 602.036 53.6428 592.719 54.8523C583.402 56.0618 574.514 59.5025 566.811 64.8822C559.108 70.2619 552.818 77.4215 548.474 85.7527C544.131 94.0839 541.862 103.34 541.862 112.736Z" fill="#3BD6CC"/>
<path d="M555.692 150.455C561.171 156.924 567.992 162.123 575.683 165.689C583.374 169.255 591.749 171.103 600.227 171.104C608.704 171.106 617.08 169.261 624.772 165.697C632.464 162.134 639.288 156.938 644.768 150.471C639.262 144.046 632.431 138.889 624.743 135.353C617.056 131.816 608.695 129.985 600.234 129.983C591.773 129.982 583.411 131.81 575.723 135.344C568.034 138.878 561.201 144.032 555.692 150.455Z" fill="white"/>
<path d="M600.229 119.093C587.199 119.093 576.636 108.53 576.636 95.5C576.636 82.4699 587.199 71.907 600.229 71.907C613.259 71.907 623.822 82.4699 623.822 95.5C623.822 108.53 613.259 119.093 600.229 119.093Z" fill="white"/>
<g opacity="0.4">
<path d="M718.254 335.278C714.335 335.278 711.158 332.101 711.158 328.182C711.158 324.263 714.335 321.086 718.254 321.086C722.173 321.086 725.35 324.263 725.35 328.182C725.35 332.101 722.173 335.278 718.254 335.278Z" fill="#292A2E"/>
<path d="M696.057 335.278C692.138 335.278 688.961 332.101 688.961 328.182C688.961 324.263 692.138 321.086 696.057 321.086C699.976 321.086 703.153 324.263 703.153 328.182C703.153 332.101 699.976 335.278 696.057 335.278Z" fill="#292A2E"/>
<path d="M673.86 335.278C669.941 335.278 666.764 332.101 666.764 328.182C666.764 324.263 669.941 321.086 673.86 321.086C677.779 321.086 680.956 324.263 680.956 328.182C680.956 332.101 677.779 335.278 673.86 335.278Z" fill="#292A2E"/>
<path d="M651.663 335.278C647.744 335.278 644.567 332.101 644.567 328.182C644.567 324.263 647.744 321.086 651.663 321.086C655.582 321.086 658.759 324.263 658.759 328.182C658.759 332.101 655.582 335.278 651.663 335.278Z" fill="#292A2E"/>
<path d="M629.467 335.278C625.548 335.278 622.371 332.101 622.371 328.182C622.371 324.263 625.548 321.086 629.467 321.086C633.386 321.086 636.563 324.263 636.563 328.182C636.563 332.101 633.386 335.278 629.467 335.278Z" fill="#292A2E"/>
<path d="M607.27 335.278C603.351 335.278 600.174 332.101 600.174 328.182C600.174 324.263 603.351 321.086 607.27 321.086C611.189 321.086 614.366 324.263 614.366 328.182C614.366 332.101 611.189 335.278 607.27 335.278Z" fill="#292A2E"/>
<path d="M585.073 335.278C581.154 335.278 577.977 332.101 577.977 328.182C577.977 324.263 581.154 321.086 585.073 321.086C588.992 321.086 592.169 324.263 592.169 328.182C592.169 332.101 588.992 335.278 585.073 335.278Z" fill="#292A2E"/>
</g>
<g opacity="0.3">
<path d="M711.216 244.48V246.88H720.329V244.48H711.216Z" fill="black"/>
<path d="M699.891 244.48V246.88H709.004V244.48H699.891Z" fill="black"/>
<path d="M688.567 244.48V246.88H697.68V244.48H688.567Z" fill="black"/>
<path d="M677.243 244.48V246.88H686.356V244.48H677.243Z" fill="black"/>
<path d="M665.917 244.48V246.88H675.031V244.48H665.917Z" fill="black"/>
<path d="M645.48 258.021C647.507 259.062 649.766 259.571 652.043 259.5C658.094 259.5 663.223 255.072 663.223 247.988C663.223 240.388 657.946 233.82 649.756 233.82C643.336 233.82 639.019 238.32 639.019 244.483C639.019 250.018 642.119 253.264 645.587 253.264C647.062 253.264 648.427 252.264 648.317 250.018H648.465C648.942 250.991 649.682 251.81 650.602 252.384C651.521 252.958 652.582 253.263 653.665 253.264C655.805 253.264 657.65 251.53 657.65 248.616C657.654 247.467 657.431 246.327 656.993 245.265C656.555 244.202 655.911 243.236 655.098 242.423C654.285 241.61 653.32 240.966 652.257 240.528C651.194 240.09 650.055 239.867 648.905 239.871C647.55 239.851 646.205 240.115 644.957 240.646L646.212 247.324C646.765 250.124 646.322 251.424 645.105 251.457C643.223 251.493 641.12 248.984 641.12 244.705C641.12 239.355 644.33 235.518 650.049 235.518C656.063 235.518 661.118 240.277 661.118 247.767C661.118 253.929 657.096 257.729 651.635 257.729C649.699 257.774 647.783 257.33 646.064 256.438L645.48 258.021ZM647.509 242.082C648.108 241.906 648.73 241.819 649.354 241.824C652.601 241.824 655.22 244.886 655.22 248.465C655.22 250.088 654.408 251.265 652.785 251.265C650.645 251.265 648.69 248.535 648.285 246.247L647.509 242.082Z" fill="black"/>
<path d="M627.406 244.48V246.88H636.519V244.48H627.406Z" fill="black"/>
<path d="M616.081 244.48V246.88H625.195V244.48H616.081Z" fill="black"/>
<path d="M604.757 244.48V246.88H613.87V244.48H604.757Z" fill="black"/>
</g>
</g>
<defs>
<clipPath id="clip0_17_449">
<rect width="890.143" height="862.058" fill="white" transform="matrix(-1 0 0 1 890.143 0)"/>
</clipPath>
</defs>
</svg>
