<svg width="650" height="512" viewBox="0 0 650 512" fill="none" xmlns="http://www.w3.org/2000/svg">
<path d="M483.07 288.736C549.053 288.736 602.542 235.247 602.542 169.264C602.542 103.281 549.053 49.792 483.07 49.792C417.087 49.792 363.598 103.281 363.598 169.264C363.598 235.247 417.087 288.736 483.07 288.736Z" fill="#242855"/>
<path d="M603.154 271.347V253.156C603.154 251.438 602.816 249.737 602.159 248.15C601.502 246.564 600.538 245.122 599.324 243.907C598.109 242.693 596.667 241.729 595.08 241.072C593.493 240.415 591.793 240.076 590.075 240.076H553.909C550.44 240.076 547.113 238.698 544.66 236.245C542.208 233.792 540.83 230.466 540.83 226.997V208.806C540.83 201.582 556.685 195.726 563.909 195.726H565.367C568.836 195.726 572.162 194.348 574.615 191.895C577.068 189.442 578.446 186.116 578.446 182.647V164.456C578.446 160.987 577.068 157.66 574.615 155.207C572.162 152.754 568.836 151.376 565.367 151.376H123.46C121.742 151.376 120.041 151.714 118.454 152.372C116.867 153.029 115.426 153.992 114.211 155.207C112.996 156.422 112.033 157.863 111.376 159.45C110.718 161.037 110.38 162.738 110.38 164.456V182.647C110.38 184.364 110.718 186.065 111.376 187.652C112.033 189.239 112.996 190.681 114.211 191.895C115.426 193.11 116.867 194.073 118.454 194.731C120.041 195.388 121.742 195.726 123.46 195.726C125.177 195.726 126.878 196.064 128.465 196.722C130.052 197.379 131.494 198.342 132.708 199.557C133.923 200.772 134.886 202.213 135.543 203.8C136.201 205.387 136.539 207.088 136.539 208.806V226.997C136.539 230.466 135.161 233.792 132.708 236.245C130.255 238.698 126.928 240.076 123.46 240.076H72.8802C69.4113 240.076 66.0845 241.454 63.6316 243.907C61.1787 246.36 59.8007 249.687 59.8007 253.156V271.347C59.8007 274.816 61.1787 278.143 63.6316 280.595C66.0845 283.048 69.4113 284.426 72.8802 284.426H92.7267C94.4444 284.426 96.1452 284.765 97.732 285.422C99.3189 286.079 100.761 287.043 101.975 288.257C103.19 289.472 104.153 290.914 104.811 292.5C105.468 294.087 105.806 295.788 105.806 297.506V315.697C105.806 319.166 104.428 322.493 101.975 324.946C99.5224 327.398 96.1956 328.776 92.7267 328.776H92.6787C89.2099 328.776 85.8831 330.154 83.4302 332.607C80.9773 335.06 79.5993 338.387 79.5993 341.856V360.047C79.5993 363.516 80.9773 366.843 83.4302 369.296C85.8831 371.748 89.2099 373.126 92.6788 373.126H95.5502C99.0191 373.126 102.346 374.504 104.799 376.957C107.252 379.41 108.63 382.737 108.63 386.206V404.397C108.63 406.115 108.291 407.816 107.634 409.402C106.977 410.989 106.013 412.431 104.799 413.646C103.584 414.86 102.142 415.824 100.555 416.481C98.9686 417.138 97.2678 417.477 95.5502 417.477H78.4257C74.9568 417.477 71.63 418.855 69.1771 421.307C66.7242 423.76 65.3462 427.087 65.3462 430.556V448.747C65.3462 452.216 66.7242 455.543 69.1771 457.996C71.63 460.449 74.9568 461.827 78.4257 461.827H562.389C565.858 461.827 569.184 460.449 571.637 457.996C574.09 455.543 575.468 452.216 575.468 448.747V430.556C575.468 427.087 574.09 423.76 571.637 421.307C569.184 418.855 565.858 417.477 562.389 417.477H551.048C549.331 417.477 547.63 417.138 546.043 416.481C544.456 415.824 543.014 414.86 541.8 413.646C540.585 412.431 539.622 410.989 538.964 409.402C538.307 407.816 537.969 406.115 537.969 404.397V386.206C537.969 382.737 539.347 379.41 541.8 376.957C544.252 374.504 547.579 373.126 551.048 373.126H577.788C581.257 373.126 584.584 371.748 587.037 369.296C589.489 366.843 590.867 363.516 590.867 360.047V341.856C590.867 340.138 590.529 338.437 589.872 336.851C589.215 335.264 588.251 333.822 587.037 332.607C585.822 331.393 584.38 330.429 582.793 329.772C581.206 329.115 579.506 328.776 577.788 328.776H569.676C567.959 328.776 566.258 328.438 564.671 327.781C563.084 327.124 561.642 326.16 560.428 324.946C559.213 323.731 558.25 322.289 557.593 320.702C556.935 319.115 556.597 317.415 556.597 315.697V297.506C556.597 294.037 557.975 290.71 560.428 288.257C562.881 285.804 566.208 284.426 569.676 284.426H590.075C591.793 284.426 593.493 284.088 595.08 283.431C596.667 282.773 598.109 281.81 599.324 280.595C600.538 279.381 601.502 277.939 602.159 276.352C602.816 274.765 603.154 273.064 603.154 271.347Z" fill="#242855"/>
<path d="M470.539 168.339C419.583 167.477 368.785 152.938 322.706 125.793C276.67 152.938 225.871 167.477 174.905 168.339C164.518 279.219 198.075 412.639 322.706 462.208C447.379 412.639 480.811 279.219 470.539 168.339Z" fill="#2CA68F"/>
<path d="M435.825 197.848C396.834 197.188 357.964 186.063 322.706 165.293C287.481 186.063 248.611 197.188 209.612 197.848C201.665 282.69 227.342 384.78 322.706 422.709C418.103 384.78 443.684 282.69 435.825 197.848Z" fill="#242855"/>
<path d="M493.169 183.131C493.445 180.349 491.413 177.87 488.631 177.595C485.849 177.319 483.37 179.351 483.095 182.133C482.819 184.915 484.851 187.394 487.633 187.669C490.415 187.945 492.894 185.913 493.169 183.131Z" fill="#2CA68F"/>
<path d="M303.832 276.796V251.101C303.832 248.525 304.343 245.974 305.334 243.596C306.326 241.218 307.779 239.06 309.61 237.247C311.44 235.434 313.612 234.001 315.999 233.032C318.386 232.063 320.942 231.576 323.518 231.6H325.661C328.237 231.575 330.793 232.061 333.181 233.03C335.569 233.999 337.741 235.431 339.571 237.245C341.402 239.058 342.855 241.216 343.846 243.595C344.838 245.973 345.348 248.525 345.347 251.101V259.757C345.352 260.338 345.583 260.893 345.993 261.305C346.402 261.716 346.956 261.951 347.537 261.959L357.904 262.006C358.194 262.007 358.481 261.951 358.749 261.84C359.018 261.73 359.262 261.568 359.467 261.364C359.673 261.159 359.836 260.916 359.947 260.649C360.059 260.381 360.117 260.094 360.117 259.804V252.534C360.118 248.073 359.24 243.657 357.532 239.536C355.825 235.416 353.322 231.673 350.166 228.521C347.011 225.369 343.264 222.87 339.142 221.167C335.02 219.464 330.602 218.591 326.142 218.597H323.037C318.578 218.593 314.162 219.468 310.041 221.172C305.92 222.875 302.176 225.375 299.022 228.526C295.867 231.678 293.365 235.421 291.658 239.54C289.951 243.659 289.073 248.075 289.074 252.534V277.483L303.832 276.796Z" fill="#4A4A4A"/>
<path d="M365.022 350.681C367.617 350.674 370.104 349.641 371.938 347.806C373.773 345.971 374.807 343.484 374.813 340.889V285.199C374.807 282.605 373.773 280.118 371.938 278.283C370.104 276.448 367.617 275.414 365.022 275.408H284.169C281.574 275.414 279.087 276.448 277.252 278.283C275.417 280.118 274.383 282.605 274.377 285.199V340.889C274.383 343.484 275.417 345.971 277.252 347.806C279.087 349.641 281.574 350.674 284.169 350.681H365.022Z" fill="black"/>
<path d="M324.595 294.51C321.815 294.519 319.152 295.628 317.187 297.594C315.222 299.56 314.114 302.223 314.105 305.003C314.153 306.581 314.562 308.128 315.302 309.523C316.041 310.918 317.091 312.125 318.37 313.051V325.365C318.37 327.016 319.026 328.599 320.193 329.767C321.361 330.934 322.944 331.59 324.595 331.59C326.246 331.59 327.83 330.934 328.997 329.767C330.165 328.599 330.821 327.016 330.821 325.365V313.051C332.098 312.123 333.146 310.916 333.885 309.521C334.624 308.126 335.035 306.581 335.086 305.003C335.077 302.223 333.969 299.56 332.004 297.594C330.038 295.628 327.375 294.519 324.595 294.51Z" fill="#4A4A4A"/>
<path d="M125.247 264.724H155.568" stroke="#DBB9B9" stroke-width="3" stroke-miterlimit="10"/>
<path d="M125.247 273.463H155.568" stroke="#DBB9B9" stroke-width="3" stroke-miterlimit="10"/>
<path d="M125.247 282.202H155.568" stroke="#DBB9B9" stroke-width="3" stroke-miterlimit="10"/>
<path d="M550.099 77.762H580.42" stroke="#DBB9B9" stroke-width="3" stroke-miterlimit="10"/>
<path d="M550.099 86.501H580.42" stroke="#DBB9B9" stroke-width="3" stroke-miterlimit="10"/>
<path d="M550.099 95.24H580.42" stroke="#DBB9B9" stroke-width="3" stroke-miterlimit="10"/>
<path d="M493.195 297.862H523.515" stroke="#DBB9B9" stroke-width="3" stroke-miterlimit="10"/>
<path d="M493.195 306.601H523.515" stroke="#DBB9B9" stroke-width="3" stroke-miterlimit="10"/>
<path d="M493.195 315.341H523.515" stroke="#DBB9B9" stroke-width="3" stroke-miterlimit="10"/>
<path d="M228.857 137.313C237.373 137.313 244.277 130.409 244.277 121.893C244.277 113.377 237.373 106.473 228.857 106.473C220.341 106.473 213.437 113.377 213.437 121.893C213.437 130.409 220.341 137.313 228.857 137.313Z" fill="#CECDCD"/>
<path d="M232.719 98.717C237.155 98.717 240.751 95.1209 240.751 90.685C240.751 86.249 237.155 82.653 232.719 82.653C228.283 82.653 224.687 86.249 224.687 90.685C224.687 95.1209 228.283 98.717 232.719 98.717Z" fill="#CECDCD"/>
<path d="M260.989 96.174C263.548 96.174 265.622 94.0997 265.622 91.541C265.622 88.9822 263.548 86.908 260.989 86.908C258.43 86.908 256.356 88.9822 256.356 91.541C256.356 94.0997 258.43 96.174 260.989 96.174Z" fill="#CECDCD"/>
<path d="M263.738 128.357C269.872 128.357 274.845 123.384 274.845 117.25C274.845 111.116 269.872 106.143 263.738 106.143C257.604 106.143 252.631 111.116 252.631 117.25C252.631 123.384 257.604 128.357 263.738 128.357Z" fill="#CECDCD"/>
<path d="M450.101 443.963C458.617 443.963 465.521 437.059 465.521 428.543C465.521 420.027 458.617 413.123 450.101 413.123C441.585 413.123 434.681 420.027 434.681 428.543C434.681 437.059 441.585 443.963 450.101 443.963Z" fill="#CECDCD"/>
<path d="M428.538 413.687C432.974 413.687 436.57 410.091 436.57 405.655C436.57 401.219 432.974 397.623 428.538 397.623C424.102 397.623 420.506 401.219 420.506 405.655C420.506 410.091 424.102 413.687 428.538 413.687Z" fill="#CECDCD"/>
<path d="M447.236 389.069C449.795 389.069 451.869 386.995 451.869 384.436C451.869 381.877 449.795 379.803 447.236 379.803C444.677 379.803 442.603 381.877 442.603 384.436C442.603 386.995 444.677 389.069 447.236 389.069Z" fill="#CECDCD"/>
<path d="M468.785 409.832C474.919 409.832 479.892 404.859 479.892 398.725C479.892 392.591 474.919 387.618 468.785 387.618C462.651 387.618 457.678 392.591 457.678 398.725C457.678 404.859 462.651 409.832 468.785 409.832Z" fill="#CECDCD"/>
<path d="M153.965 419.694C162.481 419.694 169.385 412.79 169.385 404.274C169.385 395.758 162.481 388.854 153.965 388.854C145.449 388.854 138.545 395.758 138.545 404.274C138.545 412.79 145.449 419.694 153.965 419.694Z" fill="#CECDCD"/>
<path d="M132.402 389.418C136.838 389.418 140.434 385.822 140.434 381.386C140.434 376.95 136.838 373.354 132.402 373.354C127.966 373.354 124.37 376.95 124.37 381.386C124.37 385.822 127.966 389.418 132.402 389.418Z" fill="#CECDCD"/>
<path d="M151.1 364.799C153.659 364.799 155.733 362.725 155.733 360.166C155.733 357.607 153.659 355.533 151.1 355.533C148.541 355.533 146.467 357.607 146.467 360.166C146.467 362.725 148.541 364.799 151.1 364.799Z" fill="#CECDCD"/>
<path d="M172.649 385.562C178.783 385.562 183.756 380.589 183.756 374.455C183.756 368.321 178.783 363.348 172.649 363.348C166.515 363.348 161.542 368.321 161.542 374.455C161.542 380.589 166.515 385.562 172.649 385.562Z" fill="#CECDCD"/>
<path d="M75.0409 162.76C75.0409 162.76 80.8878 159.767 79.5821 144.392L91.6623 142.229C91.6623 142.229 90.3051 156.014 96.4159 160.389L75.0409 162.76Z" fill="#E98862"/>
<g opacity="0.15">
<path d="M93.9412 157.507L83.9054 150.094L91.787 150.015C92.0153 152.621 92.7459 155.162 93.9412 157.507Z" fill="#2CA68F"/>
</g>
<path d="M72.7288 138.43C73.565 143.095 76.2008 147.513 80.4614 149.017C85.5197 150.806 89.2662 150.927 95.098 150.927C103.056 150.927 102.793 142.913 103.016 134.836C103.243 126.727 102.573 118.029 99.4274 115.203C93.1518 109.564 74.7234 113.135 72.4823 122.568C71.3232 127.449 71.9326 133.987 72.7288 138.43Z" fill="#E98862"/>
<path d="M108.533 111.846C108.533 107.99 103.563 101.67 90.3021 110.386L90.2892 110.395C86.8444 110.301 83.4025 110.665 80.0599 111.475C73.996 113.227 66.3919 118.136 68.3404 130.039C70.5179 143.324 76.1531 146.869 78.9931 148.499C79.7166 148.914 79.8921 148.572 80.1431 147.8C80.9307 144.932 81.494 142.011 81.8284 139.061C82.3245 136.19 82.5495 133.282 82.5006 130.372C82.5006 129.083 82.5074 124.385 89.1331 124.331C92.8599 124.302 91.4664 124.445 95.4435 124.445C96.0106 124.445 96.5111 124.42 96.9724 124.381H96.9777C110.711 124.38 108.533 115.704 108.533 111.846Z" fill="#0F1011"/>
<path d="M91.6449 134.838C92.25 134.838 92.7405 134.364 92.7405 133.78C92.7405 133.195 92.25 132.722 91.6449 132.722C91.0398 132.722 90.5493 133.195 90.5493 133.78C90.5493 134.364 91.0398 134.838 91.6449 134.838Z" fill="#0F1011"/>
<path d="M100.289 134.153C100.894 134.153 101.384 133.679 101.384 133.095C101.384 132.511 100.894 132.037 100.289 132.037C99.6835 132.037 99.193 132.511 99.193 133.095C99.193 133.679 99.6835 134.153 100.289 134.153Z" fill="#0F1011"/>
<path d="M102.186 130.84H102.18L99.277 130.805C99.1439 130.8 99.0183 130.744 98.9265 130.651C98.8348 130.558 98.784 130.434 98.7849 130.305C98.7858 130.177 98.8382 130.053 98.9313 129.961C99.0243 129.869 99.1506 129.816 99.2838 129.812H99.2906L102.193 129.847C102.326 129.852 102.452 129.908 102.544 130.001C102.635 130.094 102.686 130.218 102.685 130.347C102.684 130.475 102.632 130.599 102.539 130.691C102.446 130.783 102.32 130.836 102.186 130.84Z" fill="#0F1011"/>
<path d="M89.2798 131.863C89.1533 131.864 89.0311 131.819 88.9365 131.738C88.8418 131.657 88.7813 131.545 88.7665 131.424C88.7518 131.303 88.7838 131.18 88.8564 131.08C88.929 130.98 89.0372 130.91 89.1603 130.882L92.0222 130.217C92.0885 130.2 92.1577 130.196 92.2256 130.205C92.2935 130.214 92.3588 130.237 92.4177 130.271C92.4766 130.305 92.5279 130.349 92.5685 130.403C92.6092 130.456 92.6383 130.517 92.6544 130.581C92.6704 130.646 92.6729 130.713 92.6618 130.778C92.6507 130.843 92.6262 130.906 92.5897 130.962C92.5532 131.018 92.5055 131.067 92.4493 131.105C92.3931 131.143 92.3297 131.169 92.2626 131.183L89.4008 131.849C89.3612 131.858 89.3206 131.863 89.2798 131.863Z" fill="#0F1011"/>
<path d="M85.9454 136.368C86.0042 136.96 85.9406 137.557 85.7584 138.125C85.5761 138.692 85.2789 139.219 84.8839 139.675C84.4889 140.131 84.004 140.507 83.4574 140.78C82.9108 141.053 82.3134 141.219 81.7 141.267C81.0866 141.315 80.4693 141.246 79.884 141.062C79.2988 140.878 78.7572 140.583 78.2909 140.195C77.8245 139.807 77.4426 139.334 77.1674 138.802C76.8922 138.271 76.7291 137.691 76.6877 137.098C76.6274 136.509 76.6904 135.915 76.8729 135.35C77.0555 134.785 77.3539 134.261 77.7504 133.81C78.1468 133.359 78.6333 132.989 79.1807 132.723C79.7282 132.457 80.3255 132.3 80.937 132.262C84.2472 132.162 85.736 133.9 85.9454 136.368Z" fill="#E98862"/>
<g opacity="0.15">
<path d="M96.5081 139.648C96.4176 139.648 96.3302 139.616 96.2616 139.559C96.1931 139.502 96.1481 139.423 96.1347 139.337C96.1214 139.25 96.1406 139.162 96.1888 139.088C96.2371 139.014 96.3112 138.96 96.3977 138.934L98.6252 138.273L97.0669 134.921C97.0272 134.833 97.0251 134.733 97.061 134.644C97.0969 134.554 97.1679 134.482 97.2586 134.443C97.3493 134.403 97.4524 134.4 97.5456 134.433C97.6388 134.467 97.7145 134.535 97.7564 134.622L99.4909 138.351C99.5128 138.398 99.5241 138.449 99.5241 138.501C99.5241 138.553 99.5128 138.604 99.4909 138.651C99.4687 138.698 99.4364 138.74 99.3961 138.775C99.3559 138.809 99.3085 138.834 99.2573 138.849L96.62 139.632C96.5838 139.643 96.546 139.648 96.5081 139.648Z" fill="#2CA68F"/>
</g>
<path d="M155.829 455.262L140.062 453.452C140.771 447.689 141.574 440.766 141.628 439.632C141.628 439.705 141.628 439.764 141.628 439.81H157.507C157.502 440.27 157.502 441.672 155.829 455.262Z" fill="#E98862"/>
<path d="M85.001 457.095L69.1229 457.045C69.1229 457.045 69.1759 441.213 69.1759 439.814H85.054C85.054 441.217 85.001 457.095 85.001 457.095Z" fill="#E98862"/>
<path d="M134.087 453.295L161.313 447.089C143.685 380.26 128.893 312.046 114.565 244.495L114.363 244.553L113.772 240.661L56.2511 237.23C56.2511 237.23 54.0115 264.433 54.013 273.519C54.0183 318.061 61.354 392.117 64.9984 451.375L92.9378 449.993C91.2941 392.53 86.8535 334.984 87.1726 277.506C103.903 335.658 120.588 394.431 134.087 453.295Z" fill="#262626"/>
<path d="M104.303 463.026C104.73 463.024 105.152 462.937 105.542 462.771C105.933 462.604 106.284 462.362 106.573 462.058C106.862 461.755 107.084 461.397 107.223 461.007C107.363 460.618 107.418 460.204 107.385 459.793C107.339 459.223 107.125 458.678 106.769 458.222C106.413 457.765 105.929 457.416 105.374 457.217L86.8936 451.237C86.5356 451.122 86.1562 451.084 85.7814 451.124C85.4067 451.164 85.0453 451.282 84.722 451.47C82.1813 453.172 79.142 454.042 76.0511 453.952C73.6435 453.787 71.3324 452.972 69.3815 451.6C69.21 451.464 69.0022 451.378 68.7821 451.352C68.5621 451.326 68.339 451.361 68.1388 451.453C67.9386 451.545 67.7695 451.69 67.6512 451.871C67.533 452.052 67.4704 452.262 67.4709 452.476V461.203C67.4709 461.46 67.5235 461.715 67.6258 461.953C67.7281 462.19 67.878 462.406 68.0669 462.588C68.2558 462.77 68.48 462.914 68.7266 463.011C68.9732 463.109 69.2374 463.159 69.504 463.158L104.303 463.026Z" fill="#C1D8ED"/>
<path d="M175.174 463.026C175.601 463.024 176.023 462.937 176.414 462.77C176.805 462.604 177.156 462.361 177.445 462.058C177.734 461.755 177.956 461.397 178.095 461.007C178.235 460.618 178.29 460.204 178.257 459.793C178.211 459.223 177.997 458.678 177.641 458.222C177.285 457.765 176.801 457.417 176.246 457.217L157.765 451.237C157.407 451.122 157.028 451.084 156.653 451.124C156.278 451.164 155.917 451.282 155.594 451.47C153.053 453.172 150.014 454.042 146.923 453.952C144.515 453.787 142.204 452.972 140.254 451.6C140.082 451.464 139.874 451.378 139.654 451.352C139.434 451.326 139.211 451.361 139.01 451.453C138.81 451.544 138.641 451.689 138.523 451.871C138.404 452.052 138.342 452.262 138.342 452.476V461.203C138.342 461.46 138.395 461.715 138.497 461.953C138.6 462.19 138.749 462.406 138.938 462.588C139.127 462.77 139.351 462.914 139.598 463.011C139.845 463.109 140.109 463.159 140.376 463.158L175.174 463.026Z" fill="#C1D8ED"/>
<path d="M181.668 196.125C181.668 196.125 172.979 194.915 174.185 188.529C174.948 184.5 176.35 165.075 178.084 165.001C182.373 164.819 181.324 182.619 185.053 184.714L181.668 196.125Z" fill="#E98862"/>
<path d="M174.196 190.846C174.196 190.846 172.427 181.521 173.192 179.381C173.869 177.486 176.458 181.94 176.458 181.94L174.196 190.846Z" fill="#E98862"/>
<path d="M92.7185 142.052C92.7185 142.052 96.7138 142.782 99.6202 142.052C99.6202 142.052 99.3798 144.614 96.1694 144.614C92.959 144.614 92.7185 142.052 92.7185 142.052Z" fill="white"/>
<path d="M176.097 177.399L120.831 196.872L107.206 165.808L107.071 165.895C105.219 161.974 101.872 159.447 96.1176 159.145C95.7411 159.123 95.1375 159.109 94.3607 159.094C94.2053 163.088 73.8516 163.074 73.4214 159C67.6726 159.007 62.9577 161.149 60.2268 164.468C59.1239 165.792 58.2406 167.36 57.6249 169.089L44 197.595L47.6208 231.102C54.7767 241.697 48.1742 232.335 47.6208 231.102C54.7767 241.697 50.2589 240.543 51.4143 240.562L47.6208 231.102C56.5957 252.425 67.6577 253.596 57.6249 235.298C68.1722 250.01 57.0522 222.841 57.6249 221.642L60.0116 195.626C61.2612 200.795 62.3691 205.923 62.3691 210.644C62.3691 225.901 56.6921 232.734 57.1104 240.562C57.7677 252.863 106.967 249.958 109.471 242.965C112.052 235.762 106.811 231.318 107.044 207.747C107.068 205.254 107.224 202.65 107.437 199.998L114.463 216.021C114.993 217.23 115.773 218.251 116.725 218.985C117.677 219.718 118.77 220.138 119.896 220.205C120.002 220.212 120.108 220.214 120.213 220.214C121.287 220.214 122.344 219.892 123.29 219.275C124.236 218.659 125.043 217.768 125.637 216.682L184 195.626L176.097 177.399Z" fill="#2CA68F"/>
<path d="M99.3858 158.771C99.1892 162.786 96.9285 168.693 89.9497 169.139C80.6497 169.73 73.4365 162.772 72.8921 158.676H72.9148C82.0711 158.676 94.0478 158.69 99.3858 158.771Z" fill="#E98862"/>
</svg>
