<svg width="1080" height="1080" viewBox="0 0 1080 1080" fill="none" xmlns="http://www.w3.org/2000/svg">
<g clip-path="url(#clip0_17_838)">
<path d="M356 305.965V316.678H311V305.965C311 304.648 311.391 303.386 312.085 302.455C312.78 301.524 313.721 301 314.703 301H352.295C353.278 301 354.22 301.523 354.914 302.454C355.609 303.385 356 304.648 356 305.965Z" fill="#262626"/>
<path d="M356 316.678V419.353C356 420.851 355.556 422.287 354.766 423.346C353.977 424.405 352.905 425 351.788 425H315.212C314.095 425 313.024 424.405 312.234 423.346C311.444 422.287 311 420.851 311 419.353V316.678H356Z" fill="#0CBC8B"/>
<path d="M348.482 343.046H318.52V401.483H348.482V343.046Z" fill="#FAFAFA"/>
<path d="M342.798 362.126H324.202C323.828 362.126 323.47 361.927 323.206 361.573C322.942 361.219 322.793 360.739 322.793 360.238C322.793 359.737 322.942 359.257 323.206 358.903C323.47 358.548 323.828 358.349 324.202 358.349H342.798C343.172 358.349 343.53 358.548 343.794 358.903C344.058 359.257 344.207 359.737 344.207 360.238C344.207 360.739 344.058 361.219 343.794 361.573C343.53 361.927 343.172 362.126 342.798 362.126Z" fill="#D7E8F4"/>
<path d="M342.798 370.143H324.202C324.013 370.151 323.826 370.108 323.65 370.016C323.474 369.925 323.313 369.787 323.178 369.611C323.043 369.435 322.935 369.225 322.861 368.992C322.788 368.759 322.75 368.509 322.75 368.256C322.75 368.003 322.788 367.752 322.861 367.52C322.935 367.287 323.043 367.076 323.178 366.9C323.313 366.724 323.474 366.586 323.65 366.495C323.826 366.403 324.013 366.36 324.202 366.368H342.798C342.987 366.36 343.174 366.403 343.35 366.495C343.526 366.586 343.687 366.724 343.822 366.9C343.957 367.076 344.065 367.287 344.139 367.52C344.212 367.752 344.25 368.003 344.25 368.256C344.25 368.509 344.212 368.759 344.139 368.992C344.065 369.225 343.957 369.435 343.822 369.611C343.687 369.787 343.526 369.925 343.35 370.016C343.174 370.108 342.987 370.151 342.798 370.143Z" fill="#D7E8F4"/>
<path d="M342.798 378.162H324.202C323.828 378.162 323.47 377.963 323.206 377.608C322.942 377.254 322.793 376.774 322.793 376.273C322.793 375.772 322.942 375.292 323.206 374.938C323.47 374.584 323.828 374.385 324.202 374.385H342.798C343.172 374.385 343.53 374.584 343.794 374.938C344.058 375.292 344.207 375.772 344.207 376.273C344.207 376.774 344.058 377.254 343.794 377.608C343.53 377.963 343.172 378.162 342.798 378.162Z" fill="#D7E8F4"/>
<path d="M338.947 386.178H328.059C327.87 386.186 327.682 386.143 327.506 386.052C327.331 385.961 327.17 385.823 327.035 385.647C326.899 385.471 326.792 385.26 326.718 385.027C326.645 384.794 326.607 384.544 326.607 384.291C326.607 384.038 326.645 383.788 326.718 383.555C326.792 383.322 326.899 383.111 327.035 382.935C327.17 382.759 327.331 382.621 327.506 382.53C327.682 382.439 327.87 382.396 328.059 382.404H338.955C339.143 382.396 339.331 382.439 339.507 382.53C339.683 382.621 339.843 382.759 339.979 382.935C340.114 383.111 340.222 383.322 340.295 383.555C340.369 383.788 340.407 384.038 340.407 384.291C340.407 384.544 340.369 384.794 340.295 385.027C340.222 385.26 340.114 385.471 339.979 385.647C339.843 385.823 339.683 385.961 339.507 386.052C339.331 386.143 339.143 386.186 338.955 386.178H338.947Z" fill="#D7E8F4"/>
<g opacity="0.5">
<path d="M440.11 830.05H348.09C347.36 830.05 346.77 830.64 346.77 831.37V855.11V878.85V902.59C346.77 903.32 347.36 903.91 348.09 903.91H440.11C440.84 903.91 441.43 903.32 441.43 902.59V878.85V855.11V831.37C441.43 830.65 440.83 830.05 440.11 830.05ZM349.41 856.43H438.79V877.53H349.41V856.43ZM349.41 832.69H438.79V853.79H349.41V832.69ZM438.79 901.26H349.41V880.16H438.79V901.26Z" fill="white"/>
<path d="M425.59 840.03C424.29 840.03 423.16 840.81 422.67 841.92H381.1C380.37 841.92 379.78 842.51 379.78 843.24C379.78 843.97 380.37 844.56 381.1 844.56H422.67C423.18 845.68 424.29 846.45 425.59 846.45C427.37 846.45 428.8 845.01 428.8 843.24C428.81 841.47 427.37 840.03 425.59 840.03ZM367.87 836.46C367.14 836.46 366.55 837.05 366.55 837.78V849.79C366.55 850.52 367.14 851.11 367.87 851.11C368.6 851.11 369.19 850.52 369.19 849.79V837.78C369.19 837.05 368.6 836.46 367.87 836.46ZM362.16 836.46C361.43 836.46 360.84 837.05 360.84 837.78V849.79C360.84 850.52 361.43 851.11 362.16 851.11C362.89 851.11 363.48 850.52 363.48 849.79V837.78C363.48 837.05 362.88 836.46 362.16 836.46ZM356.44 836.46C355.71 836.46 355.12 837.05 355.12 837.78V849.79C355.12 850.52 355.71 851.11 356.44 851.11C357.17 851.11 357.76 850.52 357.76 849.79V837.78C357.77 837.05 357.17 836.46 356.44 836.46ZM425.59 863.76C424.29 863.76 423.16 864.54 422.67 865.65H381.1C380.37 865.65 379.78 866.24 379.78 866.97C379.78 867.7 380.37 868.29 381.1 868.29H422.67C423.18 869.41 424.29 870.18 425.59 870.18C427.37 870.18 428.8 868.74 428.8 866.97C428.81 865.21 427.37 863.76 425.59 863.76ZM367.87 860.2C367.14 860.2 366.55 860.79 366.55 861.52V873.53C366.55 874.26 367.14 874.85 367.87 874.85C368.6 874.85 369.19 874.26 369.19 873.53V861.52C369.19 860.79 368.6 860.2 367.87 860.2ZM362.16 860.2C361.43 860.2 360.84 860.79 360.84 861.52V873.53C360.84 874.26 361.43 874.85 362.16 874.85C362.89 874.85 363.48 874.26 363.48 873.53V861.52C363.48 860.79 362.88 860.2 362.16 860.2ZM356.44 860.2C355.71 860.2 355.12 860.79 355.12 861.52V873.53C355.12 874.26 355.71 874.85 356.44 874.85C357.17 874.85 357.76 874.26 357.76 873.53V861.52C357.77 860.79 357.17 860.2 356.44 860.2ZM381.09 892.04H422.66C423.17 893.16 424.28 893.93 425.58 893.93C427.36 893.93 428.79 892.49 428.79 890.72C428.79 888.94 427.35 887.51 425.58 887.51C424.28 887.51 423.15 888.29 422.66 889.4H381.09C380.36 889.4 379.77 889.99 379.77 890.72C379.77 891.45 380.37 892.04 381.09 892.04ZM367.87 898.6C368.6 898.6 369.19 898.01 369.19 897.28V885.27C369.19 884.54 368.6 883.95 367.87 883.95C367.14 883.95 366.55 884.54 366.55 885.27V897.28C366.55 898.01 367.14 898.6 367.87 898.6ZM362.16 898.6C362.89 898.6 363.48 898.01 363.48 897.28V885.27C363.48 884.54 362.89 883.95 362.16 883.95C361.43 883.95 360.84 884.54 360.84 885.27V897.28C360.83 898.01 361.42 898.6 362.16 898.6ZM356.44 898.6C357.17 898.6 357.76 898.01 357.76 897.28V885.27C357.76 884.54 357.17 883.95 356.44 883.95C355.71 883.95 355.12 884.54 355.12 885.27V897.28C355.12 898.01 355.71 898.6 356.44 898.6Z" fill="white"/>
</g>
<path d="M172.889 622.9C172.629 622.9 172.359 622.85 172.109 622.73C171.159 622.3 170.739 621.18 171.169 620.23C172.499 617.3 173.909 614.3 175.359 611.3C175.809 610.36 176.939 609.97 177.879 610.42C178.819 610.87 179.209 612 178.759 612.94C177.329 615.91 175.929 618.89 174.609 621.8C174.299 622.49 173.609 622.9 172.889 622.9ZM185.999 596.45C185.699 596.45 185.389 596.38 185.109 596.23C184.189 595.74 183.839 594.59 184.339 593.67C187.439 587.88 190.709 582.08 194.049 576.43C194.579 575.53 195.739 575.23 196.639 575.77C197.539 576.3 197.829 577.46 197.299 578.36C193.979 583.97 190.739 589.72 187.669 595.47C187.329 596.09 186.679 596.45 185.999 596.45ZM206.059 562.53C205.709 562.53 205.349 562.43 205.029 562.22C204.159 561.65 203.909 560.48 204.479 559.61C208.059 554.11 211.799 548.6 215.609 543.25C216.219 542.4 217.389 542.2 218.239 542.81C219.089 543.42 219.289 544.59 218.679 545.44C214.899 550.75 211.189 556.21 207.639 561.67C207.289 562.23 206.679 562.53 206.059 562.53ZM228.909 530.42C228.509 530.42 228.099 530.29 227.749 530.02C226.929 529.38 226.779 528.19 227.419 527.37C231.449 522.19 235.639 517.02 239.879 512.01C240.549 511.21 241.749 511.11 242.539 511.79C243.339 512.46 243.439 513.66 242.759 514.45C238.549 519.42 234.389 524.55 230.399 529.69C230.029 530.17 229.469 530.42 228.909 530.42ZM254.359 500.36C253.899 500.36 253.439 500.19 253.079 499.86C252.309 499.15 252.259 497.96 252.969 497.19C257.409 492.37 262.019 487.57 266.669 482.93C267.409 482.19 268.599 482.19 269.339 482.93C270.079 483.67 270.079 484.86 269.339 485.6C264.729 490.21 260.159 494.97 255.749 499.75C255.369 500.15 254.869 500.36 254.359 500.36ZM282.229 472.53C281.719 472.53 281.209 472.32 280.839 471.92C280.129 471.15 280.189 469.96 280.949 469.25C285.779 464.81 290.779 460.41 295.789 456.18C296.589 455.51 297.779 455.61 298.449 456.4C299.119 457.2 299.019 458.39 298.229 459.06C293.259 463.26 288.309 467.62 283.509 472.02C283.139 472.36 282.679 472.53 282.229 472.53ZM312.309 447.12C311.749 447.12 311.189 446.87 310.819 446.39C310.179 445.57 310.329 444.38 311.159 443.74C316.349 439.72 321.689 435.76 327.029 431.96C327.879 431.36 329.059 431.55 329.659 432.41C330.259 433.26 330.059 434.44 329.209 435.04C323.909 438.81 318.609 442.74 313.459 446.73C313.119 446.99 312.719 447.12 312.309 447.12ZM344.409 424.32C343.789 424.32 343.189 424.02 342.819 423.46C342.249 422.58 342.499 421.41 343.379 420.85C348.879 417.28 354.529 413.77 360.179 410.43C361.079 409.9 362.239 410.2 362.769 411.09C363.299 411.99 362.999 413.15 362.109 413.68C356.509 416.99 350.899 420.47 345.449 424.01C345.119 424.22 344.759 424.32 344.409 424.32ZM378.279 404.28C377.609 404.28 376.949 403.92 376.609 403.28C376.119 402.36 376.459 401.22 377.379 400.72C383.159 397.62 389.089 394.6 394.979 391.74C395.919 391.29 397.049 391.68 397.499 392.62C397.949 393.56 397.559 394.69 396.619 395.14C390.769 397.97 384.889 400.97 379.159 404.04C378.889 404.2 378.579 404.28 378.279 404.28ZM413.709 387.14C412.979 387.14 412.279 386.71 411.979 386C411.569 385.04 412.009 383.93 412.959 383.52C418.979 380.92 425.129 378.4 431.249 376.05C432.219 375.68 433.319 376.16 433.689 377.14C434.059 378.11 433.579 379.21 432.599 379.58C426.529 381.91 420.419 384.4 414.459 386.99C414.209 387.09 413.959 387.14 413.709 387.14ZM450.429 373.04C449.639 373.04 448.909 372.54 448.639 371.75C448.309 370.76 448.839 369.69 449.829 369.36C456.049 367.27 462.389 365.28 468.679 363.46C469.679 363.17 470.729 363.75 471.019 364.75C471.309 365.75 470.729 366.8 469.729 367.09C463.489 368.9 457.199 370.87 451.029 372.94C450.839 373.01 450.629 373.04 450.429 373.04ZM740.859 370.41C740.669 370.41 740.479 370.38 740.289 370.32C734.079 368.37 727.739 366.52 721.459 364.84C720.449 364.57 719.859 363.53 720.129 362.53C720.399 361.52 721.439 360.93 722.439 361.2C728.779 362.9 735.169 364.76 741.429 366.73C742.429 367.04 742.979 368.1 742.669 369.1C742.399 369.89 741.659 370.41 740.859 370.41ZM488.199 362.09C487.349 362.09 486.579 361.51 486.369 360.65C486.119 359.64 486.739 358.61 487.759 358.37C494.119 356.81 500.609 355.37 507.029 354.08C508.049 353.87 509.049 354.54 509.249 355.56C509.459 356.58 508.789 357.58 507.769 357.78C501.399 359.06 494.969 360.49 488.649 362.03C488.499 362.07 488.349 362.09 488.199 362.09ZM702.819 360.19C702.679 360.19 702.539 360.18 702.409 360.14C696.059 358.72 689.599 357.41 683.179 356.25C682.149 356.06 681.469 355.08 681.659 354.06C681.849 353.03 682.819 352.35 683.849 352.54C690.309 353.71 696.829 355.02 703.229 356.46C704.249 356.69 704.889 357.7 704.659 358.72C704.469 359.6 703.689 360.19 702.819 360.19ZM526.749 354.36C525.839 354.36 525.029 353.69 524.889 352.76C524.729 351.73 525.429 350.76 526.459 350.6C532.919 349.59 539.499 348.7 546.009 347.95C547.039 347.83 547.979 348.58 548.099 349.61C548.219 350.64 547.469 351.58 546.439 351.7C539.979 352.44 533.449 353.32 527.039 354.32C526.939 354.35 526.839 354.36 526.749 354.36ZM664.069 353.2C663.979 353.2 663.899 353.19 663.809 353.18C659.929 352.64 655.969 352.15 652.049 351.71C649.499 351.42 646.899 351.15 644.329 350.9C643.289 350.8 642.529 349.88 642.629 348.84C642.729 347.8 643.649 347.04 644.689 347.14C647.279 347.39 649.899 347.66 652.469 347.95C656.419 348.39 660.409 348.89 664.329 349.43C665.359 349.57 666.089 350.53 665.939 351.56C665.809 352.51 664.999 353.2 664.069 353.2ZM565.829 349.91C564.849 349.91 564.019 349.15 563.949 348.16C563.879 347.12 564.659 346.22 565.699 346.14C572.239 345.67 578.889 345.34 585.439 345.15C586.489 345.13 587.349 345.94 587.379 346.98C587.409 348.02 586.589 348.89 585.549 348.92C579.039 349.11 572.459 349.44 565.959 349.9C565.919 349.91 565.869 349.91 565.829 349.91ZM624.869 349.43C624.839 349.43 624.799 349.43 624.769 349.43C618.269 349.07 611.669 348.85 605.169 348.77C604.129 348.76 603.289 347.9 603.309 346.86C603.319 345.83 604.169 345 605.199 345C605.209 345 605.219 345 605.219 345C611.779 345.08 618.429 345.31 624.979 345.67C626.019 345.73 626.819 346.62 626.759 347.66C626.699 348.65 625.869 349.43 624.869 349.43ZM768.919 380.21C768.689 380.21 768.459 380.17 768.239 380.08C765.429 378.99 762.429 377.87 759.079 376.66C758.099 376.3 757.589 375.22 757.949 374.24C758.309 373.26 759.389 372.75 760.369 373.11C763.749 374.33 766.769 375.46 769.599 376.56C770.569 376.94 771.059 378.03 770.679 379C770.389 379.75 769.679 380.21 768.919 380.21ZM427.259 630.63C427.109 630.63 426.969 630.61 426.819 630.58C425.809 630.34 425.179 629.32 425.419 628.3C426.169 625.16 426.999 621.94 427.869 618.73C428.149 617.72 429.179 617.13 430.189 617.41C431.199 617.69 431.789 618.72 431.509 619.73C430.639 622.91 429.829 626.09 429.079 629.18C428.879 630.05 428.109 630.63 427.259 630.63ZM435.609 602.22C435.399 602.22 435.189 602.19 434.979 602.11C433.999 601.76 433.479 600.69 433.819 599.7C436.009 593.46 438.449 587.21 441.069 581.13C441.479 580.17 442.589 579.73 443.549 580.14C444.509 580.55 444.949 581.66 444.539 582.62C441.959 588.62 439.549 594.78 437.389 600.94C437.119 601.74 436.389 602.22 435.609 602.22ZM451.269 565.87C450.979 565.87 450.679 565.8 450.409 565.66C449.479 565.18 449.119 564.04 449.599 563.12C452.629 557.24 455.899 551.39 459.329 545.72C459.869 544.83 461.029 544.54 461.919 545.08C462.809 545.62 463.099 546.78 462.559 547.67C459.179 553.26 455.949 559.04 452.959 564.84C452.609 565.5 451.949 565.87 451.269 565.87ZM471.749 532.01C471.369 532.01 470.999 531.9 470.669 531.67C469.819 531.07 469.609 529.89 470.209 529.04C474.009 523.63 478.049 518.28 482.219 513.14C482.879 512.33 484.069 512.2 484.879 512.86C485.689 513.52 485.819 514.71 485.159 515.52C481.049 520.6 477.059 525.88 473.309 531.22C472.929 531.73 472.349 532.01 471.749 532.01ZM496.669 501.26C496.209 501.26 495.749 501.09 495.379 500.75C494.619 500.04 494.569 498.84 495.279 498.08C499.789 493.23 504.519 488.48 509.339 483.96C510.099 483.25 511.299 483.28 512.009 484.05C512.719 484.81 512.689 486.01 511.919 486.72C507.159 491.18 502.489 495.87 498.039 500.66C497.679 501.06 497.169 501.26 496.669 501.26ZM525.539 474.19C524.989 474.19 524.449 473.95 524.079 473.5C523.419 472.69 523.539 471.5 524.349 470.84C529.469 466.66 534.809 462.59 540.209 458.77C541.059 458.17 542.239 458.37 542.839 459.22C543.439 460.07 543.239 461.25 542.389 461.85C537.059 465.62 531.799 469.63 526.739 473.76C526.379 474.05 525.959 474.19 525.539 474.19ZM557.829 451.32C557.189 451.32 556.569 451 556.219 450.41C555.679 449.52 555.959 448.36 556.849 447.81C562.499 444.37 568.339 441.08 574.209 438.03C575.139 437.55 576.279 437.91 576.759 438.84C577.239 439.77 576.879 440.91 575.949 441.39C570.159 444.39 564.389 447.64 558.809 451.04C558.509 451.23 558.169 451.32 557.829 451.32ZM592.959 433.11C592.229 433.11 591.529 432.68 591.229 431.97C590.819 431.01 591.249 429.9 592.209 429.49C598.279 426.86 604.519 424.41 610.749 422.2C611.729 421.85 612.809 422.37 613.159 423.35C613.509 424.33 612.989 425.41 612.009 425.76C605.859 427.94 599.699 430.36 593.709 432.95C593.469 433.06 593.209 433.11 592.959 433.11ZM630.259 419.92C629.429 419.92 628.669 419.37 628.439 418.54C628.159 417.53 628.749 416.49 629.749 416.21C636.119 414.44 642.639 412.87 649.119 411.55C650.139 411.34 651.139 412 651.349 413.02C651.559 414.04 650.899 415.04 649.879 415.25C643.479 416.56 637.049 418.11 630.759 419.85C630.599 419.9 630.429 419.92 630.259 419.92ZM669.029 411.98C668.099 411.98 667.289 411.29 667.159 410.34C667.019 409.31 667.749 408.36 668.779 408.22C673.779 407.55 678.879 407 683.929 406.58C685.489 406.45 687.049 406.34 688.609 406.23C689.639 406.16 690.549 406.95 690.619 407.99C690.689 409.03 689.899 409.93 688.859 410C687.319 410.1 685.779 410.22 684.239 410.34C679.259 410.75 674.229 411.29 669.289 411.96C669.189 411.97 669.109 411.98 669.029 411.98ZM728.309 410.08C728.259 410.08 728.219 410.08 728.169 410.08C721.669 409.62 715.049 409.38 708.509 409.37C707.469 409.37 706.619 408.52 706.619 407.48C706.619 406.44 707.469 405.59 708.509 405.59C715.139 405.6 721.839 405.84 728.429 406.31C729.469 406.38 730.249 407.29 730.179 408.33C730.119 409.32 729.289 410.08 728.309 410.08ZM757.789 413.7C757.679 413.7 757.569 413.69 757.459 413.67C754.199 413.1 750.959 412.58 747.819 412.15C746.789 412.01 746.069 411.05 746.209 410.02C746.349 408.99 747.309 408.27 748.339 408.41C751.519 408.85 754.809 409.37 758.109 409.95C759.139 410.13 759.819 411.11 759.639 412.14C759.479 413.05 758.689 413.7 757.789 413.7Z" fill="black"/>
<path d="M604.06 753.89L560.24 731.98V742.61H457.73V765.18H560.24V775.8L604.06 753.89Z" fill="#218879"/>
<path d="M457.73 797.7L501.55 819.61V808.99H604.06V786.41H501.55V775.8L457.73 797.7Z" fill="#218879"/>
<path opacity="0.15" d="M850.15 306.3C894.416 306.3 930.3 270.416 930.3 226.15C930.3 181.884 894.416 146 850.15 146C805.884 146 770 181.884 770 226.15C770 270.416 805.884 306.3 850.15 306.3Z" fill="#CE8A8A"/>
<path d="M294.96 950.29C294.96 950.29 294.86 952.77 293.91 953.44V950.29H294.96Z" fill="#FFE6E6"/>
<path d="M932.221 404.366H677.78V995H932.221V404.366Z" fill="#4A4A4A"/>
<path d="M932.221 404.366L983 376V944.09L932.221 994.989V404.366Z" fill="#333333"/>
<path d="M677.78 404.366L752.191 376H983L932.221 404.366H677.78Z" fill="#808080"/>
<path d="M911.122 432.177H698.89V481.221H911.122V432.177Z" fill="#666666"/>
<path d="M892.321 442.499H786.2V470.91H892.321V442.499Z" fill="#808080"/>
<path d="M758.16 466.209C763.435 466.209 767.711 461.951 767.711 456.698C767.711 451.446 763.435 447.188 758.16 447.188C752.886 447.188 748.609 451.446 748.609 456.698C748.609 461.951 752.886 466.209 758.16 466.209Z" fill="#2CA68F"/>
<path d="M727.242 466.209C732.517 466.209 736.793 461.951 736.793 456.698C736.793 451.446 732.517 447.188 727.242 447.188C721.967 447.188 717.691 451.446 717.691 456.698C717.691 461.951 721.967 466.209 727.242 466.209Z" fill="#7D7D7D"/>
<path d="M911.122 500.164H698.89V549.208H911.122V500.164Z" fill="#666666"/>
<path d="M892.321 510.475H786.2V538.886H892.321V510.475Z" fill="#808080"/>
<path d="M758.16 534.197C763.435 534.197 767.711 529.939 767.711 524.686C767.711 519.433 763.435 515.175 758.16 515.175C752.886 515.175 748.609 519.433 748.609 524.686C748.609 529.939 752.886 534.197 758.16 534.197Z" fill="#2CA68F"/>
<path d="M727.242 534.197C732.517 534.197 736.793 529.939 736.793 524.686C736.793 519.433 732.517 515.175 727.242 515.175C721.967 515.175 717.691 519.433 717.691 524.686C717.691 529.939 721.967 534.197 727.242 534.197Z" fill="#7D7D7D"/>
<path d="M911.122 568.152H698.89V617.196H911.122V568.152Z" fill="#666666"/>
<path d="M892.321 578.452H786.2V606.863H892.321V578.452Z" fill="#808080"/>
<path d="M758.16 602.174C763.435 602.174 767.711 597.916 767.711 592.663C767.711 587.41 763.435 583.152 758.16 583.152C752.885 583.152 748.609 587.41 748.609 592.663C748.609 597.916 752.885 602.174 758.16 602.174Z" fill="#2CA68F"/>
<path d="M727.242 602.174C732.517 602.174 736.793 597.916 736.793 592.663C736.793 587.41 732.517 583.152 727.242 583.152C721.967 583.152 717.691 587.41 717.691 592.663C717.691 597.916 721.967 602.174 727.242 602.174Z" fill="#7D7D7D"/>
<path d="M911.122 636.118H698.89V685.161H911.122V636.118Z" fill="#666666"/>
<path d="M892.321 646.44H786.2V674.85H892.321V646.44Z" fill="#808080"/>
<path d="M758.16 670.162C763.435 670.162 767.711 665.903 767.711 660.651C767.711 655.398 763.435 651.14 758.16 651.14C752.885 651.14 748.609 655.398 748.609 660.651C748.609 665.903 752.885 670.162 758.16 670.162Z" fill="#2CA68F"/>
<path d="M727.242 670.162C732.517 670.162 736.793 665.903 736.793 660.651C736.793 655.398 732.517 651.14 727.242 651.14C721.967 651.14 717.691 655.398 717.691 660.651C717.691 665.903 721.967 670.162 727.242 670.162Z" fill="#7D7D7D"/>
<path d="M911.122 704.105H698.89V753.149H911.122V704.105Z" fill="#666666"/>
<path d="M892.321 714.427H786.2V742.838H892.321V714.427Z" fill="#808080"/>
<path d="M758.16 738.138C763.435 738.138 767.711 733.88 767.711 728.627C767.711 723.374 763.435 719.116 758.16 719.116C752.885 719.116 748.609 723.374 748.609 728.627C748.609 733.88 752.885 738.138 758.16 738.138Z" fill="#2CA68F"/>
<path d="M727.242 738.138C732.517 738.138 736.793 733.88 736.793 728.627C736.793 723.374 732.517 719.116 727.242 719.116C721.967 719.116 717.691 723.374 717.691 728.627C717.691 733.88 721.967 738.138 727.242 738.138Z" fill="#7D7D7D"/>
<path d="M826.688 268.56L826.385 270.785L814.326 269.611C813.049 269.486 811.765 269.796 810.757 270.472C809.75 271.148 809.101 272.135 808.953 273.215L799.032 346.162C798.885 347.243 799.251 348.329 800.05 349.181C800.849 350.034 802.016 350.583 803.293 350.708L867.674 356.973C868.306 357.035 868.947 356.99 869.56 356.843C870.172 356.695 870.744 356.447 871.243 356.112C871.742 355.777 872.158 355.363 872.468 354.892C872.777 354.421 872.974 353.903 873.047 353.368L882.968 280.422C883.115 279.341 882.749 278.255 881.95 277.402C881.151 276.55 879.984 276.001 878.707 275.876L866.647 274.702L866.949 272.478C867.001 272.101 866.965 271.718 866.842 271.353C866.719 270.988 866.513 270.647 866.234 270.349C865.955 270.052 865.609 269.804 865.216 269.62C864.824 269.436 864.392 269.319 863.946 269.277L830.473 266.019C829.573 265.931 828.668 266.15 827.958 266.627C827.248 267.103 826.791 267.799 826.688 268.56Z" fill="#262626"/>
<path d="M813.253 274.81L803.647 345.442C803.509 346.455 804.368 347.371 805.566 347.488L866.331 353.402C867.529 353.518 868.612 352.791 868.75 351.778L878.356 281.145C878.494 280.132 877.635 279.216 876.437 279.1L815.672 273.186C814.474 273.069 813.391 273.796 813.253 274.81Z" fill="#FAFAFA"/>
<path d="M830.688 271.328L829.797 277.878C829.703 278.567 830.288 279.19 831.102 279.269L859.778 282.06C860.592 282.139 861.328 281.645 861.422 280.956L862.313 274.406C862.407 273.717 861.822 273.094 861.008 273.015L832.332 270.224C831.518 270.145 830.782 270.639 830.688 271.328Z" fill="#0CBC8B"/>
<path d="M827.365 331.356C826.824 331.304 826.335 331.632 826.273 332.089C826.211 332.546 826.599 332.959 827.139 333.012L862.264 336.43C862.805 336.483 863.294 336.155 863.356 335.698C863.418 335.241 863.03 334.827 862.489 334.775L827.365 331.356Z" fill="#9EBCEA"/>
<path d="M837.745 337.243C837.204 337.19 836.715 337.518 836.653 337.976C836.591 338.433 836.979 338.846 837.52 338.899L861.614 341.244C862.155 341.296 862.644 340.968 862.706 340.511C862.768 340.054 862.38 339.64 861.839 339.588L837.745 337.243Z" fill="#9EBCEA"/>
<path d="M816.831 298.949C816.29 298.897 815.802 299.225 815.739 299.682C815.677 300.139 816.065 300.552 816.606 300.605L850.097 303.864C850.638 303.917 851.126 303.589 851.189 303.132C851.251 302.675 850.863 302.261 850.322 302.209L816.831 298.949Z" fill="#9EBCEA"/>
<path d="M816.176 303.761C815.635 303.709 815.146 304.037 815.084 304.494C815.022 304.951 815.41 305.365 815.951 305.417L839.642 307.723C840.183 307.776 840.672 307.447 840.734 306.99C840.796 306.533 840.408 306.12 839.867 306.067L816.176 303.761Z" fill="#9EBCEA"/>
<path d="M815.522 308.576C814.981 308.523 814.492 308.851 814.43 309.308C814.368 309.765 814.756 310.179 815.297 310.231L852.054 313.809C852.595 313.861 853.084 313.533 853.146 313.076C853.208 312.619 852.82 312.205 852.279 312.153L815.522 308.576Z" fill="#9EBCEA"/>
<path d="M814.87 313.389C814.329 313.336 813.84 313.664 813.778 314.122C813.716 314.579 814.104 314.992 814.644 315.045L843.235 317.827C843.776 317.88 844.265 317.552 844.327 317.095C844.389 316.637 844.001 316.224 843.461 316.171L814.87 313.389Z" fill="#9EBCEA"/>
<path d="M823.847 293.817L825.301 291.726L823.798 291.58L822.804 293.034C822.74 292.896 821.213 289.685 821.213 289.685C821.607 289.586 821.96 289.394 822.227 289.13C822.516 288.825 822.688 288.453 822.722 288.064C822.777 287.755 822.744 287.439 822.625 287.143C822.52 286.898 822.344 286.678 822.112 286.505C821.869 286.329 821.587 286.195 821.283 286.11C820.94 286.013 820.585 285.947 820.226 285.913L817.649 285.662L816.826 291.711L818.437 291.867L818.734 289.687L819.622 289.774L821.44 293.587L819.939 295.87L821.605 296.032L822.599 294.47C822.67 294.608 823.205 296.19 823.205 296.19L824.767 296.344L823.847 293.817ZM819.713 288.683L818.879 288.602L819.111 286.904L819.943 286.986C820.282 287.001 820.61 287.095 820.891 287.256C820.997 287.337 821.076 287.44 821.12 287.555C821.164 287.669 821.171 287.792 821.141 287.91C821.133 288.038 821.091 288.162 821.017 288.273C820.943 288.384 820.839 288.479 820.714 288.551C820.408 288.69 820.055 288.736 819.713 288.683Z" fill="#9EBCEA"/>
<path d="M862.666 303.41C862.125 303.358 861.636 303.686 861.574 304.143C861.512 304.6 861.9 305.013 862.441 305.066L868.167 305.623C868.708 305.676 869.197 305.348 869.259 304.891C869.321 304.434 868.933 304.02 868.392 303.968L862.666 303.41Z" fill="#9EBCEA"/>
<path d="M862.008 308.221C861.468 308.169 860.979 308.497 860.916 308.954C860.854 309.411 861.242 309.825 861.783 309.877L867.51 310.434C868.051 310.487 868.54 310.159 868.602 309.702C868.664 309.245 868.276 308.831 867.735 308.779L862.008 308.221Z" fill="#9EBCEA"/>
<path d="M861.355 313.035C860.814 312.982 860.325 313.31 860.263 313.767C860.201 314.225 860.589 314.638 861.13 314.691L866.856 315.248C867.397 315.301 867.886 314.973 867.948 314.515C868.011 314.058 867.623 313.645 867.082 313.592L861.355 313.035Z" fill="#9EBCEA"/>
<path d="M860.702 317.848C860.161 317.796 859.672 318.124 859.61 318.581C859.548 319.038 859.936 319.451 860.477 319.504L866.203 320.061C866.744 320.114 867.233 319.786 867.295 319.329C867.357 318.872 866.969 318.458 866.428 318.406L860.702 317.848Z" fill="#9EBCEA"/>
<path d="M303.731 505.368L310.738 536.85L295.834 580.669L271.821 533.589L275.153 506.276L303.731 505.368Z" fill="#FDB4B4"/>
<path d="M312.04 535.219H270.579V584.541H312.04V535.219Z" fill="#218879"/>
<path d="M294.99 521.226C310.628 521.226 323.305 508.745 323.305 493.349C323.305 477.952 310.628 465.471 294.99 465.471C279.353 465.471 266.676 477.952 266.676 493.349C266.676 508.745 279.353 521.226 294.99 521.226Z" fill="#FDB4B4"/>
<path d="M270.344 514.078C270.344 514.078 249.238 475.701 268.267 457.233C287.297 438.765 302.573 450.934 302.573 450.934L311.296 450.587C311.296 450.587 313.115 457.346 316.048 453.687C318.982 450.028 324.283 463.353 324.283 463.353C334.122 480.799 300.014 484.708 300.014 484.708C300.014 484.708 302.477 492.432 299.974 494.05C297.47 495.668 290.782 501.753 290.782 501.753L284.795 506.205L281.237 500.868C281.237 500.868 277.521 497.979 275.643 499.193C273.766 500.406 276.348 516.37 276.348 516.37L270.344 514.078Z" fill="#2E2E41"/>
<path d="M236.376 796.414L225.551 955.402L252.163 956.29L287.346 797.747L236.376 796.414Z" fill="#2E2E41"/>
<path d="M300.878 795.526L290.052 954.514L316.665 955.402L351.848 796.859L300.878 795.526Z" fill="#2E2E41"/>
<path d="M229.858 832.739L244.025 659.579L222.299 569.411C220.426 556.007 229.003 543.325 242.242 539.866L263.501 534.313L272.911 525.049L294.313 571.583L307.68 525.084L318.104 532.549L349.023 545.979L349.009 546.293L344.049 655.216L355.12 831.197L354.629 831.203L229.858 832.739Z" fill="#E8E9EA"/>
<path d="M314.956 953.595L322.662 976.244C322.662 976.244 352.809 980.28 353.278 989.468C353.747 998.657 312.307 993.338 288.041 994.539C263.776 995.74 283.975 969.868 283.975 969.868L286.561 955L314.956 953.595Z" fill="#2E2E41"/>
<path d="M252.027 951.965L259.733 974.614C259.733 974.614 289.879 978.649 290.348 987.838C290.817 997.027 249.377 991.708 225.112 992.909C200.846 994.109 221.045 968.237 221.045 968.237L223.631 953.37L252.027 951.965Z" fill="#2E2E41"/>
<path d="M214.432 740.775C214.105 736.31 214.869 731.832 216.661 727.717L210.91 681.268L233.438 679.22L236.846 726.558C239.11 730.439 240.397 734.797 240.599 739.269C241.262 750.453 235.941 759.853 228.714 760.268C221.487 760.683 215.092 751.956 214.432 740.775Z" fill="#FDB4B4"/>
<path d="M357.121 747.593C356.844 743.124 357.658 738.655 359.495 734.56L354.258 688.051L376.808 686.245L379.691 733.617C381.912 737.522 383.151 741.894 383.304 746.368C383.843 757.559 378.418 766.9 371.187 767.238C363.956 767.576 357.658 758.78 357.121 747.593Z" fill="#FDB4B4"/>
<path d="M210.817 722.148L210.741 721.747L199 659.722L212.873 558.722C214.111 549.705 222.289 543.209 231.511 543.935C236.327 544.315 240.648 546.564 243.679 550.269C246.71 553.974 248.021 558.61 247.371 563.324L236.93 639.072L243.504 720.093L210.817 722.148Z" fill="#E8E9EA"/>
<path d="M350.163 720.692L326.557 565.553C325.33 561.004 326.048 556.243 328.59 552.198C331.131 548.152 335.137 545.394 339.868 544.43C348.921 542.587 357.859 548.035 360.222 556.831L382.899 718.744L350.163 720.692Z" fill="#E8E9EA"/>
<path d="M295.006 585.764C296.606 585.764 297.904 584.487 297.904 582.911C297.904 581.335 296.606 580.057 295.006 580.057C293.405 580.057 292.107 581.335 292.107 582.911C292.107 584.487 293.405 585.764 295.006 585.764Z" fill="#D6D7D8"/>
<path d="M295.006 607.368C296.606 607.368 297.904 606.09 297.904 604.515C297.904 602.939 296.606 601.661 295.006 601.661C293.405 601.661 292.107 602.939 292.107 604.515C292.107 606.09 293.405 607.368 295.006 607.368Z" fill="#D6D7D8"/>
<path d="M295.006 628.972C296.606 628.972 297.904 627.694 297.904 626.119C297.904 624.543 296.606 623.265 295.006 623.265C293.405 623.265 292.107 624.543 292.107 626.119C292.107 627.694 293.405 628.972 295.006 628.972Z" fill="#D6D7D8"/>
<path d="M295.006 650.576C296.606 650.576 297.904 649.298 297.904 647.722C297.904 646.146 296.606 644.869 295.006 644.869C293.405 644.869 292.107 646.146 292.107 647.722C292.107 649.298 293.405 650.576 295.006 650.576Z" fill="#D6D7D8"/>
<path d="M295.006 672.179C296.606 672.179 297.904 670.902 297.904 669.326C297.904 667.75 296.606 666.473 295.006 666.473C293.405 666.473 292.107 667.75 292.107 669.326C292.107 670.902 293.405 672.179 295.006 672.179Z" fill="#D6D7D8"/>
<path d="M295.006 693.783C296.606 693.783 297.904 692.506 297.904 690.93C297.904 689.354 296.606 688.077 295.006 688.077C293.405 688.077 292.107 689.354 292.107 690.93C292.107 692.506 293.405 693.783 295.006 693.783Z" fill="#D6D7D8"/>
<path d="M295.006 715.387C296.606 715.387 297.904 714.11 297.904 712.534C297.904 710.958 296.606 709.68 295.006 709.68C293.405 709.68 292.107 710.958 292.107 712.534C292.107 714.11 293.405 715.387 295.006 715.387Z" fill="#D6D7D8"/>
<path d="M295.006 736.991C296.606 736.991 297.904 735.713 297.904 734.138C297.904 732.562 296.606 731.284 295.006 731.284C293.405 731.284 292.107 732.562 292.107 734.138C292.107 735.713 293.405 736.991 295.006 736.991Z" fill="#D6D7D8"/>
<ellipse cx="554.5" cy="289" rx="21.5" ry="17" fill="#FF4242"/>
<ellipse cx="537" cy="311" rx="13" ry="10" fill="#FD5D76"/>
<ellipse cx="571.5" cy="304.5" rx="18.5" ry="14.5" fill="#FF98A8"/>
<line x1="536.5" y1="303" x2="536.5" y2="319" stroke="#C65365"/>
<line x1="568.5" y1="294" x2="568.5" y2="315" stroke="#ED657A"/>
<line x1="550.5" y1="274" x2="550.5" y2="301" stroke="#E40B2D"/>
<rect x="837" y="182" width="18" height="55" fill="#D9D9D9"/>
<path d="M845.5 255L825.148 228.75H865.852L845.5 255Z" fill="#D9D9D9"/>
<path d="M522 265.711L533 258V286.742L522 292V265.711Z" fill="#01031D"/>
<rect x="408" y="265" width="114" height="27" fill="#000541"/>
<path d="M422.031 258H533L520.883 265H408L422.031 258Z" fill="#01031D"/>
<rect x="454" y="265" width="33" height="27" fill="#71BEEE"/>
<path d="M483.093 276H457.907C457.402 276 456.916 275.789 456.559 275.414C456.201 275.039 456 274.53 456 274C456 273.47 456.201 272.961 456.559 272.586C456.916 272.211 457.402 272 457.907 272H483.093C483.598 272 484.084 272.211 484.441 272.586C484.799 272.961 485 273.47 485 274C485 274.53 484.799 275.039 484.441 275.414C484.084 275.789 483.598 276 483.093 276Z" fill="#D7E8F4"/>
<path d="M477.487 285H457.513C457.112 285 456.727 284.789 456.443 284.414C456.159 284.039 456 283.53 456 283C456 282.47 456.159 281.961 456.443 281.586C456.727 281.211 457.112 281 457.513 281H477.487C477.888 281 478.273 281.211 478.557 281.586C478.841 281.961 479 282.47 479 283C479 283.53 478.841 284.039 478.557 284.414C478.273 284.789 477.888 285 477.487 285Z" fill="#D7E8F4"/>
<path d="M466.507 258H502L487.803 265H454L466.507 258Z" fill="#293463"/>
<rect x="515" y="518" width="41" height="11" rx="5.5" fill="#9FCEFD"/>
<path d="M558.726 529.5H588.473C592.322 529.5 594.728 533.667 592.803 537C591.91 538.547 590.26 539.5 588.473 539.5H558.726C555.289 539.5 552.876 536.111 554.002 532.863C554.699 530.85 556.596 529.5 558.726 529.5Z" fill="#9FCEFD" stroke="#9FCEFD"/>
<rect x="534.5" y="498.5" width="41" height="19" rx="9.5" fill="#9FCEFD" stroke="#9FCEFD"/>
<rect x="556.5" y="509.5" width="41" height="19" rx="9.5" fill="#9FCEFD" stroke="#9FCEFD"/>
<rect x="576.5" y="517.5" width="50" height="16" rx="8" transform="rotate(-90 576.5 517.5)" fill="#9FCEFD" stroke="#9FCEFD"/>
<rect x="502" y="414" width="44" height="95" rx="5" fill="#C9FFEA"/>
<rect x="502" y="445" width="44" height="42" fill="#120240"/>
<rect x="504" y="403" width="40" height="11" rx="3" fill="#120240"/>
<line x1="531.5" y1="518" x2="531.5" y2="529" stroke="#148AFF"/>
<line x1="578" y1="497.5" x2="591" y2="497.5" stroke="#148AFF"/>
<line x1="554.5" y1="498" x2="554.5" y2="518" stroke="#148AFF"/>
<line x1="576.5" y1="509" x2="576.5" y2="529" stroke="#148AFF"/>
</g>
<defs>
<clipPath id="clip0_17_838">
<rect width="1080" height="1080" fill="white"/>
</clipPath>
</defs>
</svg>
