<svg width="284" height="281" viewBox="0 0 284 281" fill="none" xmlns="http://www.w3.org/2000/svg">
<g clip-path="url(#clip0_111_550)">
<path d="M281.279 252.349C277.765 259.616 271.288 265.022 264.498 269.416C257.076 274.215 249.081 278.069 240.698 280.889C239.548 281.283 238.388 281.65 237.222 282H190.073C189.744 281.644 189.431 281.272 189.136 280.889C185.978 276.861 184.271 271.7 184.89 266.644C185.688 260.149 190.642 254.182 197.058 252.804C203.48 251.421 210.799 255.238 212.752 261.488C213.823 249.443 215.062 236.898 221.489 226.642C227.313 217.359 237.395 210.714 248.318 209.525C254.743 208.859 261.226 210.041 266.997 212.931C267.527 213.198 268.052 213.475 268.565 213.764C272.028 215.72 275.085 218.317 277.569 221.415C284.381 230.004 286.05 242.487 281.279 252.349Z" fill="#F2F2F2"/>
<path d="M268.219 214.526C246.294 232.308 228.968 255.065 217.695 280.889C217.533 281.256 217.371 281.628 217.215 282H214.995C215.151 281.628 215.307 281.256 215.469 280.889C217.617 275.889 219.988 270.977 222.593 266.194C228.138 256.022 234.66 246.41 242.07 237.493C249.475 228.565 257.746 220.386 266.763 213.076C266.834 213.018 266.913 212.969 266.997 212.931C267.154 212.863 267.324 212.831 267.495 212.838C267.665 212.845 267.832 212.89 267.983 212.97C268.134 213.051 268.265 213.164 268.365 213.301C268.466 213.439 268.534 213.597 268.565 213.764C268.581 213.911 268.557 214.058 268.496 214.192C268.436 214.326 268.34 214.441 268.219 214.526Z" fill="white"/>
<path d="M93.2899 163.109C93.8407 162.567 94.2653 161.911 94.5339 161.187C94.8025 160.464 94.9086 159.69 94.8446 158.921C94.7805 158.153 94.5481 157.407 94.1635 156.738C93.7789 156.068 93.2515 155.491 92.6186 155.046L89.9427 137.479L78.9513 140.924L84.9728 156.596C84.2931 157.705 84.0453 159.023 84.2764 160.301C84.5074 161.579 85.2013 162.729 86.2265 163.532C87.2517 164.334 88.537 164.735 89.8388 164.657C91.1406 164.579 92.3685 164.028 93.2899 163.109Z" fill="#FFB8B8"/>
<path d="M81.9668 154.845L75.1866 123.312C74.5261 120.292 74.6553 117.153 75.562 114.196C76.4686 111.24 78.1224 108.565 80.3648 106.427C89.0435 98.0985 100.198 87.6011 104.051 84.8858C107.667 82.3189 112.043 81.0327 116.479 81.2326L116.572 81.2428L122.404 86.7316L109.699 107.559L90.4113 119.594L92.5577 150.5L81.9668 154.845Z" fill="#218879"/>
<path d="M105.712 111.994H77.2588C76.0264 111.994 75.0272 112.989 75.0272 114.216C75.0272 115.444 76.0264 116.439 77.2588 116.439H105.712C106.945 116.439 107.944 115.444 107.944 114.216C107.944 112.989 106.945 111.994 105.712 111.994Z" fill="#CCCCCC"/>
<path d="M105.712 160.329H77.2588C76.0264 160.329 75.0272 161.324 75.0272 162.551C75.0272 163.779 76.0264 164.774 77.2588 164.774H105.712C106.945 164.774 107.944 163.779 107.944 162.551C107.944 161.324 106.945 160.329 105.712 160.329Z" fill="#CCCCCC"/>
<path d="M91.7643 281.444C91.4855 281.444 91.2167 281.34 91.011 281.153C90.8053 280.966 90.6775 280.708 90.6529 280.432L76.4284 114.315C76.4023 114.021 76.4943 113.729 76.6843 113.503C76.8742 113.277 77.1465 113.136 77.4413 113.11C77.7361 113.084 78.0292 113.175 78.2561 113.365C78.483 113.554 78.6252 113.825 78.6514 114.118L91.7483 267.597L104.473 114.121C104.486 113.976 104.527 113.834 104.594 113.705C104.662 113.575 104.754 113.46 104.866 113.366C104.978 113.272 105.108 113.201 105.248 113.157C105.387 113.113 105.535 113.097 105.681 113.11C105.827 113.122 105.969 113.163 106.099 113.23C106.229 113.298 106.344 113.39 106.439 113.501C106.533 113.613 106.604 113.742 106.648 113.881C106.693 114.02 106.709 114.167 106.696 114.312L92.8761 280.429C92.8521 280.706 92.7247 280.964 92.5192 281.152C92.3136 281.34 92.0448 281.444 91.7657 281.444H91.7643Z" fill="#CCCCCC"/>
<path d="M123.696 74.5834C131.781 74.5834 138.335 68.0568 138.335 60.0058C138.335 51.9548 131.781 45.4282 123.696 45.4282C115.611 45.4282 109.057 51.9548 109.057 60.0058C109.057 68.0568 115.611 74.5834 123.696 74.5834Z" fill="#FFB8B8"/>
<path d="M80.0685 274.782L73.1069 272.572L78.3524 244.78L88.6279 248.041L80.0685 274.782Z" fill="#FFB8B8"/>
<path d="M79.681 280.932L57.2693 273.818L57.4544 273.238C58.1673 271.02 59.7343 269.175 61.8118 268.106C63.8893 267.037 66.3077 266.833 68.5365 267.537L82.5449 271.984L79.681 280.932Z" fill="#2F2E41"/>
<path d="M130.72 274.638H123.413L119.936 246.572H130.72V274.638Z" fill="#FFB8B8"/>
<path d="M109.6 281.117H132.007V272.837H117.862C115.672 272.839 113.572 273.707 112.023 275.249C110.474 276.792 109.603 278.883 109.6 281.064V281.117Z" fill="#2F2E41"/>
<path d="M130.506 265.53L128.04 265.164C120.56 264.054 120.113 263.987 118.925 263.468C118.319 263.203 118.276 259.194 118.64 236.658C118.907 220.116 119.24 199.53 118.594 188.478C118.568 188.041 118.394 187.627 118.102 187.301C117.81 186.975 117.416 186.757 116.984 186.681C116.552 186.605 116.107 186.676 115.721 186.883C115.334 187.09 115.029 187.421 114.854 187.822C109.289 200.62 99.9516 229.262 93.7728 248.215C91.6236 254.808 89.926 260.015 88.852 263.136C88.6446 263.726 88.2236 264.218 87.6713 264.516C87.119 264.814 86.475 264.896 85.8652 264.746C80.7805 263.48 81.1205 262.942 73.8783 261.077C73.2517 260.918 72.7112 260.523 72.37 259.976C72.0287 259.43 71.9131 258.772 72.0474 258.142C73.3573 251.991 97.3286 152.25 99.1635 142.769C99.2255 142.444 99.3516 142.135 99.5343 141.859C99.717 141.584 99.9528 141.347 100.228 141.162C100.503 140.978 100.812 140.849 101.138 140.784C101.463 140.72 101.798 140.72 102.123 140.784C107.52 141.867 110.804 143.016 116.137 144.127C121.892 145.326 127.843 146.566 133.648 147.723C134.226 147.838 134.743 148.154 135.109 148.615C136.545 150.421 138.675 151.435 140.93 152.508C142.45 153.232 139.006 153.167 140.329 154.211C145.691 158.437 137.981 244.262 133.322 263.646C133.173 264.253 132.801 264.783 132.281 265.131C131.76 265.479 131.127 265.622 130.506 265.53Z" fill="#2F2E41"/>
<path d="M129.935 72.7615C129.081 69.1502 133.401 61.3797 132.547 57.7684C131.968 55.3228 126.193 56.9853 124.845 54.8611C123.497 52.7369 121.24 51.016 118.717 50.9878C115.817 50.9554 112.963 53.0976 110.216 52.1717C107.439 51.2356 106.551 47.4477 107.779 44.796C109.007 42.1442 111.652 40.4544 114.266 39.1304C118.717 36.8756 123.899 35.229 128.662 36.7208C131.542 37.6226 133.95 39.5767 136.28 41.4878C138.404 43.2299 140.563 45.0115 142.048 47.3186C144.957 51.8381 144.781 57.9275 142.295 62.6908C139.81 67.454 135.281 70.9495 130.29 72.9785" fill="#2F2E41"/>
<path d="M93.9905 156.802C95.5705 154.173 97.9692 141.858 100.927 121.187C102.941 107.076 104.696 92.7386 105.567 85.4146C105.634 84.8219 105.852 84.2559 106.199 83.7699C106.547 83.2839 107.012 82.8937 107.553 82.6359C108.118 82.3644 108.679 82.1074 109.238 81.865C116.447 78.742 123.754 77.7074 130.954 78.7892C138.142 79.8887 144.885 82.9483 150.435 87.6291L150.501 87.6906L150.517 87.7785C150.549 87.9413 153.572 104.167 147.379 115.129C141.271 125.945 141.2 154.59 141.2 154.878V155.246L140.844 155.145C131.342 152.441 94.6356 157.171 94.2659 157.22L93.6943 157.294L93.9905 156.802Z" fill="#218879"/>
<path d="M149.229 119.217H120.776C119.543 119.217 118.544 120.212 118.544 121.439C118.544 122.666 119.543 123.661 120.776 123.661H149.229C150.461 123.661 151.46 122.666 151.46 121.439C151.46 120.212 150.461 119.217 149.229 119.217Z" fill="#CCCCCC"/>
<path d="M149.229 167.552H120.776C119.543 167.552 118.544 168.547 118.544 169.774C118.544 171.001 119.543 171.996 120.776 171.996H149.229C150.461 171.996 151.46 171.001 151.46 169.774C151.46 168.547 150.461 167.552 149.229 167.552Z" fill="#CCCCCC"/>
<path d="M135.281 282C135.002 282 134.733 281.896 134.528 281.708C134.322 281.521 134.194 281.263 134.17 280.987L119.945 121.537C119.932 121.392 119.948 121.245 119.992 121.106C120.036 120.967 120.107 120.838 120.201 120.726C120.295 120.614 120.41 120.521 120.54 120.454C120.67 120.386 120.812 120.345 120.958 120.332C121.104 120.319 121.251 120.335 121.391 120.379C121.531 120.422 121.66 120.493 121.773 120.587C121.885 120.68 121.978 120.795 122.046 120.925C122.114 121.054 122.155 121.195 122.168 121.341L135.265 268.152L147.99 121.343C148.015 121.05 148.157 120.778 148.383 120.588C148.61 120.399 148.902 120.306 149.197 120.332C149.492 120.357 149.765 120.498 149.955 120.724C150.146 120.949 150.239 121.241 150.213 121.534L136.393 280.984C136.369 281.261 136.241 281.519 136.036 281.707C135.83 281.895 135.562 281.999 135.282 282H135.281Z" fill="#CCCCCC"/>
<path d="M126.094 168.256C125.928 167.502 125.929 166.722 126.098 165.969C126.268 165.216 126.601 164.51 127.074 163.899C127.547 163.288 128.149 162.788 128.837 162.434C129.526 162.08 130.283 161.881 131.057 161.85L142.889 148.551L150.237 157.39L136.63 167.289C136.596 168.587 136.084 169.828 135.193 170.776C134.302 171.724 133.092 172.313 131.793 172.433C130.495 172.552 129.197 172.192 128.147 171.423C127.096 170.653 126.366 169.526 126.094 168.256Z" fill="#FFB8B8"/>
<path d="M138.361 160.582L157.027 135.798L147.401 115.259L148.1 90.8991L155.991 89.4473L156.075 89.489C159.908 91.7217 162.88 95.1691 164.515 99.2808C166.268 103.645 169.904 118.493 172.645 130.181C173.361 133.189 173.29 136.329 172.438 139.302C171.585 142.275 169.981 144.98 167.779 147.158L144.881 169.96L138.361 160.582Z" fill="#218879"/>
<path d="M54.7364 275.108L80.2734 281.231C80.7688 281.362 81.2945 281.315 81.7589 281.099C82.2233 280.883 82.5968 280.512 82.8145 280.05L104.751 221.969C104.848 221.746 104.898 221.505 104.899 221.262C104.899 221.019 104.849 220.778 104.753 220.555C104.643 220.304 104.482 220.078 104.281 219.891C104.08 219.703 103.843 219.559 103.585 219.465L84.3844 212.164C84.081 212.048 83.7564 211.997 83.432 212.015C83.1076 212.033 82.7906 212.119 82.5018 212.267C82.2508 212.391 82.0293 212.566 81.8522 212.782C81.6751 212.998 81.5465 213.249 81.475 213.518L81.4745 213.521L67.9229 264.711L67.7216 264.723C67.6437 264.728 59.875 265.254 56.3815 269.431C55.7295 270.213 55.2468 271.121 54.9637 272.098C54.6807 273.075 54.6033 274.1 54.7364 275.108Z" fill="#CCCCCC"/>
<path d="M276.721 281.444C276.722 281.517 276.707 281.59 276.68 281.657C276.652 281.725 276.611 281.786 276.559 281.838C276.507 281.889 276.445 281.93 276.377 281.958C276.31 281.986 276.237 282 276.164 282H0.557906C0.40994 282 0.268043 281.941 0.163415 281.837C0.0587873 281.733 0 281.592 0 281.444C0 281.297 0.0587873 281.156 0.163415 281.051C0.268043 280.947 0.40994 280.889 0.557906 280.889H276.164C276.237 280.888 276.31 280.903 276.377 280.93C276.445 280.958 276.507 280.999 276.559 281.051C276.611 281.102 276.652 281.164 276.68 281.231C276.707 281.299 276.722 281.371 276.721 281.444Z" fill="#3F3D56"/>
<path d="M73.2309 242.549L73.1134 243.654L96.3958 246.11L96.5133 245.004L73.2309 242.549Z" fill="#B3B3B3"/>
<path d="M71.2011 251.704L70.7432 252.717L89.4792 261.112L89.9371 260.098L71.2011 251.704Z" fill="#B3B3B3"/>
<path d="M98.9636 237.222L76.88 229.938L77.338 228.925L99.4216 236.208L98.9636 237.222Z" fill="#B3B3B3"/>
<path d="M101.195 232.222L79.1117 221.605L79.5697 220.591L101.653 231.208L101.195 232.222Z" fill="#B3B3B3"/>
<path d="M69.2534 260.404L68.5288 261.249L84.4511 274.793L85.1757 273.948L69.2534 260.404Z" fill="#B3B3B3"/>
<path d="M64.733 264.894L63.7168 265.353L70.11 279.392L71.1261 278.933L64.733 264.894Z" fill="#B3B3B3"/>
<path d="M214.426 265.557V12.3244C214.426 8.90483 214.491 5.47797 214.426 2.05883C214.423 1.90934 214.426 1.75955 214.426 1.61002C214.426 -0.534897 211.078 -0.538448 211.078 1.61002V254.843C211.078 258.263 211.013 261.689 211.078 265.109C211.081 265.258 211.078 265.408 211.078 265.557C211.078 267.702 214.426 267.706 214.426 265.557Z" fill="#F2F2F2"/>
<path d="M232.939 72.3865H192.769C191.808 72.3854 190.886 72.0045 190.206 71.3275C189.527 70.6506 189.144 69.7327 189.143 68.7752V20.1625C189.144 19.2051 189.527 18.2872 190.206 17.6102C190.886 16.9332 191.808 16.5524 192.769 16.5513H232.939C233.9 16.5524 234.822 16.9332 235.502 17.6102C236.182 18.2872 236.564 19.2051 236.565 20.1625V68.7752C236.564 69.7327 236.182 70.6506 235.502 71.3275C234.822 72.0045 233.9 72.3854 232.939 72.3865Z" fill="#F2F2F2"/>
</g>
<defs>
<clipPath id="clip0_111_550">
<rect width="284" height="282" fill="white"/>
</clipPath>
</defs>
</svg>
