<svg width="15" height="15" viewBox="0 0 25 25" fill="none" xmlns="http://www.w3.org/2000/svg">
<g clip-path="url(#clip0_93_69)">
<path fill-rule="evenodd" clip-rule="evenodd" d="M3.04822 0.523213C2.71143 0.197931 2.26035 0.017941 1.79214 0.0220096C1.32393 0.0260782 0.876054 0.21388 0.544968 0.544966C0.213882 0.876052 0.0260803 1.32393 0.0220117 1.79214C0.0179431 2.26035 0.197933 2.71142 0.523215 3.04821L9.975 12.5L0.523215 21.9518C0.352661 22.1165 0.216622 22.3136 0.123034 22.5314C0.0294468 22.7493 -0.0198143 22.9836 -0.0218747 23.2207C-0.0239351 23.4578 0.0212465 23.693 0.111034 23.9124C0.200821 24.1319 0.333416 24.3313 0.501081 24.4989C0.668747 24.6666 0.868125 24.7992 1.08758 24.889C1.30704 24.9788 1.54218 25.0239 1.77929 25.0219C2.01639 25.0198 2.25072 24.9706 2.46858 24.877C2.68644 24.7834 2.88349 24.6473 3.04822 24.4768L12.5 15.025L21.9518 24.4768C22.2886 24.8021 22.7397 24.9821 23.2079 24.978C23.6761 24.9739 24.1239 24.7861 24.455 24.455C24.7861 24.1239 24.9739 23.6761 24.978 23.2079C24.9821 22.7396 24.8021 22.2886 24.4768 21.9518L15.025 12.5L24.4768 3.04821C24.8021 2.71142 24.9821 2.26035 24.978 1.79214C24.9739 1.32393 24.7861 0.876052 24.455 0.544966C24.1239 0.21388 23.6761 0.0260782 23.2079 0.0220096C22.7397 0.017941 22.2886 0.197931 21.9518 0.523213L12.5 9.975L3.04822 0.523213Z" fill="#F51D2C"/>
</g>
<defs>
<clipPath id="clip0_93_69">
<rect width="25" height="25" fill="white"/>
</clipPath>
</defs>
</svg>
