<svg width="31" height="31" viewBox="0 0 31 31" fill="none" xmlns="http://www.w3.org/2000/svg">
<path fill-rule="evenodd" clip-rule="evenodd" d="M4.65785 0.627862C4.2537 0.237523 3.71241 0.0215353 3.15056 0.0264177C2.58871 0.0313 2.05126 0.256662 1.65396 0.653965C1.25665 1.05127 1.03129 1.58872 1.02641 2.15057C1.02153 2.71242 1.23751 3.25371 1.62785 3.65786L12.97 15L1.62785 26.3421C1.42319 26.5398 1.25994 26.7763 1.14764 27.0377C1.03533 27.2991 0.976217 27.5803 0.973744 27.8649C0.971272 28.1494 1.02549 28.4316 1.13323 28.6949C1.24098 28.9583 1.40009 29.1975 1.60129 29.3987C1.80249 29.5999 2.04174 29.759 2.30509 29.8668C2.56844 29.9745 2.85061 30.0287 3.13514 30.0263C3.41967 30.0238 3.70085 29.9647 3.96229 29.8524C4.22373 29.7401 4.46018 29.5768 4.65785 29.3721L16 18.03L27.3421 29.3721C27.7463 29.7625 28.2876 29.9785 28.8494 29.9736C29.4113 29.9687 29.9487 29.7433 30.346 29.346C30.7433 28.9487 30.9687 28.4113 30.9736 27.8494C30.9785 27.2876 30.7625 26.7463 30.3721 26.3421L19.03 15L30.3721 3.65786C30.7625 3.25371 30.9785 2.71242 30.9736 2.15057C30.9687 1.58872 30.7433 1.05127 30.346 0.653965C29.9487 0.256662 29.4113 0.0313 28.8494 0.0264177C28.2876 0.0215353 27.7463 0.237523 27.3421 0.627862L16 11.97L4.65785 0.627862Z" fill="#218879"/>
</svg>
