<svg width="30" height="32" viewBox="0 0 30 32" fill="none" xmlns="http://www.w3.org/2000/svg">
<path d="M28.4883 25.5705C27.7679 23.8643 26.7226 22.3145 25.4105 21.0074C24.1024 19.6965 22.5528 18.6513 20.8473 17.9296C20.8321 17.922 20.8168 17.9181 20.8015 17.9105C23.1805 16.1922 24.727 13.3932 24.727 10.2352C24.727 5.00379 20.4884 0.765198 15.257 0.765198C10.0255 0.765198 5.78695 5.00379 5.78695 10.2352C5.78695 13.3932 7.33347 16.1922 9.71243 17.9143C9.69715 17.922 9.68188 17.9258 9.66661 17.9334C7.95589 18.6551 6.42083 19.69 5.10343 21.0112C3.79254 22.3193 2.74738 23.8689 2.02568 25.5743C1.31666 27.244 0.934266 29.0341 0.899204 30.8478C0.898185 30.8885 0.905334 30.9291 0.920229 30.967C0.935124 31.005 0.957464 31.0396 0.985933 31.0687C1.0144 31.0979 1.04842 31.1211 1.08599 31.1369C1.12356 31.1528 1.16392 31.1609 1.20469 31.1609H3.49582C3.66384 31.1609 3.79749 31.0272 3.80131 30.863C3.87768 27.9151 5.06143 25.1543 7.154 23.0617C9.31912 20.8966 12.1945 19.7052 15.257 19.7052C18.3195 19.7052 21.1948 20.8966 23.3599 23.0617C25.4525 25.1543 26.6363 27.9151 26.7126 30.863C26.7165 31.0311 26.8501 31.1609 27.0181 31.1609H29.3092C29.35 31.1609 29.3904 31.1528 29.4279 31.1369C29.4655 31.1211 29.4995 31.0979 29.528 31.0687C29.5565 31.0396 29.5788 31.005 29.5937 30.967C29.6086 30.9291 29.6158 30.8885 29.6147 30.8478C29.5765 29.0225 29.1985 27.2469 28.4883 25.5705ZM15.257 16.8031C13.5043 16.8031 11.8546 16.1196 10.6136 14.8786C9.37258 13.6375 8.68906 11.9879 8.68906 10.2352C8.68906 8.4825 9.37258 6.83288 10.6136 5.59185C11.8546 4.35082 13.5043 3.6673 15.257 3.6673C17.0097 3.6673 18.6593 4.35082 19.9003 5.59185C21.1414 6.83288 21.8249 8.4825 21.8249 10.2352C21.8249 11.9879 21.1414 13.6375 19.9003 14.8786C18.6593 16.1196 17.0097 16.8031 15.257 16.8031Z" fill="#CECDCD"/>
</svg>
